<svg xmlns="http://www.w3.org/2000/svg" viewBox="0 0 199.37 192.95"><defs><style>.cls-1{isolation:isolate;}.cls-2{fill:#f5f5f5;mix-blend-mode:multiply;}.cls-3{fill:#06a385;}.cls-4{fill:#0fb797;}.cls-5{fill:#4fe6b6;}.cls-6{fill:#79e6c3;}.cls-7{fill:#ffc0a6;}.cls-8{fill:#ffb191;}.cls-9{fill:#fae7db;}.cls-10{fill:#d1785a;}.cls-11{fill:#f2f2f2;}.cls-12{fill:#e6e6e6;}.cls-13{fill:#2a86ad;}.cls-14,.cls-38{fill:#fff;}.cls-15{fill:#54bee8;}.cls-16{fill:#de954c;}.cls-17{fill:#ffd5c6;}.cls-18{fill:#c5f4f5;}.cls-19{fill:#a1dded;}.cls-20{fill:#fdd437;}.cls-21{fill:#f7c41f;}.cls-22{fill:#fded64;}.cls-23{fill:#fdf293;}.cls-24{fill:#402bb7;}.cls-25{fill:#331fa3;}.cls-26{fill:#7b72e6;}.cls-27{fill:#a29ce6;}.cls-28{fill:#da2a33;}.cls-29{fill:#be2630;}.cls-30{fill:#ff584e;}.cls-31{fill:#ff847d;}.cls-32{fill:#ff830a;}.cls-33{fill:#ff7400;}.cls-34{fill:#ff9a33;}.cls-35{fill:#ffbb6a;}.cls-36{fill:#3dc7d4;}.cls-37{fill:#00a7af;}.cls-38{opacity:0.28;}.cls-39{fill:#15b0c1;}</style></defs><g class="cls-1"><g id="Слой_1" data-name="Слой 1"><ellipse class="cls-2" cx="99.69" cy="173.22" rx="99.69" ry="12.43"/><polygon class="cls-3" points="78.95 189.89 92.81 186.89 88.86 178.3 79.36 178.5 76.85 187.42 78.95 189.89"/><path class="cls-4" d="M688.49,461.42a12.34,12.34,0,0,0-1.49-.16l-2.9-.22c-2.71-.19-5.43-.36-8.15-.53L668.1,460l-2.42-.15a7.7,7.7,0,0,0-1,0c-1.25.08-2.51.24-3.75.38a44.73,44.73,0,0,0-5,.74c-.54.13-.43.53-.06.73a.63.63,0,0,0,.56.3c2.32.19,4.61.5,6.94.64s4.66.33,7,.52,4.64.34,7,.49a17.42,17.42,0,0,0,5.87-.27c1-.3,2.06-.56,3.13-.78.39-.08.79-.16,1.18-.22l.5-.07c.06,0,.37,0,.21,0C689,462.28,689.27,461.57,688.49,461.42Z" transform="translate(-583.23 -288.56)"/><path class="cls-3" d="M689.37,470.9a28.35,28.35,0,0,1-.14,5.14,1.86,1.86,0,0,1-1.11,1.61,59.34,59.34,0,0,1-8.55,1.57,1.09,1.09,0,0,1-1-.42,1,1,0,0,1-.81-.51,10.26,10.26,0,0,1-1-5.38c0-2,.14-3.9.13-5.86,0-1.17-.27-2.51.45-3.48.91-1.23,3.21-1.25,5.13-1.43,1.13-.1,2.26-.23,3.36-.38.77-.1,2.84-.41,3.12-.16s.33,3.11.4,3.9C689.5,467.32,689.31,469.1,689.37,470.9Z" transform="translate(-583.23 -288.56)"/><path class="cls-5" d="M680.45,466.45a32.36,32.36,0,0,0-.27-3.67c0-.33-.37-.49-.73-.52l-.18,0c-6.42-.23-12.83-.74-19.25-1.1-1.19-.07-2.48-.23-3.67-.2-.59,0-1,.21-1.06.62-.44,2,0,4.28-.16,6.31-.1,2.67-.38,5.33-.33,8a4.2,4.2,0,0,0,.06,1.37c.34.88,2.37.89,3.44,1,1.33.1,2.61.18,3.87.25,0-.33,0-.66.05-1s.06-.83.1-1.25.1-.85.17-1.27.16-.84.27-1.25a8,8,0,0,1,.39-1.17,5.57,5.57,0,0,1,.53-1,4.23,4.23,0,0,1,.71-.87,4.09,4.09,0,0,1,.9-.64,4.16,4.16,0,0,1,1.13-.37,5.25,5.25,0,0,1,1.37-.05,7,7,0,0,1,1.51.3,3.85,3.85,0,0,1,1.13.61,3.61,3.61,0,0,1,.81.89,5.49,5.49,0,0,1,.53,1.09,9.17,9.17,0,0,1,.32,1.25c.08.45.13.9.17,1.35s.06.93.07,1.39,0,.91,0,1.36,0,.74.06,1.11l1.45.05c1.77.06,3.55.14,5.31.26.53,0,1-.26,1-.61C680.43,474.56,680.56,470.5,680.45,466.45Zm-24.15-4.18v0C656.24,462.29,656.24,462.27,656.3,462.27Z" transform="translate(-583.23 -288.56)"/><path class="cls-6" d="M679.45,462.26l-.18,0c-6.42-.23-12.83-.74-19.25-1.1-1.19-.07-2.48-.23-3.67-.2-.59,0-1,.21-1.06.62-.44,2,0,4.28-.16,6.31-.1,2.67-.38,5.33-.33,8a4.2,4.2,0,0,0,.06,1.37c.34.88,2.37.89,3.44,1l.6.05a22.42,22.42,0,0,1,3.55-5.54c.45-.53.94-1,1.45-1.54a3.71,3.71,0,0,1,.49-.56,3.51,3.51,0,0,1,.65-.5,29.84,29.84,0,0,1,2.46-1.92,34.37,34.37,0,0,1,3-1.93c1.06-.6,2.17-1.16,3.32-1.69s2.4-1,3.65-1.51c.71-.26,1.43-.52,2.16-.76Zm-23.15,0v0C656.24,462.29,656.24,462.27,656.3,462.27Z" transform="translate(-583.23 -288.56)"/><path class="cls-7" d="M728.37,416.45c8.4,1.48,12.15.34,13.32-3.72s-1.5-8.72-11.15-12.33c-8.12-3-16.13-6-18.25,1.33S717.87,414.59,728.37,416.45Z" transform="translate(-583.23 -288.56)"/><path class="cls-7" d="M744.94,466.29c8.51.65,10.94,6.32,13.75,2.18,2.38-3.51-.33-14-12-20.81-7.48-4.38-17.23-3.64-19.35,3.73S728.14,465,744.94,466.29Z" transform="translate(-583.23 -288.56)"/><path class="cls-7" d="M656.28,404.74c-9.13,7.57-14.31,9.49-18.8,6.05s-2.81-13.22,6.31-27.65c6.25-9.89,17.44-15.15,25.57-8.92S667.7,395.3,656.28,404.74Z" transform="translate(-583.23 -288.56)"/><path class="cls-7" d="M702.41,402.24c9.9,6.54,15.25,7.9,19.35,4s1.38-13.44-9.23-26.81c-7.28-9.17-19-13.2-26.37-6.14S690.06,394.07,702.41,402.24Z" transform="translate(-583.23 -288.56)"/><path class="cls-8" d="M730.58,400.32c-2.56-.95-5.1-1.9-7.45-2.53-1.21-4.76-4.66-11-10.56-18.44a28,28,0,0,0-9.53-7.8c2.67,1.66,6.77,6,8.9,8.68a50.14,50.14,0,0,1,9.37,17.86,12.74,12.74,0,0,0-3.12,2.32,9.8,9.8,0,0,0-2.79,4.33c0,.16.18.31.3.17.53-.6.95-1.3,1.45-1.92a17.2,17.2,0,0,1,1.77-1.85,15.24,15.24,0,0,1,2-1.59l.78-.47c2.32.63,4.81,1.56,7.32,2.5,9.64,3.61,12.32,8.26,11.15,12.33a5.91,5.91,0,0,1-1.11,2.18,5.27,5.27,0,0,0,2.68-3.44C742.9,408.59,740.22,403.93,730.58,400.32Z" transform="translate(-583.23 -288.56)"/><path class="cls-7" d="M711.45,413.44c-2.62-20.89-16.27-45.62-30.87-45.62s-28.26,24.73-30.87,45.62c-3.14,25.15-.45,39.42,30.87,39.42S714.59,438.59,711.45,413.44Z" transform="translate(-583.23 -288.56)"/><path class="cls-8" d="M670.66,409.14c-3.41,0-6.82.06-10.24-.07-.24,0-.26.33,0,.41a15.76,15.76,0,0,0,10.37.19A.27.27,0,0,0,670.66,409.14Z" transform="translate(-583.23 -288.56)"/><path class="cls-8" d="M697.72,409.14c-3.42,0-6.83.06-10.24-.07-.25,0-.27.33-.06.41a15.76,15.76,0,0,0,10.37.19A.27.27,0,0,0,697.72,409.14Z" transform="translate(-583.23 -288.56)"/><path class="cls-8" d="M710.17,406.87A57.74,57.74,0,0,0,706,394.81a10.13,10.13,0,0,0-.53-4.93,12.17,12.17,0,0,0-2.12-4.46c-.12-.14-.34,0-.3.17.39,1.55,1,3,1.43,4.56.22.88.34,1.79.5,2.69-.12-.22-.24-.45-.37-.67-.71-1.25-1.43-2.5-2.25-3.68a10.84,10.84,0,0,0-2.82-3.13.15.15,0,0,0-.22.16,14.35,14.35,0,0,0,1.36,3.36c.53,1.16,1.14,2.28,1.68,3.43,1,2.29,2.07,4.61,2.95,7s1.6,4.81,2.26,7.27,1.09,4.94,1.58,7.43c.54,2.79.91,5.6,1.39,8.39.06.35.66.36.71,0A41.77,41.77,0,0,0,710.17,406.87Z" transform="translate(-583.23 -288.56)"/><path class="cls-9" d="M648.71,413.7c-3.55,28.52,3.75,39.75,31.87,39.75,26.52,0,35.29-10.35,31.8-38a.68.68,0,0,0-.88-.56C694.15,420.15,656.59,417.3,648.71,413.7Z" transform="translate(-583.23 -288.56)"/><path class="cls-7" d="M721.89,459.93c8.25,1.14,15.64.67,17.36-4.93s-.79-14.14-9.13-20.29c-9.1-7.42-16.45-11.89-23.1-10.56-3.5.7-7.39,1.43-10.66,7.3-1.4,2.51-1.78,5.05-2.37,7.14C690.19,452.11,702.61,457.29,721.89,459.93Z" transform="translate(-583.23 -288.56)"/><path class="cls-8" d="M759.13,466c-2.82,4.15-5.24-1.53-13.75-2.18-8.34-.64-13.27-2.5-15.86-5.11a9.13,9.13,0,0,1-.22-2,9.46,9.46,0,0,1,1.33-4.95.12.12,0,0,0-.19-.15,6.94,6.94,0,0,0-1.7,2.24,8.39,8.39,0,0,0-.71,2.75,7.92,7.92,0,0,0,0,1.38,50.65,50.65,0,0,1-5.7-.49c-17.74-2.44-29.67-7-28.51-18.25-3.23,13,9.1,18.1,28.07,20.7a46,46,0,0,0,6.53.5c2.37,3,7.41,5.16,16.52,5.86,8.51.65,10.94,6.32,13.75,2.18a5.67,5.67,0,0,0,.79-3.11A4.48,4.48,0,0,1,759.13,466Z" transform="translate(-583.23 -288.56)"/><path class="cls-7" d="M639.81,459.34c-8.25,1.13-15.64.66-17.37-4.94s.8-14.14,9.14-20.29c9.52-7.76,15.91-11.47,23.77-10.19,3.27.53,6.42,1.84,9.4,7.19C675.18,449.85,662.07,456.28,639.81,459.34Z" transform="translate(-583.23 -288.56)"/><path class="cls-8" d="M663.35,428.91a23.58,23.58,0,0,0-2.83-2.93,11.77,11.77,0,0,0-6.11-2.06c-1.5,1.58,1.45,12.07,0,18s-7.15,13.31-17.93,14.79c-5.15.71-10,.79-13.27-.61,2.59,4,9.25,4.29,16.6,3.28C662.07,456.28,675.63,449.76,663.35,428.91Z" transform="translate(-583.23 -288.56)"/><path class="cls-7" d="M621.52,465.23c-8.66.87-12,5.94-13.7,2s-1.45-8.61,7.85-18.51c6.26-6.66,17-7.19,20-.15S638.28,463.55,621.52,465.23Z" transform="translate(-583.23 -288.56)"/><path class="cls-8" d="M636,449.61c1.11,5.83-1.63,11.37-15.35,12.74-8.52.85-11.91,5.77-13.61,2.24a9.25,9.25,0,0,0,.75,2.69c1.66,3.89,5-1.18,13.69-2C637.47,463.63,638.56,456.39,636,449.61Z" transform="translate(-583.23 -288.56)"/><path class="cls-7" d="M642.06,319c2-18.81,19.83-32.36,39.88-30.25s34.69,19.07,32.72,37.88A32.51,32.51,0,0,1,711.32,338c2.67-1.37,5.51-1.42,7.39.16,2.81,2.37,2.41,7.49-.91,11.43-3.19,3.78-7.9,5.11-10.76,3.11C704.36,368,689.39,378.77,672.66,377c-17.42-1.84-30.14-16.57-28.43-32.92,0-.18,0-.37.07-.55a27,27,0,0,0-.94-11.45A32.26,32.26,0,0,1,642.06,319Z" transform="translate(-583.23 -288.56)"/><path class="cls-10" d="M707,344.25a11.81,11.81,0,0,1,3.49-3.15c2.16-1.27,6.25-2.38,7.84.32a.3.3,0,0,1-.38.4c-2.36-1.21-4.86-.53-6.91,1a12,12,0,0,0-1.91,1.78l.63.07a12.26,12.26,0,0,1,2.56.37.28.28,0,0,1,0,.51,5.08,5.08,0,0,1-2.56.38,6.15,6.15,0,0,1-1.49-.19q-.4.63-.75,1.29a4.13,4.13,0,0,1-1.06,1.53.57.57,0,0,1-.87-.2C705.11,347,706.2,345.32,707,344.25Z" transform="translate(-583.23 -288.56)"/><path class="cls-11" d="M648.68,341.1c0,4.47,3.06,8.13,7,8.17s7.08-3.54,7.13-8-3.06-8.12-7-8.17S648.73,336.64,648.68,341.1Z" transform="translate(-583.23 -288.56)"/><path class="cls-12" d="M655.77,333.09a7,7,0,0,1,.81.07c-3.51.42-6.27,3.81-6.32,8s2.64,7.61,6.14,8.11a5.49,5.49,0,0,1-.81,0c-3.89,0-7-3.7-7-8.17S651.88,333.05,655.77,333.09Z" transform="translate(-583.23 -288.56)"/><path class="cls-13" d="M650.47,343.93a5.21,5.21,0,1,0,5.26-5.15A5.2,5.2,0,0,0,650.47,343.93Z" transform="translate(-583.23 -288.56)"/><path d="M652.45,345.23a3.15,3.15,0,1,0,3.18-3.11A3.14,3.14,0,0,0,652.45,345.23Z" transform="translate(-583.23 -288.56)"/><path class="cls-14" d="M651.26,339a1.64,1.64,0,0,1,1.74-1.16,1.73,1.73,0,0,1,1.38,1.18,1.45,1.45,0,0,1-.61,1.89,1.81,1.81,0,0,1-1.89,0A1.66,1.66,0,0,1,651.26,339Z" transform="translate(-583.23 -288.56)"/><path class="cls-14" d="M652.91,342.82a.83.83,0,0,1,.09-.16h0a.57.57,0,0,1,.18-.28v0a.86.86,0,0,1,.85-.21.89.89,0,0,1,.6.62,0,0,0,0,1,0,0,1.07,1.07,0,0,1,0,.25.91.91,0,0,1-.21.57,1,1,0,0,1-1,.37.89.89,0,0,1-.51-.4A.85.85,0,0,1,652.91,342.82Z" transform="translate(-583.23 -288.56)"/><path class="cls-14" d="M658.51,335.52c.76-.28,1.5.31,2,.85s.87,1.36.37,1.92a.26.26,0,0,1-.24.06c-.5-.17-.78-.8-1.09-1.18s-.89-.75-1.16-1.28A.26.26,0,0,1,658.51,335.52Z" transform="translate(-583.23 -288.56)"/><path d="M650.21,335.75c1-2.2,4-3,6.26-2.69a7.07,7.07,0,0,1,5.54,4.18.07.07,0,0,1-.12.07c-1.53-1.66-3.14-3.19-5.47-3.55s-4.24.7-5.92,2.22A.19.19,0,0,1,650.21,335.75Z" transform="translate(-583.23 -288.56)"/><path class="cls-15" d="M660.41,342.45a5.9,5.9,0,0,1,.15,1.62c0,.74-1.19.73-1.15,0a4.77,4.77,0,0,0-.11-1.31C659.13,342,660.24,341.73,660.41,342.45Z" transform="translate(-583.23 -288.56)"/><path class="cls-15" d="M659.08,345.62c.09-.18.17-.36.26-.53a.58.58,0,0,1,.79-.2.59.59,0,0,1,.2.79l-.26.53a.58.58,0,0,1-.79.2A.59.59,0,0,1,659.08,345.62Z" transform="translate(-583.23 -288.56)"/><path class="cls-15" d="M651.06,342.69c.06-.14.11-.29.16-.43a.63.63,0,0,1,.27-.35.61.61,0,0,1,.44-.05.59.59,0,0,1,.4.72c-.05.14-.1.29-.16.43a.57.57,0,0,1-.27.34.61.61,0,0,1-.44.06A.6.6,0,0,1,651.06,342.69Z" transform="translate(-583.23 -288.56)"/><path class="cls-11" d="M678.09,341.44c-.05,4.46,3.07,8.12,6.95,8.17s7.09-3.55,7.14-8-3.06-8.13-6.95-8.17S678.14,337,678.09,341.44Z" transform="translate(-583.23 -288.56)"/><path class="cls-12" d="M685.19,333.43a5.52,5.52,0,0,1,.81.06c-3.52.42-6.28,3.81-6.33,8s2.64,7.61,6.15,8.11a7.34,7.34,0,0,1-.81.05c-3.89-.05-7-3.71-7-8.17S681.3,333.38,685.19,333.43Z" transform="translate(-583.23 -288.56)"/><path class="cls-13" d="M679.89,344.26a5.2,5.2,0,1,0,5.26-5.15A5.2,5.2,0,0,0,679.89,344.26Z" transform="translate(-583.23 -288.56)"/><path d="M681.86,345.56a3.15,3.15,0,1,0,3.19-3.11A3.15,3.15,0,0,0,681.86,345.56Z" transform="translate(-583.23 -288.56)"/><path class="cls-14" d="M680.68,339.36a1.64,1.64,0,0,1,1.74-1.16,1.74,1.74,0,0,1,1.38,1.18,1.46,1.46,0,0,1-.62,1.9,1.81,1.81,0,0,1-1.88,0A1.64,1.64,0,0,1,680.68,339.36Z" transform="translate(-583.23 -288.56)"/><path class="cls-14" d="M682.32,343.16a1,1,0,0,1,.1-.17h0a.75.75,0,0,1,.18-.28h0a.86.86,0,0,1,.85-.22.89.89,0,0,1,.6.62,0,0,0,0,0,0,0,2.13,2.13,0,0,1,0,.25,1,1,0,0,1-.21.57,1,1,0,0,1-.55.37.91.91,0,0,1-.49,0,.92.92,0,0,1-.51-.4A.86.86,0,0,1,682.32,343.16Z" transform="translate(-583.23 -288.56)"/><path class="cls-14" d="M687.93,335.86c.76-.28,1.49.3,2,.84s.86,1.37.36,1.92a.26.26,0,0,1-.24.06c-.49-.17-.78-.79-1.08-1.18s-.89-.75-1.16-1.28A.25.25,0,0,1,687.93,335.86Z" transform="translate(-583.23 -288.56)"/><path d="M679.63,336.08c1-2.2,4-3,6.26-2.69a7.1,7.1,0,0,1,5.54,4.18.07.07,0,0,1-.12.08c-1.54-1.66-3.14-3.2-5.47-3.56s-4.25.7-5.93,2.22A.18.18,0,0,1,679.63,336.08Z" transform="translate(-583.23 -288.56)"/><path class="cls-15" d="M689.83,342.79a6.24,6.24,0,0,1,.15,1.61c0,.74-1.19.73-1.16,0a4.47,4.47,0,0,0-.11-1.31C688.54,342.36,689.66,342.06,689.83,342.79Z" transform="translate(-583.23 -288.56)"/><path class="cls-15" d="M688.5,346c.08-.18.17-.35.25-.53a.58.58,0,1,1,1,.59c-.08.18-.17.36-.25.53a.57.57,0,0,1-.79.2A.59.59,0,0,1,688.5,346Z" transform="translate(-583.23 -288.56)"/><path class="cls-15" d="M680.48,343l.16-.43a.57.57,0,0,1,.27-.34.61.61,0,0,1,.44-.06.6.6,0,0,1,.4.72c-.06.14-.11.29-.16.43a.57.57,0,0,1-.72.4A.59.59,0,0,1,680.48,343Z" transform="translate(-583.23 -288.56)"/><path class="cls-10" d="M663.92,354a5.12,5.12,0,0,1-1.31-2.6c-.29-1.74.83-4.08,2.78-4.47a.18.18,0,0,1,.19.29,6.1,6.1,0,0,0-1.39,2,4.2,4.2,0,0,0-.14,2.14,3.8,3.8,0,0,0,1,1.89c.4.41,1.21.88,1.32,1.45a.26.26,0,0,1-.13.3C665.5,355.4,664.41,354.53,663.92,354Z" transform="translate(-583.23 -288.56)"/><path class="cls-10" d="M677.55,365.9a2.11,2.11,0,0,1,2.11.31c.25.19,0,.61-.31.46a1.65,1.65,0,0,0-1.53,0c-.48.21-.65.71-1.07.95a.23.23,0,0,1-.33-.11C676.11,366.83,677,366.12,677.55,365.9Z" transform="translate(-583.23 -288.56)"/><path class="cls-16" d="M691.19,328.05a15.52,15.52,0,0,0-6.12-1.83.87.87,0,0,1,.18-1.73,16.66,16.66,0,0,1,6.57,1.94C692.79,327,692.17,328.58,691.19,328.05Z" transform="translate(-583.23 -288.56)"/><path class="cls-16" d="M648.91,327.92a5.31,5.31,0,0,1,5.3-3.12.87.87,0,0,1-.18,1.73,3.52,3.52,0,0,0-3.5,2C650.07,329.57,648.45,328.94,648.91,327.92Z" transform="translate(-583.23 -288.56)"/><path class="cls-16" d="M661.43,304.57a10.47,10.47,0,0,1,2.82-2c1-.5,2-.93,3-1.37a62.51,62.51,0,0,0,6-2.54,10.41,10.41,0,0,0,4.26-4.11,6.79,6.79,0,0,0,.83-2.59,12.6,12.6,0,0,1,.1-2.76.29.29,0,0,1,.37-.17c1,.34,1.26,1.51,1.43,2.44a8.09,8.09,0,0,1-.28,3.42,10.16,10.16,0,0,1-4.28,5.48,23.76,23.76,0,0,1-6.74,3c-1.22.35-2.48.6-3.7.95-.56.16-1.11.39-1.68.53s-1.27.26-1.9.45C661.33,305.34,661.2,304.8,661.43,304.57Z" transform="translate(-583.23 -288.56)"/><path class="cls-16" d="M658.67,299.23a7.47,7.47,0,0,1,3.72-2.93c1.68-.75,3.47-1.31,5.2-1.95,1.52-.56,3.09-1.05,4.56-1.71a10,10,0,0,0,1.77-1,3.6,3.6,0,0,0,1.5-1.59c0-.09.16-.05.16,0a5.46,5.46,0,0,1-.35,1.89,4.58,4.58,0,0,1-1.34,1.53,17.3,17.3,0,0,1-4.3,2.2c-3.48,1.36-6.93,2.81-10.42,4.14A.41.41,0,0,1,658.67,299.23Z" transform="translate(-583.23 -288.56)"/><path class="cls-16" d="M664.57,292.61a9.06,9.06,0,0,1,2.75-1.05c.94-.32,1.84-.61,2.79-.88.12,0,.19.14.1.21a10.77,10.77,0,0,1-2.64,1.55,5.5,5.5,0,0,1-2.84.71A.31.31,0,0,1,664.57,292.61Z" transform="translate(-583.23 -288.56)"/><path class="cls-16" d="M672.3,304.55a38.81,38.81,0,0,0,5.47-1.78,9.4,9.4,0,0,0,4-2.9,9.17,9.17,0,0,0,1.89-4.62,9.53,9.53,0,0,0-.11-2.61,10.82,10.82,0,0,0-.35-1.47,2.62,2.62,0,0,1-.27-1,.2.2,0,0,1,.28-.17,4.39,4.39,0,0,1,1.44,2.32,9.85,9.85,0,0,1,.54,2.9,9.73,9.73,0,0,1-6.29,9.39c-2.16.77-4.34.42-6.56.24A.15.15,0,0,1,672.3,304.55Z" transform="translate(-583.23 -288.56)"/><path class="cls-16" d="M686.75,290.54a.15.15,0,0,1,.13-.1c1.11-.12,1.92,1.87,2.27,2.68.5,1.16,1,2.78.43,4a.33.33,0,0,1-.6,0c-.56-1.1-.57-2.46-1-3.62a10.74,10.74,0,0,0-.84-1.7A1.64,1.64,0,0,1,686.75,290.54Z" transform="translate(-583.23 -288.56)"/><path class="cls-10" d="M680.74,360c-1,.13-1.49,1.08-2.24,1.65a9.65,9.65,0,0,1-2.34,1.32,10.35,10.35,0,0,1-2.62.64c-.95.11-1.92.08-2.86.19a.3.3,0,0,0-.17.51c1.7,1.27,4.27,1,6.16.39a10.09,10.09,0,0,0,2.88-1.53c.79-.6,2-1.48,1.87-2.59A.65.65,0,0,0,680.74,360Z" transform="translate(-583.23 -288.56)"/><path class="cls-8" d="M699.76,295.35c8.77,7.46,13.72,21.54,12.45,32.35A33,33,0,0,1,708.55,339a10.68,10.68,0,0,1,2.77-1.07,36,36,0,0,0,3.34-11.29c1.32-12.55-4.76-24.27-14.9-31.31Z" transform="translate(-583.23 -288.56)"/><path class="cls-8" d="M704.93,351.26C702.18,365.62,686.7,376.59,670,375a34.71,34.71,0,0,1-12.81-3.73A33.16,33.16,0,0,0,672.66,377c16.65,1.75,31.59-9.16,34.38-24.37A14.25,14.25,0,0,1,704.93,351.26Z" transform="translate(-583.23 -288.56)"/><path class="cls-8" d="M717.64,337.73a7.76,7.76,0,0,0-3.11,0,6.74,6.74,0,0,0-1.72.47,11.63,11.63,0,0,0-1.45.84c-.12.07,0,.27.1.26.92-.05,1.86.06,2.79,0a8.16,8.16,0,0,1,2.61,0c1.55.36,1.88,2.13,1.76,3.5a8.18,8.18,0,0,1-1.55,4c-.91,1.26-2.16,2.17-3.13,3.38a.46.46,0,0,0,.5.72c1.85-.44,3.33-2.09,4.36-3.61a9.48,9.48,0,0,0,1.69-5.22C720.5,340.19,719.65,338.24,717.64,337.73Z" transform="translate(-583.23 -288.56)"/><path class="cls-17" d="M658.25,373c-1.07-.29-2.28.34-3.23.77a18,18,0,0,0-3.23,1.95,28.91,28.91,0,0,0-5.37,5.23,56.23,56.23,0,0,0-7.88,14.76c-.58,1.49-1.25,3-1.7,4.53a5.81,5.81,0,0,0,.23,4.5.23.23,0,0,0,.41,0c.87-2.58,1.9-5.11,2.9-7.64s2-5,3.22-7.46a35.49,35.49,0,0,1,8.65-11.78,29.59,29.59,0,0,1,3.14-2.28c1-.63,2.36-1.1,3.05-2.08A.31.31,0,0,0,658.25,373Z" transform="translate(-583.23 -288.56)"/><path class="cls-8" d="M612.18,444.75a.74.74,0,0,1,.07-.9,4.63,4.63,0,0,0,.53-4.56,3.6,3.6,0,0,0-3.22-2.56,3.44,3.44,0,0,0-3.27,3,5,5,0,0,0,.23,2.44l-.26,0a8.58,8.58,0,0,0-.12-1.06,3,3,0,0,0-1.21-2.18,2.3,2.3,0,0,0-2.57.44,2.41,2.41,0,0,0-.65,2.23,2,2,0,0,0-2.65-.17,1.74,1.74,0,0,0-.18,2.63,1.65,1.65,0,0,0-1.49.18,1.27,1.27,0,0,0,.14,2.27c-.82-.05-1.91.09-1.85,1.14.07,1.51,2.07,2.86,2.07,2.86.74,3.4,4.89,18.33,12.56,18.33,2.32,0,3.32-1.86,3.43-3.9a28,28,0,0,0-.26-3.89,27.44,27.44,0,0,1,0-3.27c.11-2.34.37-4.67.33-7A14.52,14.52,0,0,0,612.18,444.75Z" transform="translate(-583.23 -288.56)"/><path class="cls-8" d="M757.41,445.37a.74.74,0,0,0,.11-.9,4.6,4.6,0,0,1,.4-4.57,3.6,3.6,0,0,1,3.66-1.87,3.45,3.45,0,0,1,2.6,3.59,5,5,0,0,1-.71,2.35l.25.09a8,8,0,0,1,.33-1,2.9,2.9,0,0,1,1.62-1.89,2.28,2.28,0,0,1,2.42.94,2.36,2.36,0,0,1,.19,2.32,2,2,0,0,1,2.64.36,1.75,1.75,0,0,1-.35,2.62,1.66,1.66,0,0,1,1.43.47,1.28,1.28,0,0,1-.6,2.2c.82.12,1.85.46,1.59,1.48-.38,1.47-2.61,2.39-2.61,2.39-1.4,3.18-9.17,19-16,15.45-2.06-1.07-2.88-2.49-2.58-4.51a30.27,30.27,0,0,1,1-3.76,27.15,27.15,0,0,0,.67-3.2c.36-2.32.58-4.66,1.09-6.94A14.51,14.51,0,0,1,757.41,445.37Z" transform="translate(-583.23 -288.56)"/><path class="cls-18" d="M712.79,419.61a.39.39,0,0,0-.14-.3Z" transform="translate(-583.23 -288.56)"/><path class="cls-18" d="M712.81,419.61a.39.39,0,0,0-.15-.32s-.06,0,0,0a.32.32,0,0,1,.14.27s0,0,0,0Z" transform="translate(-583.23 -288.56)"/><path class="cls-19" d="M713.26,419.8c0-.16-.47-2.48-.54-3.09s-2.43.74-13.8,1.83a7.47,7.47,0,0,0-3.12.71A2.6,2.6,0,0,0,695,422a2.67,2.67,0,0,0,2.51,2.08,19.7,19.7,0,0,0,5.2-.19c2-.23,4-.54,6.05-.86a34.78,34.78,0,0,0,4.54-.92C713.73,421.84,713.37,421.16,713.26,419.8Z" transform="translate(-583.23 -288.56)"/><path class="cls-19" d="M668.24,418.87c-.74-.57-2-.43-3-.53-1.51-.15-3-.35-4.53-.55-1.85-.24-8.69-1.52-9.12-1.06s-.31,1.3-.3,1.88a18.31,18.31,0,0,0,.09,2.34c.23,1.54,1.92,1.63,3.38,1.86,3.84.59,7.84,1.46,11.76,1.4C669.14,424.17,670,420.21,668.24,418.87Z" transform="translate(-583.23 -288.56)"/><path class="cls-7" d="M654.05,418.39c1.08,8.47-.23,12.16-4.35,13.13s-8.64-1.91-11.79-11.72c-2.65-8.25-5.26-16.39,2.19-18.16S652.69,407.82,654.05,418.39Z" transform="translate(-583.23 -288.56)"/><path class="cls-8" d="M660.83,387.24a9.26,9.26,0,0,0-3,1.8c-.33.26-.66.53-1,.81l1.1-2.7c.34-.82,1.15-2,.9-2.94-.06-.24-4.46,4.85-6.69,11a45.22,45.22,0,0,0-1.71,6.36c-.23,1.1-1.12,5.06-1.12,5.55,0,0,.07.16.18.44a8.06,8.06,0,0,0-2.21-.91,5.82,5.82,0,0,0-4.55.57.05.05,0,0,0,0,.1,10.62,10.62,0,0,1,4.42.05,6.74,6.74,0,0,1,1.92.85,9,9,0,0,1,.86.69,66.64,66.64,0,0,1,2.89,12.79c1.09,8.47-1.74,8.87-5.86,9.84l-.16,0a6.24,6.24,0,0,0,2.82,0c4.12-1,5.43-4.66,4.35-13.13a31.23,31.23,0,0,0-3.18-10.66,3.6,3.6,0,0,0,.56-.87c.22-.51.33-1.1.51-1.63.32-1,.65-2,.91-3,.53-2.09,1.2-4.14,1.82-6.2q.74-2.43,1.65-4.79c.66-.53,1.29-1.09,2-1.6a32.45,32.45,0,0,0,2.76-2A.22.22,0,0,0,660.83,387.24Z" transform="translate(-583.23 -288.56)"/><path class="cls-17" d="M645.12,429.52c-.52-.87-1-1.79-1.52-2.64s-1-1.64-1.45-2.48a35.11,35.11,0,0,1-2.21-5.59c-.58-1.89-1-3.82-1.41-5.74-.24-1-.45-1.93-.66-2.9a8.6,8.6,0,0,0-.87-2.87.41.41,0,0,0-.73.07c-.4,1.48,0,3.17.22,4.66a42.27,42.27,0,0,0,.89,4.7,34.25,34.25,0,0,0,3.46,9,14.57,14.57,0,0,0,1.48,2.28,14.29,14.29,0,0,0,2.08,2C644.72,430.24,645.32,429.87,645.12,429.52Z" transform="translate(-583.23 -288.56)"/><path class="cls-4" d="M678.73,428.28a7.6,7.6,0,0,0-1-.43c-.67-.26-1.34-.5-2-.75l-5.68-2-5.48-1.91-1.69-.59a4,4,0,0,0-.67-.2c-.93-.14-1.88-.2-2.81-.27a24,24,0,0,0-3.79-.12c-.42,0-.46.48-.26.75a.46.46,0,0,0,.32.42c1.6.61,3.15,1.35,4.78,1.91s3.24,1.18,4.86,1.8,3.21,1.19,4.83,1.77a8.9,8.9,0,0,0,4.28.76,22.72,22.72,0,0,1,2.47-.26l.92,0,.37,0c.05,0,.27,0,.16,0C678.8,429.27,679.24,428.58,678.73,428.28Z" transform="translate(-583.23 -288.56)"/><path class="cls-3" d="M676.56,438.39a46.55,46.55,0,0,1-1.61,5.38,2.29,2.29,0,0,1-1.28,1.49,31.93,31.93,0,0,1-6.58.11.71.71,0,0,1-.59-.61.84.84,0,0,1-.43-.68,15.65,15.65,0,0,1,.85-5.84c.56-2.07,1.24-4.07,1.82-6.13.34-1.23.54-2.69,1.34-3.57,1-1.13,2.67-.74,4.1-.58.84.09,1.69.16,2.51.2.59,0,2.16.08,2.29.39a31.07,31.07,0,0,1-.86,4.17C677.71,434.66,677.05,436.49,676.56,438.39Z" transform="translate(-583.23 -288.56)"/><path class="cls-5" d="M663.1,444.07c1.25.38,2.5.78,3.73,1.23a.72.72,0,0,0,.91-.46c1.34-4.21,2.63-8.44,3.74-12.72.34-1.29.66-2.58.9-3.9a.56.56,0,0,0-.38-.67l-.12-.05c-4.53-1.4-9-3.08-13.46-4.61a20,20,0,0,0-2.58-.86.75.75,0,0,0-.93.45,63.6,63.6,0,0,0-2,6.6c-.86,2.78-1.85,5.53-2.6,8.34a6.75,6.75,0,0,0-.36,1.44c0,1,1.44,1.36,2.18,1.63C656,441.91,659.43,443,663.1,444.07Zm-7.68-20.66v0S655.37,423.4,655.42,423.41Z" transform="translate(-583.23 -288.56)"/><path class="cls-6" d="M654.55,437.89a27.15,27.15,0,0,1,4.59-4.51,26.14,26.14,0,0,1,2.55-1.75,28.09,28.09,0,0,1,2.76-1.48c.94-.44,1.9-.83,2.88-1.18s2-.66,3-.93c.59-.15,1.18-.28,1.78-.41l-.16-.08-.12-.05c-4.53-1.4-9-3.08-13.46-4.61a20,20,0,0,0-2.58-.86.75.75,0,0,0-.93.45,63.6,63.6,0,0,0-2,6.6c-.86,2.78-1.85,5.53-2.6,8.34a6.75,6.75,0,0,0-.36,1.44c0,1,1.44,1.36,2.18,1.63l.42.16A30.1,30.1,0,0,1,654.55,437.89Zm.87-14.48v0S655.37,423.4,655.42,423.41Z" transform="translate(-583.23 -288.56)"/><path class="cls-7" d="M659.25,440.7a.84.84,0,0,0,.1-.94,4.59,4.59,0,0,0-.76-1.2c-.59-.74-1.32-1.38-1.94-2.1l0,0a6.84,6.84,0,0,1,.82.38l1.52.81c.54.29,1.09.57,1.66.82a7.07,7.07,0,0,0,1.53.52,1.51,1.51,0,0,0,1.1-.12.69.69,0,0,0,.24-.82,2.84,2.84,0,0,0-.73-1.06c-.39-.4-4.19-3-3.87-3.61.5-1,6,1.27,6.42-.15.52-1.59-6.65-3.64-6.37-4.23s3.87-.88,4.33-1.83c.22-.44.25-.84-.12-1.14a3.48,3.48,0,0,0-1.47-.45c-3.37-.64-7.2-2.26-10.35-.57-1.18.63-3.61,2.73-4.25,4.31a7.82,7.82,0,0,0,.35,4.37,17,17,0,0,0,1.5,2.57c.26.4.52.8.81,1.18a17.92,17.92,0,0,0,2.43,2.66,4.52,4.52,0,0,0,1.24.84.86.86,0,0,0,1,0c.3-.27.14-.7,0-1a12.52,12.52,0,0,0-.7-1.23,3.63,3.63,0,0,1-.28-.51.82.82,0,0,1-.06-.19v-.07s0-.05,0-.06a.22.22,0,0,1,.28-.07,1.9,1.9,0,0,1,.48.27,15.19,15.19,0,0,1,1.27,1,18.24,18.24,0,0,0,1.44,1.16,4.1,4.1,0,0,0,1.37.73A1.11,1.11,0,0,0,659.25,440.7Z" transform="translate(-583.23 -288.56)"/><path class="cls-8" d="M653.85,423.75c-1.13-.47-2.77.57-3.63,1.23a8.72,8.72,0,0,0-2.71,3.26,0,0,0,0,0,0,.05,29.36,29.36,0,0,1,3-2.75,8.85,8.85,0,0,1,1.88-1,4.84,4.84,0,0,0,1.42-.61C654,423.89,653.92,423.78,653.85,423.75Z" transform="translate(-583.23 -288.56)"/><path class="cls-17" d="M653.58,440.19a22.93,22.93,0,0,1-2.72-2.1,15.17,15.17,0,0,1-2.24-2.43,16.39,16.39,0,0,1-1.61-2.74,13.9,13.9,0,0,0-1.23-2.78.09.09,0,0,0-.14,0,5.46,5.46,0,0,0,.72,3,14.58,14.58,0,0,0,1.78,3,15.38,15.38,0,0,0,2.31,2.46,11.48,11.48,0,0,0,3,1.76A.13.13,0,0,0,653.58,440.19Z" transform="translate(-583.23 -288.56)"/><path class="cls-17" d="M658.16,440.12c-.33-.49-1-.67-1.52-1s-1.09-.9-1.71-1.27c0,0-.06,0,0,0a3.65,3.65,0,0,0,1.35,1.54c.5.38,1.2,1,1.86.85A.11.11,0,0,0,658.16,440.12Z" transform="translate(-583.23 -288.56)"/><path class="cls-7" d="M754.27,421.14a.85.85,0,0,0-.25-.91,4.48,4.48,0,0,0-1.14-.84c-.82-.47-1.73-.81-2.58-1.26l0,0a6.54,6.54,0,0,1,.89.06c.57.05,1.14.13,1.71.2s1.23.13,1.85.16a7.28,7.28,0,0,0,1.61-.08,1.48,1.48,0,0,0,1-.51.67.67,0,0,0-.07-.85,2.93,2.93,0,0,0-1.07-.72c-.5-.23-5-1.27-4.91-2,.1-1.11,6-1,5.93-2.47-.09-1.67-7.52-1-7.48-1.63s3.29-2.22,3.38-3.27c0-.5-.08-.88-.53-1a3.37,3.37,0,0,0-1.53.11c-3.37.62-7.53.5-9.85,3.22a11.93,11.93,0,0,0-2.4,5.56c0,1.21,1.25,3.26,1.91,3.95a16.85,16.85,0,0,0,2.34,1.85c.38.28.77.55,1.18.8a18.23,18.23,0,0,0,3.22,1.6,5.09,5.09,0,0,0,1.47.34.9.9,0,0,0,.88-.39c.17-.36-.12-.7-.33-.92a10.46,10.46,0,0,0-1.11-.88,5.7,5.7,0,0,1-.44-.37.74.74,0,0,1-.12-.16l0-.06a.23.23,0,0,1,0-.07c0-.11.13-.16.23-.17a2.43,2.43,0,0,1,.54.08,15.51,15.51,0,0,1,1.55.48c.58.2,1.16.4,1.77.56a4.16,4.16,0,0,0,1.54.18A1.11,1.11,0,0,0,754.27,421.14Z" transform="translate(-583.23 -288.56)"/><path class="cls-20" d="M760.65,400.26a6.9,6.9,0,0,0-1.1-.14c-.71-.07-1.41-.12-2.11-.17q-3-.22-6-.4l-5.71-.35-1.79-.11a5.61,5.61,0,0,0-.71,0c-.92.12-1.84.33-2.75.51a22.92,22.92,0,0,0-3.65.91c-.39.15-.31.59,0,.8a.45.45,0,0,0,.41.31c1.67.15,3.32.44,5,.54s3.48.26,5.21.41,3.34.27,5,.38a8.81,8.81,0,0,0,4.3-.39c.76-.34,1.51-.66,2.3-.93q.44-.15.9-.27l.38-.1s.27,0,.16,0C761,401.19,761.22,400.41,760.65,400.26Z" transform="translate(-583.23 -288.56)"/><path class="cls-21" d="M761,410.58a52.94,52.94,0,0,1-.22,5.61c-.08.73,0,1.71-.29,1.79-.59.14-1.54.45-2.15.58-1.56.32-2.94.88-4.55,1.09a2,2,0,0,1-1.34-.84,16,16,0,0,1-.77-5.85c0-2.14.1-4.25.09-6.39a8.76,8.76,0,0,1,.44-3.72c.68-1.36,2-1.42,3.42-1.65l2.71-.46a20.11,20.11,0,0,1,2.62-.35C761.26,400.46,761,408.62,761,410.58Z" transform="translate(-583.23 -288.56)"/><path class="cls-22" d="M754.91,405.61c0-1.31,0-2.36.09-3.66,0-.38.08-.67-.3-.68-4.42-.15-9.23-.31-13.64-.51a33.1,33.1,0,0,0-4.28-.19c-.36,0-.25.65-.27.92,0,0,0,.08,0,.13-.07,2.9-.56,17.37-.12,17.44.75.11,10.06.54,11.61.59.87,0,1.75,0,2.62.05h1.25c.47,0,1.66-.07,2.13-.07s.31-1.68.43-2.5a45.44,45.44,0,0,0,.33-5.08C754.83,409.9,754.87,407.75,754.91,405.61Zm-17.91,13h0C737,418.62,737,418.62,737,418.58Z" transform="translate(-583.23 -288.56)"/><path class="cls-23" d="M740.17,414.08a50,50,0,0,1,2.91-5.92,52.38,52.38,0,0,1,3.7-5.62q.57-.77,1.17-1.5l-6.89-.28a33.1,33.1,0,0,0-4.28-.19c-.36,0-.25.65-.27.92,0,0,0,.08,0,.13-.07,2.9-.56,17.37-.12,17.44.2,0,1,.08,2,.14A41.79,41.79,0,0,1,740.17,414.08Zm-3.17,4.5h0C737,418.62,737,418.62,737,418.58Z" transform="translate(-583.23 -288.56)"/><path class="cls-8" d="M736.65,444.75c-1.3-.84-3.34.34-3.52,1.81,0,.21.28.31.42.17a6.72,6.72,0,0,1,1.36-1.25,9,9,0,0,1,1.73-.63C736.69,444.84,736.69,444.78,736.65,444.75Z" transform="translate(-583.23 -288.56)"/><path class="cls-8" d="M631.17,445.22c-.45-1.05-2-1.63-3-1.85a4.9,4.9,0,0,0-3.53.35.18.18,0,0,0,.1.34,12.16,12.16,0,0,1,3.3.17,6.72,6.72,0,0,1,1.5.6,8.07,8.07,0,0,0,1.37.78C631.11,445.69,631.25,445.41,631.17,445.22Z" transform="translate(-583.23 -288.56)"/><path class="cls-8" d="M698.47,429.69a15.11,15.11,0,0,0-3.54,6,20.34,20.34,0,0,0-.87,3.52c-.14.86-.59,2.36.06,3.06a.28.28,0,0,0,.37,0,1.66,1.66,0,0,0,.39-1.18c.06-.62.11-1.24.21-1.86a24.55,24.55,0,0,1,.74-3.16,48.51,48.51,0,0,1,2.73-6.33A.06.06,0,0,0,698.47,429.69Z" transform="translate(-583.23 -288.56)"/><path class="cls-17" d="M639.74,429.73a10.44,10.44,0,0,0-4.07,1.88,33.71,33.71,0,0,0-3.64,2.75,34.41,34.41,0,0,0-3.22,3.17,17.31,17.31,0,0,0-1.42,1.78,10.55,10.55,0,0,0-.59.89c-.22.39-.28.83-.49,1.22-.06.11.1.24.19.14.25-.29.63-.48.91-.75s.48-.52.72-.78l1.44-1.58a34.32,34.32,0,0,1,3.25-3.13,37.52,37.52,0,0,1,3.59-2.67,22.85,22.85,0,0,0,3.59-2.47A.27.27,0,0,0,639.74,429.73Z" transform="translate(-583.23 -288.56)"/><path class="cls-17" d="M624.74,444.71a5.2,5.2,0,0,0-2.79.65,16.3,16.3,0,0,0-2.82,1.66,20.06,20.06,0,0,0-2.43,2.08,5.77,5.77,0,0,0-1.68,2.44.22.22,0,0,0,.32.24,10.44,10.44,0,0,0,2.15-1.9,19.28,19.28,0,0,1,2.35-1.87,21.26,21.26,0,0,1,2.53-1.46,9.35,9.35,0,0,0,2.49-1.4A.27.27,0,0,0,624.74,444.71Z" transform="translate(-583.23 -288.56)"/><path class="cls-17" d="M631.31,443.14a5.38,5.38,0,0,0-3.71-.67c-.22,0-.21.39,0,.43.63.14,1.26.21,1.89.33a11.21,11.21,0,0,0,1.72.28C631.42,443.52,631.46,443.25,631.31,443.14Z" transform="translate(-583.23 -288.56)"/><path class="cls-17" d="M712.17,426c-2-1.06-4.74-.8-6.8-.17a10.47,10.47,0,0,0-5.62,3.78c-.1.15.11.36.26.26a19.49,19.49,0,0,1,5.71-2.77,17.8,17.8,0,0,1,3.17-.54c1.05-.08,2.1,0,3.14,0A.27.27,0,0,0,712.17,426Z" transform="translate(-583.23 -288.56)"/><path class="cls-17" d="M719.7,401.42c-1.15,1.37-2.66,2.18-3.3,3.95a5.55,5.55,0,0,0-.33,2.39,2.55,2.55,0,0,0,.95,2,.3.3,0,0,0,.44-.18,6.6,6.6,0,0,0-.08-1.93,5.24,5.24,0,0,1,.32-2.15c.56-1.41,1.78-2.4,2.43-3.75C720.26,401.49,719.91,401.16,719.7,401.42Z" transform="translate(-583.23 -288.56)"/><path class="cls-17" d="M729,414a9.68,9.68,0,0,0-1.83-.56c-.69-.18-1.37-.39-2-.62-1.34-.46-2.66-1-4-1.5-.07,0-.11.07-.05.11a19.22,19.22,0,0,0,3.75,1.85,11.38,11.38,0,0,0,4.05,1C729.11,414.35,729.2,414.12,729,414Z" transform="translate(-583.23 -288.56)"/><path class="cls-17" d="M659.83,370.71a36.93,36.93,0,0,1-9.18-8.67,27,27,0,0,1-4.75-12.67,55.09,55.09,0,0,1,0-7.92c0-.08-.11-.09-.13,0-1.67,4.55-1,9.95.49,14.47a27.58,27.58,0,0,0,7.29,11.31,19.62,19.62,0,0,0,6.15,3.89C659.9,371.19,660,370.84,659.83,370.71Z" transform="translate(-583.23 -288.56)"/><path class="cls-17" d="M645.84,334.9c-.28-1-.57-2-.81-3.09a48,48,0,0,1-1.1-6.54,40.14,40.14,0,0,1,1-12.87c0-.08-.1-.14-.13-.06-1.91,4-2.2,8.54-1.83,12.93A47.14,47.14,0,0,0,644,332c.25,1.12.52,2.25.86,3.35a9,9,0,0,0,1.21,2.8c.12.16.36,0,.37-.15A11.51,11.51,0,0,0,645.84,334.9Z" transform="translate(-583.23 -288.56)"/><path class="cls-17" d="M728.68,436.73a29.7,29.7,0,0,0-6.35-5.25,27.58,27.58,0,0,0-7.32-3.61.09.09,0,0,0-.07.16c2.26,1.5,4.65,2.79,6.88,4.33s4.27,3.3,6.43,4.93C728.59,437.55,728.93,437,728.68,436.73Z" transform="translate(-583.23 -288.56)"/><path class="cls-17" d="M750.35,453.05a14.71,14.71,0,0,0-5.6-4.49,20.45,20.45,0,0,0-3.31-1.41,9.48,9.48,0,0,0-3.6-.65c-.18,0-.29.27-.1.37A33.07,33.07,0,0,0,741,448a28,28,0,0,1,3.28,1.43c2.09,1.11,3.84,2.65,5.81,3.92C750.23,453.48,750.48,453.24,750.35,453.05Z" transform="translate(-583.23 -288.56)"/><path class="cls-24" d="M727.83,462.32c-.47-.09-20.18-1.29-21-1.34-.32,0-16.22,1.91-17.82,2.28-.54.13-.43.53-.06.73a.63.63,0,0,0,.56.3c2.32.19,4.61.5,6.94.64s4.66.33,7,.52,4.63.33,6.95.49a17.17,17.17,0,0,0,5.87-.28c1-.29,2.06-.56,3.13-.77.39-.08.78-.16,1.18-.22l.5-.07.21,0C722,464.57,728.61,462.47,727.83,462.32Z" transform="translate(-583.23 -288.56)"/><path class="cls-25" d="M727.35,477.61c-.1.67-12.55,3.75-14.73,3.9a1.09,1.09,0,0,1-1-.42,1,1,0,0,1-.81-.51,10.19,10.19,0,0,1-1-5.38c0-2,.13-3.9.13-5.86,0-1.17-.27-2.52.45-3.48.91-1.23,3.21-1.25,5.13-1.43,1.13-.1,12.06-2.36,12.34-2.11S727.61,475.94,727.35,477.61Z" transform="translate(-583.23 -288.56)"/><path class="cls-26" d="M706.94,481.24c1.77.06,3.55.13,5.31.26.53,0,1-.26,1-.61.2-4,.33-8.1.22-12.15a32.19,32.19,0,0,0-.27-3.67c0-.33-.37-.5-.73-.52l-.18,0c-6.42-.23-12.83-.74-19.25-1.11-1.2-.06-2.48-.22-3.67-.19-.59,0-1,.21-1.06.62-.44,2-.05,4.28-.16,6.31-.1,2.67-.38,5.33-.33,8a4.13,4.13,0,0,0,.06,1.36c.34.89,2.37.9,3.43,1C696.92,480.89,701.74,481.07,706.94,481.24Zm-17.59-16.68v0C689.29,464.58,689.29,464.56,689.35,464.56Z" transform="translate(-583.23 -288.56)"/><path class="cls-27" d="M693.52,477.64a23.1,23.1,0,0,1,2-2.65,26.32,26.32,0,0,1,2.35-2.38,32,32,0,0,1,2.69-2.14,36,36,0,0,1,3.06-1.92c1.06-.6,2.17-1.16,3.32-1.69s2.4-1,3.65-1.51c.71-.27,1.43-.52,2.16-.76a.85.85,0,0,0-.23,0l-.18,0c-6.42-.23-12.83-.74-19.25-1.11-1.2-.06-2.48-.22-3.67-.19-.59,0-1,.21-1.06.62-.44,2-.05,4.28-.16,6.31-.1,2.67-.38,5.33-.33,8a4.13,4.13,0,0,0,.06,1.36c.34.89,2.37.9,3.43,1l.61,0A21.43,21.43,0,0,1,693.52,477.64Zm-4.17-13.08v0C689.29,464.58,689.29,464.56,689.35,464.56Z" transform="translate(-583.23 -288.56)"/><path class="cls-28" d="M709.32,451c-2.47-.46-30.32-1.95-32.9-1.86-3.07.1-6.85,1.26-9.8,1.52-.85.07-.86.5.16.55,7.11.33,14,1.16,21.07,1.6,2.5.15,5,.25,7.53.36,2.21.11,4.47.19,6.64.11S710.16,451.18,709.32,451Z" transform="translate(-583.23 -288.56)"/><path class="cls-29" d="M709.45,460.76c-.11.41-.41.78-1.37,1a89.15,89.15,0,0,1-10.42,1.54,2.3,2.3,0,0,1-1.28-.28,4.19,4.19,0,0,1-1.5-.35c-1.37-1.15-1.37-3.07-1.42-4.16s.07-2.4,0-3.61c0-.72-.2-1.5.69-2.08,1.13-.74,9.66-.72,14.93-1.76.56-.11.52.46.5.87S709.74,459.74,709.45,460.76Z" transform="translate(-583.23 -288.56)"/><path class="cls-30" d="M665.29,458.66c-.06.73.28,1.49.09,2.22-.06.21.51.44,1.17.47,9.67.45,20.67,1.64,30.45,1.94.63,0,.92-.12,1-.27a.24.24,0,0,0,0-.08,100.51,100.51,0,0,0,.13-10.44c-.05-.25-.4-.45-1.19-.49-9.57-.39-17.33-.82-26.28-1.13-.8,0-3.64-.13-4.43-.13C665.2,450.75,665.41,457.37,665.29,458.66Zm31-6.25h-.07A0,0,0,0,1,696.3,452.41Z" transform="translate(-583.23 -288.56)"/><path class="cls-31" d="M671.79,458.46a55,55,0,0,1,6.39-3.33,69.39,69.39,0,0,1,7.3-3l1.72-.54c-5.56-.25-10.82-.5-16.56-.7-.8,0-3.64-.13-4.43-.13-1,0-.8,6.62-.92,7.91-.06.73.28,1.49.09,2.22-.06.21.51.44,1.17.47l1.77.08A13.45,13.45,0,0,1,671.79,458.46Z" transform="translate(-583.23 -288.56)"/><path class="cls-20" d="M701.88,433.17a8.45,8.45,0,0,0-1.11-.15l-2.14-.19q-3-.25-6-.48l-5.78-.42-1.8-.13a4.33,4.33,0,0,0-.72,0c-.93.1-1.87.29-2.79.46a24.08,24.08,0,0,0-3.69.84c-.4.14-.33.57-.06.78a.45.45,0,0,0,.41.31c1.69.17,3.36.47,5.05.59s3.51.3,5.26.48,3.37.3,5,.44a9.32,9.32,0,0,0,4.36-.33,24,24,0,0,1,2.32-.87c.31-.1.61-.19.92-.26a2.62,2.62,0,0,1,.38-.09c.05,0,.28,0,.17,0C702.21,434.09,702.45,433.33,701.88,433.17Z" transform="translate(-583.23 -288.56)"/><path class="cls-21" d="M702.1,443.28a51.56,51.56,0,0,1-.29,5.48c-.09.71,0,1.67-.32,1.75-.6.13-1.56.42-2.18.53-1.58.3-3,.83-4.61,1a2,2,0,0,1-1.34-.84,15,15,0,0,1-.71-5.73c0-2.1.14-4.16.16-6.26a8.06,8.06,0,0,1,.49-3.63c.69-1.32,2-1.36,3.47-1.57l2.75-.41a19,19,0,0,1,2.65-.3C702.49,433.38,702.13,441.35,702.1,443.28Z" transform="translate(-583.23 -288.56)"/><path class="cls-22" d="M677,447.51c0-.3,0-.62,0-1C677,446.89,677,447.21,677,447.51Z" transform="translate(-583.23 -288.56)"/><path class="cls-22" d="M677,448.54v0Z" transform="translate(-583.23 -288.56)"/><path class="cls-22" d="M677,448.81v0Z" transform="translate(-583.23 -288.56)"/><path class="cls-22" d="M677,448.26c0-.24,0-.49,0-.75C677,447.77,677,448,677,448.26Z" transform="translate(-583.23 -288.56)"/><path class="cls-22" d="M677,449.88c0-.11,0-.22,0-.33C677,449.66,677,449.77,677,449.88Z" transform="translate(-583.23 -288.56)"/><path class="cls-22" d="M677,450.27a1.21,1.21,0,0,0,0-.19A1.21,1.21,0,0,1,677,450.27Z" transform="translate(-583.23 -288.56)"/><path class="cls-22" d="M677,449.07v0Z" transform="translate(-583.23 -288.56)"/><path class="cls-22" d="M677,449.55v0Z" transform="translate(-583.23 -288.56)"/><path class="cls-22" d="M677.07,443.93c0-.19,0-.37,0-.55C677.08,443.56,677.08,443.74,677.07,443.93Z" transform="translate(-583.23 -288.56)"/><path class="cls-22" d="M677,444.83c0-.12,0-.24,0-.36C677.05,444.59,677.05,444.71,677,444.83Z" transform="translate(-583.23 -288.56)"/><path class="cls-22" d="M677,446.55c0-.11,0-.22,0-.33C677,446.33,677,446.44,677,446.55Z" transform="translate(-583.23 -288.56)"/><path class="cls-22" d="M677.11,442.64c0-.12,0-.25,0-.37C677.12,442.39,677.12,442.52,677.11,442.64Z" transform="translate(-583.23 -288.56)"/><path class="cls-22" d="M677,446.22c0-.22,0-.45,0-.69C677,445.77,677,446,677,446.22Z" transform="translate(-583.23 -288.56)"/><path class="cls-22" d="M677,445.53c0-.11,0-.23,0-.35C677,445.3,677,445.42,677,445.53Z" transform="translate(-583.23 -288.56)"/><path class="cls-22" d="M677,445.18c0-.11,0-.23,0-.35C677,445,677,445.07,677,445.18Z" transform="translate(-583.23 -288.56)"/><path class="cls-22" d="M677.17,451.24h0Z" transform="translate(-583.23 -288.56)"/><path class="cls-22" d="M677.81,451.3h0Z" transform="translate(-583.23 -288.56)"/><path class="cls-22" d="M678.26,451.33h0Z" transform="translate(-583.23 -288.56)"/><path class="cls-22" d="M678,451.31h0Z" transform="translate(-583.23 -288.56)"/><path class="cls-22" d="M678.09,451.32h0Z" transform="translate(-583.23 -288.56)"/><path class="cls-22" d="M678.78,451.37h0Z" transform="translate(-583.23 -288.56)"/><path class="cls-22" d="M678.42,451.35h0Z" transform="translate(-583.23 -288.56)"/><path class="cls-22" d="M678.6,451.36h0Z" transform="translate(-583.23 -288.56)"/><path class="cls-22" d="M677.68,451.29h0Z" transform="translate(-583.23 -288.56)"/><path class="cls-22" d="M677.23,451.25h0Z" transform="translate(-583.23 -288.56)"/><path class="cls-22" d="M677.12,442.27c0-.12,0-.25,0-.37C677.13,442,677.13,442.15,677.12,442.27Z" transform="translate(-583.23 -288.56)"/><path class="cls-22" d="M677,450.52a.86.86,0,0,0,0-.16A.86.86,0,0,1,677,450.52Z" transform="translate(-583.23 -288.56)"/><path class="cls-22" d="M677.29,451.26h0Z" transform="translate(-583.23 -288.56)"/><path class="cls-22" d="M677.37,451.26h0Z" transform="translate(-583.23 -288.56)"/><path class="cls-22" d="M677.57,451.28h0Z" transform="translate(-583.23 -288.56)"/><path class="cls-22" d="M677.47,451.27h0Z" transform="translate(-583.23 -288.56)"/><path class="cls-22" d="M677.79,450.77h0Z" transform="translate(-583.23 -288.56)"/><path class="cls-22" d="M677.46,434v.05s0,.05,0,.08,0-.05,0-.08Z" transform="translate(-583.23 -288.56)"/><path class="cls-22" d="M683.77,433.49l.29,0Z" transform="translate(-583.23 -288.56)"/><path class="cls-22" d="M684.63,433.54h0Z" transform="translate(-583.23 -288.56)"/><path class="cls-22" d="M685.5,433.58h0Z" transform="translate(-583.23 -288.56)"/><path class="cls-22" d="M677.78,450.79h0Z" transform="translate(-583.23 -288.56)"/><path class="cls-22" d="M687.26,433.67h0Z" transform="translate(-583.23 -288.56)"/><path class="cls-22" d="M686.38,433.63h0Z" transform="translate(-583.23 -288.56)"/><path class="cls-22" d="M688.14,433.72h0Z" transform="translate(-583.23 -288.56)"/><path class="cls-22" d="M678.18,433.14h0Z" transform="translate(-583.23 -288.56)"/><path class="cls-22" d="M677.46,433.66c0-.05,0-.1,0-.14S677.46,433.61,677.46,433.66Z" transform="translate(-583.23 -288.56)"/><path class="cls-22" d="M696.15,434.75c0-.38.09-.65-.3-.67l-6.82-.32c-.41.48-.81,1-1.2,1.45-.71.88-1.38,1.78-2,2.7a4.86,4.86,0,0,1,.86,0,4.68,4.68,0,1,1-.34,9.34,4.83,4.83,0,0,1-4.31-2.93c-.36.7-.69,1.41-1,2.13a40.92,40.92,0,0,0-1.84,5l-.38,0c3,.21,8.85.55,10.07.6.88,0,1.76.07,2.65.08l1.26,0c.47,0,1.68-.05,2.15-.05s.34-1.64.47-2.44a43.4,43.4,0,0,0,.38-5c.11-2.1.18-4.2.24-6.29C696.05,437.05,696,436,696.15,434.75Z" transform="translate(-583.23 -288.56)"/><path class="cls-22" d="M682.91,433.44l.35,0Z" transform="translate(-583.23 -288.56)"/><path class="cls-22" d="M677.68,433.17c-.14,0-.19.18-.21.35C677.49,433.35,677.54,433.21,677.68,433.17Z" transform="translate(-583.23 -288.56)"/><path class="cls-23" d="M677.09,451.19a.07.07,0,0,0,0,.05A.07.07,0,0,1,677.09,451.19Z" transform="translate(-583.23 -288.56)"/><path class="cls-23" d="M677.46,433.66c0,.12,0,.24,0,.34C677.47,433.9,677.46,433.78,677.46,433.66Z" transform="translate(-583.23 -288.56)"/><path class="cls-23" d="M677.85,451.3h0Z" transform="translate(-583.23 -288.56)"/><path class="cls-23" d="M677.61,451.28h0Z" transform="translate(-583.23 -288.56)"/><path class="cls-23" d="M677.72,451.29h0Z" transform="translate(-583.23 -288.56)"/><path class="cls-23" d="M677.45,434.13v.05c0,.84-.12,2.68-.2,4.85.08-2.17.16-4,.2-4.85Z" transform="translate(-583.23 -288.56)"/><path class="cls-23" d="M677.5,451.28h0Z" transform="translate(-583.23 -288.56)"/><path class="cls-23" d="M677.78,450.79s0,0,0,0S677.79,450.79,677.78,450.79Z" transform="translate(-583.23 -288.56)"/><path class="cls-23" d="M678.43,451.35h0Z" transform="translate(-583.23 -288.56)"/><path class="cls-23" d="M678,451.31h0Z" transform="translate(-583.23 -288.56)"/><path class="cls-23" d="M678.61,451.36h0Z" transform="translate(-583.23 -288.56)"/><path class="cls-23" d="M678.13,451.33h0Z" transform="translate(-583.23 -288.56)"/><path class="cls-23" d="M678.27,451.34h0Z" transform="translate(-583.23 -288.56)"/><path class="cls-23" d="M677.76,450.78a0,0,0,0,0,0,0A0,0,0,0,1,677.76,450.78Z" transform="translate(-583.23 -288.56)"/><path class="cls-23" d="M682.91,433.44l-.84-.05c-1.1-.06-2.23-.22-3.29-.25,1.06,0,2.19.19,3.29.25Z" transform="translate(-583.23 -288.56)"/><path class="cls-23" d="M684.06,433.51l.57,0Z" transform="translate(-583.23 -288.56)"/><path class="cls-23" d="M685.65,433.59l.73,0Z" transform="translate(-583.23 -288.56)"/><path class="cls-23" d="M684.83,433.55l.67,0Z" transform="translate(-583.23 -288.56)"/><path class="cls-23" d="M686.48,433.63l.78,0Z" transform="translate(-583.23 -288.56)"/><path class="cls-23" d="M677.17,441c0-.12,0-.24,0-.36C677.18,440.74,677.18,440.86,677.17,441Z" transform="translate(-583.23 -288.56)"/><path class="cls-23" d="M687.33,433.68l.81,0Z" transform="translate(-583.23 -288.56)"/><path class="cls-23" d="M677.16,441.35c0-.12,0-.24,0-.37C677.17,441.11,677.16,441.23,677.16,441.35Z" transform="translate(-583.23 -288.56)"/><path class="cls-23" d="M683.26,433.46l.51,0Z" transform="translate(-583.23 -288.56)"/><path class="cls-23" d="M677.21,439.9c0-.29,0-.58,0-.87C677.23,439.32,677.22,439.61,677.21,439.9Z" transform="translate(-583.23 -288.56)"/><path class="cls-23" d="M678.18,433.14l-.44,0h0Z" transform="translate(-583.23 -288.56)"/><path class="cls-23" d="M677.19,440.44c0-.12,0-.24,0-.36C677.2,440.2,677.2,440.32,677.19,440.44Z" transform="translate(-583.23 -288.56)"/><path class="cls-23" d="M677.41,451.27h0Z" transform="translate(-583.23 -288.56)"/><path class="cls-23" d="M677.25,451.25h0Z" transform="translate(-583.23 -288.56)"/><path class="cls-23" d="M677.32,451.26h0Z" transform="translate(-583.23 -288.56)"/><path class="cls-23" d="M688.19,433.72l.84,0Z" transform="translate(-583.23 -288.56)"/><path class="cls-23" d="M677.09,451.19a.68.68,0,0,1,0-.13A.68.68,0,0,0,677.09,451.19Z" transform="translate(-583.23 -288.56)"/><path class="cls-23" d="M677.19,451.24h0Z" transform="translate(-583.23 -288.56)"/><path class="cls-23" d="M681,446.41c.32-.72.65-1.43,1-2.13a4.54,4.54,0,0,1-.35-1.91,4.73,4.73,0,0,1,4.14-4.46c.64-.92,1.31-1.82,2-2.7.39-.49.79-1,1.2-1.45l-.84,0h-.05l-.81,0h-.07l-.78,0h-.1l-.73,0h-.15l-.67,0h-.2l-.57,0-.29,0-.51,0-.35,0-.84-.05c-1.1-.06-2.23-.22-3.29-.25h-.6l-.44,0h-.06c-.14,0-.19.18-.21.35s0,.09,0,.14,0,.24,0,.34v.05s0,.05,0,.08v.05c0,.84-.12,2.68-.2,4.85,0,.29,0,.58,0,.87v.18c0,.12,0,.24,0,.36v.18c0,.12,0,.24,0,.36s0,.25,0,.37,0,.37,0,.55,0,.25,0,.37,0,.25,0,.37,0,.49,0,.74,0,.36,0,.55,0,.36,0,.54,0,.24,0,.36,0,.24,0,.35,0,.24,0,.35,0,.47,0,.69,0,.22,0,.33c0,.34,0,.66,0,1s0,.51,0,.75v1.29c0,.11,0,.22,0,.33v.2a1.21,1.21,0,0,1,0,.19v.09a.86.86,0,0,1,0,.16,4.54,4.54,0,0,0,0,.54.68.68,0,0,0,0,.13.07.07,0,0,0,0,.05h1.65l.39,0A40.92,40.92,0,0,1,681,446.41Zm-3.23,4.38h0a0,0,0,0,1,0,0h0S677.79,450.79,677.78,450.79Z" transform="translate(-583.23 -288.56)"/><path class="cls-21" d="M689.52,438.9a4.92,4.92,0,0,0-2.85-1,4.86,4.86,0,0,0-.86,0,4.73,4.73,0,0,0-4.14,4.46,4.54,4.54,0,0,0,.35,1.91,4.91,4.91,0,0,0,7.11,2.18C686.48,444.58,687.65,439.84,689.52,438.9Z" transform="translate(-583.23 -288.56)"/><path class="cls-32" d="M687.92,421.16c1,1.31,1.94,2.69,3,4s2.17,2.69,3.23,4.05,2.07,2.59,3.12,3.87c.13.15,2.6.43,2.72.59,0,0,4.38-.13,4.4-.56S693.9,421,693.22,420.37c-.44-.41-4-.52-5-.28-.25.05-.35.23-.32.56A.46.46,0,0,0,687.92,421.16Z" transform="translate(-583.23 -288.56)"/><path class="cls-33" d="M700,433.64a3,3,0,0,0-2.82-.82,4.35,4.35,0,0,0-1.23.59Z" transform="translate(-583.23 -288.56)"/><path class="cls-34" d="M674.44,432.21l25.66,1.43,0,0c-2.89-3.3-6.05-6.89-8.91-10.22a30.68,30.68,0,0,0-2.78-3.22c-.27-.24-.65.24-.86.41l-.11.07c-2.22,1.86-13.36,11-13.11,11.38Zm.64-.06,0,0S675.05,432.19,675.08,432.15Z" transform="translate(-583.23 -288.56)"/><path class="cls-35" d="M674.44,432.21l3.72.21c2.39-6.63,14.77-7,14.77-7-.93-1.09-3.55-4.4-4.55-5.27-.27-.24-.65.24-.86.41l-.11.07c-2.22,1.86-13.36,11-13.11,11.38Zm.64-.06,0,0S675.05,432.19,675.08,432.15Z" transform="translate(-583.23 -288.56)"/><path class="cls-36" d="M711.43,438.41l-.86,24c0,.77,3,1.51,6.78,1.65s6.86-.39,6.89-1.16l.86-24Z" transform="translate(-583.23 -288.56)"/><path class="cls-37" d="M721.84,438.78l-.86,24c0,.66-2.26,1.14-5.26,1.18.53.05,1.07.08,1.63.1,3.78.13,6.86-.39,6.89-1.16l.86-24Z" transform="translate(-583.23 -288.56)"/><path class="cls-38" d="M720.1,439.73l-8.67-1.32-.86,24c0,.57,1.65,1.05,3.2,1.31C713.77,463.7,713,447,720.1,439.73Z" transform="translate(-583.23 -288.56)"/><path class="cls-39" d="M725.1,438.82c0,.78-3.11,1.3-6.88,1.16s-6.82-.87-6.79-1.65,3.11-1.3,6.89-1.16S725.13,438,725.1,438.82Z" transform="translate(-583.23 -288.56)"/></g></g></svg>