<svg xmlns="http://www.w3.org/2000/svg" viewBox="0 0 160.3 182.92"><defs><style>.cls-1{isolation:isolate;}.cls-2{fill:#ffb191;}.cls-3{fill:#f7a17e;}.cls-4{fill:#6874f2;}.cls-5{fill:#55d463;}.cls-6{fill:#ffdf24;}.cls-7{fill:#ff9d00;}.cls-8{fill:#ff3f3b;}.cls-9{fill:#210e00;opacity:0.17;}.cls-10,.cls-12{fill:#fff;}.cls-10{opacity:0.34;}.cls-11{opacity:0.43;}.cls-13{opacity:0.47;}.cls-14{fill:#e223a8;}.cls-15{opacity:0.09;}.cls-16{opacity:0.4;}.cls-17{fill:#f5f5f5;mix-blend-mode:multiply;}.cls-18{fill:#ffc0a6;}.cls-19{fill:#fae7db;}.cls-20{fill:#d1785a;}.cls-21{fill:#f2f2f2;}.cls-22{fill:#fafafa;}.cls-23{fill:#2a86ad;}.cls-24{fill:#54bee8;}.cls-25{fill:#de954c;}.cls-26{fill:#ffd5c6;}.cls-27{fill:#a1dded;}.cls-28{fill:#800035;}.cls-29{fill:#d4145a;}</style></defs><g class="cls-1"><g id="Слой_1" data-name="Слой 1"><path class="cls-2" d="M640.77,420.59c-10.31,1.48-14.68.3-15.57-3.83s2.91-8.86,15-12.48c10.16-3,20.18-6.06,21.81,1.43S653.66,418.76,640.77,420.59Z" transform="translate(-603.09 -294.01)"/><path class="cls-2" d="M671.4,409.51c-10.73,5.05-16.22,5.62-19.72,1.18s.57-13.5,13-25.21c8.52-8,20.66-10.33,27-2.28S684.81,403.21,671.4,409.51Z" transform="translate(-603.09 -294.01)"/><path class="cls-3" d="M675.27,379.12s-11.4,10.79-16.12,23.85c0,0-13.52,3.95-14.69,6.84-1.27,3.13,11.58,7.45,11.58,7.45l12.33-1.93Z" transform="translate(-603.09 -294.01)"/><path class="cls-2" d="M613.2,419.57a1.09,1.09,0,0,1,.62-1,5.77,5.77,0,0,1,1.66-.64c1.16-.31,2.37-.42,3.54-.69l.06,0A8.37,8.37,0,0,0,618,417l-2.13-.3c-.76-.11-1.52-.23-2.27-.39a8.81,8.81,0,0,1-1.91-.6,1.81,1.81,0,0,1-1-.92.85.85,0,0,1,.38-1,3.71,3.71,0,0,1,1.54-.52,16.08,16.08,0,0,1,2.1-.17c.69,0,1.39,0,2.09,0,.32,0,.64,0,1,0a14.62,14.62,0,0,1-3.6-1.8,7.21,7.21,0,0,1-1.38-1.15,1.4,1.4,0,0,1-.49-.94c0-.38.46-.5.77-.55a6,6,0,0,1,1.73.11c1.37.22,2.74.55,4.1.84.68.14,1.36.28,2,.39a11.68,11.68,0,0,0,1.67.18,3.4,3.4,0,0,0,.57,0,.35.35,0,0,0,.11,0l.09,0a.39.39,0,0,0,.14-.08.35.35,0,0,0,.08-.11.15.15,0,0,0,0-.18,7.57,7.57,0,0,0-.78-1.1c-1.12-1.35-2.7-2.74-2.58-4.59a1,1,0,0,1,1-1,3.34,3.34,0,0,1,1.8.62,6.81,6.81,0,0,1,.88.64,11.77,11.77,0,0,1,.88.85,26,26,0,0,0,2.43,2c1.67,1.25,4.26,2.11,5.94,3.32.4.29,1.55,8.85.69,9.69-2.06,2-5.76,2-6.94,2.48-.56.21-1.12.41-1.69.58a22.84,22.84,0,0,1-4.44.89,6.27,6.27,0,0,1-1.88-.06c-.37-.08-.84-.28-.92-.74s.39-.8.72-1a11.81,11.81,0,0,1,1.63-.71,4.57,4.57,0,0,0,.67-.31,1.15,1.15,0,0,0,.2-.14l.06-.07a.17.17,0,0,0,0-.07c0-.14-.1-.24-.22-.28a3.08,3.08,0,0,0-.68-.08,19.57,19.57,0,0,0-2,.09c-.77,0-1.54.11-2.31.1a5.31,5.31,0,0,1-1.92-.26A1.37,1.37,0,0,1,613.2,419.57Z" transform="translate(-603.09 -294.01)"/><path class="cls-4" d="M653.41,435.75c-.68,6.38-12.5,10.34-26.38,8.85s-24.59-7.87-23.91-14.25c.92-8.62,12.43-9.67,26.31-8.18S654.25,427.9,653.41,435.75Z" transform="translate(-603.09 -294.01)"/><ellipse class="cls-5" cx="629.27" cy="423.72" rx="10.39" ry="22.61" transform="translate(-462.25 710.19) rotate(-83.88)"/><ellipse class="cls-6" cx="630.31" cy="413.95" rx="8.94" ry="19.48" transform="translate(-451.6 702.5) rotate(-83.88)"/><path class="cls-7" d="M646.43,406.69c-.43,4-7.57,6.59-15.95,5.69s-14.81-4.9-14.38-8.94c.63-5.85,7.58-6.58,15.95-5.69S647.06,400.84,646.43,406.69Z" transform="translate(-603.09 -294.01)"/><path class="cls-8" d="M643.59,398.63c-.37,3.4-5.81,5.6-12.16,4.92s-11.2-4-10.84-7.39c.44-4.09,5.76-5.15,12.11-4.47S644,394.61,643.59,398.63Z" transform="translate(-603.09 -294.01)"/><path class="cls-9" d="M650.52,429a5.44,5.44,0,0,0,1.23-2.82,7.87,7.87,0,0,0-3.33-7.44,4.84,4.84,0,0,0,1.26-2.67c.34-3.21-1.27-5.54-4.16-7.24a4,4,0,0,0,.91-2.09c.3-2.85-1.12-4.83-3.62-6.22a3.64,3.64,0,0,0,.77-1.85A4.84,4.84,0,0,0,640.9,394a10.83,10.83,0,0,1,.73,4.74c-.27,2.48-2.15,3.55-2.58,4.11,3.19.51,4.2,2.37,3.89,5.22a5.24,5.24,0,0,1-2.2,3.41c4.11.81,3.7,4.36,3.08,7.52a6.92,6.92,0,0,1-1.58,2.9c3.55.72,4.69,2.84,4.52,6.85,0,1-1.26,2.93-2.75,4.06,2.44-.25,3.22,2,3.19,3.24-.15,5.9-11,8.69-23.44,8.1,1.07.18,2.15.33,3.26.45,13.89,1.49,25.7-2.48,26.39-8.85A7.73,7.73,0,0,0,650.52,429Z" transform="translate(-603.09 -294.01)"/><path class="cls-10" d="M640.84,394.62c-.13,1.24-4,1.85-8.6,1.35s-8.24-1.9-8.11-3.14,3.93-1.41,8.55-.91S641,393.38,640.84,394.62Z" transform="translate(-603.09 -294.01)"/><g class="cls-11"><path class="cls-12" d="M606.68,432.42a24.18,24.18,0,0,0,9.48,6.1,40.61,40.61,0,0,0,11.47,2.59,32.11,32.11,0,0,0,7.52-.34,2,2,0,0,0,1.55-2.31,1.87,1.87,0,0,0-2.11-1.64,27.72,27.72,0,0,1-3,.34l-.38,0h-.84c-.51,0-1,0-1.53,0a35.57,35.57,0,0,1-6.07-.82l-1.11-.26h0l-.29-.08-.67-.18c-.81-.24-1.62-.49-2.41-.78a30.69,30.69,0,0,1-4.76-2.12c-.1-.06-.61-.36-.28-.16-.23-.14-.46-.28-.68-.43q-.57-.36-1.11-.78c-.38-.28-.74-.58-1.1-.89l-.51-.48c-.07-.07-.14-.15-.22-.22.24.23,0,0-.08-.09a1.79,1.79,0,0,0-2.6-.28,2.15,2.15,0,0,0-.3,2.82Z" transform="translate(-603.09 -294.01)"/></g><g class="cls-11"><path class="cls-12" d="M610.51,423.14a20.86,20.86,0,0,0,8.12,5.27,34.75,34.75,0,0,0,9.88,2.25,27.77,27.77,0,0,0,6.5-.29,2.06,2.06,0,0,0,1.55-2.32,1.89,1.89,0,0,0-2.12-1.64,21.72,21.72,0,0,1-2.54.3H631c-.45,0-.9,0-1.35,0a29.7,29.7,0,0,1-5.13-.69l-1-.23.12,0-.29-.08-.52-.14c-.68-.19-1.36-.41-2-.65a25.63,25.63,0,0,1-4-1.78c-.09-.05-.61-.36-.28-.16l-.55-.34c-.33-.22-.66-.45-1-.69s-.62-.49-.91-.75l-.4-.37-.1-.1-.15-.16a1.79,1.79,0,0,0-2.6-.28,2.16,2.16,0,0,0-.3,2.83Z" transform="translate(-603.09 -294.01)"/></g><g class="cls-11"><path class="cls-12" d="M614.83,414.39a15.42,15.42,0,0,0,3.44,2.27,30.29,30.29,0,0,0,4.05,1.77c3.3,1.15,7.06,1.92,10.53,1.21a2.06,2.06,0,0,0,1.55-2.32,1.86,1.86,0,0,0-2.11-1.63c-.43.08-.86.15-1.29.19-.06,0-.57,0-.24,0-.25,0-.5,0-.74,0a17.72,17.72,0,0,1-2.42-.25c-.84-.14-1.66-.33-2.48-.52l.13,0-.27-.07-.41-.12-1-.33a29.6,29.6,0,0,1-3.91-1.73l-.79-.43,0,0-.24-.15-.34-.22a8.82,8.82,0,0,1-1.28-1,1.79,1.79,0,0,0-2.6.45,2.15,2.15,0,0,0,.37,2.8Z" transform="translate(-603.09 -294.01)"/></g><g class="cls-11"><path class="cls-12" d="M619.12,405.69a11.53,11.53,0,0,0,2.58,1.83,23.21,23.21,0,0,0,3.09,1.51,15.92,15.92,0,0,0,8.24,1.25,2,2,0,0,0,1.55-2.31,1.88,1.88,0,0,0-2.11-1.64,7.91,7.91,0,0,1-1,.11c.29,0-.12,0-.18,0l-.47,0a15.58,15.58,0,0,1-1.92-.28l-.47-.11c-.05,0-.45-.12-.18,0l-.87-.25a14.43,14.43,0,0,1-1.39-.5,25.13,25.13,0,0,1-2.81-1.37c-.2-.11.26.16,0,0l-.32-.19-.58-.4a7.86,7.86,0,0,1-.94-.79,1.78,1.78,0,0,0-2.6.44,2.17,2.17,0,0,0,.37,2.8Z" transform="translate(-603.09 -294.01)"/></g><g class="cls-13"><path class="cls-12" d="M623.3,398.32c1.38,1.41,4.62,2.21,5.63,2.39a10.1,10.1,0,0,0,1.22.13,1.66,1.66,0,0,0,1.73-1.51,1.2,1.2,0,0,0-.59-1.29c-.64-.39-1.49-.14-4.11-1.17-2.35-.92-3.53-1.94-4.19-.9A1.73,1.73,0,0,0,623.3,398.32Z" transform="translate(-603.09 -294.01)"/></g><path class="cls-14" d="M639.48,386.26c-.78,7.32-3.64,8.84-6.92,8.49s-5.75-2.45-5-9.76,4.09-13,7.37-12.61S640.27,379,639.48,386.26Z" transform="translate(-603.09 -294.01)"/><path class="cls-15" d="M635,372.38a2.54,2.54,0,0,0-.39,0c2.41,1.74,3.75,7.13,3.09,13.31-.79,7.31-3.64,8.84-6.93,8.48l-.44-.05a6.48,6.48,0,0,0,2.27.64c3.28.35,6.14-1.17,6.92-8.49S638.24,372.73,635,372.38Z" transform="translate(-603.09 -294.01)"/><g class="cls-16"><path class="cls-12" d="M632.18,375.61a11.41,11.41,0,0,0-1.65,3.22,28.74,28.74,0,0,0-1.19,4.39c-.51,2.68-.87,5.89.18,8.45.63,1.56,2.32.61,2.26-1.11-.33-9.46,2.63-14.85,2.13-15.25a1.21,1.21,0,0,0-1.73.3Z" transform="translate(-603.09 -294.01)"/></g><ellipse class="cls-17" cx="88.16" cy="171.95" rx="72.14" ry="10.97"/><path class="cls-18" d="M722.17,423.08c-2.61-20.9-9.1-51.93-30.07-51-21.52-.89-29.05,30.14-31.67,51-3.14,25.15-.45,39.42,30.87,39.42S725.31,448.23,722.17,423.08Z" transform="translate(-603.09 -294.01)"/><path class="cls-2" d="M722.17,423.08c-2.3-18.38-2.91-44.15-23.1-50,16.08,6.08,16.88,32.91,17.76,50.48,1.28,25.32-3.05,39.35-34.28,37a67.62,67.62,0,0,1-12.66-2c4.88,2.59,11.8,3.94,21.41,3.94C722.62,462.5,725.31,448.23,722.17,423.08Z" transform="translate(-603.09 -294.01)"/><path class="cls-19" d="M723,423.47a.88.88,0,0,0-1.19-.6c-7.11,3-28,4.08-37.32,4.22-10.36.17-19-2.64-23.9-4.35a.51.51,0,0,0-.67.44c-.14,1.56-.48,5.53-.62,7.33,1.46.34,13.71,29,14.11,30.19,4.49,1.93,17.16,2.6,23.52,2.65-.18-3.25,20.52-6.8,23.33-6.68C729.63,448.33,724.13,428.2,723,423.47Z" transform="translate(-603.09 -294.01)"/><path class="cls-18" d="M659.87,318.77c5-18.24,24.83-28.71,44.27-23.37s31.13,24.45,26.13,42.7a32.19,32.19,0,0,1-5.14,10.59c2.86-.92,5.68-.5,7.27,1.36,2.4,2.8,1.16,7.78-2.75,11.13s-8.62,3.76-11.12,1.32c-5.14,14.7-21.66,22.91-37.88,18.46-16.89-4.64-27.06-21.25-22.7-37.1l.15-.54a26.84,26.84,0,0,0,.93-11.44A32.48,32.48,0,0,1,659.87,318.77Z" transform="translate(-603.09 -294.01)"/><path class="cls-20" d="M719.85,354.2a11.91,11.91,0,0,1,4-2.53c2.34-.91,6.55-1.34,7.68,1.59.09.23-.24.47-.44.33-2.13-1.58-4.71-1.32-7-.14a11.9,11.9,0,0,0-2.17,1.45l.61.17a11.74,11.74,0,0,1,2.46.78.27.27,0,0,1-.07.5,5.06,5.06,0,0,1-2.59,0,6.44,6.44,0,0,1-1.44-.42c-.33.36-.64.75-1,1.15a4.34,4.34,0,0,1-1.29,1.34.58.58,0,0,1-.83-.35C717.55,356.59,718.9,355.13,719.85,354.2Z" transform="translate(-603.09 -294.01)"/><ellipse class="cls-21" cx="669.75" cy="342.85" rx="8.09" ry="7.04" transform="translate(-387.25 648.9) rotate(-80)"/><path class="cls-22" d="M671.12,334.87a7,7,0,0,1,.79.2c-3.54-.16-6.82,2.74-7.54,6.83s1.37,7.93,4.75,9a7.43,7.43,0,0,1-.81-.09c-3.83-.68-6.31-4.79-5.53-9.19S667.29,334.2,671.12,334.87Z" transform="translate(-603.09 -294.01)"/><path class="cls-23" d="M663.46,344.1a5.2,5.2,0,1,0,6-4.22A5.2,5.2,0,0,0,663.46,344.1Z" transform="translate(-603.09 -294.01)"/><path d="M664.28,345.77a3.15,3.15,0,1,0,3.64-2.56A3.14,3.14,0,0,0,664.28,345.77Z" transform="translate(-603.09 -294.01)"/><path class="cls-12" d="M665,339.39a1.65,1.65,0,0,1,1.91-.86,1.76,1.76,0,0,1,1.17,1.39,1.46,1.46,0,0,1-.92,1.77,1.79,1.79,0,0,1-1.85-.35A1.64,1.64,0,0,1,665,339.39Z" transform="translate(-603.09 -294.01)"/><path class="cls-12" d="M666.45,342.73l.12-.15h0a.64.64,0,0,1,.22-.24h0a.85.85,0,0,1,.87-.08.89.89,0,0,1,.5.71v0a2.26,2.26,0,0,1,0,.26,1,1,0,0,1-.3.52,1,1,0,0,1-.6.28,1,1,0,0,1-.48-.08.9.9,0,0,1-.44-.48A.86.86,0,0,1,666.45,342.73Z" transform="translate(-603.09 -294.01)"/><path class="cls-12" d="M673.43,337.72c.79-.15,1.42.54,1.8,1.15s.62,1.49,0,1.95a.21.21,0,0,1-.24,0c-.47-.24-.64-.91-.88-1.33a8.43,8.43,0,0,1-.94-1.46A.26.26,0,0,1,673.43,337.72Z" transform="translate(-603.09 -294.01)"/><path d="M665.2,336.59c1.39-2,4.45-2.33,6.62-1.64a7.07,7.07,0,0,1,4.78,5c0,.08-.09.11-.13,0-1.24-1.88-2.58-3.66-4.82-4.39s-4.3,0-6.21,1.22A.18.18,0,0,1,665.2,336.59Z" transform="translate(-603.09 -294.01)"/><path class="cls-24" d="M673.51,344.26a5.87,5.87,0,0,1-.11,1.62c-.16.72-1.3.53-1.14-.2a4.83,4.83,0,0,0,.1-1.31C672.32,343.63,673.46,343.52,673.51,344.26Z" transform="translate(-603.09 -294.01)"/><path class="cls-24" d="M671.69,347.16l.34-.48a.57.57,0,0,1,.81-.06.6.6,0,0,1,.07.81l-.34.48a.58.58,0,0,1-.82.07A.6.6,0,0,1,671.69,347.16Z" transform="translate(-603.09 -294.01)"/><path class="cls-24" d="M664.25,343l.22-.4a.63.63,0,0,1,.33-.29.56.56,0,0,1,.44,0,.58.58,0,0,1,.28.77l-.23.4a.57.57,0,0,1-.32.29.58.58,0,0,1-.72-.79Z" transform="translate(-603.09 -294.01)"/><path class="cls-21" d="M691.79,346.73c-.78,4.4,1.7,8.52,5.53,9.19s7.56-2.34,8.34-6.74-1.7-8.52-5.53-9.19S692.56,342.33,691.79,346.73Z" transform="translate(-603.09 -294.01)"/><path class="cls-22" d="M700.09,340a7,7,0,0,1,.79.2c-3.54-.16-6.81,2.74-7.54,6.83s1.37,7.93,4.75,9a7.4,7.4,0,0,1-.81-.08c-3.83-.68-6.31-4.79-5.53-9.19S696.26,339.31,700.09,340Z" transform="translate(-603.09 -294.01)"/><path class="cls-23" d="M692.43,349.2a5.21,5.21,0,1,0,6-4.22A5.2,5.2,0,0,0,692.43,349.2Z" transform="translate(-603.09 -294.01)"/><path d="M693.25,350.87a3.15,3.15,0,1,0,3.64-2.55A3.15,3.15,0,0,0,693.25,350.87Z" transform="translate(-603.09 -294.01)"/><path class="cls-12" d="M694,344.5a1.65,1.65,0,0,1,1.91-.86,1.75,1.75,0,0,1,1.17,1.38,1.45,1.45,0,0,1-.92,1.77,1.79,1.79,0,0,1-1.85-.34A1.64,1.64,0,0,1,694,344.5Z" transform="translate(-603.09 -294.01)"/><path class="cls-12" d="M695.42,347.84a.64.64,0,0,1,.13-.15h0a.64.64,0,0,1,.22-.24l0,0a.88.88,0,0,1,1.37.63v0a2.09,2.09,0,0,1,0,.25,1,1,0,0,1-.3.53,1,1,0,0,1-.6.28.9.9,0,0,1-.48-.09.88.88,0,0,1-.44-.47A.86.86,0,0,1,695.42,347.84Z" transform="translate(-603.09 -294.01)"/><path class="cls-12" d="M702.4,342.83c.79-.16,1.42.54,1.8,1.15s.63,1.48,0,1.95a.23.23,0,0,1-.24,0c-.46-.24-.64-.91-.88-1.34a8,8,0,0,1-.94-1.45A.26.26,0,0,1,702.4,342.83Z" transform="translate(-603.09 -294.01)"/><path d="M694.17,341.7c1.39-2,4.45-2.33,6.62-1.64a7.07,7.07,0,0,1,4.78,5c0,.07-.09.11-.13.05-1.24-1.89-2.58-3.66-4.82-4.39s-4.3,0-6.21,1.22A.18.18,0,0,1,694.17,341.7Z" transform="translate(-603.09 -294.01)"/><path class="cls-24" d="M702.48,349.37a5.9,5.9,0,0,1-.11,1.62c-.16.72-1.3.52-1.14-.2a4.5,4.5,0,0,0,.1-1.32C701.29,348.73,702.44,348.62,702.48,349.37Z" transform="translate(-603.09 -294.01)"/><path class="cls-24" d="M700.66,352.27l.34-.48a.57.57,0,0,1,.81-.07.6.6,0,0,1,.07.82l-.34.48a.58.58,0,0,1-.82.06A.59.59,0,0,1,700.66,352.27Z" transform="translate(-603.09 -294.01)"/><path class="cls-24" d="M693.22,348.08l.23-.4a.59.59,0,0,1,.32-.3.56.56,0,0,1,.44,0,.59.59,0,0,1,.28.77l-.23.41a.57.57,0,0,1-.32.29.58.58,0,0,1-.72-.79Z" transform="translate(-603.09 -294.01)"/><path class="cls-20" d="M675.77,356.82a5.16,5.16,0,0,1-.88-2.78c0-1.77,1.48-3.89,3.48-4a.18.18,0,0,1,.13.32,6,6,0,0,0-1.68,1.7,4.34,4.34,0,0,0-.5,2.1,3.78,3.78,0,0,0,.72,2c.33.47,1.05,1.08,1.06,1.65a.28.28,0,0,1-.17.28C677.1,358.46,676.16,357.43,675.77,356.82Z" transform="translate(-603.09 -294.01)"/><path class="cls-25" d="M706.88,335.65a15.37,15.37,0,0,0-5.74-2.8.87.87,0,0,1,.46-1.67,16.45,16.45,0,0,1,6.17,3C708.64,334.83,707.77,336.34,706.88,335.65Z" transform="translate(-603.09 -294.01)"/><path class="cls-25" d="M665.19,328.65a5.31,5.31,0,0,1,5.74-2.21.87.87,0,0,1-.46,1.67,3.52,3.52,0,0,0-3.78,1.43C666.07,330.47,664.57,329.59,665.19,328.65Z" transform="translate(-603.09 -294.01)"/><path class="cls-25" d="M681.34,307.65a10.94,10.94,0,0,1,3.11-1.56c1.06-.32,2.14-.59,3.22-.85a63.93,63.93,0,0,0,6.36-1.53,10.55,10.55,0,0,0,4.87-3.36,6.73,6.73,0,0,0,1.23-2.43,12.52,12.52,0,0,1,.55-2.71.3.3,0,0,1,.4-.1c.89.49,1,1.69,1,2.64a7.91,7.91,0,0,1-.83,3.33,10.14,10.14,0,0,1-5.12,4.71,24,24,0,0,1-7.13,1.84c-1.26.15-2.54.18-3.8.33-.58.07-1.16.21-1.75.25s-1.29.06-1.94.13C681.11,308.39,681.07,307.84,681.34,307.65Z" transform="translate(-603.09 -294.01)"/><path class="cls-25" d="M679.48,301.93a7.62,7.62,0,0,1,4.14-2.29c1.79-.46,3.65-.72,5.46-1.08,1.58-.3,3.21-.53,4.78-.94a10.13,10.13,0,0,0,1.9-.71,3.63,3.63,0,0,0,1.74-1.32.08.08,0,0,1,.15.06,5.45,5.45,0,0,1-.65,1.81,4.36,4.36,0,0,1-1.57,1.29,17.28,17.28,0,0,1-4.6,1.47c-3.65.78-7.3,1.65-11,2.4A.41.41,0,0,1,679.48,301.93Z" transform="translate(-603.09 -294.01)"/><path class="cls-25" d="M686.38,296.36a9.07,9.07,0,0,1,2.88-.59c1-.16,1.92-.3,2.9-.42.12,0,.16.18.06.23a10.73,10.73,0,0,1-2.85,1.1,5.61,5.61,0,0,1-2.92.24A.31.31,0,0,1,686.38,296.36Z" transform="translate(-603.09 -294.01)"/><path class="cls-25" d="M692.07,309.4a37.68,37.68,0,0,0,5.68-.88,9.43,9.43,0,0,0,4.39-2.2,9.17,9.17,0,0,0,2.61-4.26,9.06,9.06,0,0,0,.32-2.59A11,11,0,0,0,705,298a2.87,2.87,0,0,1-.1-1,.2.2,0,0,1,.3-.12,4.46,4.46,0,0,1,1.05,2.53,10.06,10.06,0,0,1,.06,2.95,9.7,9.7,0,0,1-7.73,8.24c-2.25.41-4.35-.29-6.51-.83A.14.14,0,0,1,692.07,309.4Z" transform="translate(-603.09 -294.01)"/><path class="cls-25" d="M708.6,297.92a.16.16,0,0,1,.14-.08c1.12.06,1.59,2.16,1.8,3,.31,1.23.56,2.92-.22,4a.34.34,0,0,1-.6-.08c-.37-1.18-.16-2.53-.4-3.74a10.63,10.63,0,0,0-.56-1.82A1.66,1.66,0,0,1,708.6,297.92Z" transform="translate(-603.09 -294.01)"/><path class="cls-2" d="M720.65,304.78c7.45,8.79,10,23.49,7,33.94a33.3,33.3,0,0,1-5.44,10.58,10.76,10.76,0,0,1,2.89-.61,35.78,35.78,0,0,0,5.14-10.59c3.34-12.17-.75-24.73-9.62-33.32Z" transform="translate(-603.09 -294.01)"/><path class="cls-2" d="M716.68,360.78c-5.06,13.73-22.11,22-38.35,17.78a34.66,34.66,0,0,1-12-5.76A33.28,33.28,0,0,0,680.65,381c16.14,4.43,32.65-3.9,37.88-18.46A13.8,13.8,0,0,1,716.68,360.78Z" transform="translate(-603.09 -294.01)"/><path class="cls-2" d="M731.41,349.5a8,8,0,0,0-3.07-.46,7.09,7.09,0,0,0-1.78.19,11.66,11.66,0,0,0-1.56.59.14.14,0,0,0,0,.27c.92.1,1.82.37,2.76.44a8.26,8.26,0,0,1,2.57.45c1.47.61,1.5,2.41,1.16,3.74a8.25,8.25,0,0,1-2.17,3.69c-1.1,1.09-2.49,1.79-3.64,2.82a.46.46,0,0,0,.38.79c1.89-.13,3.62-1.51,4.88-2.85a9.35,9.35,0,0,0,2.52-4.88C733.83,352.39,733.31,350.33,731.41,349.5Z" transform="translate(-603.09 -294.01)"/><path class="cls-18" d="M718.33,388.18c-1.34-6.1-9.23-12.4-11.61-11.26-6.44,3.06-2.48,13.72-2.25,16.51.2,2.42,8.36,16.59,8.95,14.93C715.18,403.4,719.5,393.52,718.33,388.18Z" transform="translate(-603.09 -294.01)"/><path class="cls-2" d="M718.33,388.18c-1.34-6.1-9.23-12.4-11.61-11.26l-.25.12c3.28,1.18,8.61,6.23,9.69,11.14s.46,6.64-1.5,11.88c.88,1.18,1.4,12.68,1.54,12.25C718.33,406.2,719.5,393.52,718.33,388.18Z" transform="translate(-603.09 -294.01)"/><path class="cls-2" d="M693.56,387.64a3.24,3.24,0,0,0-1.19,1.22c-.37.53-.73,1.07-1,1.64s-.7,1.31-1,2a8.6,8.6,0,0,1-.56-1.51,15.36,15.36,0,0,1-.19-3.32c0-.18-.26-.2-.32-.05a6.29,6.29,0,0,0-.25,3.57,6.48,6.48,0,0,0,.83,2.45c-.08.2-.17.41-.25.62a28,28,0,0,0-1.13,3.72,10.81,10.81,0,0,0-.32,4c0,.07.12.11.15,0a36,36,0,0,0,.89-3.58,28.56,28.56,0,0,1,1.22-3.84,2.88,2.88,0,0,1,.13-.31.22.22,0,0,0,.34-.21c0-.14-.05-.27-.08-.41a25,25,0,0,1,1.31-2.58c.34-.6.7-1.2,1.07-1.78a4.06,4.06,0,0,0,.72-1.44A.22.22,0,0,0,693.56,387.64Z" transform="translate(-603.09 -294.01)"/><path class="cls-2" d="M714.66,400.06c-1.41,1.87-2.63,3.87-4.14,5.67a33.05,33.05,0,0,1-4.8,4.66,38.61,38.61,0,0,1-12.38,6.32c-.09,0-.05.14,0,.13a25,25,0,0,0,6.84-1.87,32.21,32.21,0,0,0,11.4-8.67,17.6,17.6,0,0,0,3.51-6C715.22,400,714.83,399.84,714.66,400.06Z" transform="translate(-603.09 -294.01)"/><path class="cls-26" d="M700.49,386.1c-3,.93-5.43,3.33-7.21,5.82a19.07,19.07,0,0,0-2.32,4.16,9.81,9.81,0,0,0-.93,4.69.29.29,0,0,0,.53.13c.7-1.29,1-2.81,1.62-4.15a24,24,0,0,1,2.15-4,39.76,39.76,0,0,1,6.23-6.54A.07.07,0,0,0,700.49,386.1Z" transform="translate(-603.09 -294.01)"/><path class="cls-26" d="M664.34,366.33a17.9,17.9,0,0,1-2.79-4.95,36.22,36.22,0,0,1-1.55-6.32,32.66,32.66,0,0,1-.39-6.84,28.6,28.6,0,0,1,.38-3.46,21.92,21.92,0,0,0,.51-3.11s-.06-.07-.09,0c-1.43,1.75-1.81,4.42-2,6.6a29.74,29.74,0,0,0,.17,7.24,32.2,32.2,0,0,0,1.62,6.78c.71,1.91,1.82,3.84,3.81,4.6A.35.35,0,0,0,664.34,366.33Z" transform="translate(-603.09 -294.01)"/><path class="cls-26" d="M668.09,307a18.14,18.14,0,0,0-4.11,4,24.18,24.18,0,0,0-2.81,5.14A25.64,25.64,0,0,0,659.39,328a13.4,13.4,0,0,0,1.89,6.34c.18.26.7.2.67-.19-.07-.89-.29-1.76-.44-2.64s-.25-1.84-.35-2.77a26.29,26.29,0,0,1,3.41-16.21,35.47,35.47,0,0,1,3.64-5.29C668.28,307.12,668.19,307,668.09,307Z" transform="translate(-603.09 -294.01)"/><path class="cls-18" d="M634.78,414a1.07,1.07,0,0,1,.84-.83,5.82,5.82,0,0,1,1.77-.24c1.19,0,2.4.16,3.59.18h.07a8.36,8.36,0,0,0-1-.47c-.66-.28-1.33-.53-2-.8s-1.42-.58-2.12-.92a8.83,8.83,0,0,1-1.71-1,1.82,1.82,0,0,1-.76-1.13.86.86,0,0,1,.62-.88,3.62,3.62,0,0,1,1.61-.14,15,15,0,0,1,2.08.33c.68.14,1.36.31,2,.49l.94.24a14.66,14.66,0,0,1-3.08-2.61,8,8,0,0,1-1.07-1.44,1.48,1.48,0,0,1-.24-1c.12-.36.56-.38.87-.35a5.61,5.61,0,0,1,1.66.52c1.28.53,2.52,1.18,3.78,1.78.63.3,1.25.6,1.89.87a11.84,11.84,0,0,0,1.57.57,3.19,3.19,0,0,0,.57.09h.21a.37.37,0,0,0,.15,0,.27.27,0,0,0,.1-.09.15.15,0,0,0,0-.18,8.3,8.3,0,0,0-.49-1.25c-.77-1.58-2-3.3-1.43-5.08a1,1,0,0,1,1.21-.78,3.36,3.36,0,0,1,1.6,1,8,8,0,0,1,.71.83c.24.33.43.69.65,1a25.06,25.06,0,0,0,1.87,2.56c1.32,1.61,3.64,3.06,5,4.64.33.38-.59,9-1.63,9.58-2.48,1.47-6.08.6-7.32.76-.6.07-1.19.13-1.79.16a23.67,23.67,0,0,1-4.52-.19,6.27,6.27,0,0,1-1.81-.5c-.34-.17-.75-.48-.72-.94s.57-.69.94-.79a12.55,12.55,0,0,1,1.75-.31,4.17,4.17,0,0,0,.72-.14,1,1,0,0,0,.23-.09l.07-.05,0-.06a.26.26,0,0,0-.15-.32,2.73,2.73,0,0,0-.64-.24,17.52,17.52,0,0,0-2-.4c-.76-.13-1.52-.26-2.27-.45a5.18,5.18,0,0,1-1.81-.71A1.36,1.36,0,0,1,634.78,414Z" transform="translate(-603.09 -294.01)"/><path class="cls-2" d="M689.91,405.68a5.73,5.73,0,0,0-2.52-2.47c-.23-.12-.41.26-.2.4a6.46,6.46,0,0,1,2.19,2.45,12.38,12.38,0,0,1,.71,3.06.23.23,0,0,0,.43,0A4.6,4.6,0,0,0,689.91,405.68Z" transform="translate(-603.09 -294.01)"/><path class="cls-2" d="M656,410.45a7.19,7.19,0,0,0-1.51,3.55,5.8,5.8,0,0,0,.37,3.68.15.15,0,0,0,.28-.09A25.11,25.11,0,0,1,655,414a10.83,10.83,0,0,1,1.21-3.39C656.27,410.47,656.06,410.31,656,410.45Z" transform="translate(-603.09 -294.01)"/><path class="cls-26" d="M657.57,410.8c-1.13.82-2,3.26-1.3,4.56,0,.05.09,0,.1,0,.23-.7.2-1.47.43-2.18s.72-1.39,1-2.13C657.9,410.89,657.73,410.69,657.57,410.8Z" transform="translate(-603.09 -294.01)"/><path class="cls-26" d="M653.86,418.41c-.93-.12-1.9.45-2.84.55a8.47,8.47,0,0,1-1.67,0c-.52,0-1.09,0-1.59-.07-.08,0-.11.08,0,.13a4.53,4.53,0,0,0,1.56.8,6.72,6.72,0,0,0,1.79.12c1-.07,2.46-.26,3-1.22A.22.22,0,0,0,653.86,418.41Z" transform="translate(-603.09 -294.01)"/><path class="cls-26" d="M665,419.9c-1.47-.14-3,0-4.42-.18s-2.67-.54-4-.65c-.13,0-.13.16,0,.22a9.29,9.29,0,0,0,4.26,1.25,9.17,9.17,0,0,0,4.29-.35A.15.15,0,0,0,665,419.9Z" transform="translate(-603.09 -294.01)"/><path class="cls-26" d="M675,382.12a15.88,15.88,0,0,0-3.58,3.91c-.89,1.36-2.09,3.24-1.92,4.94a.32.32,0,0,0,.55.22,6.92,6.92,0,0,0,1.36-2c.39-.78.79-1.54,1.23-2.29.86-1.49,1.83-2.93,2.77-4.37C675.53,382.29,675.21,381.94,675,382.12Z" transform="translate(-603.09 -294.01)"/><path class="cls-27" d="M712.45,429.14c0-.18-.49-2.64-.57-3.28s-2.91.72-16.45,1.58a9.84,9.84,0,0,0-3.73.67,2.6,2.6,0,0,0-1.06,2.92c.27,1.31,1.38,2,3,2.26a26.62,26.62,0,0,0,6.18-.07c2.42-.19,4.82-.47,7.22-.75a46.47,46.47,0,0,0,5.41-.86C713,431.31,712.56,430.58,712.45,429.14Z" transform="translate(-603.09 -294.01)"/><path class="cls-27" d="M671.12,427.37c-.46-.64-1.45-.64-2.13-.84-1.1-.32-2.2-.68-3.3-1-1.34-.44-6.26-2.44-6.65-2a3.36,3.36,0,0,0-.52,1.81c-.1.77-.27,1.56-.3,2.32-.06,1.55,1.18,1.82,2.24,2.21,2.78,1,5.63,2.3,8.58,2.66C671,432.7,672.21,428.88,671.12,427.37Z" transform="translate(-603.09 -294.01)"/><path class="cls-18" d="M678.53,448.52a39.13,39.13,0,0,0-6.8-8.74,48.89,48.89,0,0,0-9.26-7.91,27.57,27.57,0,0,0-3-1.61s-9.86,16.13-9.61,24.82c.21,7.39,4.5,17.65,13.09,18.07a13.65,13.65,0,0,0,5.78-1.06,8.26,8.26,0,0,0,3.13-2,26,26,0,0,0,4-6.62,44.91,44.91,0,0,0,3-8.38,14.93,14.93,0,0,0,.5-3.38A6.49,6.49,0,0,0,678.53,448.52Z" transform="translate(-603.09 -294.01)"/><path class="cls-2" d="M678.53,448.52a38.52,38.52,0,0,0-6.79-8.73,12.75,12.75,0,0,1,.86,3.59,13.58,13.58,0,0,1-.78,5.72c-.67,1.94-1.62,3.78-2.3,5.72a29.35,29.35,0,0,0-1.3,5.93,25.11,25.11,0,0,1-1,5.45,9.12,9.12,0,0,1-6.07,6,7.15,7.15,0,0,1-1.71.21,10.41,10.41,0,0,0,3.49.78,13.65,13.65,0,0,0,5.78-1.06,8.26,8.26,0,0,0,3.13-2,26,26,0,0,0,4-6.62,44.91,44.91,0,0,0,3-8.38,14.93,14.93,0,0,0,.5-3.38A6.49,6.49,0,0,0,678.53,448.52Z" transform="translate(-603.09 -294.01)"/><path class="cls-18" d="M681,445.74c15.45-13.32,35.14-17.78,40.26-6.65,7.28,15.8-5.71,24-12.67,27.07-9.31,4.09-31.67,12-37.05,3.81C669.16,466.32,667.33,457.55,681,445.74Z" transform="translate(-603.09 -294.01)"/><path class="cls-2" d="M721.28,439.09c-2.28-5-7.45-6.82-13.85-6.18a6,6,0,0,1,6.29,5.53c1.43,16.43-16.52,15.47-24.51,19.55-5.69,2.91-13.73,7.09-13.73,14.81,8.49,2.84,25.36-3.22,33.13-6.64C715.57,463.1,728.56,454.89,721.28,439.09Z" transform="translate(-603.09 -294.01)"/><path class="cls-18" d="M739.7,462.63c-.57-2.19-3.3-2.55-5.17-2.82a13,13,0,0,1-5.63-2.1,13.86,13.86,0,0,1-2.5-2.14,20.71,20.71,0,0,0-1.9-2,4.38,4.38,0,0,0-5.24-.4c-1.31.8-1.74,1.35-2.68,4.58-.15.54-.06,1.09-.21,1.63a1.7,1.7,0,0,1-.17.41,2.25,2.25,0,0,1-.12.21.61.61,0,0,0,0,.06l0,0c-4.3-.93-10.84-.35-17.39-3.27-9.19-4.08-27.67,4.66-27.1,10.85s8.45,10.06,28.91,5.67c5.25-1.12,9.22-2,12.2-2.67,4.64-.92,9.26-1.88,11.63-2.43,5-1.17,10.2-1.69,14.84-4.08A1.43,1.43,0,0,0,739.7,462.63ZM716.11,460s0,0,0,0Z" transform="translate(-603.09 -294.01)"/><path class="cls-2" d="M739.7,462.63c-.38-1.44-1.69-2.09-3.07-2.44.18.26,2.81,1.92.23,3.16-4.7,2.26-8.39,3.21-15.26,3.38-2.43.06-7,1.52-11.63,2.44-3,.69-6.94,1.54-12.2,2.67-11.75,2.51-19.35,2.31-23.8.5,3.72,3.1,11.91,4.16,26.46,1,5.25-1.12,9.22-2,12.2-2.67,4.64-.92,9.26-1.88,11.63-2.43,5-1.17,10.2-1.69,14.84-4.08A1.43,1.43,0,0,0,739.7,462.63Z" transform="translate(-603.09 -294.01)"/><path class="cls-2" d="M715.69,460.22c0-.37.61-.5.68-.1a8.13,8.13,0,0,0,.94,2.84,14.88,14.88,0,0,0,1.9,2.36c.11.13,0,.41-.18.33C717,464.84,715.7,462.35,715.69,460.22Z" transform="translate(-603.09 -294.01)"/><path class="cls-2" d="M685.15,467.72c0-.38-.61-.5-.67-.11a8.41,8.41,0,0,1-1,2.85,16.43,16.43,0,0,1-1.89,2.36c-.12.12,0,.41.18.33C683.89,472.34,685.14,469.85,685.15,467.72Z" transform="translate(-603.09 -294.01)"/><path class="cls-26" d="M672.49,458.35c-.84.12-1.21,1-1.46,1.73a7.93,7.93,0,0,0-.4,2.65,6.76,6.76,0,0,0,1.45,4.62s.11,0,.1,0a15.16,15.16,0,0,1,.15-5.29C672.49,461.47,674.09,458.13,672.49,458.35Z" transform="translate(-603.09 -294.01)"/><path class="cls-26" d="M705.39,434.94a17.88,17.88,0,0,0-3.86.34,18.48,18.48,0,0,0-3.74,1.32,56.16,56.16,0,0,0-7.07,3.84,69.82,69.82,0,0,0-12.08,9,20.58,20.58,0,0,0-2.51,3,10.57,10.57,0,0,0-1.77,3.61.11.11,0,0,0,.18.1c.79-.84,1.41-1.81,2.17-2.68s1.54-1.65,2.35-2.45a41,41,0,0,1,5.47-4.45,90.3,90.3,0,0,1,12.9-7.77c1.29-.61,2.63-1.06,4-1.59s2.71-1.11,4.09-1.59A.33.33,0,0,0,705.39,434.94Z" transform="translate(-603.09 -294.01)"/><path class="cls-26" d="M658.32,469c-.63-.75-1.09-1.61-1.69-2.39s-1.09-1.5-1.57-2.28a19.06,19.06,0,0,1-2.15-5.41,21.9,21.9,0,0,1,1.19-12.79c.92-2.49,2.07-4.88,3.09-7.32,0-.12-.13-.22-.21-.13a29.93,29.93,0,0,0-5.82,13.53A19.86,19.86,0,0,0,653,464.89,11.83,11.83,0,0,0,655,467.7a8.66,8.66,0,0,0,3,1.74C658.34,469.56,658.49,469.15,658.32,469Z" transform="translate(-603.09 -294.01)"/><path class="cls-26" d="M701.41,459a12.43,12.43,0,0,0-6.36-2.6,11.4,11.4,0,0,0-3.35.06,4,4,0,0,0-2.65,1.23.19.19,0,0,0,.16.28c1-.09,1.89-.48,2.9-.52a12.33,12.33,0,0,1,3.15.35c2,.44,3.92,1.33,6,1.56A.22.22,0,0,0,701.41,459Z" transform="translate(-603.09 -294.01)"/><path class="cls-26" d="M721.11,453.51a2.82,2.82,0,0,0-1.94.85,6.85,6.85,0,0,0-1.36,2.05c-.57,1.34-.9,3.37.32,4.48a.27.27,0,0,0,.45-.12,27.34,27.34,0,0,1,.49-3.82,5.42,5.42,0,0,1,1-1.72,9,9,0,0,0,1.17-1.53A.13.13,0,0,0,721.11,453.51Z" transform="translate(-603.09 -294.01)"/><path class="cls-18" d="M667.39,422.1c-10.41-.31-14.51-2.21-14.69-6.44s4.38-8.23,16.9-9.73c10.54-1.27,20.93-2.52,21.25,5.14S680.4,422.49,667.39,422.1Z" transform="translate(-603.09 -294.01)"/><path class="cls-2" d="M690.33,417.24c-1.09.5-2.07,1.22-3.15,1.76a28.39,28.39,0,0,1-3.46,1.45,33,33,0,0,1-7.24,1.55,49.17,49.17,0,0,1-14.64-1c-2.72-.55-5.38-1.33-8.08-2-.06,0-.08.09,0,.11a60.85,60.85,0,0,0,14.61,3.64,36.62,36.62,0,0,0,14.79-1,27.25,27.25,0,0,0,4-1.53,13.06,13.06,0,0,0,3.64-2.26C691.11,417.7,690.79,417,690.33,417.24Z" transform="translate(-603.09 -294.01)"/><path class="cls-2" d="M684.29,403.17a7.7,7.7,0,0,0-3.38-.05c-1.15.11-2.29.25-3.43.43a70.49,70.49,0,0,0-7.05,1.45c-2.33.59-4.66,1.25-6.95,2s-4.49,1.39-6.62,2.33c-.12.05-.05.23.07.21,2.35-.47,4.65-1.26,7-1.88s4.47-1.23,6.73-1.74,4.52-1,6.8-1.32c1.14-.17,2.29-.31,3.44-.42a10.31,10.31,0,0,0,3.47-.51A.27.27,0,0,0,684.29,403.17Z" transform="translate(-603.09 -294.01)"/><path class="cls-26" d="M686.51,405.12a20.55,20.55,0,0,0-5.86-.07c-2,.21-4.08.5-6.1.86s-3.86.84-5.76,1.36c-1,.27-1.92.56-2.87.88-.47.16-.95.32-1.42.5a10.06,10.06,0,0,0-1.45.77c-.19.1-.14.43.1.39,2-.29,3.88-.89,5.82-1.36s3.82-.84,5.75-1.19,3.88-.62,5.83-.83a42.35,42.35,0,0,0,6-.81A.25.25,0,0,0,686.51,405.12Z" transform="translate(-603.09 -294.01)"/><path class="cls-28" d="M688.8,363.36c-.83-.3-2.29,2.86-9.78,3.3-3.42.19-6.12-2.15-6.79-1.09-1.6,2.53,3,6.58,4.38,6.92,3,.76,7.67.43,10.27-1.49C689.08,369.38,691.15,364.2,688.8,363.36Z" transform="translate(-603.09 -294.01)"/><path class="cls-29" d="M687.82,366.62c-1.11.33-2.78,2.7-3,2.55-2-1.21-4.34-.16-6,1a12.74,12.74,0,0,0-2.44,2.23l.32.12c3,.75,7.67.42,10.27-1.5a8.86,8.86,0,0,0,2.8-4.59A4.36,4.36,0,0,0,687.82,366.62Z" transform="translate(-603.09 -294.01)"/><path class="cls-21" d="M678,366.64a15.5,15.5,0,0,1-2.59-.58s-.37.9-.2,1.08a4.84,4.84,0,0,0,2.22.58C677.87,367.72,678,366.64,678,366.64Z" transform="translate(-603.09 -294.01)"/><path class="cls-21" d="M683.38,366a26,26,0,0,1-2.63.52s0,1.12.5,1.05a9.41,9.41,0,0,0,1.93-.36C683.83,367,683.38,366,683.38,366Z" transform="translate(-603.09 -294.01)"/></g></g></svg>