<svg xmlns="http://www.w3.org/2000/svg" viewBox="0 0 178.02 196.23"><defs><style>.cls-1{isolation:isolate;}.cls-2{fill:#ffc0a6;}.cls-3{fill:#ffb191;}.cls-4{fill:#f7a17e;}.cls-5{fill:#f5f5f5;mix-blend-mode:multiply;}.cls-6{fill:#fae7db;}.cls-7{fill:#d1785a;}.cls-8{fill:#f2f2f2;}.cls-9{fill:#e6e6e6;}.cls-10{fill:#2a86ad;}.cls-11,.cls-19,.cls-22,.cls-23,.cls-24{fill:#fff;}.cls-12{fill:#54bee8;}.cls-13{fill:#de954c;}.cls-14{fill:#ffd5c6;}.cls-15{fill:#a1dded;}.cls-16{fill:#00485b;}.cls-17{fill:#bf6800;}.cls-18{fill:#e6931e;}.cls-19{opacity:0.5;}.cls-20{fill:#ff5274;}.cls-21{fill:#f03;}.cls-22{opacity:0.37;}.cls-23{opacity:0.64;}.cls-24{opacity:0.29;}.cls-25{fill:#ff6092;}.cls-26{fill:#ff0e5a;}.cls-27{fill:#ff94bd;}.cls-28{fill:#ff498e;}.cls-29{fill:#ffb0de;}.cls-30{fill:#ff65bf;}.cls-31{fill:#ff4f45;}.cls-32{fill:#da222c;}.cls-33{fill:#fafd70;}.cls-34{fill:#fdec47;}.cls-35{fill:#fded64;}.cls-36{fill:#fdd437;}.cls-37{fill:#ffd537;}.cls-38{fill:#ffb20a;}.cls-39{fill:#fc9d2d;}.cls-40{fill:#fd6500;}.cls-41{fill:#ff4d2d;}.cls-42{fill:#eb1300;}.cls-43{fill:#a6c4c4;}.cls-44{fill:#7fa5a8;}.cls-45{fill:#99ebd9;}.cls-46{fill:#5ad1cb;}.cls-47{fill:#ff94b2;}.cls-48{fill:#ff4277;}.cls-49{fill:#ff584e;}.cls-50{fill:#da2a33;}.cls-51{fill:#45e692;}.cls-52{fill:#07b772;}.cls-53{fill:#698d93;}.cls-54{fill:#3b4ba8;}.cls-55{fill:#182693;}.cls-56{fill:#576ef7;}.cls-57{fill:#253be2;}.cls-58{fill:#2cb2ff;}.cls-59{fill:#0089ea;}.cls-60{fill:#03dcff;}.cls-61{fill:#00beea;}.cls-62{fill:#ffc030;}.cls-63{opacity:0.49;}.cls-64{fill:#800035;}</style></defs><g class="cls-1"><g id="Слой_1" data-name="Слой 1"><path class="cls-2" d="M680.86,403.44c10.74,5.05,16.23,5.62,19.72,1.18s-.56-13.51-13-25.21c-8.52-8-20.66-10.33-27-2.28S667.46,397.13,680.86,403.44Z" transform="translate(-593.71 -287.94)"/><path class="cls-2" d="M630.1,417c2.61-20.89,9.09-51.92,30.06-51,21.53-.89,29.06,30.14,31.67,51,3.15,25.16.45,39.42-30.87,39.42S627,442.16,630.1,417Z" transform="translate(-593.71 -287.94)"/><path class="cls-3" d="M691.83,417c-2.61-20.89-10.14-51.92-31.67-51h-.55c21.77,2.52,24.57,28.54,26.93,47.38,3.14,25.15-.75,42.45-32.07,42.45-1.58,0-3.08,0-4.52-.11a73.27,73.27,0,0,0,11,.74C692.28,456.42,695,442.16,691.83,417Z" transform="translate(-593.71 -287.94)"/><path class="cls-4" d="M738.81,399.6a11,11,0,0,0-.67-3,8.42,8.42,0,0,0-4-4.48A12.42,12.42,0,0,0,728,391a14.14,14.14,0,0,0-5.55,1.26.64.64,0,0,0-.44.23,8.09,8.09,0,0,0-.73.46.12.12,0,0,0,.1.22l.55-.16a8.31,8.31,0,0,0,1.72,2.13,21.21,21.21,0,0,1,1.84,2.65,38.5,38.5,0,0,1,1.94,3.71,6.23,6.23,0,0,0,2.18,3,1.86,1.86,0,0,0,2.48-.82,3.13,3.13,0,0,1,.19.61.83.83,0,0,0,.8.6c1.7.13,2.22-1.1,2.55-2.41,1,.55,2.28.8,2.92-.47A4.46,4.46,0,0,0,738.81,399.6Z" transform="translate(-593.71 -287.94)"/><path class="cls-2" d="M692.39,312.7c-5-18.25-24.82-28.71-44.26-23.37S617,313.78,622,332a32.42,32.42,0,0,0,5.13,10.6c-2.86-.92-5.67-.51-7.27,1.36-2.39,2.8-1.16,7.78,2.76,11.13,3.75,3.21,8.62,3.75,11.11,1.32,5.14,14.7,21.67,22.91,37.89,18.46,16.89-4.64,27-21.25,22.7-37.1l-.15-.54a27,27,0,0,1-.94-11.44A32.12,32.12,0,0,0,692.39,312.7Z" transform="translate(-593.71 -287.94)"/><ellipse class="cls-5" cx="83.79" cy="173.61" rx="83.79" ry="13.17"/><path class="cls-2" d="M710,404.16c9.9-3.24,15.75-5.42,14.72-9.52-.58-2.33.94-4.11-2.19-5.44-2.8-1.2-11.37,0-16.77.87-10.47,1.76-20.79,3.5-18.93,10.93S697.58,408.21,710,404.16Z" transform="translate(-593.71 -287.94)"/><path class="cls-6" d="M629.86,416.65c6,3.35,28.19,4.22,37.95,4.37a69.7,69.7,0,0,0,24.36-4.27c0,.19.05.38.08.57.31,2.48.57,4.85.74,7.12-1.45.34-13.7,29-14.11,30.19-4.48,1.93-17.15,2.6-23.52,2.65.18-3.25-24-25.2-26.78-25.08a119.6,119.6,0,0,1,1.2-14.88C629.8,417.1,629.83,416.87,629.86,416.65Z" transform="translate(-593.71 -287.94)"/><path class="cls-7" d="M632.41,348.13a11.77,11.77,0,0,0-3.95-2.53c-2.34-.91-6.56-1.34-7.68,1.59a.3.3,0,0,0,.43.33c2.14-1.58,4.72-1.32,7-.14a12.33,12.33,0,0,1,2.18,1.45l-.61.17a11.82,11.82,0,0,0-2.47.78.28.28,0,0,0,.07.5,5.05,5.05,0,0,0,2.59,0,5.85,5.85,0,0,0,1.44-.43c.34.37.65.76,1,1.16a4.31,4.31,0,0,0,1.29,1.33.56.56,0,0,0,.83-.34C634.72,350.51,633.37,349.06,632.41,348.13Z" transform="translate(-593.71 -287.94)"/><path class="cls-8" d="M689.45,335.55c.77,4.4-1.7,8.52-5.53,9.19s-7.57-2.34-8.34-6.74,1.7-8.52,5.53-9.19S688.67,331.15,689.45,335.55Z" transform="translate(-593.71 -287.94)"/><path class="cls-9" d="M681.15,328.8a6.52,6.52,0,0,0-.79.2c3.53-.16,6.81,2.74,7.53,6.83s-1.37,7.93-4.74,9a5.42,5.42,0,0,0,.8-.08c3.83-.68,6.31-4.79,5.54-9.19S685,328.13,681.15,328.8Z" transform="translate(-593.71 -287.94)"/><path class="cls-10" d="M688.65,338.32a5.2,5.2,0,1,1-6-4.22A5.2,5.2,0,0,1,688.65,338.32Z" transform="translate(-593.71 -287.94)"/><path d="M687.4,339.84a3.15,3.15,0,1,1-3.65-2.55A3.16,3.16,0,0,1,687.4,339.84Z" transform="translate(-593.71 -287.94)"/><path class="cls-11" d="M687.08,333.62a1.64,1.64,0,0,0-1.91-.87,1.77,1.77,0,0,0-1.17,1.39,1.45,1.45,0,0,0,.92,1.77,1.79,1.79,0,0,0,1.85-.34A1.66,1.66,0,0,0,687.08,333.62Z" transform="translate(-593.71 -287.94)"/><path class="cls-11" d="M685.66,337a.79.79,0,0,0-.12-.15h0a.68.68,0,0,0-.23-.25h0a.85.85,0,0,0-.88-.07.88.88,0,0,0-.49.7v0a1,1,0,0,0,0,.25.89.89,0,0,0,.3.52,1,1,0,0,0,.6.28,1,1,0,0,0,.48-.08.94.94,0,0,0,.44-.48A.83.83,0,0,0,685.66,337Z" transform="translate(-593.71 -287.94)"/><path class="cls-11" d="M678.84,331.65c-.8-.16-1.43.54-1.8,1.15s-.63,1.49,0,1.95a.25.25,0,0,0,.25,0c.46-.24.64-.91.88-1.34a9.22,9.22,0,0,0,.94-1.45A.26.26,0,0,0,678.84,331.65Z" transform="translate(-593.71 -287.94)"/><path d="M687.07,330.52c-1.4-2-4.45-2.33-6.62-1.64a7.1,7.1,0,0,0-4.79,5,.08.08,0,0,0,.14,0c1.24-1.89,2.57-3.66,4.81-4.39s4.31,0,6.21,1.22A.19.19,0,0,0,687.07,330.52Z" transform="translate(-593.71 -287.94)"/><path class="cls-12" d="M678.61,338.48a5.85,5.85,0,0,0,.11,1.62c.16.73,1.29.53,1.14-.2a4.77,4.77,0,0,1-.11-1.31C679.8,337.85,678.65,337.74,678.61,338.48Z" transform="translate(-593.71 -287.94)"/><path class="cls-12" d="M680.43,341.39l-.34-.48a.57.57,0,0,0-.81-.07.59.59,0,0,0-.07.81l.34.48a.57.57,0,0,0,.81.07A.58.58,0,0,0,680.43,341.39Z" transform="translate(-593.71 -287.94)"/><path class="cls-12" d="M687.87,337.2l-.23-.41a.57.57,0,0,0-.32-.29.58.58,0,0,0-.72.79l.23.4a.63.63,0,0,0,.32.3.61.61,0,0,0,.44,0A.59.59,0,0,0,687.87,337.2Z" transform="translate(-593.71 -287.94)"/><path class="cls-8" d="M660.48,340.66c.77,4.4-1.7,8.52-5.53,9.19s-7.57-2.34-8.34-6.74,1.7-8.52,5.53-9.19S659.7,336.26,660.48,340.66Z" transform="translate(-593.71 -287.94)"/><path class="cls-9" d="M652.17,333.91a6.82,6.82,0,0,0-.78.19c3.53-.15,6.81,2.74,7.53,6.84s-1.37,7.93-4.74,9a5.44,5.44,0,0,0,.8-.09c3.83-.67,6.31-4.78,5.54-9.19S656,333.23,652.17,333.91Z" transform="translate(-593.71 -287.94)"/><path class="cls-10" d="M659.68,343.43a5.2,5.2,0,1,1-6-4.22A5.2,5.2,0,0,1,659.68,343.43Z" transform="translate(-593.71 -287.94)"/><path d="M658.42,345a3.14,3.14,0,1,1-3.64-2.55A3.13,3.13,0,0,1,658.42,345Z" transform="translate(-593.71 -287.94)"/><path class="cls-11" d="M658.11,338.72a1.65,1.65,0,0,0-1.91-.86,1.76,1.76,0,0,0-1.17,1.39A1.45,1.45,0,0,0,656,341a1.79,1.79,0,0,0,1.85-.35A1.65,1.65,0,0,0,658.11,338.72Z" transform="translate(-593.71 -287.94)"/><path class="cls-11" d="M656.69,342.06a.79.79,0,0,0-.12-.15h0a.59.59,0,0,0-.23-.24h0a.87.87,0,0,0-.88-.08.9.9,0,0,0-.49.71v0a1.11,1.11,0,0,0,0,.26.92.92,0,0,0,.3.52,1,1,0,0,0,.6.28,1,1,0,0,0,.48-.08.88.88,0,0,0,.43-.48A.8.8,0,0,0,656.69,342.06Z" transform="translate(-593.71 -287.94)"/><path class="cls-11" d="M649.87,336.75c-.8-.15-1.43.55-1.8,1.16s-.63,1.48-.05,1.95a.28.28,0,0,0,.25,0c.46-.25.64-.91.88-1.34a9.22,9.22,0,0,0,.94-1.45A.26.26,0,0,0,649.87,336.75Z" transform="translate(-593.71 -287.94)"/><path d="M658.09,335.63c-1.39-2-4.44-2.33-6.61-1.64a7.1,7.1,0,0,0-4.79,5,.08.08,0,0,0,.14.05c1.24-1.89,2.57-3.66,4.81-4.4s4.31,0,6.21,1.23A.18.18,0,0,0,658.09,335.63Z" transform="translate(-593.71 -287.94)"/><path class="cls-12" d="M649.64,343.59a5.87,5.87,0,0,0,.11,1.62c.16.72,1.29.53,1.14-.2a4.84,4.84,0,0,1-.11-1.31C650.83,343,649.68,342.85,649.64,343.59Z" transform="translate(-593.71 -287.94)"/><path class="cls-12" d="M651.46,346.49l-.34-.48a.58.58,0,0,0-.81-.06.59.59,0,0,0-.07.81l.34.48a.57.57,0,0,0,.81.07A.59.59,0,0,0,651.46,346.49Z" transform="translate(-593.71 -287.94)"/><path class="cls-12" d="M658.9,342.3l-.23-.4a.57.57,0,0,0-.32-.29.58.58,0,0,0-.72.79c.08.13.15.26.22.4a.63.63,0,0,0,.33.29.56.56,0,0,0,.44,0A.59.59,0,0,0,658.9,342.3Z" transform="translate(-593.71 -287.94)"/><path class="cls-7" d="M676.5,350.75a5.15,5.15,0,0,0,.87-2.78c0-1.77-1.48-3.89-3.47-4a.18.18,0,0,0-.14.32,5.82,5.82,0,0,1,1.69,1.7,4.21,4.21,0,0,1,.49,2.09,3.77,3.77,0,0,1-.71,2c-.33.47-1.05,1.07-1.06,1.65a.25.25,0,0,0,.17.28C675.17,352.39,676.11,351.36,676.5,350.75Z" transform="translate(-593.71 -287.94)"/><path class="cls-13" d="M645.38,329.58a15.49,15.49,0,0,1,5.75-2.8.87.87,0,0,0-.46-1.68,16.59,16.59,0,0,0-6.18,3C643.62,328.76,644.5,330.27,645.38,329.58Z" transform="translate(-593.71 -287.94)"/><path class="cls-13" d="M687.07,322.58a5.3,5.3,0,0,0-5.73-2.22.87.87,0,0,0,.46,1.68,3.52,3.52,0,0,1,3.78,1.43C686.2,324.4,687.7,323.52,687.07,322.58Z" transform="translate(-593.71 -287.94)"/><path class="cls-13" d="M670.93,301.58a10.38,10.38,0,0,0-3.12-1.56c-1.06-.33-2.13-.59-3.21-.86a63.22,63.22,0,0,1-6.36-1.52,10.62,10.62,0,0,1-4.87-3.36,7,7,0,0,1-1.24-2.43,12.52,12.52,0,0,0-.55-2.71.29.29,0,0,0-.39-.1c-.9.49-1,1.69-1,2.64A7.91,7.91,0,0,0,651,295a10.06,10.06,0,0,0,5.11,4.7,23.8,23.8,0,0,0,7.14,1.85c1.26.14,2.53.18,3.8.33.58.07,1.16.2,1.74.25s1.3.06,2,.13C671.15,302.32,671.19,301.77,670.93,301.58Z" transform="translate(-593.71 -287.94)"/><path class="cls-13" d="M672.79,295.86a7.58,7.58,0,0,0-4.15-2.29c-1.78-.47-3.64-.73-5.45-1.08-1.59-.31-3.22-.53-4.78-.94a9.87,9.87,0,0,1-1.9-.71,3.6,3.6,0,0,1-1.74-1.32.08.08,0,0,0-.15.06,5.24,5.24,0,0,0,.65,1.81,4.46,4.46,0,0,0,1.57,1.29,17.21,17.21,0,0,0,4.59,1.47c3.66.78,7.31,1.65,11,2.4A.41.41,0,0,0,672.79,295.86Z" transform="translate(-593.71 -287.94)"/><path class="cls-13" d="M665.89,290.28a9.35,9.35,0,0,0-2.89-.58c-1-.16-1.91-.3-2.89-.42-.13,0-.16.17-.06.23a11.08,11.08,0,0,0,2.85,1.1,5.68,5.68,0,0,0,2.91.24A.32.32,0,0,0,665.89,290.28Z" transform="translate(-593.71 -287.94)"/><path class="cls-13" d="M660.2,303.32a36.25,36.25,0,0,1-5.68-.87,9.35,9.35,0,0,1-4.39-2.21,9.11,9.11,0,0,1-2.62-4.25,9.42,9.42,0,0,1-.31-2.59,10.84,10.84,0,0,1,.11-1.51,3.13,3.13,0,0,0,.1-1.05.21.21,0,0,0-.31-.12,4.45,4.45,0,0,0-1,2.53,9.72,9.72,0,0,0,7.67,11.19c2.25.41,4.34-.29,6.51-.83A.15.15,0,0,0,660.2,303.32Z" transform="translate(-593.71 -287.94)"/><path class="cls-13" d="M643.67,291.85a.17.17,0,0,0-.14-.08c-1.12.06-1.6,2.15-1.81,3-.3,1.23-.55,2.91.22,4a.33.33,0,0,0,.6-.09c.37-1.17.16-2.52.41-3.73a9.78,9.78,0,0,1,.55-1.82A1.67,1.67,0,0,0,643.67,291.85Z" transform="translate(-593.71 -287.94)"/><path class="cls-2" d="M611,443.2c5-7.49,15.36-15.47,24.87-13.66,4.82.92,9.25,3.55,13,6.59s8.09,6.88,9.75,11.53a12,12,0,0,1,.36,6.53c-1.45,6.81-15.71,6.09-23.22,7.21-10.07,1.5-24.32,5.08-27.4-5.9C607.15,451.29,608.59,446.72,611,443.2Z" transform="translate(-593.71 -287.94)"/><path class="cls-2" d="M687.11,426.35a10.63,10.63,0,0,1,6.45-1.61,45.44,45.44,0,0,1,9.58,2,48.55,48.55,0,0,1,16.64,8.69c3.23,2.62,8,6.68,6.59,11.44-1.15,3.79-5.26,6.28-8.8,7.24-10.07,2.74-35.51,3.18-38.83,1.66a4.8,4.8,0,0,1-3-3.93c-.65-4.69,1.48-9.74,3.17-14.05S683.07,428.88,687.11,426.35Z" transform="translate(-593.71 -287.94)"/><path class="cls-2" d="M610,452.2c.57-2.52,2.88-4.28,5.08-5.36a16.71,16.71,0,0,1,7.4-1.79,43.79,43.79,0,0,1,11.87,1.83,51.83,51.83,0,0,1,10.84,4.25,109.55,109.55,0,0,1,9.62,6.36c3.28,2.3,6.57,4.5,9.65,7.07.76.64,1.58,1.2,2.38,1.79,2,.83,3.67,2.22,3.41,4.54-.32,2.83-3.35,4.75-6,5.12a33.11,33.11,0,0,1-5.72,0,126.5,126.5,0,0,1-23.35-2.92A62.44,62.44,0,0,1,622.76,469a26.66,26.66,0,0,1-9.4-6.71,15.34,15.34,0,0,1-2.64-4.48A10.47,10.47,0,0,1,610,452.2Z" transform="translate(-593.71 -287.94)"/><path class="cls-2" d="M687.67,461.79a37.51,37.51,0,0,0,4.39-4.06,22.33,22.33,0,0,0,3.7-7.37,39.39,39.39,0,0,1,2.36-6.61,15.89,15.89,0,0,1,5.54-5.6c4-2.68,9.07-4.51,13.89-3.22a12.27,12.27,0,0,1,8.18,7.32c2.34,6.24-3.17,12-7.65,15.55a59.22,59.22,0,0,1-9.31,5.94,61.55,61.55,0,0,1-6,2.85,10,10,0,0,1-4,2.19,14.35,14.35,0,0,1-6.47.62c-2.1-.32-4.87-1-6.19-2.82S686.29,463,687.67,461.79Z" transform="translate(-593.71 -287.94)"/><path class="cls-3" d="M709.84,463.11a.81.81,0,0,0,.93,0,5.06,5.06,0,0,1,4.71-.28c1.37.56,2.6,1.73,2.53,3.2a3.34,3.34,0,0,1-3.18,3,5.51,5.51,0,0,1-2.5-.35c0,.09,0,.17-.05.25.37,0,.74.1,1.08.17a3.16,3.16,0,0,1,2.2,1.26,2.07,2.07,0,0,1-.53,2.43,2.55,2.55,0,0,1-2.31.51,1.86,1.86,0,0,1,.09,2.54,1.88,1.88,0,0,1-2.71,0,1.49,1.49,0,0,1-.23,1.42,1.37,1.37,0,0,1-2.33-.25c0,.79-.15,1.81-1.23,1.71-1.55-.14-2.87-2.12-2.87-2.12-3.47-.87-20.82-6-18.45-12.88a4,4,0,0,1,4.12-3.08,31.61,31.61,0,0,1,4,.44,29,29,0,0,0,3.36.17c2.4,0,4.81-.11,7.22,0A16.1,16.1,0,0,1,709.84,463.11Z" transform="translate(-593.71 -287.94)"/><path class="cls-3" d="M647.71,468.44a.71.71,0,0,1-.86-.06,4.4,4.4,0,0,0-4.36-.48,3.43,3.43,0,0,0-2.42,3.08,3.28,3.28,0,0,0,2.87,3.1,4.68,4.68,0,0,0,2.33-.23c0,.08,0,.16,0,.25a8,8,0,0,0-1,.12,2.76,2.76,0,0,0-2.07,1.17,2.18,2.18,0,0,0,.43,2.44,2.29,2.29,0,0,0,2.13.61,2,2,0,0,0-.15,2.53,1.67,1.67,0,0,0,2.52.16,1.56,1.56,0,0,0,.17,1.42,1.22,1.22,0,0,0,2.17-.15c0,.79.09,1.82,1.09,1.77,1.44-.08,2.72-2,2.72-2,3.23-.72,19.45-5.06,17.42-12.07-.62-2.13-1.8-3.15-3.74-3.25a27,27,0,0,0-3.71.27,27.07,27.07,0,0,1-3.12,0c-2.23-.09-4.46-.33-6.69-.27A13.8,13.8,0,0,0,647.71,468.44Z" transform="translate(-593.71 -287.94)"/><path class="cls-2" d="M633.94,382.11c1.33-6.1,9.85-11.84,12.23-10.7,6.44,3.06,1.85,13.16,1.63,15.95-.2,2.42-8.36,16.59-8.95,14.93C637.08,397.33,632.77,387.45,633.94,382.11Z" transform="translate(-593.71 -287.94)"/><path class="cls-3" d="M649.9,381.09a3.28,3.28,0,0,1,1.61.76c.57.39,1.13.8,1.67,1.25s1.21,1,1.79,1.62a9.57,9.57,0,0,0-.14-1.78,18.83,18.83,0,0,0-1.27-3.48.17.17,0,0,1,.28-.19,7.9,7.9,0,0,1,1.78,3.56,8.36,8.36,0,0,1,.3,2.84l.49.54a32.92,32.92,0,0,1,2.65,3.34,13.3,13.3,0,0,1,2.05,4c0,.08-.07.16-.13.09-.88-1-1.58-2.22-2.36-3.3a35.57,35.57,0,0,0-2.78-3.43c-.09-.09-2.28-2.24-3.08-2.89-.57-.48-1.16-.94-1.75-1.39a4.56,4.56,0,0,1-1.28-1.16C649.64,381.31,649.72,381.08,649.9,381.09Z" transform="translate(-593.71 -287.94)"/><path class="cls-3" d="M637.39,393.71c1.37,1.74,2.57,3.61,4,5.27a31.43,31.43,0,0,0,4.63,4.3,36.06,36.06,0,0,0,11.8,5.7c.09,0,0,.14,0,.13a23.5,23.5,0,0,1-6.49-1.62,28.74,28.74,0,0,1-5.94-3.36,29.76,29.76,0,0,1-5-4.58,16.83,16.83,0,0,1-3.44-5.64C636.86,393.63,637.23,393.51,637.39,393.71Z" transform="translate(-593.71 -287.94)"/><path class="cls-3" d="M691.05,459.06c.58-.85,1.34-1.53,1.88-2.42a21,21,0,0,0,1.38-3,38.11,38.11,0,0,1,2.63-5.87,15.9,15.9,0,0,1,9.86-7.59.17.17,0,0,1-.11-.18c0-.94,1.07-1.76,1.78-2.26a4.36,4.36,0,0,1,3-.86s0,.06,0,.08a13.2,13.2,0,0,0-2.58,1.35,6.62,6.62,0,0,0-1.07,1,4.49,4.49,0,0,1-.8.83l.35-.07c2.42-.41,5.22-.28,7.3,1.15a0,0,0,0,1,0,.08,14.54,14.54,0,0,0-6.83-.58,13.49,13.49,0,0,0-6.16,3,17.46,17.46,0,0,0-4.06,5c-1,1.83-1.67,3.83-2.5,5.74a14.94,14.94,0,0,1-1.62,2.86,5.05,5.05,0,0,1-2.26,2A.17.17,0,0,1,691.05,459.06Z" transform="translate(-593.71 -287.94)"/><path class="cls-3" d="M626.6,447a11.32,11.32,0,0,1,4-1.3,20.58,20.58,0,0,1,4.36-.34,22.1,22.1,0,0,1,4.2.57c.53.12,1.08.26,1.62.43A19.72,19.72,0,0,0,638,445a13.59,13.59,0,0,0-3.57-.86c-1.18-.11-2.37,0-3.55-.11a.22.22,0,0,1-.11-.41c2-1.23,5-.6,7.08.12a21.36,21.36,0,0,1,6.43,3.65c4.17,3.32,7.46,7.61,11.74,10.84,0,0,0,.11,0,.08a26.59,26.59,0,0,1-4.93-3.48,2.49,2.49,0,0,1-.91-.52.08.08,0,0,1,.07-.13l.14.05c-2-1.76-3.84-3.64-5.86-5.32-.62-.5-1.26-1-1.93-1.46-1.09-.27-2.16-.66-3.27-.9a21.16,21.16,0,0,0-4.28-.46,23.19,23.19,0,0,0-4.16.33c-1.36.25-2.66.76-4,1A.24.24,0,0,1,626.6,447Z" transform="translate(-593.71 -287.94)"/><path class="cls-14" d="M718.74,436.44c1-.21,2.07.66,2.8,1.22a12.73,12.73,0,0,1,2.3,2.28c1.27,1.64,2.45,3.88,2.22,6,0,.2-.33.35-.43.12a23.1,23.1,0,0,0-2.7-5.34,11.33,11.33,0,0,0-2.19-2.13c-.67-.5-1.79-.92-2.2-1.67A.34.34,0,0,1,718.74,436.44Z" transform="translate(-593.71 -287.94)"/><path class="cls-14" d="M693.57,426.2a18.14,18.14,0,0,1,6.21.59,48.2,48.2,0,0,1,6.13,1.76,44.59,44.59,0,0,1,5.76,2.51,19.4,19.4,0,0,1,5.05,3.54c.08.08,0,.24-.11.19-1.83-.71-3.55-1.73-5.31-2.59a56.57,56.57,0,0,0-5.84-2.49,47.71,47.71,0,0,0-5.89-1.68c-2-.45-4.1-.67-6.07-1.3A.27.27,0,0,1,693.57,426.2Z" transform="translate(-593.71 -287.94)"/><path class="cls-14" d="M705.05,443.63a6.09,6.09,0,0,1,3-1.45,13.5,13.5,0,0,1,7,.11,5.07,5.07,0,0,1,2.6,1.48.07.07,0,0,1-.05.1,16.14,16.14,0,0,1-2.82-.62,14.85,14.85,0,0,0-3.19-.35,13.57,13.57,0,0,0-3.18.39c-1,.24-2,.72-3,.86C705.06,444.19,704.82,443.88,705.05,443.63Z" transform="translate(-593.71 -287.94)"/><path class="cls-14" d="M698.3,390.34c.73-.59,1.85-.63,2.7-1a9.12,9.12,0,0,0,1.42-.89c.41-.31.93-.56,1.31-.91,0-.05.14,0,.1.09a4.3,4.3,0,0,1-.88,1.5,6.83,6.83,0,0,1-1.45,1.06c-.86.46-2.22,1.09-3.15.55A.23.23,0,0,1,698.3,390.34Z" transform="translate(-593.71 -287.94)"/><path class="cls-14" d="M719.45,453.77a17.63,17.63,0,0,0,3.07-2.51,15.42,15.42,0,0,0,2.06-3.33.07.07,0,0,1,.13,0c.06,2.76-2.32,5.87-5.17,6.17C719.33,454.15,719.31,453.87,719.45,453.77Z" transform="translate(-593.71 -287.94)"/><path class="cls-14" d="M687.83,403.14a12.72,12.72,0,0,1,2.26,5.88,30.28,30.28,0,0,1,.4,3.14,5.1,5.1,0,0,1-.54,3.08.28.28,0,0,1-.47,0,6.62,6.62,0,0,1-.58-2.81,27,27,0,0,0-.33-3.12c-.32-2-1-4-1.18-6A.26.26,0,0,1,687.83,403.14Z" transform="translate(-593.71 -287.94)"/><path class="cls-15" d="M628.9,422.14c0-.18.6-2.62.7-3.25s2.88.83,16.37,2.24a9.67,9.67,0,0,1,3.7.82,2.59,2.59,0,0,1,.94,3c-.32,1.3-1.46,1.95-3,2.14a26.58,26.58,0,0,1-6.17-.32c-2.41-.29-4.79-.67-7.18-1a47.32,47.32,0,0,1-5.38-1.08C628.29,424.28,628.73,423.57,628.9,422.14Z" transform="translate(-593.71 -287.94)"/><path class="cls-15" d="M681.14,421.3c.47-.64,1.45-.65,2.13-.84,1.11-.32,2.21-.68,3.3-1,1.35-.44,6.26-2.45,6.65-2a3.34,3.34,0,0,1,.52,1.82,22.64,22.64,0,0,1,.3,2.32c.07,1.55-1.18,1.82-2.24,2.21-2.77,1-5.63,2.3-8.57,2.66C681.3,426.63,680.06,422.81,681.14,421.3Z" transform="translate(-593.71 -287.94)"/><path class="cls-14" d="M718.78,399.32a7.19,7.19,0,0,1-.66-2.11,20.58,20.58,0,0,1,.15-2.07s0-.07-.08,0c-1.42,1-1,3.55.29,4.44A.2.2,0,0,0,718.78,399.32Z" transform="translate(-593.71 -287.94)"/><rect class="cls-16" x="730.07" y="365.75" width="0.84" height="71.91" transform="translate(-494.15 658.66) rotate(-69.62)"/><rect class="cls-16" x="725.81" y="377.74" width="0.84" height="71.91" transform="translate(-508.16 662.48) rotate(-69.62)"/><rect class="cls-16" x="720.69" y="391" width="0.84" height="71.91" transform="translate(-523.93 666.33) rotate(-69.62)"/><rect class="cls-16" x="715.66" y="402.77" width="0.84" height="71.91" transform="translate(-538.24 669.29) rotate(-69.62)"/><rect class="cls-17" x="684.39" y="376.86" width="7.19" height="61.66" rx="2.95" transform="translate(-408.7 -501.98) rotate(20.38)"/><path class="cls-18" d="M677.39,436.54a2.66,2.66,0,0,1-.92-.16l-.28-.11a2.64,2.64,0,0,1-1.56-3.4l19.68-53a2.65,2.65,0,0,1,3.4-1.56l.28.11a2.63,2.63,0,0,1,1.56,3.39l-19.68,53A2.66,2.66,0,0,1,677.39,436.54Zm-.87-.3a2.53,2.53,0,0,0,1.91-.07,2.48,2.48,0,0,0,1.3-1.4l19.68-53a2.48,2.48,0,0,0-1.47-3.2l-.28-.11a2.48,2.48,0,0,0-1.91.07,2.52,2.52,0,0,0-1.3,1.4l-19.68,53a2.49,2.49,0,0,0,1.47,3.2Z" transform="translate(-593.71 -287.94)"/><path class="cls-19" d="M696.74,380.72a.43.43,0,0,0-.1-.42.9.9,0,0,0-1.13-.22,2.07,2.07,0,0,0-.74,1.08c-.48,1.09-.93,2.19-1.35,3.32a55,55,0,0,0-2,6.78.51.51,0,0,0,.23.62.5.5,0,0,0,.65-.15,57.36,57.36,0,0,0,4.45-10.93S696.74,380.75,696.74,380.72Z" transform="translate(-593.71 -287.94)"/><rect class="cls-17" x="754.87" y="403.04" width="7.19" height="61.66" rx="2.95" transform="translate(-395.17 -524.89) rotate(20.38)"/><rect class="cls-18" x="754.91" y="402.81" width="5.87" height="61.66" rx="2.66" transform="translate(-395.34 -524.64) rotate(20.37)"/><path class="cls-19" d="M768.05,406.14c0-.33-.35-.73-.72-.5a2.33,2.33,0,0,0-.93,1,.49.49,0,0,0,0,.26,47.67,47.67,0,0,0-3.54,9.36.51.51,0,0,0,.89.47,18.49,18.49,0,0,0,2.53-5.16c.36-.92.72-1.84,1.09-2.76A6.74,6.74,0,0,0,768.05,406.14Z" transform="translate(-593.71 -287.94)"/><path class="cls-19" d="M762,419.47a8.2,8.2,0,0,0-1.43,3,13.67,13.67,0,0,0-.81,2.07c-.13.44.4.95.79.57a9.44,9.44,0,0,0,2.36-5.33C763,419.29,762.24,419.1,762,419.47Z" transform="translate(-593.71 -287.94)"/><path class="cls-20" d="M712.51,407.45c-.41,2.68-2.34,4.95-4.33,5.08s-3.27-1.94-2.87-4.62,2.33-5,4.32-5.08S712.91,404.77,712.51,407.45Z" transform="translate(-593.71 -287.94)"/><path class="cls-21" d="M711,403.11a5,5,0,0,1,.55,3.39c-.4,2.68-2.34,5-4.32,5.08a2.39,2.39,0,0,1-1.34-.28,2.48,2.48,0,0,0,2.32,1.23c2-.13,3.92-2.4,4.33-5.08C712.81,405.43,712.15,403.76,711,403.11Z" transform="translate(-593.71 -287.94)"/><path class="cls-22" d="M710.13,403.28a.35.35,0,0,0-.17-.17c-.47-.29-1.3.15-1.81.45a4.61,4.61,0,0,0-1.36,1.23,7,7,0,0,0-1.37,3.86c0,1.31.66,2.45,1.81,1.87.9-.45,1.09-1.76,1.22-2.76a6,6,0,0,1,1.5-3.6A.84.84,0,0,0,710.13,403.28Z" transform="translate(-593.71 -287.94)"/><path class="cls-23" d="M708.87,403.78a.51.51,0,0,0-.24,0,1.39,1.39,0,0,0-.83.36,2.82,2.82,0,0,0-.9,1.36c-.07.32.2.58.43.44a2.92,2.92,0,0,0,.65-.7c.28-.32.6-.62.9-.9S709,403.81,708.87,403.78Z" transform="translate(-593.71 -287.94)"/><path class="cls-23" d="M706.91,406.64c0-.19-.15-.31-.3-.24s-.17,0-.25.12c-.31.37-.77,1.83-.21,1.89l.11,0c.21,0,.46-.48.52-.74A4.79,4.79,0,0,0,706.91,406.64Z" transform="translate(-593.71 -287.94)"/><path class="cls-24" d="M712.12,407.45c0-.13,0-.26,0-.39s-.19-.19-.22,0a9.6,9.6,0,0,1-.34,1.48c0,.14.09.25.19.14a1.65,1.65,0,0,0,.3-.76Z" transform="translate(-593.71 -287.94)"/><path class="cls-24" d="M711.09,409.7c-.06.07-.15.1-.21.17l-.16.18-.24.23a1,1,0,0,0-.24.31.3.3,0,0,0,.09.39c.17.07.43-.24.58-.4a2.55,2.55,0,0,0,.24-.31,1,1,0,0,0,.11-.5C711.26,409.65,711.17,409.62,711.09,409.7Z" transform="translate(-593.71 -287.94)"/><path class="cls-25" d="M719.67,410.11c-.4,2.68-2.33,5-4.32,5.09s-3.28-1.94-2.87-4.62,2.33-5,4.32-5.09S720.08,407.43,719.67,410.11Z" transform="translate(-593.71 -287.94)"/><path class="cls-26" d="M718.13,405.78a5,5,0,0,1,.56,3.38c-.4,2.68-2.34,5-4.33,5.09A2.37,2.37,0,0,1,713,414a2.5,2.5,0,0,0,2.32,1.24c2-.13,3.92-2.41,4.32-5.09C720,408.1,719.32,406.43,718.13,405.78Z" transform="translate(-593.71 -287.94)"/><path class="cls-22" d="M717.3,405.94a.35.35,0,0,0-.17-.17c-.47-.28-1.3.15-1.82.45a4.9,4.9,0,0,0-1.35,1.24,6.93,6.93,0,0,0-1.37,3.85c0,1.31.66,2.45,1.81,1.88.9-.46,1.09-1.77,1.22-2.76a6,6,0,0,1,1.5-3.61A.86.86,0,0,0,717.3,405.94Z" transform="translate(-593.71 -287.94)"/><path class="cls-23" d="M716,406.44a.67.67,0,0,0-.24,0,1.35,1.35,0,0,0-.83.37,2.72,2.72,0,0,0-.9,1.35c-.07.32.2.58.43.45a3.2,3.2,0,0,0,.65-.71,10.77,10.77,0,0,1,.9-.89C716.2,406.82,716.2,406.47,716,406.44Z" transform="translate(-593.71 -287.94)"/><path class="cls-23" d="M714.08,409.31c0-.2-.15-.31-.3-.25s-.17,0-.26.12c-.3.37-.77,1.84-.2,1.9h.1c.22,0,.47-.48.53-.73A4.79,4.79,0,0,0,714.08,409.31Z" transform="translate(-593.71 -287.94)"/><path class="cls-24" d="M719.29,410.12c0-.13,0-.27,0-.4s-.19-.19-.22,0a9.48,9.48,0,0,1-.34,1.47c0,.14.09.25.18.14a1.46,1.46,0,0,0,.3-.76C719.25,410.42,719.27,410.27,719.29,410.12Z" transform="translate(-593.71 -287.94)"/><path class="cls-24" d="M718.26,412.36c-.06.07-.15.11-.21.18l-.16.18-.24.22a.83.83,0,0,0-.24.31c-.07.17,0,.35.09.39s.43-.24.58-.4a1.47,1.47,0,0,0,.23-.31.82.82,0,0,0,.11-.5C718.43,412.31,718.34,412.28,718.26,412.36Z" transform="translate(-593.71 -287.94)"/><path class="cls-27" d="M744.56,419.35c-.41,2.68-2.34,5-4.33,5.09s-3.27-1.94-2.87-4.62,2.33-5,4.32-5.09S745,416.67,744.56,419.35Z" transform="translate(-593.71 -287.94)"/><path class="cls-28" d="M743,415a5,5,0,0,1,.55,3.39c-.4,2.68-2.34,4.95-4.32,5.08a2.39,2.39,0,0,1-1.34-.29,2.49,2.49,0,0,0,2.32,1.24c2-.13,3.92-2.41,4.33-5.09C744.86,417.34,744.2,415.67,743,415Z" transform="translate(-593.71 -287.94)"/><path class="cls-22" d="M742.18,415.18A.29.29,0,0,0,742,415c-.47-.29-1.3.14-1.81.45a4.61,4.61,0,0,0-1.36,1.23,7,7,0,0,0-1.37,3.86c0,1.31.66,2.45,1.81,1.87.9-.46,1.09-1.76,1.22-2.76a6,6,0,0,1,1.5-3.61A.84.84,0,0,0,742.18,415.18Z" transform="translate(-593.71 -287.94)"/><path class="cls-23" d="M740.92,415.68a.66.66,0,0,0-.24,0,1.34,1.34,0,0,0-.83.36,2.83,2.83,0,0,0-.9,1.35c-.07.32.2.59.43.45a2.92,2.92,0,0,0,.65-.7c.28-.32.6-.62.9-.9S741.08,415.71,740.92,415.68Z" transform="translate(-593.71 -287.94)"/><path class="cls-23" d="M739,418.55c0-.2-.15-.31-.3-.25s-.17,0-.25.12c-.31.38-.77,1.84-.21,1.9h.11c.21,0,.46-.48.52-.73A4.79,4.79,0,0,0,739,418.55Z" transform="translate(-593.71 -287.94)"/><path class="cls-24" d="M744.17,419.36c0-.13,0-.26,0-.39s-.19-.2-.22,0a9.48,9.48,0,0,1-.34,1.47c0,.15.09.25.19.14a1.55,1.55,0,0,0,.3-.75C744.13,419.66,744.16,419.51,744.17,419.36Z" transform="translate(-593.71 -287.94)"/><path class="cls-24" d="M743.14,421.61c-.06.06-.14.1-.21.17l-.16.18-.24.23a.91.91,0,0,0-.24.3c-.07.17,0,.35.09.39s.43-.23.58-.39a2.67,2.67,0,0,0,.24-.32,1,1,0,0,0,.11-.5C743.31,421.55,743.22,421.52,743.14,421.61Z" transform="translate(-593.71 -287.94)"/><path class="cls-29" d="M752.55,422.32c-.4,2.68-2.34,5-4.33,5.09s-3.27-1.94-2.87-4.62,2.34-5,4.32-5.09S753,419.64,752.55,422.32Z" transform="translate(-593.71 -287.94)"/><path class="cls-30" d="M751,418a4.92,4.92,0,0,1,.55,3.38c-.4,2.68-2.33,5-4.32,5.09a2.41,2.41,0,0,1-1.34-.29,2.51,2.51,0,0,0,2.32,1.24c2-.13,3.93-2.41,4.33-5.09C752.85,420.31,752.2,418.64,751,418Z" transform="translate(-593.71 -287.94)"/><path class="cls-22" d="M750.17,418.15A.31.31,0,0,0,750,418c-.47-.28-1.3.15-1.81.45a4.8,4.8,0,0,0-1.36,1.24,7,7,0,0,0-1.37,3.85c0,1.32.67,2.45,1.81,1.88.9-.46,1.09-1.77,1.22-2.76A6,6,0,0,1,750,419,.84.84,0,0,0,750.17,418.15Z" transform="translate(-593.71 -287.94)"/><path class="cls-23" d="M748.91,418.65a.63.63,0,0,0-.24,0,1.28,1.28,0,0,0-.83.36,2.79,2.79,0,0,0-.9,1.35c-.07.32.2.58.43.45a2.83,2.83,0,0,0,.66-.71,10.68,10.68,0,0,1,.89-.89C749.08,419,749.07,418.68,748.91,418.65Z" transform="translate(-593.71 -287.94)"/><path class="cls-23" d="M747,421.52c0-.2-.15-.31-.3-.25s-.16,0-.25.12c-.31.37-.77,1.84-.21,1.9h.11c.21,0,.47-.48.52-.73A4.25,4.25,0,0,0,747,421.52Z" transform="translate(-593.71 -287.94)"/><path class="cls-24" d="M752.16,422.33c0-.13,0-.26,0-.39s-.19-.2-.21,0a10.82,10.82,0,0,1-.35,1.47c0,.14.09.25.19.14a1.54,1.54,0,0,0,.3-.76C752.12,422.63,752.15,422.48,752.16,422.33Z" transform="translate(-593.71 -287.94)"/><path class="cls-24" d="M751.13,424.57c-.06.07-.14.11-.21.18l-.16.18a2.39,2.39,0,0,1-.23.22,1,1,0,0,0-.25.31c-.06.17,0,.35.09.39s.43-.24.58-.4a2,2,0,0,0,.24-.31,1,1,0,0,0,.11-.5C751.3,424.52,751.21,424.49,751.13,424.57Z" transform="translate(-593.71 -287.94)"/><path class="cls-31" d="M705.3,404.68c-.36,2.68-2.28,5-4.27,5.17s-3.32-1.86-2.95-4.53,2.28-5,4.28-5.17S705.67,402,705.3,404.68Z" transform="translate(-593.71 -287.94)"/><path class="cls-32" d="M703.7,400.41a4.87,4.87,0,0,1,.6,3.35c-.36,2.68-2.28,5-4.27,5.17a2.43,2.43,0,0,1-1.35-.26,2.5,2.5,0,0,0,2.35,1.18c2-.18,3.91-2.49,4.27-5.17C705.58,402.67,704.9,401,703.7,400.41Z" transform="translate(-593.71 -287.94)"/><path class="cls-22" d="M702.86,400.59a.29.29,0,0,0-.17-.16c-.48-.28-1.31.17-1.82.49a4.67,4.67,0,0,0-1.34,1.26,7,7,0,0,0-1.33,3.87c0,1.3.7,2.42,1.85,1.82.89-.47,1.07-1.78,1.19-2.78a5.92,5.92,0,0,1,1.45-3.62A.82.82,0,0,0,702.86,400.59Z" transform="translate(-593.71 -287.94)"/><path class="cls-23" d="M701.6,401.11a.47.47,0,0,0-.24,0,1.27,1.27,0,0,0-.82.38,2.78,2.78,0,0,0-.89,1.36c-.07.32.21.58.44.44a3,3,0,0,0,.64-.72c.28-.32.59-.63.89-.91S701.77,401.14,701.6,401.11Z" transform="translate(-593.71 -287.94)"/><path class="cls-23" d="M699.67,404c0-.19-.15-.3-.3-.23s-.17,0-.25.12c-.31.38-.75,1.85-.19,1.9H699c.22,0,.46-.48.52-.73A4.34,4.34,0,0,0,699.67,404Z" transform="translate(-593.71 -287.94)"/><path class="cls-24" d="M704.91,404.7c0-.13,0-.26,0-.39s-.19-.19-.22,0a11,11,0,0,1-.32,1.47c0,.14.1.25.19.14a1.72,1.72,0,0,0,.29-.77C704.88,405,704.9,404.85,704.91,404.7Z" transform="translate(-593.71 -287.94)"/><path class="cls-24" d="M703.92,407c-.07.07-.15.11-.22.18l-.15.18-.24.23a.83.83,0,0,0-.24.31c-.06.17,0,.35.1.39s.42-.25.57-.41a2.05,2.05,0,0,0,.24-.32.89.89,0,0,0,.1-.5C704.08,406.9,704,406.87,703.92,407Z" transform="translate(-593.71 -287.94)"/><path class="cls-33" d="M698.05,416.17c-.45,2.68-2.41,4.91-4.39,5s-3.22-2.06-2.78-4.74,2.42-4.91,4.39-5S698.49,413.49,698.05,416.17Z" transform="translate(-593.71 -287.94)"/><path class="cls-34" d="M696.59,411.76a5.08,5.08,0,0,1,.5,3.42c-.45,2.69-2.41,4.92-4.39,5a2.34,2.34,0,0,1-1.32-.33,2.5,2.5,0,0,0,2.28,1.32c2-.07,3.94-2.3,4.39-5C698.38,414.15,697.76,412.45,696.59,411.76Z" transform="translate(-593.71 -287.94)"/><path class="cls-22" d="M695.58,411.87a.33.33,0,0,0-.17-.16c-.48-.26-1.31.21-1.82.53a4.91,4.91,0,0,0-1.33,1.29,6.87,6.87,0,0,0-1.28,3.88c0,1.3.73,2.4,1.87,1.77.89-.49,1.06-1.79,1.16-2.79a5.94,5.94,0,0,1,1.42-3.64A.83.83,0,0,0,695.58,411.87Z" transform="translate(-593.71 -287.94)"/><path class="cls-23" d="M694.33,412.42a.69.69,0,0,0-.25,0,1.4,1.4,0,0,0-.82.4,2.73,2.73,0,0,0-.87,1.38c-.06.32.21.57.44.42a3.2,3.2,0,0,0,.64-.72,11.18,11.18,0,0,1,.88-.93C694.5,412.8,694.49,412.45,694.33,412.42Z" transform="translate(-593.71 -287.94)"/><path class="cls-23" d="M692.43,415.35c0-.19-.16-.3-.31-.23s-.17,0-.25.14c-.31.38-.73,1.85-.16,1.88h.1c.22,0,.46-.5.51-.75A4.22,4.22,0,0,0,692.43,415.35Z" transform="translate(-593.71 -287.94)"/><path class="cls-24" d="M697.7,415.92a2.54,2.54,0,0,1,0-.39c0-.19-.2-.19-.22,0a10.78,10.78,0,0,1-.3,1.48c0,.14.09.24.18.13a1.61,1.61,0,0,0,.29-.77C697.67,416.22,697.69,416.07,697.7,415.92Z" transform="translate(-593.71 -287.94)"/><path class="cls-24" d="M696.72,418.19c-.06.07-.14.11-.21.18l-.15.19-.24.24a1,1,0,0,0-.24.31c-.06.17,0,.34.11.38s.42-.25.57-.42a1.54,1.54,0,0,0,.23-.32.89.89,0,0,0,.1-.5C696.89,418.13,696.8,418.11,696.72,418.19Z" transform="translate(-593.71 -287.94)"/><path class="cls-35" d="M705.39,418.9c-.45,2.68-2.41,4.91-4.39,5s-3.22-2.05-2.77-4.73,2.41-4.91,4.39-5S705.84,416.21,705.39,418.9Z" transform="translate(-593.71 -287.94)"/><path class="cls-36" d="M703.94,414.49a5.14,5.14,0,0,1,.49,3.42c-.45,2.68-2.41,4.91-4.39,5a2.34,2.34,0,0,1-1.32-.33,2.49,2.49,0,0,0,2.28,1.31c2-.06,3.94-2.29,4.39-5C705.73,416.88,705.11,415.18,703.94,414.49Z" transform="translate(-593.71 -287.94)"/><path class="cls-22" d="M702.93,414.6a.3.3,0,0,0-.18-.16c-.48-.26-1.31.21-1.82.53a5,5,0,0,0-1.33,1.28,7.06,7.06,0,0,0-1.28,3.89c0,1.3.73,2.4,1.87,1.77.9-.49,1.06-1.8,1.16-2.79a6,6,0,0,1,1.42-3.64A.85.85,0,0,0,702.93,414.6Z" transform="translate(-593.71 -287.94)"/><path class="cls-23" d="M701.67,415.15a.49.49,0,0,0-.24,0,1.4,1.4,0,0,0-.83.4,2.8,2.8,0,0,0-.87,1.38c-.06.32.22.57.44.42a2.85,2.85,0,0,0,.64-.73c.28-.33.59-.64.88-.93S701.83,415.17,701.67,415.15Z" transform="translate(-593.71 -287.94)"/><path class="cls-23" d="M699.77,418.08c0-.19-.16-.3-.31-.23s-.17,0-.25.13c-.3.39-.73,1.86-.16,1.89h.11c.21,0,.46-.5.51-.75A4.73,4.73,0,0,0,699.77,418.08Z" transform="translate(-593.71 -287.94)"/><path class="cls-24" d="M705,418.65c0-.13,0-.26,0-.39s-.19-.19-.22,0a9.71,9.71,0,0,1-.3,1.48c0,.14.1.24.19.13a1.59,1.59,0,0,0,.28-.77C705,419,705,418.8,705,418.65Z" transform="translate(-593.71 -287.94)"/><path class="cls-24" d="M704.07,420.92c-.06.07-.15.11-.22.18l-.15.19-.23.23a.85.85,0,0,0-.24.32c-.06.16,0,.34.1.38s.43-.25.57-.42a1.86,1.86,0,0,0,.23-.32.81.81,0,0,0,.1-.5C704.23,420.86,704.14,420.83,704.07,420.92Z" transform="translate(-593.71 -287.94)"/><path class="cls-37" d="M719,424c-.44,2.68-2.41,4.91-4.39,5s-3.22-2.05-2.77-4.73,2.41-4.91,4.39-5S719.46,421.27,719,424Z" transform="translate(-593.71 -287.94)"/><path class="cls-38" d="M717.56,419.55a5.08,5.08,0,0,1,.49,3.42c-.45,2.68-2.41,4.91-4.39,5a2.36,2.36,0,0,1-1.32-.33,2.49,2.49,0,0,0,2.28,1.31c2-.06,4-2.29,4.39-5C719.35,421.94,718.73,420.24,717.56,419.55Z" transform="translate(-593.71 -287.94)"/><path class="cls-22" d="M716.55,419.66a.3.3,0,0,0-.18-.16c-.48-.26-1.31.2-1.81.53a4.9,4.9,0,0,0-1.34,1.28,7.06,7.06,0,0,0-1.28,3.89c0,1.3.73,2.4,1.87,1.77.9-.49,1.06-1.8,1.17-2.79a5.93,5.93,0,0,1,1.41-3.64A.83.83,0,0,0,716.55,419.66Z" transform="translate(-593.71 -287.94)"/><path class="cls-23" d="M715.29,420.21a.49.49,0,0,0-.24,0,1.44,1.44,0,0,0-.83.39,2.88,2.88,0,0,0-.87,1.39c-.06.32.22.56.45.42a3.29,3.29,0,0,0,.64-.73,11.1,11.1,0,0,1,.88-.93C715.47,420.59,715.46,420.23,715.29,420.21Z" transform="translate(-593.71 -287.94)"/><path class="cls-23" d="M713.39,423.14c0-.19-.16-.3-.31-.23s-.17,0-.25.13c-.3.39-.73,1.86-.16,1.89h.11c.22,0,.46-.5.51-.75A4.73,4.73,0,0,0,713.39,423.14Z" transform="translate(-593.71 -287.94)"/><path class="cls-24" d="M718.66,423.71c0-.13,0-.26,0-.39s-.19-.19-.21,0a11.14,11.14,0,0,1-.31,1.48c0,.14.1.24.19.12a1.52,1.52,0,0,0,.28-.76C718.63,424,718.65,423.85,718.66,423.71Z" transform="translate(-593.71 -287.94)"/><path class="cls-24" d="M717.69,426c-.06.07-.15.11-.21.18l-.16.18a1.75,1.75,0,0,1-.23.24,1,1,0,0,0-.24.32c-.06.16,0,.34.1.38s.43-.25.57-.42a1.86,1.86,0,0,0,.23-.32.82.82,0,0,0,.1-.5C717.85,425.92,717.76,425.89,717.69,426Z" transform="translate(-593.71 -287.94)"/><path class="cls-39" d="M726.21,426.63c-.45,2.68-2.42,4.91-4.39,5s-3.22-2.06-2.78-4.74,2.41-4.91,4.39-5S726.65,424,726.21,426.63Z" transform="translate(-593.71 -287.94)"/><path class="cls-40" d="M724.75,422.22a5.08,5.08,0,0,1,.49,3.42c-.44,2.69-2.41,4.92-4.39,5a2.36,2.36,0,0,1-1.32-.33,2.52,2.52,0,0,0,2.29,1.32c2-.07,3.94-2.3,4.39-5C726.54,424.61,725.92,422.91,724.75,422.22Z" transform="translate(-593.71 -287.94)"/><path class="cls-22" d="M723.74,422.33a.42.42,0,0,0-.17-.16c-.49-.26-1.31.21-1.82.53a4.91,4.91,0,0,0-1.33,1.29,7,7,0,0,0-1.29,3.88c0,1.3.74,2.4,1.88,1.77.89-.49,1-1.79,1.16-2.79a6,6,0,0,1,1.41-3.64A.81.81,0,0,0,723.74,422.33Z" transform="translate(-593.71 -287.94)"/><path class="cls-23" d="M722.49,422.88a.69.69,0,0,0-.25,0,1.35,1.35,0,0,0-.82.4,2.82,2.82,0,0,0-.88,1.38c-.06.32.22.57.45.42a3.05,3.05,0,0,0,.64-.73,11,11,0,0,1,.88-.92C722.66,423.26,722.65,422.91,722.49,422.88Z" transform="translate(-593.71 -287.94)"/><path class="cls-23" d="M720.59,425.81c0-.19-.16-.3-.32-.23s-.16,0-.25.14c-.3.38-.72,1.85-.16,1.88H720c.22,0,.46-.5.51-.75A4.75,4.75,0,0,0,720.59,425.81Z" transform="translate(-593.71 -287.94)"/><path class="cls-24" d="M725.85,426.38c0-.13,0-.26,0-.39s-.2-.19-.22,0a10.81,10.81,0,0,1-.31,1.48c0,.14.1.24.19.13a1.5,1.5,0,0,0,.28-.77A2.3,2.3,0,0,0,725.85,426.38Z" transform="translate(-593.71 -287.94)"/><path class="cls-24" d="M724.88,428.65c-.06.07-.15.11-.21.18s-.1.13-.16.19a2.5,2.5,0,0,1-.23.23,1,1,0,0,0-.24.32c-.06.17,0,.34.11.38s.42-.25.57-.42a1.86,1.86,0,0,0,.23-.32.89.89,0,0,0,.1-.5C725.05,428.59,725,428.57,724.88,428.65Z" transform="translate(-593.71 -287.94)"/><path class="cls-41" d="M733.8,429.45c-.45,2.68-2.41,4.91-4.39,5s-3.22-2.06-2.78-4.74,2.42-4.91,4.39-5S734.24,426.77,733.8,429.45Z" transform="translate(-593.71 -287.94)"/><path class="cls-42" d="M732.34,425a5.08,5.08,0,0,1,.5,3.42c-.45,2.69-2.41,4.92-4.39,5a2.34,2.34,0,0,1-1.32-.33,2.5,2.5,0,0,0,2.28,1.32c2-.07,3.94-2.3,4.39-5C734.13,427.43,733.51,425.73,732.34,425Z" transform="translate(-593.71 -287.94)"/><path class="cls-22" d="M731.33,425.15a.33.33,0,0,0-.17-.16c-.48-.26-1.31.21-1.82.53a4.91,4.91,0,0,0-1.33,1.29,6.87,6.87,0,0,0-1.28,3.88c0,1.3.73,2.4,1.87,1.77.89-.49,1.06-1.79,1.16-2.79a5.94,5.94,0,0,1,1.42-3.64A.83.83,0,0,0,731.33,425.15Z" transform="translate(-593.71 -287.94)"/><path class="cls-23" d="M730.08,425.7a.69.69,0,0,0-.25,0,1.4,1.4,0,0,0-.82.4,2.73,2.73,0,0,0-.87,1.38c-.06.32.21.57.44.42a3.05,3.05,0,0,0,.64-.73c.27-.32.59-.64.88-.92S730.24,425.73,730.08,425.7Z" transform="translate(-593.71 -287.94)"/><path class="cls-23" d="M728.18,428.63c0-.19-.16-.3-.31-.23s-.17,0-.25.14c-.31.38-.73,1.85-.16,1.88h.1c.22,0,.46-.5.51-.75A4.22,4.22,0,0,0,728.18,428.63Z" transform="translate(-593.71 -287.94)"/><path class="cls-24" d="M733.45,429.2a2.54,2.54,0,0,1,0-.39c0-.19-.2-.19-.22,0a10.78,10.78,0,0,1-.3,1.48c0,.14.09.24.18.13a1.61,1.61,0,0,0,.29-.77C733.42,429.5,733.44,429.35,733.45,429.2Z" transform="translate(-593.71 -287.94)"/><path class="cls-24" d="M732.47,431.47c-.06.07-.14.11-.21.18l-.15.19-.24.23a1.12,1.12,0,0,0-.24.32c-.06.17,0,.34.11.38s.42-.25.57-.42a1.54,1.54,0,0,0,.23-.32.89.89,0,0,0,.1-.5C732.64,431.41,732.55,431.39,732.47,431.47Z" transform="translate(-593.71 -287.94)"/><path class="cls-43" d="M733.39,401.12c-.36,2.67-2.27,5-4.26,5.18s-3.33-1.82-3-4.5,2.26-5,4.26-5.19S733.74,398.44,733.39,401.12Z" transform="translate(-593.71 -287.94)"/><path class="cls-44" d="M731.76,396.86a4.83,4.83,0,0,1,.62,3.34c-.35,2.68-2.26,5-4.26,5.19a2.39,2.39,0,0,1-1.34-.24,2.45,2.45,0,0,0,2.35,1.15c2-.18,3.9-2.51,4.26-5.18C733.66,399.1,733,397.46,731.76,396.86Z" transform="translate(-593.71 -287.94)"/><path class="cls-22" d="M730.93,397a.39.39,0,0,0-.18-.16c-.48-.27-1.3.19-1.81.51a4.67,4.67,0,0,0-1.34,1.26,7,7,0,0,0-1.32,3.88c0,1.3.72,2.41,1.86,1.8.89-.47,1.07-1.78,1.18-2.78a6,6,0,0,1,1.44-3.63A.83.83,0,0,0,730.93,397Z" transform="translate(-593.71 -287.94)"/><path class="cls-23" d="M729.67,397.58a.66.66,0,0,0-.24,0,1.38,1.38,0,0,0-.83.39,2.72,2.72,0,0,0-.88,1.37c-.06.32.21.57.44.43a3,3,0,0,0,.64-.72c.28-.32.59-.63.89-.92C729.84,398,729.83,397.6,729.67,397.58Z" transform="translate(-593.71 -287.94)"/><path class="cls-23" d="M727.75,400.49c0-.2-.16-.31-.31-.24s-.16,0-.25.13c-.3.38-.74,1.85-.18,1.89h.11c.22,0,.46-.49.52-.74A5.43,5.43,0,0,0,727.75,400.49Z" transform="translate(-593.71 -287.94)"/><path class="cls-24" d="M733,401.13c0-.13,0-.26,0-.39s-.19-.18-.21,0a10.85,10.85,0,0,1-.32,1.48c0,.14.09.24.19.13a1.52,1.52,0,0,0,.28-.76A3.62,3.62,0,0,0,733,401.13Z" transform="translate(-593.71 -287.94)"/><path class="cls-24" d="M732,403.4c-.06.07-.15.11-.21.18l-.16.18-.23.24a.86.86,0,0,0-.25.31c-.06.16,0,.34.1.38s.43-.25.58-.41a1.86,1.86,0,0,0,.23-.32.89.89,0,0,0,.1-.5C732.17,403.34,732.08,403.31,732,403.4Z" transform="translate(-593.71 -287.94)"/><path class="cls-45" d="M740.1,403.26c-.22,2.66-2,5.12-4.05,5.49s-3.47-1.48-3.26-4.14,2-5.11,4.05-5.48S740.31,400.61,740.1,403.26Z" transform="translate(-593.71 -287.94)"/><path class="cls-46" d="M738.22,399.24a4.54,4.54,0,0,1,.81,3.22c-.22,2.66-2,5.12-4,5.49a2.54,2.54,0,0,1-1.38-.12,2.46,2.46,0,0,0,2.45.92c2-.37,3.83-2.83,4.05-5.49C740.26,401.26,739.48,399.72,738.22,399.24Z" transform="translate(-593.71 -287.94)"/><path class="cls-22" d="M737.38,399.5a.32.32,0,0,0-.19-.14c-.5-.22-1.31.3-1.81.66a5.31,5.31,0,0,0-1.29,1.37,6.92,6.92,0,0,0-1.13,3.92c.08,1.28.85,2.3,2,1.6.88-.55,1-1.85,1-2.84a6,6,0,0,1,1.27-3.69A.81.81,0,0,0,737.38,399.5Z" transform="translate(-593.71 -287.94)"/><path class="cls-23" d="M736.13,400.14a.7.7,0,0,0-.25,0,1.48,1.48,0,0,0-.81.45,2.92,2.92,0,0,0-.83,1.43c0,.32.25.54.47.38a3.12,3.12,0,0,0,.62-.76,11.63,11.63,0,0,1,.85-1C736.33,400.5,736.3,400.15,736.13,400.14Z" transform="translate(-593.71 -287.94)"/><path class="cls-23" d="M734.34,403.17a.23.23,0,0,0-.33-.2c-.09,0-.16,0-.25.15-.28.4-.65,1.88-.07,1.87h.11c.22-.05.44-.52.48-.78A4.58,4.58,0,0,0,734.34,403.17Z" transform="translate(-593.71 -287.94)"/><path class="cls-24" d="M739.7,403.32c0-.13,0-.26,0-.39s-.2-.16-.21,0a10.89,10.89,0,0,1-.25,1.48c0,.14.11.23.2.11a1.5,1.5,0,0,0,.25-.77A3.52,3.52,0,0,0,739.7,403.32Z" transform="translate(-593.71 -287.94)"/><path class="cls-24" d="M738.82,405.63c-.06.07-.15.12-.21.2l-.15.19c-.07.09-.15.17-.22.25a.86.86,0,0,0-.23.33c0,.17,0,.34.12.37s.42-.29.56-.46a1.52,1.52,0,0,0,.22-.34.78.78,0,0,0,.08-.49C739,405.56,738.89,405.54,738.82,405.63Z" transform="translate(-593.71 -287.94)"/><path class="cls-47" d="M746.72,406.18c-.4,2.68-2.34,5-4.33,5.09s-3.27-1.94-2.87-4.62,2.34-5,4.32-5.09S747.12,403.5,746.72,406.18Z" transform="translate(-593.71 -287.94)"/><path class="cls-48" d="M745.18,401.85a5,5,0,0,1,.55,3.38c-.4,2.68-2.34,5-4.32,5.09a2.39,2.39,0,0,1-1.34-.29,2.51,2.51,0,0,0,2.32,1.24c2-.13,3.93-2.41,4.33-5.09C747,404.17,746.36,402.5,745.18,401.85Z" transform="translate(-593.71 -287.94)"/><path class="cls-22" d="M744.34,402a.31.31,0,0,0-.17-.17c-.47-.28-1.3.15-1.81.46a4.61,4.61,0,0,0-1.36,1.23,7,7,0,0,0-1.37,3.85c0,1.32.66,2.45,1.81,1.88.9-.46,1.09-1.77,1.22-2.76a6,6,0,0,1,1.5-3.61A.84.84,0,0,0,744.34,402Z" transform="translate(-593.71 -287.94)"/><path class="cls-23" d="M743.08,402.51a.63.63,0,0,0-.24,0,1.34,1.34,0,0,0-.83.36,2.83,2.83,0,0,0-.9,1.35c-.07.32.2.58.43.45a2.63,2.63,0,0,0,.65-.71,12.57,12.57,0,0,1,.9-.89C743.25,402.9,743.24,402.54,743.08,402.51Z" transform="translate(-593.71 -287.94)"/><path class="cls-23" d="M741.12,405.38c0-.2-.15-.31-.3-.25s-.16,0-.25.12c-.31.37-.77,1.84-.21,1.9h.11c.21,0,.47-.48.52-.73A4.79,4.79,0,0,0,741.12,405.38Z" transform="translate(-593.71 -287.94)"/><path class="cls-24" d="M746.33,406.19c0-.13,0-.26,0-.39s-.19-.2-.21,0a10.82,10.82,0,0,1-.35,1.47c0,.15.09.25.19.14a1.54,1.54,0,0,0,.3-.76C746.29,406.49,746.32,406.34,746.33,406.19Z" transform="translate(-593.71 -287.94)"/><path class="cls-24" d="M745.3,408.44c-.06.06-.14.1-.21.17l-.16.18a2.66,2.66,0,0,1-.24.23.91.91,0,0,0-.24.3c-.06.17,0,.35.09.39s.43-.24.58-.4a2,2,0,0,0,.24-.31,1,1,0,0,0,.11-.5C745.47,408.38,745.38,408.35,745.3,408.44Z" transform="translate(-593.71 -287.94)"/><path class="cls-49" d="M726.71,398.66c-.36,2.68-2.28,5-4.27,5.17s-3.32-1.86-3-4.53,2.28-5,4.28-5.17S727.08,396,726.71,398.66Z" transform="translate(-593.71 -287.94)"/><path class="cls-50" d="M725.11,394.38a4.91,4.91,0,0,1,.6,3.36c-.36,2.68-2.28,5-4.27,5.17a2.43,2.43,0,0,1-1.35-.26,2.5,2.5,0,0,0,2.35,1.18c2-.18,3.91-2.49,4.27-5.17C727,396.65,726.31,395,725.11,394.38Z" transform="translate(-593.71 -287.94)"/><path class="cls-22" d="M724.27,394.57a.31.31,0,0,0-.17-.17c-.48-.27-1.31.18-1.82.5a4.67,4.67,0,0,0-1.34,1.26,7,7,0,0,0-1.33,3.87c0,1.3.7,2.42,1.85,1.82.89-.48,1.07-1.78,1.19-2.78a5.92,5.92,0,0,1,1.45-3.62A.82.82,0,0,0,724.27,394.57Z" transform="translate(-593.71 -287.94)"/><path class="cls-23" d="M723,395.09a.47.47,0,0,0-.24,0,1.27,1.27,0,0,0-.82.38,2.78,2.78,0,0,0-.89,1.36c-.07.32.21.58.44.44a3,3,0,0,0,.64-.72c.28-.32.59-.63.89-.91S723.18,395.12,723,395.09Z" transform="translate(-593.71 -287.94)"/><path class="cls-23" d="M721.08,398c0-.19-.15-.3-.3-.24s-.17,0-.25.13c-.31.38-.75,1.85-.19,1.9a.41.41,0,0,0,.11,0c.22,0,.46-.48.52-.74A4.22,4.22,0,0,0,721.08,398Z" transform="translate(-593.71 -287.94)"/><path class="cls-24" d="M726.32,398.68c0-.13,0-.26,0-.39s-.19-.19-.22,0a11,11,0,0,1-.32,1.47c0,.14.1.25.19.13a1.63,1.63,0,0,0,.29-.76C726.29,399,726.31,398.83,726.32,398.68Z" transform="translate(-593.71 -287.94)"/><path class="cls-24" d="M725.33,400.94c-.07.07-.15.11-.22.18l-.15.18-.24.23a.83.83,0,0,0-.24.31c-.06.17,0,.35.1.39s.42-.25.57-.41a2.05,2.05,0,0,0,.24-.32.89.89,0,0,0,.1-.5C725.49,400.88,725.4,400.85,725.33,400.94Z" transform="translate(-593.71 -287.94)"/><path class="cls-35" d="M706.67,391.42c-.45,2.68-2.41,4.91-4.39,5s-3.22-2-2.78-4.73,2.42-4.91,4.39-5S707.11,388.74,706.67,391.42Z" transform="translate(-593.71 -287.94)"/><path class="cls-36" d="M705.21,387a5.06,5.06,0,0,1,.5,3.42c-.45,2.68-2.41,4.91-4.39,5a2.42,2.42,0,0,1-1.32-.33,2.51,2.51,0,0,0,2.28,1.31c2-.07,3.94-2.3,4.39-5C707,389.4,706.38,387.71,705.21,387Z" transform="translate(-593.71 -287.94)"/><path class="cls-22" d="M704.2,387.13A.27.27,0,0,0,704,387c-.48-.26-1.31.2-1.82.53a4.87,4.87,0,0,0-1.33,1.28,6.88,6.88,0,0,0-1.28,3.89c0,1.3.73,2.39,1.87,1.77.89-.49,1.06-1.8,1.16-2.79a5.94,5.94,0,0,1,1.42-3.64A.84.84,0,0,0,704.2,387.13Z" transform="translate(-593.71 -287.94)"/><path class="cls-23" d="M703,387.68a.69.69,0,0,0-.25,0,1.47,1.47,0,0,0-.82.4,2.82,2.82,0,0,0-.87,1.38c-.06.32.21.57.44.43a3.26,3.26,0,0,0,.64-.73c.27-.33.59-.64.88-.93S703.11,387.7,703,387.68Z" transform="translate(-593.71 -287.94)"/><path class="cls-23" d="M701.05,390.61c0-.19-.16-.3-.31-.23s-.17,0-.25.13c-.31.38-.73,1.85-.16,1.89a.4.4,0,0,0,.11,0c.21,0,.45-.49.5-.74A4.26,4.26,0,0,0,701.05,390.61Z" transform="translate(-593.71 -287.94)"/><path class="cls-24" d="M706.32,391.17a2.54,2.54,0,0,1,0-.39c0-.18-.2-.18-.22,0a11,11,0,0,1-.3,1.47c0,.15.09.24.18.13a1.57,1.57,0,0,0,.29-.76C706.29,391.48,706.31,391.32,706.32,391.17Z" transform="translate(-593.71 -287.94)"/><path class="cls-24" d="M705.34,393.45c-.06.07-.14.11-.21.18l-.15.18-.24.24a1,1,0,0,0-.24.31c0,.17,0,.35.11.39s.42-.26.57-.42a1.61,1.61,0,0,0,.23-.33.87.87,0,0,0,.1-.49C705.51,393.39,705.42,393.36,705.34,393.45Z" transform="translate(-593.71 -287.94)"/><path class="cls-51" d="M713.36,393.76c-.39,2.68-2.31,5-4.3,5.11s-3.29-1.9-2.91-4.58,2.32-5,4.31-5.12S713.75,391.08,713.36,393.76Z" transform="translate(-593.71 -287.94)"/><path class="cls-52" d="M711.8,389.44a5,5,0,0,1,.57,3.38c-.39,2.68-2.31,5-4.3,5.12a2.47,2.47,0,0,1-1.34-.28,2.45,2.45,0,0,0,2.33,1.21c2-.14,3.91-2.43,4.3-5.11C713.65,391.74,713,390.08,711.8,389.44Z" transform="translate(-593.71 -287.94)"/><path class="cls-22" d="M711,389.62a.35.35,0,0,0-.17-.17c-.48-.28-1.3.16-1.82.47a4.73,4.73,0,0,0-1.34,1.24,6.9,6.9,0,0,0-1.36,3.86c0,1.31.68,2.44,1.82,1.86.9-.47,1.09-1.77,1.21-2.77a6,6,0,0,1,1.48-3.61A.84.84,0,0,0,711,389.62Z" transform="translate(-593.71 -287.94)"/><path class="cls-23" d="M709.7,390.12a.63.63,0,0,0-.24,0,1.41,1.41,0,0,0-.83.37,2.82,2.82,0,0,0-.89,1.36c-.07.32.2.58.43.44a3.14,3.14,0,0,0,.65-.7c.28-.32.59-.63.89-.91S709.86,390.16,709.7,390.12Z" transform="translate(-593.71 -287.94)"/><path class="cls-23" d="M707.75,393c0-.2-.15-.31-.3-.25s-.16,0-.25.13c-.31.37-.76,1.83-.2,1.89h.11c.21,0,.46-.48.52-.73A4.23,4.23,0,0,0,707.75,393Z" transform="translate(-593.71 -287.94)"/><path class="cls-24" d="M713,393.77c0-.13,0-.26,0-.39s-.19-.2-.21,0a11.28,11.28,0,0,1-.34,1.48c0,.14.1.24.19.13a1.45,1.45,0,0,0,.29-.76A3.47,3.47,0,0,0,713,393.77Z" transform="translate(-593.71 -287.94)"/><path class="cls-24" d="M712,396c-.06.07-.15.1-.21.17l-.16.18a2.55,2.55,0,0,1-.24.23.92.92,0,0,0-.24.31c-.06.17,0,.35.09.39s.43-.24.58-.4a2.05,2.05,0,0,0,.24-.32.89.89,0,0,0,.1-.5C712.12,396,712,395.93,712,396Z" transform="translate(-593.71 -287.94)"/><path class="cls-44" d="M720.05,396.1c-.33,2.68-2.22,5-4.22,5.24s-3.35-1.76-3-4.44,2.22-5,4.22-5.24S720.38,393.43,720.05,396.1Z" transform="translate(-593.71 -287.94)"/><path class="cls-53" d="M718.38,391.88a4.79,4.79,0,0,1,.65,3.33c-.33,2.67-2.22,5-4.22,5.24a2.53,2.53,0,0,1-1.35-.22,2.47,2.47,0,0,0,2.37,1.11c2-.22,3.89-2.56,4.22-5.24C720.3,394.09,719.6,392.47,718.38,391.88Z" transform="translate(-593.71 -287.94)"/><path class="cls-22" d="M717.54,392.08a.33.33,0,0,0-.17-.16c-.48-.26-1.31.21-1.82.54a4.87,4.87,0,0,0-1.33,1.28,7.06,7.06,0,0,0-1.28,3.89c0,1.3.74,2.39,1.88,1.77.89-.5,1-1.8,1.16-2.8a6,6,0,0,1,1.41-3.64A.83.83,0,0,0,717.54,392.08Z" transform="translate(-593.71 -287.94)"/><path class="cls-23" d="M716.29,392.63a.69.69,0,0,0-.25,0,1.4,1.4,0,0,0-.82.4,2.82,2.82,0,0,0-.87,1.38c-.06.32.21.57.44.43a3,3,0,0,0,.64-.73c.28-.33.59-.64.88-.93S716.45,392.66,716.29,392.63Z" transform="translate(-593.71 -287.94)"/><path class="cls-23" d="M714.39,395.57c0-.19-.16-.3-.31-.23s-.17,0-.25.13c-.3.38-.73,1.85-.16,1.89h.11c.22,0,.46-.49.51-.74A4.78,4.78,0,0,0,714.39,395.57Z" transform="translate(-593.71 -287.94)"/><path class="cls-24" d="M719.66,396.12c0-.12,0-.25,0-.38s-.19-.19-.21,0a11.14,11.14,0,0,1-.31,1.48c0,.14.1.24.19.12a1.52,1.52,0,0,0,.28-.76C719.63,396.43,719.65,396.27,719.66,396.12Z" transform="translate(-593.71 -287.94)"/><path class="cls-24" d="M718.69,398.4c-.06.07-.15.11-.21.18s-.1.13-.16.19l-.23.23a1,1,0,0,0-.24.32c-.06.17,0,.34.1.38s.43-.25.58-.42a1.86,1.86,0,0,0,.23-.32.81.81,0,0,0,.09-.5C718.85,398.34,718.77,398.31,718.69,398.4Z" transform="translate(-593.71 -287.94)"/><path class="cls-45" d="M744.34,446.76c-.22,2.66-2,5.12-4,5.49s-3.48-1.48-3.26-4.14,2-5.11,4.05-5.49S744.56,444.11,744.34,446.76Z" transform="translate(-593.71 -287.94)"/><path class="cls-46" d="M742.47,442.74a4.54,4.54,0,0,1,.8,3.22c-.21,2.66-2,5.12-4,5.49a2.54,2.54,0,0,1-1.38-.12,2.46,2.46,0,0,0,2.45.92c2-.37,3.82-2.83,4-5.49C744.51,444.76,743.72,443.22,742.47,442.74Z" transform="translate(-593.71 -287.94)"/><path class="cls-22" d="M741.63,443a.32.32,0,0,0-.19-.14c-.5-.22-1.31.3-1.81.66a5,5,0,0,0-1.29,1.37,6.92,6.92,0,0,0-1.13,3.92c.08,1.28.85,2.3,2,1.6.88-.55,1-1.85,1-2.84a6,6,0,0,1,1.27-3.69A.83.83,0,0,0,741.63,443Z" transform="translate(-593.71 -287.94)"/><path class="cls-23" d="M740.38,443.64a.7.7,0,0,0-.25,0,1.48,1.48,0,0,0-.81.45,2.92,2.92,0,0,0-.83,1.43c0,.32.25.54.47.38a3.37,3.37,0,0,0,.62-.76,11.63,11.63,0,0,1,.85-1C740.57,444,740.55,443.65,740.38,443.64Z" transform="translate(-593.71 -287.94)"/><path class="cls-23" d="M738.59,446.67a.22.22,0,0,0-.33-.2c-.1,0-.17,0-.25.15-.28.4-.65,1.88-.07,1.87h.11c.21-.05.44-.53.48-.78A4.58,4.58,0,0,0,738.59,446.67Z" transform="translate(-593.71 -287.94)"/><path class="cls-24" d="M744,446.82c0-.13,0-.26,0-.39s-.2-.16-.22,0a9.5,9.5,0,0,1-.24,1.48c0,.14.11.23.2.11a1.6,1.6,0,0,0,.25-.77A3.52,3.52,0,0,0,744,446.82Z" transform="translate(-593.71 -287.94)"/><path class="cls-24" d="M743.06,449.13c0,.07-.14.12-.2.2l-.15.19c-.07.09-.15.17-.22.25a.86.86,0,0,0-.23.33c-.06.17,0,.34.12.37s.42-.29.56-.46a2.84,2.84,0,0,0,.22-.34.86.86,0,0,0,.07-.5C743.23,449.06,743.14,449,743.06,449.13Z" transform="translate(-593.71 -287.94)"/><path class="cls-54" d="M697.08,429.49c-.33,2.68-2.22,5-4.22,5.24s-3.35-1.76-3-4.44,2.22-5,4.22-5.24S697.42,426.82,697.08,429.49Z" transform="translate(-593.71 -287.94)"/><path class="cls-55" d="M695.41,425.27a4.84,4.84,0,0,1,.66,3.33c-.33,2.67-2.23,5-4.23,5.24a2.53,2.53,0,0,1-1.35-.22,2.47,2.47,0,0,0,2.37,1.11c2-.22,3.89-2.56,4.22-5.24C697.33,427.48,696.63,425.86,695.41,425.27Z" transform="translate(-593.71 -287.94)"/><path class="cls-22" d="M694.58,425.47a.39.39,0,0,0-.18-.16c-.48-.26-1.31.21-1.82.54a4.87,4.87,0,0,0-1.33,1.28A7.06,7.06,0,0,0,690,431c0,1.3.74,2.39,1.88,1.77.89-.5,1-1.8,1.16-2.8a6,6,0,0,1,1.41-3.64A.85.85,0,0,0,694.58,425.47Z" transform="translate(-593.71 -287.94)"/><path class="cls-23" d="M693.32,426a.65.65,0,0,0-.24,0,1.4,1.4,0,0,0-.83.4,2.89,2.89,0,0,0-.87,1.38c-.06.32.22.57.45.43a3.53,3.53,0,0,0,.64-.73c.27-.33.58-.64.87-.93S693.48,426.05,693.32,426Z" transform="translate(-593.71 -287.94)"/><path class="cls-23" d="M691.42,429c0-.19-.16-.3-.31-.23s-.16,0-.25.13c-.3.38-.73,1.85-.16,1.89h.11c.22,0,.46-.49.51-.74A4.78,4.78,0,0,0,691.42,429Z" transform="translate(-593.71 -287.94)"/><path class="cls-24" d="M696.69,429.51c0-.12,0-.25,0-.38s-.19-.19-.21,0a11.14,11.14,0,0,1-.31,1.48c0,.14.1.24.19.12a1.43,1.43,0,0,0,.28-.76A3.59,3.59,0,0,0,696.69,429.51Z" transform="translate(-593.71 -287.94)"/><path class="cls-24" d="M695.72,431.79c-.06.07-.15.11-.21.18l-.15.19-.24.23a1.12,1.12,0,0,0-.24.32c-.06.17,0,.34.11.38s.42-.25.57-.42a1.86,1.86,0,0,0,.23-.32.9.9,0,0,0,.1-.5C695.89,431.73,695.8,431.7,695.72,431.79Z" transform="translate(-593.71 -287.94)"/><path class="cls-56" d="M705,432.43c-.33,2.67-2.22,5-4.22,5.24s-3.35-1.77-3-4.44,2.22-5,4.22-5.24S705.32,429.75,705,432.43Z" transform="translate(-593.71 -287.94)"/><path class="cls-57" d="M703.32,428.21a4.79,4.79,0,0,1,.65,3.33c-.33,2.67-2.22,5-4.22,5.24a2.53,2.53,0,0,1-1.35-.22,2.47,2.47,0,0,0,2.37,1.11c2-.22,3.89-2.57,4.22-5.24C705.24,430.42,704.54,428.79,703.32,428.21Z" transform="translate(-593.71 -287.94)"/><path class="cls-22" d="M702.48,428.41a.27.27,0,0,0-.17-.16c-.48-.26-1.31.21-1.82.53a5.07,5.07,0,0,0-1.33,1.29,7,7,0,0,0-1.28,3.89c0,1.29.74,2.39,1.88,1.76.89-.49,1-1.79,1.16-2.79a5.93,5.93,0,0,1,1.41-3.64A.83.83,0,0,0,702.48,428.41Z" transform="translate(-593.71 -287.94)"/><path class="cls-23" d="M701.23,429a.69.69,0,0,0-.25,0,1.4,1.4,0,0,0-.82.4,2.73,2.73,0,0,0-.87,1.38c-.06.32.21.57.44.42a3,3,0,0,0,.64-.72c.28-.33.59-.65.88-.93S701.39,429,701.23,429Z" transform="translate(-593.71 -287.94)"/><path class="cls-23" d="M699.33,431.9c0-.2-.16-.3-.31-.24s-.17,0-.25.14c-.3.38-.73,1.85-.16,1.89h.11c.22,0,.46-.5.51-.75A4.69,4.69,0,0,0,699.33,431.9Z" transform="translate(-593.71 -287.94)"/><path class="cls-24" d="M704.6,432.45c0-.13,0-.26,0-.39s-.19-.18-.21,0a11,11,0,0,1-.31,1.47c0,.15.1.24.19.13a1.56,1.56,0,0,0,.28-.76C704.57,432.76,704.59,432.6,704.6,432.45Z" transform="translate(-593.71 -287.94)"/><path class="cls-24" d="M703.63,434.73c-.06.07-.15.11-.21.18l-.16.18a2.61,2.61,0,0,1-.23.24.8.8,0,0,0-.24.32c-.06.16,0,.34.1.38s.43-.26.58-.42a1.61,1.61,0,0,0,.23-.33.87.87,0,0,0,.1-.49C703.79,434.67,703.71,434.64,703.63,434.73Z" transform="translate(-593.71 -287.94)"/><path class="cls-58" d="M712.41,435.18c-.33,2.68-2.22,5-4.22,5.25s-3.36-1.77-3-4.45,2.23-5,4.23-5.24S712.74,432.51,712.41,435.18Z" transform="translate(-593.71 -287.94)"/><path class="cls-59" d="M710.74,431a4.8,4.8,0,0,1,.65,3.33c-.33,2.67-2.22,5-4.22,5.24a2.34,2.34,0,0,1-1.35-.22,2.48,2.48,0,0,0,2.37,1.12c2-.23,3.89-2.57,4.22-5.25C712.66,433.17,712,431.55,710.74,431Z" transform="translate(-593.71 -287.94)"/><path class="cls-22" d="M709.9,431.16a.32.32,0,0,0-.18-.15c-.48-.27-1.3.2-1.81.53a4.87,4.87,0,0,0-1.33,1.28,6.9,6.9,0,0,0-1.28,3.89c0,1.3.73,2.4,1.87,1.77.9-.49,1.06-1.8,1.16-2.79a6,6,0,0,1,1.41-3.65A.81.81,0,0,0,709.9,431.16Z" transform="translate(-593.71 -287.94)"/><path class="cls-23" d="M708.65,431.72a.52.52,0,0,0-.25,0,1.33,1.33,0,0,0-.82.39,2.81,2.81,0,0,0-.87,1.39c-.07.32.21.56.44.42a3.05,3.05,0,0,0,.64-.73,11.1,11.1,0,0,1,.88-.93C708.82,432.09,708.81,431.74,708.65,431.72Z" transform="translate(-593.71 -287.94)"/><path class="cls-23" d="M706.75,434.65c0-.19-.16-.3-.31-.23s-.17,0-.26.13c-.3.39-.72,1.86-.15,1.89h.11c.21,0,.45-.5.5-.75A4.22,4.22,0,0,0,706.75,434.65Z" transform="translate(-593.71 -287.94)"/><path class="cls-24" d="M712,435.21c0-.13,0-.26,0-.39s-.2-.19-.22,0a9.71,9.71,0,0,1-.3,1.48c0,.14.1.24.19.13a1.59,1.59,0,0,0,.28-.77C712,435.51,712,435.36,712,435.21Z" transform="translate(-593.71 -287.94)"/><path class="cls-24" d="M711.05,437.48c-.06.07-.15.11-.22.18l-.15.19-.23.24a.74.74,0,0,0-.24.31c-.06.17,0,.34.1.38s.43-.25.57-.42a1.86,1.86,0,0,0,.23-.32.81.81,0,0,0,.1-.5C711.21,437.42,711.12,437.4,711.05,437.48Z" transform="translate(-593.71 -287.94)"/><path class="cls-60" d="M727.26,440.7c-.34,2.67-2.23,5-4.23,5.24s-3.35-1.77-3-4.44,2.22-5,4.22-5.24S727.59,438,727.26,440.7Z" transform="translate(-593.71 -287.94)"/><path class="cls-61" d="M725.59,436.48a4.84,4.84,0,0,1,.65,3.33c-.33,2.67-2.22,5-4.22,5.24a2.55,2.55,0,0,1-1.36-.22,2.47,2.47,0,0,0,2.37,1.11c2-.22,3.89-2.57,4.23-5.24C727.51,438.69,726.8,437.06,725.59,436.48Z" transform="translate(-593.71 -287.94)"/><path class="cls-22" d="M724.75,436.68a.3.3,0,0,0-.18-.16c-.48-.26-1.31.21-1.81.53a4.92,4.92,0,0,0-1.33,1.29,7,7,0,0,0-1.29,3.89c0,1.29.74,2.39,1.88,1.76.89-.49,1.05-1.79,1.16-2.79a6,6,0,0,1,1.41-3.64A.83.83,0,0,0,724.75,436.68Z" transform="translate(-593.71 -287.94)"/><path class="cls-23" d="M723.49,437.23a.65.65,0,0,0-.24,0,1.35,1.35,0,0,0-.82.4,2.75,2.75,0,0,0-.88,1.38c-.06.32.22.57.45.42a3.22,3.22,0,0,0,.64-.72,9.74,9.74,0,0,1,.88-.93C723.67,437.61,723.66,437.26,723.49,437.23Z" transform="translate(-593.71 -287.94)"/><path class="cls-23" d="M721.59,440.17c0-.2-.16-.3-.31-.24s-.16,0-.25.14c-.3.38-.73,1.85-.16,1.89a.4.4,0,0,0,.11,0c.22,0,.46-.49.51-.75A4.17,4.17,0,0,0,721.59,440.17Z" transform="translate(-593.71 -287.94)"/><path class="cls-24" d="M726.87,440.72a2.54,2.54,0,0,1,0-.39c0-.18-.2-.18-.22,0a12.77,12.77,0,0,1-.3,1.47c0,.15.09.24.18.13a1.57,1.57,0,0,0,.29-.76C726.84,441,726.86,440.87,726.87,440.72Z" transform="translate(-593.71 -287.94)"/><path class="cls-24" d="M725.89,443c-.06.07-.14.11-.21.18l-.15.18c-.08.09-.16.16-.24.24a.9.9,0,0,0-.24.32c0,.16,0,.34.11.38s.42-.26.57-.42a1.61,1.61,0,0,0,.23-.33.87.87,0,0,0,.1-.49C726.06,442.94,726,442.91,725.89,443Z" transform="translate(-593.71 -287.94)"/><rect class="cls-18" x="668.47" y="444.42" width="86.58" height="14.9" rx="2.7" transform="translate(-391.81 -507.5) rotate(20.38)"/><rect class="cls-62" x="668.86" y="443.94" width="83.5" height="13.23" rx="2.5" transform="translate(-392.35 -507.18) rotate(20.38)"/><g class="cls-63"><path class="cls-11" d="M714.45,446.43a24.49,24.49,0,0,0-2.63-1.13c-2.68-1-5.39-2-8.1-2.94-3.09-1.11-6.13-2.35-9.21-3.51-4.31-1.62-8.67-3.09-13-4.6L677.84,433c-1-.34-2-.67-2.87.09a5.92,5.92,0,0,0-1.41,2.76c-.16.52-.31,1-.44,1.56a.51.51,0,0,0-.25.36,40.2,40.2,0,0,0-.63,4.08.51.51,0,0,0,.91.34l1.42-1.82c.45-.57.87-1.19,1.36-1.72,1-1,2.39-.26,3.5.11,2.94,1,5.9,1.87,8.87,2.74,5.84,1.7,11.72,3.34,17.63,4.79,3,.73,6,1.31,9,1.76a.5.5,0,0,0,.52-.32C715.65,447,714.94,446.68,714.45,446.43Z" transform="translate(-593.71 -287.94)"/><path class="cls-11" d="M749.4,462.52a6.29,6.29,0,0,0,.35-2.15,2,2,0,0,0-2.45-2,2.33,2.33,0,0,0-.83.08.51.51,0,0,0-.21.91,6.75,6.75,0,0,0,1.5.61c.49.21.55.63.51,1.11a13,13,0,0,1-.32,1.63c-.15.69-.29,1.38-.44,2.07s.77.72,1,.22A26.18,26.18,0,0,0,749.4,462.52Z" transform="translate(-593.71 -287.94)"/></g><path class="cls-3" d="M633.73,354.65c-1.67,2.14-6.92,2.27-9.07,1.92,2.23,1.25,6,2.75,9.07-.14Z" transform="translate(-593.71 -287.94)"/><path class="cls-3" d="M694.31,337.81c0-.18-.1-.36-.16-.53a27.22,27.22,0,0,1-.93-11.45,32.13,32.13,0,0,0-.84-13.11c-3.14-11.45-12.13-19.84-23.19-23.17a33.34,33.34,0,0,1,19.61,21.89c1.21,4.39,2.73,9.35,2.12,13.63-.54,3.84.71,8.92,1.39,12.25,3.25,16.12-7.39,31.67-24.28,36.3a33,33,0,0,1-18.07-.09,32.87,32.87,0,0,0,21.65,1.38C688.5,370.27,698.66,353.66,694.31,337.81Z" transform="translate(-593.71 -287.94)"/><path class="cls-2" d="M712.09,376.45a1.06,1.06,0,0,0-1.15-.26,6.23,6.23,0,0,0-1.62.74c-1,.63-1.94,1.41-3,2.07l-.06,0a10.86,10.86,0,0,1,.61-.94l1.26-1.74c.45-.62.9-1.25,1.3-1.91a8.5,8.5,0,0,0,.9-1.78,1.78,1.78,0,0,0,0-1.36.87.87,0,0,0-1-.42,3.66,3.66,0,0,0-1.44.74A17.38,17.38,0,0,0,706.4,373c-.49.49-1,1-1.45,1.5l-.66.7a15.08,15.08,0,0,0,1.21-3.84,7.64,7.64,0,0,0,.13-1.79,1.4,1.4,0,0,0-.34-1c-.3-.24-.68,0-.93.17a5.76,5.76,0,0,0-1.12,1.32c-.8,1.13-1.51,2.34-2.25,3.52-.37.59-.74,1.18-1.14,1.74a11.11,11.11,0,0,1-1,1.32,3,3,0,0,1-.42.39l-.1.06-.08.05a.42.42,0,0,1-.15,0h-.13a.19.19,0,0,1-.13-.14,7.32,7.32,0,0,1-.25-1.32c-.2-1.75-.09-3.85-1.5-5.05a1,1,0,0,0-1.45,0,3.43,3.43,0,0,0-.8,1.73,6.68,6.68,0,0,0-.15,1.08c0,.41,0,.81,0,1.22a25.41,25.41,0,0,1-.22,3.16c-.26,2.07-1.45,4.53-1.74,6.59-.08.49,5.28,7.26,6.49,7.23,2.88-.08,5.46-2.73,6.6-3.27.54-.25,1.07-.51,1.59-.81A22.83,22.83,0,0,0,710.1,385a6,6,0,0,0,1.27-1.39,1.08,1.08,0,0,0,.11-1.18c-.3-.4-.85-.28-1.22-.17a12.9,12.9,0,0,0-1.64.68,6.31,6.31,0,0,1-.68.26,1.38,1.38,0,0,1-.25.05h-.09l-.07,0a.25.25,0,0,1,0-.35,2.57,2.57,0,0,1,.41-.54,19.35,19.35,0,0,1,1.47-1.4c.58-.51,1.15-1,1.69-1.59a5.51,5.51,0,0,0,1.14-1.57A1.31,1.31,0,0,0,712.09,376.45Z" transform="translate(-593.71 -287.94)"/><path class="cls-2" d="M688.83,400.69c8.64-5.82,11.49-9.88,9-13.29-1.06-1.44-7.9-2.89-21.42.59-10.28,2.64-19.42,5-15.62,15.75C663.33,411,678,408,688.83,400.69Z" transform="translate(-593.71 -287.94)"/><path class="cls-3" d="M659.73,408.63c1.24,0,2.47.32,3.71.4a27.77,27.77,0,0,0,3.87,0,33.36,33.36,0,0,0,7.51-1.45,50.94,50.94,0,0,0,13.52-6.8c2.36-1.61,4.58-3.42,6.87-5.12a.06.06,0,0,1,.07.09A62.39,62.39,0,0,1,682.87,405a37.88,37.88,0,0,1-14.46,5,28.37,28.37,0,0,1-4.42.16,13.76,13.76,0,0,1-4.37-.67C659.18,409.38,659.21,408.62,659.73,408.63Z" transform="translate(-593.71 -287.94)"/><path class="cls-3" d="M662.05,392.5a7.66,7.66,0,0,1,3-1.59c1.07-.43,2.15-.82,3.25-1.19,2.27-.76,4.59-1.39,6.93-1.93s4.71-1,7.09-1.4a68.05,68.05,0,0,1,7-.95c.12,0,.14.18,0,.21-2.31.66-4.71,1-7,1.51s-4.54.95-6.79,1.53-4.46,1.2-6.65,1.94c-1.09.37-2.18.76-3.25,1.19a10.31,10.31,0,0,1-3.32,1.14A.27.27,0,0,1,662.05,392.5Z" transform="translate(-593.71 -287.94)"/><path class="cls-3" d="M693,385.16a7.32,7.32,0,0,1,3.17,2.2,5.72,5.72,0,0,1,1.65,3.31.15.15,0,0,1-.28.08,25.27,25.27,0,0,0-1.82-3.09,11.3,11.3,0,0,0-2.83-2.22A.15.15,0,0,1,693,385.16Z" transform="translate(-593.71 -287.94)"/><path class="cls-2" d="M741.1,397c-1.37-2.32-4.24-6.34-7.23-6.81-8.65-1.36-11-1.7-12.06-.19-.79,1.1-.42,4,.47,4.87a36.5,36.5,0,0,0,3.36,2.31c.88.64,2.84,1.45,3.71,2.1,1.23.91,3.18,2.28,4.25,0,.64-1.37-2.44-3.84-2.61-4.45,7,1.32,7.94,5.46,9.13,6a1.4,1.4,0,0,0,2-.66C742.45,399.78,741.72,398.09,741.1,397Z" transform="translate(-593.71 -287.94)"/><path class="cls-3" d="M658.76,397a5.81,5.81,0,0,1,1.78-2.88c.18-.16.4.18.24.35a6.65,6.65,0,0,0-1.5,2.81,13.75,13.75,0,0,0-.14,3.14c0,.21-.26.3-.36.11A5.16,5.16,0,0,1,658.76,397Z" transform="translate(-593.71 -287.94)"/><path class="cls-14" d="M628.92,432a6.67,6.67,0,0,0-3,.74c-1,.43-2,.89-3,1.39a32.12,32.12,0,0,0-5.47,3.53,22.52,22.52,0,0,0-7.37,10,11.81,11.81,0,0,0-.65,6.64s.08.05.09,0a31.08,31.08,0,0,1,2-7.34,21.21,21.21,0,0,1,4.36-6.2A28.59,28.59,0,0,1,622.2,436c1.17-.64,2.36-1.24,3.58-1.78a11.29,11.29,0,0,0,3.37-1.76A.32.32,0,0,0,628.92,432Z" transform="translate(-593.71 -287.94)"/><path class="cls-14" d="M612.25,458.6c-.21-.42-.65-.7-.91-1.09a3.86,3.86,0,0,1-.65-1.5c0-.19-.33-.28-.36-.05a2.65,2.65,0,0,0,.27,1.89c.29.48.86,1.11,1.48,1A.2.2,0,0,0,612.25,458.6Z" transform="translate(-593.71 -287.94)"/><path class="cls-14" d="M638.07,471.38a7.15,7.15,0,0,0-2.6-.49c-1-.12-2-.26-3-.45a36.34,36.34,0,0,1-5.69-1.57,39.23,39.23,0,0,1-5.48-2.5c-1.72-1-3.3-2.12-5-3.15-.12-.07-.24.1-.15.2a20.44,20.44,0,0,0,4.7,3.68,34.18,34.18,0,0,0,5.52,2.74,35.39,35.39,0,0,0,5.91,1.71c1,.19,2,.35,3,.45a5.81,5.81,0,0,0,2.84-.15A.28.28,0,0,0,638.07,471.38Z" transform="translate(-593.71 -287.94)"/><path class="cls-14" d="M635.5,395.68a12.21,12.21,0,0,0-1,2.4c-.3.95-.54,1.92-.77,2.88-.44,1.9-.8,3.8-1.09,5.72s-.54,3.65-.64,5.49a13.4,13.4,0,0,0,.08,2.76,3,3,0,0,0,1,2.07.37.37,0,0,0,.52-.13,5.19,5.19,0,0,0,.08-2.29,21.52,21.52,0,0,1,0-2.54c.11-1.82.31-3.63.54-5.43s.51-3.64.84-5.44a34.41,34.41,0,0,0,.74-5.43A.12.12,0,0,0,635.5,395.68Z" transform="translate(-593.71 -287.94)"/><path class="cls-14" d="M645.16,372.56a10.48,10.48,0,0,0-5,2.7,15.52,15.52,0,0,0-3.67,4.58,12.79,12.79,0,0,0-.53,10.81,7.46,7.46,0,0,0,4.06,4.26c.29.12.47-.31.29-.5-3-3.08-4.68-7.26-3.57-11.51a13.63,13.63,0,0,1,3.35-5.82c1.59-1.67,3.54-2.8,5.26-4.29C645.42,372.69,645.29,372.54,645.16,372.56Z" transform="translate(-593.71 -287.94)"/><path class="cls-14" d="M649.7,403.61a6.87,6.87,0,0,0-2-1.63c-.83-.62-1.64-1.27-2.41-2-1.44-1.33-2.64-2.86-4-4.26,0,0-.12,0-.1.05a14.5,14.5,0,0,0,3.43,4.88,21.31,21.31,0,0,0,2.26,2,5.11,5.11,0,0,0,2.57,1.36A.28.28,0,0,0,649.7,403.61Z" transform="translate(-593.71 -287.94)"/><path class="cls-14" d="M682.69,388.82a16.81,16.81,0,0,0-3.52.4c-1.14.18-2.27.38-3.4.57a56.69,56.69,0,0,0-6.7,1.45,14.74,14.74,0,0,0-5.24,2.72,8.87,8.87,0,0,0-1.71,1.91,6.22,6.22,0,0,0-.89,2.56c0,.07.09.13.12.05a11.85,11.85,0,0,1,3.53-3.89,16.11,16.11,0,0,1,5.44-2.36c2-.53,4.14-.88,6.21-1.31,1.07-.22,2.14-.45,3.21-.7a15,15,0,0,0,3.1-.86C683.12,389.22,683,388.83,682.69,388.82Z" transform="translate(-593.71 -287.94)"/><path class="cls-14" d="M694.68,376.17c0-.12-.19-.1-.23,0a21.51,21.51,0,0,0-.77,3.58,12.11,12.11,0,0,0-.66,3.44c0,.2.3.39.47.19a7.82,7.82,0,0,0,1.06-3.53A9.33,9.33,0,0,0,694.68,376.17Z" transform="translate(-593.71 -287.94)"/><path class="cls-14" d="M634.61,298a27,27,0,0,0-3.69,2.89,33.29,33.29,0,0,0-3.13,3.58,30.24,30.24,0,0,0-4.38,8.34,31.35,31.35,0,0,0-.28,19.51,32.87,32.87,0,0,0,2.09,5.15,18.68,18.68,0,0,0,1.48,2.52,5.79,5.79,0,0,0,1.88,1.9.33.33,0,0,0,.49-.37,7.23,7.23,0,0,0-.93-2.09c-.39-.71-.81-1.41-1.19-2.12a30.57,30.57,0,0,1-1.9-4.26,32.08,32.08,0,0,1-1.8-9.45,31.28,31.28,0,0,1,4.83-17.62,31.85,31.85,0,0,1,3-4.11,36.56,36.56,0,0,1,3.62-3.74C634.78,298,634.68,297.89,634.61,298Z" transform="translate(-593.71 -287.94)"/><path class="cls-14" d="M635.91,356.63a0,0,0,1,0,0,0A0,0,0,1,0,635.91,356.63Z" transform="translate(-593.71 -287.94)"/><path class="cls-14" d="M660.25,373c-.92-.32-1.94-.42-2.89-.67s-2-.45-2.91-.71a27.12,27.12,0,0,1-5.51-2.14,27.63,27.63,0,0,1-9.23-7.68c-.68-.89-1.3-1.82-1.89-2.77-.28-.46-.57-.91-.86-1.36s-.47-.92-.91-1.11c0,0-.08,0-.09,0-.29.75.37,1.95.67,2.64a17.63,17.63,0,0,0,1.55,2.7,27,27,0,0,0,4.11,4.76,27.92,27.92,0,0,0,11,6.25,17.13,17.13,0,0,0,3.46.7,10.23,10.23,0,0,0,3.49-.2A.23.23,0,0,0,660.25,373Z" transform="translate(-593.71 -287.94)"/><path class="cls-14" d="M626.65,356.07a11.76,11.76,0,0,0-1.82-1.13,8.56,8.56,0,0,1-1.85-1.43,9.92,9.92,0,0,1-2.4-4.09.09.09,0,0,0-.17,0,7.18,7.18,0,0,0,1.74,4.75c1,1.22,2.68,2.59,4.37,2.34A.28.28,0,0,0,626.65,356.07Z" transform="translate(-593.71 -287.94)"/><path class="cls-14" d="M739.84,396.09a12.43,12.43,0,0,0-1.91-2.54c-1.58-1.56-3-3-5.66-3-.08,0-.15.13-.06.14,2.14.33,3.78,1.88,5.15,3.47a15.65,15.65,0,0,1,1.74,2.54,8.52,8.52,0,0,0,1.55,2.47c.15.12.43.05.41-.17A6.68,6.68,0,0,0,739.84,396.09Z" transform="translate(-593.71 -287.94)"/><path class="cls-14" d="M731.73,396.32a7.48,7.48,0,0,0-1.12-1.13,11.91,11.91,0,0,0-1.49-.81c-.07,0-.16.07-.09.12a10.45,10.45,0,0,1,1,1.21c.32.4.66.78,1,1.2a10.29,10.29,0,0,0,1.64,2.26A.21.21,0,0,0,733,399,4.06,4.06,0,0,0,731.73,396.32Z" transform="translate(-593.71 -287.94)"/><path class="cls-14" d="M721.39,389.72a8.79,8.79,0,0,0-3.43-.21,20.35,20.35,0,0,0-3.4.5.13.13,0,0,0,0,.25h3.51a14.46,14.46,0,0,0,3.29-.1C721.62,390.1,721.58,389.79,721.39,389.72Z" transform="translate(-593.71 -287.94)"/><path class="cls-14" d="M723.28,390.24a2.27,2.27,0,0,0-1.12,1.33,1.71,1.71,0,0,0,.14,1.63.18.18,0,0,0,.29-.12,4.49,4.49,0,0,1,0-1.32,2,2,0,0,1,.9-1.19A.19.19,0,0,0,723.28,390.24Z" transform="translate(-593.71 -287.94)"/><path class="cls-64" d="M675.05,358.34c-2.41-.09-3.57,2-3.55,4.66a3.4,3.4,0,0,0,.46,1.86c.39.47,1.07.06,1.11-.45a6.08,6.08,0,0,1,1.39-2.83,5.57,5.57,0,0,0,1.11-2.72A.52.52,0,0,0,675.05,358.34Z" transform="translate(-593.71 -287.94)"/><path class="cls-3" d="M673.63,367a3.17,3.17,0,0,0-3.58-.62,4.5,4.5,0,0,0-1.67,1.05,2.69,2.69,0,0,0-.5.71c-.14.3,0,.55-.12.84a.17.17,0,0,0,.3.13c.1-.13.3-.18.43-.27s.37-.33.56-.48a4.34,4.34,0,0,1,1.42-.8,7.71,7.71,0,0,1,3-.14C673.69,367.45,673.75,367.17,673.63,367Z" transform="translate(-593.71 -287.94)"/></g></g></svg>