<svg xmlns="http://www.w3.org/2000/svg" viewBox="0 0 170.5 196.23"><defs><style>.cls-1{isolation:isolate;}.cls-2{fill:#f5f5f5;mix-blend-mode:multiply;}.cls-3{fill:#ffb191;}.cls-4{fill:#ffc0a6;}.cls-5{fill:#fae7db;}.cls-6{fill:#d1785a;}.cls-7{fill:#f2f2f2;}.cls-8{fill:#fafafa;}.cls-9{fill:#2a86ad;}.cls-10,.cls-29{fill:#fff;}.cls-11{fill:#54bee8;}.cls-12{fill:#de954c;}.cls-13{fill:#ffd5c6;}.cls-14{fill:#a1dded;}.cls-15{fill:#ee844e;}.cls-16{fill:#ea703d;}.cls-17{fill:#f2a66a;}.cls-18{fill:#00a7af;}.cls-19{fill:#ffca21;}.cls-20{fill:#fceb49;}.cls-21{fill:#be2630;}.cls-22{opacity:0.75;}.cls-23{fill:#d35b08;opacity:0.39;}.cls-24{fill:#2ac5d4;}.cls-25{fill:#db8426;}.cls-26{opacity:0.55;}.cls-27{opacity:0.58;}.cls-28{fill:#f0a245;}.cls-29,.cls-30{opacity:0.36;}.cls-31{fill:#800035;}.cls-32{fill:#d4145a;}</style></defs><g class="cls-1"><g id="Слой_1" data-name="Слой 1"><ellipse class="cls-2" cx="91.48" cy="169.34" rx="79.02" ry="10.97"/><path class="cls-3" d="M645,393.58c-5.17-9.05-5.68-13.54-2.17-15.9s9.3-.55,17.12,9.35c6.58,8.32,13.07,16.54,6.7,20.8S651.44,404.88,645,393.58Z" transform="translate(-597.89 -287.94)"/><path class="cls-3" d="M677.23,403.44c-10.73,5.05-16.23,5.62-19.72,1.18s.57-13.51,13-25.21c8.52-8,20.66-10.33,27-2.28S690.64,397.13,677.23,403.44Z" transform="translate(-597.89 -287.94)"/><path class="cls-4" d="M728,417c-2.62-20.89-9.1-51.92-30.07-51-21.52-.89-29.06,30.14-31.67,51-3.14,25.16-.45,39.42,30.87,39.42S731.14,442.16,728,417Z" transform="translate(-597.89 -287.94)"/><path class="cls-3" d="M728,417c-2.3-18.37-7.59-44.59-23.1-50,13.23,8.07,16.29,32.9,17.17,50.48,1.28,25.31-2.46,39.34-33.69,37a68.31,68.31,0,0,1-12.66-2c4.88,2.59,11.8,3.93,21.41,3.93C728.45,456.42,731.14,442.16,728,417Z" transform="translate(-597.89 -287.94)"/><path class="cls-5" d="M728.23,416.65c-6.05,3.35-28.19,4.22-38,4.37a69.7,69.7,0,0,1-24.36-4.27c0,.19,0,.38-.07.57q-.48,3.72-.75,7.12c1.46.34,13.71,29,14.11,30.19,4.49,1.93,17.16,2.6,23.52,2.65-.18-3.25,24-25.2,26.78-25.08a121.65,121.65,0,0,0-1.19-14.88Z" transform="translate(-597.89 -287.94)"/><path class="cls-4" d="M665.7,312.7c5-18.25,24.83-28.71,44.27-23.37S741.1,313.78,736.09,332a32,32,0,0,1-5.13,10.6c2.86-.92,5.67-.51,7.27,1.36,2.39,2.8,1.16,7.78-2.75,11.13s-8.62,3.75-11.12,1.32c-5.14,14.7-21.66,22.91-37.88,18.46-16.89-4.64-27.06-21.25-22.71-37.1.05-.18.11-.36.16-.54a27,27,0,0,0,.93-11.44A32.29,32.29,0,0,1,665.7,312.7Z" transform="translate(-597.89 -287.94)"/><path class="cls-6" d="M725.68,348.13a11.91,11.91,0,0,1,4-2.53c2.33-.91,6.55-1.34,7.68,1.59.09.23-.24.47-.44.33-2.14-1.58-4.71-1.32-7-.14a12.33,12.33,0,0,0-2.18,1.45l.62.17a11.93,11.93,0,0,1,2.46.78.28.28,0,0,1-.07.5,5.06,5.06,0,0,1-2.59,0,5.85,5.85,0,0,1-1.44-.43c-.34.37-.65.76-1,1.16a4.2,4.2,0,0,1-1.29,1.33.57.57,0,0,1-.83-.34C723.38,350.51,724.72,349.06,725.68,348.13Z" transform="translate(-597.89 -287.94)"/><path class="cls-7" d="M668.65,335.55c-.78,4.4,1.7,8.52,5.53,9.19s7.56-2.34,8.34-6.74-1.7-8.52-5.53-9.19S669.42,331.15,668.65,335.55Z" transform="translate(-597.89 -287.94)"/><path class="cls-8" d="M677,328.8a7,7,0,0,1,.79.2c-3.54-.16-6.82,2.74-7.54,6.83s1.37,7.93,4.75,9a5.56,5.56,0,0,1-.81-.08c-3.83-.68-6.31-4.79-5.53-9.19S673.12,328.13,677,328.8Z" transform="translate(-597.89 -287.94)"/><path class="cls-9" d="M669.44,338.32a5.2,5.2,0,1,0,6-4.22A5.2,5.2,0,0,0,669.44,338.32Z" transform="translate(-597.89 -287.94)"/><path d="M670.4,339.55a3.15,3.15,0,1,0,3.65-2.56A3.14,3.14,0,0,0,670.4,339.55Z" transform="translate(-597.89 -287.94)"/><path class="cls-10" d="M671,333.62a1.63,1.63,0,0,1,1.9-.87,1.74,1.74,0,0,1,1.17,1.39,1.45,1.45,0,0,1-.91,1.77,1.81,1.81,0,0,1-1.86-.34A1.64,1.64,0,0,1,671,333.62Z" transform="translate(-597.89 -287.94)"/><path class="cls-10" d="M672.28,337.69l.12-.15h0a.67.67,0,0,1,.22-.25h0a.85.85,0,0,1,.87-.08.91.91,0,0,1,.5.71v0a2.09,2.09,0,0,1,0,.25,1,1,0,0,1-.3.52,1,1,0,0,1-.6.28,1,1,0,0,1-.48-.08.84.84,0,0,1-.35-1.23Z" transform="translate(-597.89 -287.94)"/><path d="M671,330.52c1.39-2,4.44-2.33,6.61-1.64a7.08,7.08,0,0,1,4.79,5c0,.08-.09.11-.13,0-1.24-1.89-2.58-3.66-4.82-4.39s-4.3,0-6.21,1.22A.18.18,0,0,1,671,330.52Z" transform="translate(-597.89 -287.94)"/><path class="cls-11" d="M679.49,338.48a5.85,5.85,0,0,1-.12,1.62c-.15.73-1.29.53-1.13-.2a4.77,4.77,0,0,0,.1-1.31A.58.58,0,0,1,679.49,338.48Z" transform="translate(-597.89 -287.94)"/><path class="cls-11" d="M677.66,341.39l.34-.48a.57.57,0,0,1,.81-.07.58.58,0,0,1,.07.81l-.34.48a.57.57,0,0,1-.81.07A.59.59,0,0,1,677.66,341.39Z" transform="translate(-597.89 -287.94)"/><path class="cls-11" d="M670.23,337.2l.22-.41a.6.6,0,0,1,.32-.29.58.58,0,0,1,.72.79l-.22.4a.67.67,0,0,1-.32.3.63.63,0,0,1-.45,0A.58.58,0,0,1,670.23,337.2Z" transform="translate(-597.89 -287.94)"/><path class="cls-7" d="M697.62,340.66c-.78,4.4,1.7,8.52,5.53,9.19s7.56-2.34,8.34-6.74-1.7-8.52-5.53-9.19S698.39,336.26,697.62,340.66Z" transform="translate(-597.89 -287.94)"/><path class="cls-8" d="M705.92,333.91a7,7,0,0,1,.79.19c-3.54-.15-6.82,2.74-7.54,6.84s1.37,7.93,4.75,9a5.58,5.58,0,0,1-.81-.09c-3.83-.67-6.31-4.78-5.53-9.19S702.09,333.23,705.92,333.91Z" transform="translate(-597.89 -287.94)"/><path class="cls-9" d="M698.41,343.43a5.2,5.2,0,1,0,6-4.22A5.2,5.2,0,0,0,698.41,343.43Z" transform="translate(-597.89 -287.94)"/><path d="M699.37,344.65A3.15,3.15,0,1,0,703,342.1,3.15,3.15,0,0,0,699.37,344.65Z" transform="translate(-597.89 -287.94)"/><path class="cls-10" d="M700,338.72a1.63,1.63,0,0,1,1.9-.86,1.73,1.73,0,0,1,1.17,1.39,1.45,1.45,0,0,1-.91,1.77,1.81,1.81,0,0,1-1.86-.35A1.65,1.65,0,0,1,700,338.72Z" transform="translate(-597.89 -287.94)"/><path class="cls-10" d="M701.25,342.8l.12-.15h0a.64.64,0,0,1,.22-.24l0,0a.87.87,0,0,1,.87-.07.89.89,0,0,1,.5.71v0a2.35,2.35,0,0,1,0,.26,1,1,0,0,1-.3.52,1,1,0,0,1-.6.28,1,1,0,0,1-.48-.08.93.93,0,0,1-.44-.48A.86.86,0,0,1,701.25,342.8Z" transform="translate(-597.89 -287.94)"/><path d="M700,335.63c1.39-2,4.45-2.33,6.62-1.64a7.09,7.09,0,0,1,4.78,5c0,.07-.09.11-.13.05-1.24-1.89-2.58-3.66-4.82-4.4s-4.3,0-6.21,1.23A.18.18,0,0,1,700,335.63Z" transform="translate(-597.89 -287.94)"/><path class="cls-11" d="M708.46,343.59a5.88,5.88,0,0,1-.12,1.62c-.15.72-1.29.53-1.13-.2a4.83,4.83,0,0,0,.1-1.31A.58.58,0,0,1,708.46,343.59Z" transform="translate(-597.89 -287.94)"/><path class="cls-11" d="M706.63,346.49,707,346a.58.58,0,0,1,.88.75l-.34.48a.57.57,0,0,1-.81.07A.6.6,0,0,1,706.63,346.49Z" transform="translate(-597.89 -287.94)"/><path class="cls-11" d="M699.2,342.3c.07-.13.15-.26.22-.4a.6.6,0,0,1,.32-.29.58.58,0,0,1,.72.79c-.07.13-.15.26-.22.4a.6.6,0,0,1-.32.29.58.58,0,0,1-.72-.79Z" transform="translate(-597.89 -287.94)"/><path class="cls-6" d="M681.59,350.75a5.23,5.23,0,0,1-.87-2.78c0-1.77,1.48-3.89,3.48-4a.18.18,0,0,1,.13.32,5.91,5.91,0,0,0-1.68,1.7,4.22,4.22,0,0,0-.5,2.09,3.79,3.79,0,0,0,.72,2c.33.47,1,1.07,1.06,1.65a.28.28,0,0,1-.17.28C682.93,352.39,682,351.36,681.59,350.75Z" transform="translate(-597.89 -287.94)"/><path class="cls-12" d="M712.71,329.58a15.44,15.44,0,0,0-5.74-2.8.87.87,0,0,1,.46-1.68,16.63,16.63,0,0,1,6.17,3C714.47,328.76,713.6,330.27,712.71,329.58Z" transform="translate(-597.89 -287.94)"/><path class="cls-12" d="M671,322.58a5.32,5.32,0,0,1,5.74-2.22.87.87,0,0,1-.46,1.68,3.53,3.53,0,0,0-3.79,1.43C671.89,324.4,670.39,323.52,671,322.58Z" transform="translate(-597.89 -287.94)"/><path class="cls-12" d="M687.16,301.58a10.62,10.62,0,0,1,3.12-1.56c1.06-.33,2.14-.59,3.21-.86a62.58,62.58,0,0,0,6.36-1.52,10.6,10.6,0,0,0,4.88-3.36,6.81,6.81,0,0,0,1.23-2.43,12.52,12.52,0,0,1,.55-2.71.3.3,0,0,1,.4-.1c.89.49,1,1.69,1,2.64a7.9,7.9,0,0,1-.82,3.33,10.08,10.08,0,0,1-5.12,4.7,23.74,23.74,0,0,1-7.13,1.85c-1.27.14-2.54.18-3.8.33-.59.07-1.16.2-1.75.25s-1.29.06-1.94.13C686.94,302.32,686.9,301.77,687.16,301.58Z" transform="translate(-597.89 -287.94)"/><path class="cls-12" d="M685.31,295.86a7.52,7.52,0,0,1,4.14-2.29c1.79-.47,3.64-.73,5.45-1.08,1.59-.31,3.22-.53,4.78-.94a10.22,10.22,0,0,0,1.91-.71,3.62,3.62,0,0,0,1.73-1.32.08.08,0,0,1,.15.06,5.22,5.22,0,0,1-.64,1.81,4.46,4.46,0,0,1-1.57,1.29,17.28,17.28,0,0,1-4.6,1.47c-3.66.78-7.3,1.65-11,2.4A.41.41,0,0,1,685.31,295.86Z" transform="translate(-597.89 -287.94)"/><path class="cls-12" d="M692.21,290.28a9.28,9.28,0,0,1,2.88-.58c1-.16,1.92-.3,2.9-.42.12,0,.16.17.06.23a11.08,11.08,0,0,1-2.85,1.1,5.72,5.72,0,0,1-2.92.24A.31.31,0,0,1,692.21,290.28Z" transform="translate(-597.89 -287.94)"/><path class="cls-12" d="M697.9,303.32a36.61,36.61,0,0,0,5.68-.87,9.4,9.4,0,0,0,4.39-2.21,8.89,8.89,0,0,0,2.92-6.84,9.5,9.5,0,0,0-.1-1.51,2.69,2.69,0,0,1-.1-1.05.2.2,0,0,1,.3-.12,4.46,4.46,0,0,1,1,2.53,10.06,10.06,0,0,1,.06,2.95,9.72,9.72,0,0,1-7.74,8.24c-2.24.41-4.34-.29-6.5-.83C697.69,303.57,697.74,303.33,697.9,303.32Z" transform="translate(-597.89 -287.94)"/><path class="cls-12" d="M714.43,291.85a.16.16,0,0,1,.14-.08c1.12.06,1.59,2.15,1.8,3,.31,1.23.56,2.91-.22,4a.33.33,0,0,1-.6-.09c-.37-1.17-.16-2.52-.4-3.73a10.63,10.63,0,0,0-.56-1.82A1.63,1.63,0,0,1,714.43,291.85Z" transform="translate(-597.89 -287.94)"/><path class="cls-3" d="M726.48,298.71c7.45,8.79,10,23.48,7,33.94a33.13,33.13,0,0,1-5.45,10.58,10.17,10.17,0,0,1,2.9-.61,35.45,35.45,0,0,0,5.13-10.6c3.34-12.16-.75-24.72-9.61-33.31Z" transform="translate(-597.89 -287.94)"/><path class="cls-3" d="M722.51,354.71c-5.06,13.73-22.12,22-38.35,17.78a34.66,34.66,0,0,1-12-5.76,33.28,33.28,0,0,0,14.36,8.16c16.14,4.43,32.65-3.9,37.88-18.46A13.27,13.27,0,0,1,722.51,354.71Z" transform="translate(-597.89 -287.94)"/><path class="cls-3" d="M737.24,343.43a7.83,7.83,0,0,0-3.07-.46,7,7,0,0,0-1.78.18,11.7,11.7,0,0,0-1.56.6.14.14,0,0,0,0,.27c.92.1,1.82.37,2.76.44a8.32,8.32,0,0,1,2.57.45c1.47.61,1.5,2.41,1.16,3.74a8.17,8.17,0,0,1-2.17,3.68c-1.1,1.1-2.49,1.8-3.64,2.83a.46.46,0,0,0,.37.79c1.9-.13,3.63-1.51,4.89-2.85a9.46,9.46,0,0,0,2.52-4.88C739.66,346.32,739.14,344.26,737.24,343.43Z" transform="translate(-597.89 -287.94)"/><path class="cls-4" d="M747.14,443.2c-5-7.49-15.36-15.47-24.87-13.66-4.82.92-9.24,3.55-13,6.59s-8.1,6.88-9.76,11.53a12,12,0,0,0-.36,6.53c1.45,6.81,15.71,6.09,23.22,7.21,10.07,1.5,24.32,5.08,27.41-5.9C750.94,451.29,749.5,446.72,747.14,443.2Z" transform="translate(-597.89 -287.94)"/><path class="cls-4" d="M671,426.35a10.61,10.61,0,0,0-6.45-1.61,45.57,45.57,0,0,0-9.58,2,48.64,48.64,0,0,0-16.64,8.69c-3.23,2.62-8,6.68-6.59,11.44,1.16,3.79,5.27,6.28,8.8,7.24,10.07,2.74,35.51,3.18,38.83,1.66a4.8,4.8,0,0,0,3-3.93c.64-4.69-1.49-9.74-3.18-14.05S675,428.88,671,426.35Z" transform="translate(-597.89 -287.94)"/><path class="cls-3" d="M679.13,437.77c-1.68-4.31-4.1-8.89-8.15-11.42a10.84,10.84,0,0,0-3.26-1.36c3.94,2.55,6.31,7.05,8,11.29a11.17,11.17,0,0,1-3.39,12.41c-4.58,3.92-25.15,6.66-35.22,3.92l-.37-.11a16.08,16.08,0,0,0,3.81,1.59c10.07,2.74,35.51,3.18,38.83,1.66a4.8,4.8,0,0,0,3-3.93C683,447.13,680.82,442.08,679.13,437.77Z" transform="translate(-597.89 -287.94)"/><path class="cls-4" d="M748.09,452.2c-.57-2.52-2.87-4.28-5.08-5.36a16.71,16.71,0,0,0-7.4-1.79,43.85,43.85,0,0,0-11.87,1.83,52.05,52.05,0,0,0-10.84,4.25,109.39,109.39,0,0,0-9.61,6.36c-3.28,2.3-6.57,4.5-9.65,7.07-.77.64-1.59,1.2-2.38,1.79-2,.83-3.67,2.22-3.41,4.54.31,2.83,3.34,4.75,5.95,5.12a33.11,33.11,0,0,0,5.72,0,126.71,126.71,0,0,0,23.36-2.92A62.87,62.87,0,0,0,735.34,469a26.62,26.62,0,0,0,9.39-6.71,15.6,15.6,0,0,0,2.65-4.48A10.46,10.46,0,0,0,748.09,452.2Z" transform="translate(-597.89 -287.94)"/><path class="cls-3" d="M747.14,443.2a33.58,33.58,0,0,0-3.47-4.33l.33.5c2.36,3.74,3.79,8.59,2.61,13.05a10,10,0,0,1-4.26,6.18c-.24.35-.5.7-.76,1a26.64,26.64,0,0,1-9.4,7.11,59.55,59.55,0,0,1-12.46,4.33,119.6,119.6,0,0,1-23.35,3.11,32.13,32.13,0,0,1-5.72,0,7.49,7.49,0,0,1-1.28-.32A8.13,8.13,0,0,0,693.8,476a33.11,33.11,0,0,0,5.72,0,126.71,126.71,0,0,0,23.36-2.92A62.87,62.87,0,0,0,735.34,469a26.62,26.62,0,0,0,9.39-6.71c.27-.32.52-.65.76-1a9.41,9.41,0,0,0,4.27-5.82C750.94,451.29,749.5,446.72,747.14,443.2Z" transform="translate(-597.89 -287.94)"/><path class="cls-3" d="M710.39,468.44a.71.71,0,0,0,.86-.06,4.38,4.38,0,0,1,4.35-.48A3.44,3.44,0,0,1,718,471a3.29,3.29,0,0,1-2.88,3.1,4.65,4.65,0,0,1-2.32-.23c0,.08,0,.16,0,.25a8.2,8.2,0,0,1,1,.12,2.79,2.79,0,0,1,2.07,1.17,2.2,2.2,0,0,1-.43,2.44,2.31,2.31,0,0,1-2.14.61,1.94,1.94,0,0,1,.15,2.53,1.66,1.66,0,0,1-2.51.16,1.53,1.53,0,0,1-.18,1.42,1.22,1.22,0,0,1-2.17-.15c0,.79-.08,1.82-1.09,1.77-1.44-.08-2.72-2-2.72-2-3.23-.72-19.44-5.06-17.41-12.07.61-2.13,1.79-3.15,3.74-3.25a27.23,27.23,0,0,1,3.71.27,26.89,26.89,0,0,0,3.11,0c2.23-.09,4.46-.33,6.7-.27A13.88,13.88,0,0,1,710.39,468.44Z" transform="translate(-597.89 -287.94)"/><path class="cls-4" d="M724.15,382.11c-1.33-6.1-9.22-12.4-11.61-11.26-6.43,3.06-2.47,13.72-2.24,16.51.19,2.42,8.36,16.59,9,14.93C721,397.33,725.32,387.45,724.15,382.11Z" transform="translate(-597.89 -287.94)"/><path class="cls-3" d="M724.15,382.11c-1.33-6.1-9.22-12.4-11.61-11.26l-.24.12c3.28,1.18,8.61,6.22,9.69,11.14s-1.11,8.49-3.07,13.74c.88,1.18,2.1,10.39,2.25,10C723.3,399.7,725.32,387.45,724.15,382.11Z" transform="translate(-597.89 -287.94)"/><path class="cls-3" d="M700,378.59a3.26,3.26,0,0,0-1.43,1,19.17,19.17,0,0,0-1.4,1.45c-.51.58-1,1.19-1.45,1.82a9.37,9.37,0,0,1-.2-1.73,17.67,17.67,0,0,1,.58-3.54.17.17,0,0,0-.3-.13,7.09,7.09,0,0,0-1.07,3.68,7.8,7.8,0,0,0,.24,2.78c-.13.19-8.22,8.21-8.57,12.24,0,.08.12.15.15.07.87-2.5,10.54-13.62,11.2-14.37.48-.54,1-1.07,1.46-1.59a4.28,4.28,0,0,0,1-1.31A.25.25,0,0,0,700,378.59Z" transform="translate(-597.89 -287.94)"/><path class="cls-3" d="M723.33,384.73A50,50,0,0,1,717.67,395a37.73,37.73,0,0,1-4.9,4.64c-1.94,1.55-9.15,7.26-14.9,9.1-.37.12-.15.66.22.57,9.28-2.43,19.76-11.33,21.08-13s4-9.43,4.57-11.44C723.82,384.64,723.42,384.5,723.33,384.73Z" transform="translate(-597.89 -287.94)"/><path class="cls-3" d="M731.49,447a11.19,11.19,0,0,0-4-1.3,20.53,20.53,0,0,0-4.36-.34,21.89,21.89,0,0,0-4.19.57c-.54.12-1.09.26-1.63.43a20.24,20.24,0,0,1,2.82-1.35,13.79,13.79,0,0,1,3.57-.86c1.19-.11,2.38,0,3.55-.11a.22.22,0,0,0,.11-.41c-2-1.23-5-.6-7.08.12a21.43,21.43,0,0,0-6.42,3.65c-4.18,3.32-7.47,7.61-11.74,10.84a0,0,0,1,0,0,.08,26.93,26.93,0,0,0,4.93-3.48,2.57,2.57,0,0,0,.91-.52.08.08,0,0,0-.08-.13l-.14.05c2-1.76,3.84-3.64,5.87-5.32.61-.5,1.26-1,1.92-1.46,1.09-.27,2.16-.66,3.27-.9a21.32,21.32,0,0,1,4.28-.46,23.12,23.12,0,0,1,4.16.33c1.37.25,2.67.76,4,1A.24.24,0,0,0,731.49,447Z" transform="translate(-597.89 -287.94)"/><path class="cls-13" d="M664.53,426.2a18.17,18.17,0,0,0-6.22.59,48.2,48.2,0,0,0-6.13,1.76,44.46,44.46,0,0,0-5.75,2.51,19.28,19.28,0,0,0-5.06,3.54c-.07.08,0,.24.11.19,1.83-.71,3.55-1.73,5.32-2.59a56.41,56.41,0,0,1,5.83-2.49,48.22,48.22,0,0,1,5.89-1.68c2-.45,4.11-.67,6.08-1.3A.27.27,0,0,0,664.53,426.2Z" transform="translate(-597.89 -287.94)"/><path class="cls-13" d="M709.17,437.94c-2.2.5-4.11,2.3-5.44,4a10.77,10.77,0,0,0-2.55,6.44c0,.25.39.4.5.14a29.27,29.27,0,0,1,2.9-5.82,31.58,31.58,0,0,1,4.7-4.62C709.36,438,709.27,437.92,709.17,437.94Z" transform="translate(-597.89 -287.94)"/><path class="cls-13" d="M725,441.31a4.94,4.94,0,0,0-2.9,0,12.58,12.58,0,0,0-3.1,1.1,9.67,9.67,0,0,0-4.67,4.39.19.19,0,0,0,.3.23,26.82,26.82,0,0,1,4.85-3.57,14.57,14.57,0,0,1,2.8-1.07,14,14,0,0,0,2.72-.75A.18.18,0,0,0,725,441.31Z" transform="translate(-597.89 -287.94)"/><path class="cls-13" d="M724.08,446.86c-1.7-1-4.2-.62-6-.13a14.6,14.6,0,0,0-5.44,2.86,53.4,53.4,0,0,0-4.61,4.54,64.4,64.4,0,0,1-5.07,4.7c-1,.86-2.09,1.69-3.15,2.52-.5.38-1,.79-1.46,1.18a5.58,5.58,0,0,0-1.38,1.36.29.29,0,0,0,.32.42,9.2,9.2,0,0,0,2.68-1.65c.87-.64,1.71-1.32,2.55-2a66.39,66.39,0,0,0,5.05-4.43c3-2.91,5.61-6.48,9.63-8a14.75,14.75,0,0,1,3.42-.84c1.14-.15,2.31-.05,3.43-.27A.12.12,0,0,0,724.08,446.86Z" transform="translate(-597.89 -287.94)"/><path class="cls-13" d="M703.22,379.92c-2.79.81-5.56,3.42-7.82,6.2a32.14,32.14,0,0,0-3.21,4.7,17.8,17.8,0,0,0-2.22,5.47c-.05.3.2.49.4.19,1-1.46,1.72-3.22,2.63-4.76a42.17,42.17,0,0,1,3-4.51,55.31,55.31,0,0,1,7.22-7.15C703.3,380,703.27,379.9,703.22,379.92Z" transform="translate(-597.89 -287.94)"/><path class="cls-13" d="M670.17,360.26a18,18,0,0,1-2.79-4.95,35.24,35.24,0,0,1-1.55-6.33,32.53,32.53,0,0,1-.39-6.83,28.6,28.6,0,0,1,.38-3.46,21.92,21.92,0,0,0,.51-3.11.06.06,0,0,0-.09,0c-1.43,1.76-1.81,4.43-2,6.61a29.26,29.26,0,0,0,.17,7.24,32.11,32.11,0,0,0,1.62,6.77c.71,1.92,1.81,3.85,3.81,4.6A.34.34,0,0,0,670.17,360.26Z" transform="translate(-597.89 -287.94)"/><path class="cls-13" d="M673.92,301a18.1,18.1,0,0,0-4.11,4A24.22,24.22,0,0,0,667,310.1a25.55,25.55,0,0,0-1.78,11.79,13.25,13.25,0,0,0,1.89,6.33c.18.27.7.21.67-.18-.07-.89-.29-1.76-.44-2.65s-.26-1.83-.36-2.76a27.92,27.92,0,0,1,0-5.56,27,27,0,0,1,3.45-10.65,35.47,35.47,0,0,1,3.64-5.29C674.11,301.05,674,300.9,673.92,301Z" transform="translate(-597.89 -287.94)"/><path class="cls-13" d="M680.8,376.05a15.52,15.52,0,0,0-3.58,3.91c-.89,1.35-2.09,3.24-1.92,4.94a.33.33,0,0,0,.55.22,7.27,7.27,0,0,0,1.36-2c.38-.78.79-1.54,1.23-2.3.86-1.48,1.82-2.92,2.77-4.36C681.36,376.22,681,375.87,680.8,376.05Z" transform="translate(-597.89 -287.94)"/><path class="cls-13" d="M670.27,403.14A12.63,12.63,0,0,0,668,409a27.76,27.76,0,0,0-.39,3.14,5,5,0,0,0,.54,3.08.27.27,0,0,0,.46,0,6.63,6.63,0,0,0,.59-2.81,27,27,0,0,1,.32-3.12c.32-2,1-4,1.18-6A.25.25,0,0,0,670.27,403.14Z" transform="translate(-597.89 -287.94)"/><path class="cls-14" d="M729.2,422.14c0-.18-.6-2.62-.7-3.25s-2.88.83-16.38,2.24a9.71,9.71,0,0,0-3.7.82,2.6,2.6,0,0,0-.94,3c.33,1.3,1.46,1.95,3,2.14a26.58,26.58,0,0,0,6.17-.32c2.41-.29,4.79-.67,7.18-1a47.32,47.32,0,0,0,5.38-1.08C729.81,424.28,729.36,423.57,729.2,422.14Z" transform="translate(-597.89 -287.94)"/><path class="cls-14" d="M677,421.3c-.46-.64-1.45-.65-2.13-.84-1.11-.32-2.2-.68-3.3-1-1.34-.44-6.26-2.45-6.65-2a3.42,3.42,0,0,0-.52,1.82,22.64,22.64,0,0,0-.3,2.32c-.06,1.55,1.18,1.82,2.24,2.21,2.78,1,5.63,2.3,8.57,2.66C676.8,426.63,678,422.81,677,421.3Z" transform="translate(-597.89 -287.94)"/><path class="cls-4" d="M605.53,454.36c.76-1.53,3.5.1,5.09-.28,11.69-2.78,16.43-16.47,26.55-18.18,7.09-1.2,14.25,1.92,15.3,10.34,1.11,8.91-7.5,14.57-14.51,17.24a28.13,28.13,0,0,1-5.31,1.49,48.65,48.65,0,0,1-6.26.53c-4.4.19-11.39,1.11-14.66,4-.47.41-5-1.31-5.92-3a12,12,0,0,1-1.29-5.78A13.75,13.75,0,0,1,605.53,454.36Z" transform="translate(-597.89 -287.94)"/><path class="cls-3" d="M652.32,449.63a.17.17,0,0,0-.33,0,9.87,9.87,0,0,1-1.17,3,7.4,7.4,0,0,1-.53.72,11,11,0,0,0,.16-3c-.14-1.86-.62-4.17-2-5.51a.12.12,0,0,0-.2.12c.21.91.58,1.78.8,2.7a12.07,12.07,0,0,1,.34,2.81,13.11,13.11,0,0,1-.31,2.79c-.09.43-.3.93-.43,1.42-2.93,3.54-7.48,6.06-11.49,7.59a28.9,28.9,0,0,1-5.31,1.49,50.49,50.49,0,0,1-6.26.52c-4.4.19-11.4,1.11-14.67,4-.4.36-3.84-.89-5.37-2.32.09.18.18.36.28.53,1,1.67,5.45,3.39,5.92,3,3.27-2.9,10.26-3.82,14.66-4a48.65,48.65,0,0,0,6.26-.53,28.13,28.13,0,0,0,5.31-1.49c4.2-1.6,9-4.28,11.9-8.1a4.45,4.45,0,0,0,2-2.24A5.52,5.52,0,0,0,652.32,449.63Z" transform="translate(-597.89 -287.94)"/><path class="cls-3" d="M609.12,440.45c-2.91.59-1.19,2.87-1.47,5.54-.39.88.15-4.41-1.91-3.75-1.84.58-1.46,2.42-1,4.86-.75-4.37-3.87-2.43-2.54,2.29-1-3.57-3.7-.38-2,2.52,0,0-1.34-2-2.23-.39-.59,1.08,1.1,2.74,1.1,2.74.14,2.43,2.39,8.87,3.91,11.23,1.17,1.8,2.06,3.74,4.45,4.63a5.7,5.7,0,0,0,6-1.93c2.51-3.08-.7-6.83-.92-10a12.76,12.76,0,0,1,.89-6.08c1-3-1.49-7-1.49-7C613.2,441.88,611.9,439.89,609.12,440.45Z" transform="translate(-597.89 -287.94)"/><path class="cls-3" d="M612.76,451.69c-.63,1.95-2.71,4-2.51,7.11s4,6.86,2,9.22a4.83,4.83,0,0,1-5.93,1.52,5.24,5.24,0,0,0,7.19-1.35c2.51-3.08-.7-6.83-.92-10.05a12.74,12.74,0,0,1,.89-6.07c1-3-1.49-7-1.49-7S613.73,448.67,612.76,451.69Z" transform="translate(-597.89 -287.94)"/><path class="cls-15" d="M641.69,378.73c.08,2,0,4,.16,6l0,.14a.56.56,0,0,0,.31.35,2.21,2.21,0,0,0,1.64.09.6.6,0,0,0,.38-.61c-.27-1.67-.62-3.31-1-4.95-.07-.32-.14-.64-.2-1a2.28,2.28,0,0,0,1.45-1,3.05,3.05,0,0,0-.13-3.5,3,3,0,0,0-2.94-.82,2.68,2.68,0,0,0-2.07,2.6v.14a.51.51,0,0,0,0,.13A3.08,3.08,0,0,0,641.69,378.73Z" transform="translate(-597.89 -287.94)"/><path class="cls-16" d="M644.32,374.24a2.9,2.9,0,0,0-2.63-.88,2.86,2.86,0,0,1,2.2.91,3.05,3.05,0,0,1,.12,3.51,2.29,2.29,0,0,1-1.45,1q.09.48.21,1c.38,1.65.74,3.29,1,5a.58.58,0,0,1-.39.6,1.67,1.67,0,0,1-.32.08,2.26,2.26,0,0,0,.76-.11.6.6,0,0,0,.38-.61c-.27-1.67-.62-3.31-1-4.95-.07-.33-.14-.65-.2-1a2.28,2.28,0,0,0,1.45-1A3.05,3.05,0,0,0,644.32,374.24Z" transform="translate(-597.89 -287.94)"/><path class="cls-17" d="M641.76,374.93c-.7,0-1.47,1-1,1.66.34.43.79.14.88-.25s0-.87.09-1.11Z" transform="translate(-597.89 -287.94)"/><path class="cls-17" d="M641.76,374.34a1.74,1.74,0,0,0-1.48,2.52,1.06,1.06,0,0,0,1.7.16,1.44,1.44,0,0,0,.33-.9,4.35,4.35,0,0,1,0-.74c.23-.73-.92-1-1.14-.31a3.46,3.46,0,0,0-.07.91.62.62,0,0,0,0,.23s0,0,.08,0,.07.06.06,0a.63.63,0,0,1,.5-.67c.75,0,.76-1.23,0-1.18Z" transform="translate(-597.89 -287.94)"/><path class="cls-17" d="M642.17,379.71c.12,1.42.36,2.84.46,4.23Z" transform="translate(-597.89 -287.94)"/><path class="cls-17" d="M642,379.69a3.5,3.5,0,0,0,0,1c0,.37.05.74.05,1.11s.07.9.1,1.34a1.75,1.75,0,0,0,.22,1,.32.32,0,0,0,.49,0,1.35,1.35,0,0,0,.06-.91c-.05-.41-.1-.81-.18-1.21s-.19-.79-.25-1.19a6.29,6.29,0,0,0-.2-1.15.16.16,0,0,0-.31,0Z" transform="translate(-597.89 -287.94)"/><path class="cls-18" d="M650.16,469.17a8.38,8.38,0,1,1-8.27-8.48A8.38,8.38,0,0,1,650.16,469.17Z" transform="translate(-597.89 -287.94)"/><path class="cls-18" d="M680.49,469.17a8.38,8.38,0,1,1-8.27-8.48A8.38,8.38,0,0,1,680.49,469.17Z" transform="translate(-597.89 -287.94)"/><path class="cls-19" d="M674,458.92a23.4,23.4,0,0,0-4.69-7.51,24.82,24.82,0,0,0-3.4-3.16c-1.27-1-2.62-1.85-3.9-2.81a34.59,34.59,0,0,1-7.17-6.92c-2-2.67-2.66-5.87-3.37-9-1.57-6.93-8.41,2.8-10.58,15.71-.83,4.9-3.17,14.94-2,19.8.46,2,1.43,2.7,3.3,1.88.66-.29,1.31-.61,1.94-.95a5.27,5.27,0,0,0,1.75-1.54c.29-.39.55-.8.86-1.18A11.08,11.08,0,0,1,648,462a11.58,11.58,0,0,1,2.92-2,10.71,10.71,0,0,1,3.16-.79,15.69,15.69,0,0,1,5.75.43c3.42.95,8.29,3.21,9.46,7a.56.56,0,0,0,0,.31c0-.12,0-.07,0,.06a.77.77,0,0,0,.09.32.75.75,0,0,0,.46.32,1.89,1.89,0,0,0,2.22.66,3.56,3.56,0,0,0,2.22-2C675.23,464,674.8,461.14,674,458.92Z" transform="translate(-597.89 -287.94)"/><path class="cls-20" d="M681.06,450.14a38.39,38.39,0,0,1-1.24,12.21,13.07,13.07,0,0,1-2,4.52,4.14,4.14,0,0,1-2.62,1.86c-1.76.16-2.6-2.27-3.26-3.5a11.65,11.65,0,0,0-5.48-5.58c-7.53-3.28-12.09,2.29-16.84,7.25-1.21,1.27-3.72,3.81-5.25,1.53-1.21-1.82-1.09-4.54-1.48-6.64-.51-2.71-.87-5.45-1.11-8.2a103.41,103.41,0,0,1-.07-15.84c.4-5.95,1-11.89,1-17.86,0-3.2-.38-15.64-.38-15.64-.77.42-1.52.87-2.27,1.32,1.68-5.95-4.45-11.31-9.84-11.31l-.22-.11a19.93,19.93,0,0,1,7.22-7.86,16.7,16.7,0,0,1,7.2-2.29,12.07,12.07,0,0,1,5.85.94,19.15,19.15,0,0,1,2.93,2.18l.08,0a9.76,9.76,0,0,1,3.63-.61,10.11,10.11,0,0,1,6.13,2.15,7.52,7.52,0,0,1,2.79,5.78.61.61,0,0,1-.43.58c-3.1,1.26-6.36.42-9.26-1.12q.19,1,.33,1.89c.58,4.08.78,8.28,1,12.39.42,8.65-1.54,22.82,8,27.5,3.85,1.88,8.32,2.48,11.66,5.34C679.67,443.07,680.76,446.48,681.06,450.14Z" transform="translate(-597.89 -287.94)"/><path class="cls-16" d="M630.28,394.26c5.39,0,11.52,5.36,9.84,11.31a15.39,15.39,0,0,1-5.74,2.33,5,5,0,0,1-5.36-3.18c-1.36-3.39-.68-7.2,1-10.57Z" transform="translate(-597.89 -287.94)"/><path class="cls-16" d="M646.71,406.49c-.25-.32-.73-.15-.93.12-1,1.45-1.36,3.22-2.2,4.76a.57.57,0,0,0,0,.64.64.64,0,0,0,.3.23,8.69,8.69,0,0,0,4.5.17.59.59,0,0,0,.42-.73C648.29,409.9,647.88,408,646.71,406.49Z" transform="translate(-597.89 -287.94)"/><path class="cls-16" d="M650,405.21a.56.56,0,0,0,.22.17,46.24,46.24,0,0,1,3.95,2.59.59.59,0,0,0,.81-.21c.77-1.5,1.29-3.11,2-4.65.17-.36,0-.93-.51-.89a15.78,15.78,0,0,0-3.27.57,33.72,33.72,0,0,0-3.36,1.36C649.25,404.39,649.51,405.08,650,405.21Z" transform="translate(-597.89 -287.94)"/><path class="cls-16" d="M652.79,416a.61.61,0,0,0-.72.1c-1.65,1.77-2.29,4.21-3.14,6.41a.53.53,0,0,0,.55.72.73.73,0,0,0,.22,0c2.28,0,4.47-.72,6.73-1,.4-.05.81-.49.51-.89C655.62,419.56,654.69,417.36,652.79,416Z" transform="translate(-597.89 -287.94)"/><path class="cls-16" d="M646.17,424.84a.51.51,0,0,0-.71,0c-.87,1.08-1.65,2.23-2.52,3.3a.57.57,0,0,0-.12.18.42.42,0,0,0,0,.29.49.49,0,0,0,.23.38.5.5,0,0,0,.2.08,30,30,0,0,0,4.89.95.51.51,0,0,0,.57-.73A16.38,16.38,0,0,0,646.17,424.84Z" transform="translate(-597.89 -287.94)"/><path class="cls-16" d="M649.13,438.76c-1.33-1.05-2.89-1.8-4.15-2.95a.6.6,0,0,0-1,.26,22.25,22.25,0,0,0-1.41,6.37.57.57,0,0,0,0,.26v.08a.61.61,0,0,0,.93.48,5,5,0,0,0,2-1c1.27-.83,2.46-1.77,3.65-2.7A.6.6,0,0,0,649.13,438.76Z" transform="translate(-597.89 -287.94)"/><path class="cls-16" d="M655.51,430.56a.54.54,0,0,0,0-.45.51.51,0,0,0-.49-.33c-1,0-2.06,0-3.09,0-.4,0-.82.43-.57.85a16.58,16.58,0,0,0,2.07,3.31.59.59,0,0,0,.93-.06A16,16,0,0,0,655.51,430.56Z" transform="translate(-597.89 -287.94)"/><path class="cls-16" d="M659.84,438.72a.6.6,0,0,0,.81.22c1.41-.9,3.07-1.28,4.5-2.13a.55.55,0,0,0,.27-.61.54.54,0,0,0-.27-.41,6.44,6.44,0,0,0-.66-.4,47.54,47.54,0,0,1-5.37-3.32.63.63,0,0,0-1,.57.88.88,0,0,0,0,.21c.06.15.11.31.16.47a.5.5,0,0,0,.08.26A39.68,39.68,0,0,0,659.84,438.72Z" transform="translate(-597.89 -287.94)"/><path class="cls-16" d="M655.12,441.55c-1.46.45-3,.82-4.38,1.38a.61.61,0,0,0-.22.15.55.55,0,0,0-.13.72,34.55,34.55,0,0,0,3.65,4.87c.31.38.85.1,1-.26.76-1.94.54-4.11.82-6.13C655.91,441.86,655.6,441.4,655.12,441.55Z" transform="translate(-597.89 -287.94)"/><path class="cls-16" d="M670.36,450.89a8.84,8.84,0,0,0-3.64,1.93.62.62,0,0,0-.15.22.52.52,0,0,0,.06.49,34.37,34.37,0,0,0,2.65,3.12.6.6,0,0,0,1-.26,36.55,36.55,0,0,0,.81-4.77C671.14,451.2,670.83,450.74,670.36,450.89Z" transform="translate(-597.89 -287.94)"/><path class="cls-16" d="M672.5,440.25c-1.84.08-3.68,0-5.51.12a.54.54,0,0,0-.44.24.53.53,0,0,0,0,.66l0,.07c1,1.55,1.87,3.13,2.9,4.63a.6.6,0,0,0,1.08-.18c.35-1.79,1.63-3.13,2.51-4.67A.6.6,0,0,0,672.5,440.25Z" transform="translate(-597.89 -287.94)"/><path class="cls-16" d="M675.79,445.52c.71,0,1.41-.07,2.12,0a.59.59,0,0,0,.57-.75c-.34-.9-.5-1.86-.79-2.78a.52.52,0,0,0-.35-.37.54.54,0,0,0-.69.16.53.53,0,0,0-.11.21c-.48.92-.92,1.87-1.32,2.83A.6.6,0,0,0,675.79,445.52Z" transform="translate(-597.89 -287.94)"/><path class="cls-16" d="M644.84,449a.59.59,0,0,0-.93-.12,21.6,21.6,0,0,0-1.95,2.51.46.46,0,0,0,0,.62.78.78,0,0,0,.21.19,8,8,0,0,0,3.82,1.11.61.61,0,0,0,.58-.75A19.85,19.85,0,0,0,644.84,449Z" transform="translate(-597.89 -287.94)"/><path class="cls-16" d="M643.81,416.12c-.19.65-.37,1.31-.53,2a.61.61,0,0,0,.73.73,16.86,16.86,0,0,1,2.31-.55.59.59,0,0,0,.3-1.1c-.57-.36-1.1-.78-1.68-1.13A.61.61,0,0,0,643.81,416.12Z" transform="translate(-597.89 -287.94)"/><path class="cls-16" d="M679.89,452.27c-1.67.31-3.37.37-5,.7a.56.56,0,0,0-.42.73,10.24,10.24,0,0,0,1.84,2.73c.47.56,1,1.1,1.46,1.63a.6.6,0,0,0,.93-.12,19.27,19.27,0,0,0,2-4.94A.61.61,0,0,0,679.89,452.27Z" transform="translate(-597.89 -287.94)"/><path class="cls-16" d="M652.49,453.52c-.46-.77-.92-1.56-1.45-2.29-.32-.44-1.13-.35-1.1.29a37.12,37.12,0,0,1-.43,4.59.48.48,0,0,0,.45.56.32.32,0,0,0,.14,0,16.16,16.16,0,0,0,3.18-.23.6.6,0,0,0,.41-1A21.1,21.1,0,0,1,652.49,453.52Z" transform="translate(-597.89 -287.94)"/><path class="cls-16" d="M662.75,447.54a13,13,0,0,0-1.94-1.15.65.65,0,0,0-.26-.06.58.58,0,0,0-.63.51.65.65,0,0,0,0,.24c0,.79,0,1.57,0,2.36a.59.59,0,0,0,.89.51l2-1.39A.59.59,0,0,0,662.75,447.54Z" transform="translate(-597.89 -287.94)"/><path class="cls-16" d="M649.32,399.12a13.67,13.67,0,0,0-2-1.15.62.62,0,0,0-.26-.06.58.58,0,0,0-.63.51.49.49,0,0,0,0,.24c0,.79,0,1.57,0,2.36a.59.59,0,0,0,.89.51l2-1.39A.6.6,0,0,0,649.32,399.12Z" transform="translate(-597.89 -287.94)"/><path class="cls-16" d="M653.91,392.62a12.73,12.73,0,0,0-1.95-1.14.65.65,0,0,0-.26-.06.57.57,0,0,0-.63.5.49.49,0,0,0,0,.24c0,.79,0,1.58,0,2.36a.61.61,0,0,0,.9.52l2-1.4A.6.6,0,0,0,653.91,392.62Z" transform="translate(-597.89 -287.94)"/><path class="cls-16" d="M662.65,393a.6.6,0,0,0,.35-.87,9.23,9.23,0,0,0-3.08-3.07,8.79,8.79,0,0,0-2.32-.65,9.42,9.42,0,0,0-2.9-.14h-.05a.52.52,0,0,0-.25.07.57.57,0,0,0-.26.67.64.64,0,0,0,.11.27,7.1,7.1,0,0,0,3.53,3.22A6.56,6.56,0,0,0,662.65,393Z" transform="translate(-597.89 -287.94)"/><path class="cls-21" d="M643,393.57a3.49,3.49,0,0,0,1.28-2.44c.07-.47.12-1.06-.43-1.26a.6.6,0,0,0-.56.05,2.64,2.64,0,0,0-1.48,2,2.7,2.7,0,0,0,0,1.41C642,393.87,642.54,393.86,643,393.57Z" transform="translate(-597.89 -287.94)"/><path class="cls-21" d="M634,403.14a2.35,2.35,0,0,0,1-1.66c0-.33.08-.74-.32-.87a.54.54,0,0,0-.42,0,1.82,1.82,0,0,0-1.1,1.37,1.78,1.78,0,0,0,0,1A.58.58,0,0,0,634,403.14Z" transform="translate(-597.89 -287.94)"/><path class="cls-15" d="M648.61,379c-.49,1.94-1.13,3.83-1.54,5.79a.68.68,0,0,0,0,.14.57.57,0,0,0,.2.42,2.25,2.25,0,0,0,1.55.55.6.6,0,0,0,.54-.47c.22-1.68.34-3.36.44-5,0-.33,0-.66.07-1a2.33,2.33,0,0,0,1.68-.57,3.05,3.05,0,0,0,.88-3.4,2.94,2.94,0,0,0-2.59-1.61,2.65,2.65,0,0,0-2.72,1.9.5.5,0,0,0,0,.13.34.34,0,0,0,0,.14A3.07,3.07,0,0,0,648.61,379Z" transform="translate(-597.89 -287.94)"/><path class="cls-16" d="M652.41,375.39a2.89,2.89,0,0,0-2.28-1.58A2.77,2.77,0,0,1,652,375.3a3,3,0,0,1-.87,3.4,2.31,2.31,0,0,1-1.68.57c0,.32-.06.65-.08,1-.1,1.68-.22,3.36-.43,5a.61.61,0,0,1-.55.47l-.33,0a2.37,2.37,0,0,0,.76.11.6.6,0,0,0,.54-.47c.22-1.68.34-3.36.44-5,0-.33,0-.66.07-1a2.33,2.33,0,0,0,1.68-.57A3.06,3.06,0,0,0,652.41,375.39Z" transform="translate(-597.89 -287.94)"/><path class="cls-17" d="M649.75,375.33c-.67-.19-1.69.55-1.37,1.32.2.5.71.36.91,0s.25-.84.4-1Z" transform="translate(-597.89 -287.94)"/><path class="cls-17" d="M649.91,374.75c-1.2-.28-2.64,1-2,2.2a1,1,0,0,0,1.58.4,1.45,1.45,0,0,0,.52-.76,5,5,0,0,1,.24-.67.6.6,0,0,0-.21-.81.61.61,0,0,0-.81.21,7,7,0,0,0-.38,1l-.06.1s.06-.07,0,0,.06,0,0,0a.12.12,0,0,1,.1,0s.07,0,.09,0a.31.31,0,0,1,0-.16.41.41,0,0,1,.07-.12s.09-.08.09-.08a1,1,0,0,1,.26-.15s.19,0,.1,0h.15c.74.17,1-1,.31-1.15Z" transform="translate(-597.89 -287.94)"/><path class="cls-17" d="M648.79,380c-.28,1.39-.45,2.82-.76,4.19Z" transform="translate(-597.89 -287.94)"/><path class="cls-17" d="M648.64,380a4.43,4.43,0,0,0-.3,1.15c-.07.35-.17.7-.26,1.05s-.16.72-.23,1.09a1.75,1.75,0,0,0-.09,1.1.32.32,0,0,0,.48.09,1.32,1.32,0,0,0,.31-.85c.07-.43.14-.85.18-1.29s0-.83.11-1.25A5.27,5.27,0,0,0,649,380c0-.17-.24-.18-.31,0Z" transform="translate(-597.89 -287.94)"/><path class="cls-17" d="M630.88,395.86c-1.33,2.47-2,6-.45,8.57.41.66,1,1.46,1.25.25a10.53,10.53,0,0,0,.1-2.32c-.08-1.56-.2-3.1-.2-4.68,0-.35.17-1.76-.24-1.73-.84.08-1,2.83-1,3.31Z" transform="translate(-597.89 -287.94)"/><path class="cls-17" d="M630.71,395.71a4.71,4.71,0,0,0-.68,1,10.62,10.62,0,0,0-.57,1.51,9.72,9.72,0,0,0-.45,3.07,7,7,0,0,0,.62,2.78c.28.61.85,1.78,1.67,1.78,1,0,1.06-1.61,1.09-2.31.06-1.19-.06-2.38-.11-3.57a24.83,24.83,0,0,1,0-2.73c0-.58.12-1.49-.48-1.85s-1.34.31-1.58.9a5.36,5.36,0,0,0-.28,3c.08.41.73.5.84.06s.25-1,.36-1.5c0-.25.09-.5.16-.74a1.81,1.81,0,0,1,.2-.5c.06-.13,0,0,0,0s.06-.08.07-.08l-.06,0s0,0,0,0-.05,0,0,0c-.29,0-.47-.05-.53-.23a.7.7,0,0,1,0,.13c0,.11,0,.21,0,.32s0,.48,0,.71a22.93,22.93,0,0,0,.08,2.62c.05.89.12,1.78.15,2.67a9.14,9.14,0,0,1,0,1.17,3.93,3.93,0,0,1-.07.6s-.05.21,0,.23.26,0,.31-.06,0,0-.06-.07a3.11,3.11,0,0,1-.23-.28,5.06,5.06,0,0,1-.56-1,6.36,6.36,0,0,1-.46-2,9.52,9.52,0,0,1,.18-2.61c.2-1,.6-1.94.86-2.92.06-.22-.25-.35-.39-.19Z" transform="translate(-597.89 -287.94)"/><path class="cls-21" d="M640.9,403.27c.05-.82-.21-2.36-.91-2.69-.49-.22.36.85.13,2.93a6.5,6.5,0,0,1-1.26,2.78l1.26-.72A4,4,0,0,0,640.9,403.27Z" transform="translate(-597.89 -287.94)"/><g class="cls-22"><path class="cls-23" d="M639.19,404.06c-1.49,1.42-5.45,3.89-9.07,2.38a4.93,4.93,0,0,0,4.27,1.46,13.52,13.52,0,0,0,4.81-1.79l3.19-1.86C645.94,397.41,641.44,401.93,639.19,404.06Z" transform="translate(-597.89 -287.94)"/><path class="cls-23" d="M653.8,391.15c.63,4.07,1.37,11.62,1.58,15.73.42,8.66-2.7,22.62,6.89,27.3.78.38,1.59.71,2.41,1-8.57-5.11-6.75-18.65-7.16-27-.2-4.11-.4-8.31-1-12.38l-.34-1.94C655.1,392.65,653.7,390.5,653.8,391.15Z" transform="translate(-597.89 -287.94)"/><path class="cls-23" d="M681.06,450.11c-.3-3.66-1.39-7.07-3.84-9.17a17.5,17.5,0,0,0-5.34-2.92,13.32,13.32,0,0,1,2,1.42c2.45,2.1,4.29,6.36,4.59,10,.35,4.31,0,15.39-.94,16.71-.43.58-4.05.38-4.74.74.56,1,1.3,1.89,2.39,1.79a4.14,4.14,0,0,0,2.62-1.86,13.07,13.07,0,0,0,2-4.52A38.39,38.39,0,0,0,681.06,450.11Z" transform="translate(-597.89 -287.94)"/></g><path class="cls-18" d="M654.68,470.45a8.38,8.38,0,1,1-8.27-8.48A8.38,8.38,0,0,1,654.68,470.45Z" transform="translate(-597.89 -287.94)"/><circle class="cls-24" cx="645.93" cy="470.34" r="8.01" transform="translate(-559.27 701.66) rotate(-76.59)"/><path class="cls-25" d="M649.43,470.57a3.31,3.31,0,1,1-3.26-3.35A3.31,3.31,0,0,1,649.43,470.57Z" transform="translate(-597.89 -287.94)"/><g class="cls-26"><path class="cls-10" d="M643.83,463.2c-4.47,1-6.43,6.25-4.74,10.24a6.32,6.32,0,0,0,2.26,2.75,1,1,0,0,0,1-1.71l-.14-.11,0,0-.17-.14a5.67,5.67,0,0,1-.48-.5l-.11-.13s.1.13,0,0l-.17-.24c-.12-.19-.23-.39-.33-.59a2.39,2.39,0,0,1-.13-.28c0-.1,0,0,0,.05l-.06-.16c-.07-.22-.14-.44-.19-.66s-.08-.39-.11-.59c0,.2,0-.05,0-.12s0-.23,0-.35,0-.43,0-.65,0-.2,0-.31,0-.08,0-.13c0-.27,0,.13,0,0a7.87,7.87,0,0,1,.32-1.27c0-.09.08-.19.11-.28s0,.08.06-.12.19-.38.3-.57.24-.36.37-.53,0,0,0,0l.11-.13.24-.26a5.19,5.19,0,0,1,.55-.49l0,0,.18-.12.34-.21.31-.16.17-.07c-.1,0-.07,0,0,0a7.49,7.49,0,0,1,.81-.23,1,1,0,1,0-.51-1.94Z" transform="translate(-597.89 -287.94)"/></g><g class="cls-26"><path class="cls-10" d="M651.51,470.52s.07.31,0,.12a2.46,2.46,0,0,1,0,.26c0,.09,0,.18,0,.27s0,.3,0,.17a5.37,5.37,0,0,1-.34,1.11,4.84,4.84,0,0,1-1.28,1.83,1,1,0,0,0,1.39,1.44,7,7,0,0,0,1.76-2.59,4.88,4.88,0,0,0,.38-3.12,1,1,0,0,0-1.94.51Z" transform="translate(-597.89 -287.94)"/></g><g class="cls-27"><path class="cls-10" d="M647.88,470.29a1.81,1.81,0,0,1-.45,1.13c-.48.44.22,1.16.7.72a2.62,2.62,0,0,0,.71-1.57.51.51,0,0,0-.34-.62.5.5,0,0,0-.62.34Z" transform="translate(-597.89 -287.94)"/></g><path class="cls-28" d="M649.31,470.64a3,3,0,1,1-3-3.05A3,3,0,0,1,649.31,470.64Z" transform="translate(-597.89 -287.94)"/><path class="cls-18" d="M685,470.63a8.38,8.38,0,1,1-8.27-8.48A8.38,8.38,0,0,1,685,470.63Z" transform="translate(-597.89 -287.94)"/><path class="cls-24" d="M684.27,470.62a8,8,0,1,1-7.9-8.11A8,8,0,0,1,684.27,470.62Z" transform="translate(-597.89 -287.94)"/><path class="cls-25" d="M679.75,470.74a3.3,3.3,0,1,1-3.25-3.34A3.29,3.29,0,0,1,679.75,470.74Z" transform="translate(-597.89 -287.94)"/><g class="cls-26"><path class="cls-10" d="M674.16,463.38c-4.47,1-6.44,6.25-4.75,10.24a6.46,6.46,0,0,0,2.26,2.75,1,1,0,0,0,1.38-.34,1,1,0,0,0-.34-1.38l-.15-.1,0,0-.16-.14a5.67,5.67,0,0,1-.48-.5l-.11-.13s.09.12,0,0l-.17-.24a4.36,4.36,0,0,1-.33-.6c0-.09-.09-.18-.13-.27s0,0,0,.05l-.06-.16c-.07-.22-.14-.44-.19-.66s-.08-.4-.11-.6c0,.2,0,0,0-.12s0-.23,0-.34a4.68,4.68,0,0,1,0-.65,3,3,0,0,1,0-.31s0-.08,0-.13c0-.27,0,.12,0,0a7,7,0,0,1,.32-1.27c0-.09.07-.19.11-.28s0,.08.05-.12.2-.39.31-.57a6.45,6.45,0,0,1,.37-.54c.06-.09,0,0,0,0l.11-.13.23-.25a6.23,6.23,0,0,1,.55-.49c.09-.07,0,0,0,0L673,466l.34-.21.32-.16.16-.08c-.09.05-.06,0,0,0a6.89,6.89,0,0,1,.81-.23,1,1,0,0,0-.51-1.94Z" transform="translate(-597.89 -287.94)"/></g><g class="cls-26"><path class="cls-10" d="M681.84,470.69s.07.32,0,.13a2.17,2.17,0,0,1,0,.26v.27s0,.3,0,.17a5.57,5.57,0,0,1-.34,1.11,4.86,4.86,0,0,1-1.29,1.83,1,1,0,0,0,0,1.42,1,1,0,0,0,1.42,0,7.1,7.1,0,0,0,1.76-2.59,4.88,4.88,0,0,0,.38-3.12,1,1,0,0,0-1.94.5Z" transform="translate(-597.89 -287.94)"/></g><g class="cls-27"><path class="cls-10" d="M678.21,470.47a1.81,1.81,0,0,1-.45,1.13c-.48.44.22,1.15.7.72a2.62,2.62,0,0,0,.71-1.57.52.52,0,0,0-.34-.62.5.5,0,0,0-.62.34Z" transform="translate(-597.89 -287.94)"/></g><path class="cls-28" d="M679.64,470.82a3,3,0,1,1-3-3.06A3,3,0,0,1,679.64,470.82Z" transform="translate(-597.89 -287.94)"/><path class="cls-29" d="M645.18,384.47A13.14,13.14,0,0,0,639,385.9a17.18,17.18,0,0,0-5.67,4.05,7.29,7.29,0,0,0-1.59,2.59.5.5,0,0,0-.09.89,1.88,1.88,0,0,0,2.65-.49c.44-.54.79-1.15,1.24-1.68a14.38,14.38,0,0,1,1.48-1.54,21.61,21.61,0,0,1,3.57-2.43,23.21,23.21,0,0,1,4.64-2.21A.31.31,0,0,0,645.18,384.47Z" transform="translate(-597.89 -287.94)"/><path class="cls-21" d="M638.28,388.27a.66.66,0,0,0-.55.06.6.6,0,0,0-.21.21,5.42,5.42,0,0,0-1.4,2,.81.81,0,0,0,.22,1.07c.42.26.83,0,1.14-.29a4.84,4.84,0,0,0,1.26-2.05A.72.72,0,0,0,638.28,388.27Z" transform="translate(-597.89 -287.94)"/><g class="cls-30"><path class="cls-10" d="M650.26,434.18c-.74-.92-1.48-1.86-2.14-2.84a10.64,10.64,0,0,1-.92-1.61c-.13-.3-.25-.6-.35-.91s-.14-.69-.48-.93c-1.16-.84-1.18,1.18-1.25,1.84-.26,2.54-.69,5-1,7.57-.38,2.72-.6,5.49-.71,8.23a31.56,31.56,0,0,0,.51,7.88,7.08,7.08,0,0,0,1.76,3.87,2.45,2.45,0,0,0,3.81-1,10.83,10.83,0,0,0,.61-4.86c0-1.75,0-3.52,0-5.27a12.47,12.47,0,0,1,.44-3,4,4,0,0,1,1.72-2.26,2.24,2.24,0,0,0,.92-2.16C652.87,436.92,651.33,435.53,650.26,434.18Z" transform="translate(-597.89 -287.94)"/><path class="cls-10" d="M676.37,446.34a14.16,14.16,0,0,0-1.19-3.4,9.2,9.2,0,0,0-5.7-4.69,20.39,20.39,0,0,0-2.88-.67,5.08,5.08,0,0,0-2.71.11,1.23,1.23,0,0,0-.14,2.28,14.73,14.73,0,0,0,3,.65,10.87,10.87,0,0,1,4,1.93l2.5,3a15.76,15.76,0,0,1,1.13,3.75.7.7,0,0,0,1.15.35A3.21,3.21,0,0,0,676.37,446.34Z" transform="translate(-597.89 -287.94)"/></g><path class="cls-4" d="M638.13,421.83a1.08,1.08,0,0,1,.64-1,6.12,6.12,0,0,1,1.68-.6c1.16-.27,2.37-.35,3.55-.58l.07,0a7.37,7.37,0,0,0-1.09-.24l-2.12-.36c-.75-.13-1.51-.27-2.26-.45a8.89,8.89,0,0,1-1.9-.65,1.77,1.77,0,0,1-1-.95.87.87,0,0,1,.41-1,3.69,3.69,0,0,1,1.55-.47,14.71,14.71,0,0,1,2.1-.12c.7,0,1.39,0,2.09,0l1,0a14.9,14.9,0,0,1-3.56-1.9,7.63,7.63,0,0,1-1.35-1.19,1.41,1.41,0,0,1-.46-1c0-.38.48-.49.79-.53a6,6,0,0,1,1.72.16c1.36.25,2.72.62,4.07.94.68.16,1.36.32,2,.45a12,12,0,0,0,1.66.22,2.74,2.74,0,0,0,.58,0l.12,0,.08,0a.32.32,0,0,0,.14-.08.29.29,0,0,0,.08-.1.15.15,0,0,0,0-.18,7.75,7.75,0,0,0-.74-1.12c-1.09-1.38-2.64-2.81-2.47-4.66a1,1,0,0,1,1-1,3.43,3.43,0,0,1,1.79.67,7.93,7.93,0,0,1,.86.67c.31.27.57.58.86.87a23.56,23.56,0,0,0,2.37,2.1c1.63,1.29,4.2,2.22,5.85,3.48.4.31,1.31,8.89.43,9.71-2.11,2-5.82,1.88-7,2.29-.57.2-1.13.38-1.71.54a24.62,24.62,0,0,1-4.46.77,6.31,6.31,0,0,1-1.88-.11c-.36-.09-.83-.31-.9-.77s.41-.79.75-1a13.24,13.24,0,0,1,1.65-.67,5,5,0,0,0,.67-.28,1.27,1.27,0,0,0,.21-.14l.06-.07a.17.17,0,0,0,0-.07c0-.14-.09-.24-.21-.28a2.54,2.54,0,0,0-.68-.1,19.6,19.6,0,0,0-2,0c-.77,0-1.54.07-2.31.05a5.57,5.57,0,0,1-1.92-.32A1.34,1.34,0,0,1,638.13,421.83Z" transform="translate(-597.89 -287.94)"/><path class="cls-4" d="M671.82,422.75c-10.25,1.9-14.66.9-15.73-3.19s4.5-10.72,18.55-17.13c9.65-4.41,19.63-7.75,22.49,1.68C699.35,411.45,684.62,420.38,671.82,422.75Z" transform="translate(-597.89 -287.94)"/><path class="cls-3" d="M695.18,409.16c-.82.85-1.45,1.87-2.24,2.75a25.62,25.62,0,0,1-2.65,2.56,31,31,0,0,1-6.12,4,47.89,47.89,0,0,1-14,4.16c-2.73.42-5.5.6-8.26.92-.06,0,0,.12,0,.12a60.07,60.07,0,0,0,15-1.62A35.17,35.17,0,0,0,690.28,416a24.6,24.6,0,0,0,3.12-2.83,12.5,12.5,0,0,0,2.51-3.39C696.08,409.32,695.53,408.8,695.18,409.16Z" transform="translate(-597.89 -287.94)"/><path class="cls-3" d="M682,399.12a6.63,6.63,0,0,0-3,.79q-1.44.57-2.85,1.23a58.33,58.33,0,0,0-5.67,3.07c-1.83,1.12-3.64,2.29-5.38,3.53a52.37,52.37,0,0,0-5,3.76c-.09.07,0,.22.13.17,1.9-1,3.64-2.29,5.44-3.43S669.19,406,671,405s3.62-2,5.5-2.88c.94-.44,1.89-.85,2.86-1.24a8.46,8.46,0,0,0,2.87-1.31C682.37,399.4,682.22,399.14,682,399.12Z" transform="translate(-597.89 -287.94)"/><path class="cls-3" d="M658.06,413.88a7.28,7.28,0,0,0-.72,3.79,5.71,5.71,0,0,0,1.14,3.52.15.15,0,0,0,.25-.14,24.2,24.2,0,0,1-.85-3.48,10.79,10.79,0,0,1,.46-3.57C658.38,413.84,658.14,413.73,658.06,413.88Z" transform="translate(-597.89 -287.94)"/><path class="cls-13" d="M659.72,413.89c-.93,1-1.22,3.6-.31,4.73,0,0,.09,0,.1,0,.07-.73-.11-1.47,0-2.22s.41-1.51.56-2.29C660.06,413.9,659.86,413.74,659.72,413.89Z" transform="translate(-597.89 -287.94)"/><path class="cls-13" d="M683.23,400.05a20.5,20.5,0,0,0-5.46,2.1c-1.82,1-3.61,2-5.35,3.06s-3.27,2.2-4.84,3.39c-.8.61-1.58,1.23-2.35,1.88-.37.33-.76.65-1.13,1a11.48,11.48,0,0,0-1.06,1.25c-.14.17,0,.46.24.33,1.72-1,3.27-2.26,4.89-3.42s3.25-2.19,4.91-3.23,3.37-2,5.11-2.92a44.78,44.78,0,0,0,5.23-3A.26.26,0,0,0,683.23,400.05Z" transform="translate(-597.89 -287.94)"/><path class="cls-31" d="M697,358.28c-.83-.3-2.29,2.86-9.78,3.3-3.42.19-6.12-2.15-6.79-1.09-1.59,2.53,3,6.58,4.38,6.93,3,.75,7.67.42,10.27-1.5C697.28,364.3,699.36,359.12,697,358.28Z" transform="translate(-597.89 -287.94)"/><path class="cls-32" d="M696,361.54c-1.11.34-2.78,2.7-3,2.55-2-1.2-4.34-.16-6,1a12.44,12.44,0,0,0-2.45,2.22,1.44,1.44,0,0,0,.32.12c3,.75,7.67.42,10.27-1.5a8.86,8.86,0,0,0,2.8-4.59A4.36,4.36,0,0,0,696,361.54Z" transform="translate(-597.89 -287.94)"/><path class="cls-7" d="M686.17,361.56a16.51,16.51,0,0,1-2.59-.57s-.37.89-.2,1.07a4.84,4.84,0,0,0,2.22.58C686.08,362.64,686.17,361.56,686.17,361.56Z" transform="translate(-597.89 -287.94)"/><path class="cls-7" d="M691.58,360.9a26,26,0,0,1-2.63.52s0,1.12.5,1.06a10.14,10.14,0,0,0,1.93-.37C692,361.9,691.58,360.9,691.58,360.9Z" transform="translate(-597.89 -287.94)"/></g></g></svg>