<svg xmlns="http://www.w3.org/2000/svg" viewBox="0 0 214.36 157.65"><defs><style>.cls-1{isolation:isolate;}.cls-2{fill:#ffb191;}.cls-3{fill:#ffc0a6;}.cls-4{fill:#61cbdf;}.cls-5{fill:#e83c69;}.cls-6{fill:#fded64;}.cls-7{fill:#fdd437;}.cls-8{fill:#9df3d9;}.cls-9{opacity:0.15;}.cls-10{fill:#ff584e;}.cls-11,.cls-18{fill:#fff;}.cls-11{opacity:0.35;}.cls-12{fill:#f5f5f5;mix-blend-mode:multiply;}.cls-13{fill:#f7a17e;}.cls-14{fill:#fae7db;}.cls-15{fill:#d1785a;}.cls-16{fill:#f2f2f2;}.cls-17{fill:#2a86ad;}.cls-19{fill:#54bee8;}.cls-20{fill:#de954c;}.cls-21{fill:#ffd5c6;}</style></defs><g class="cls-1"><g id="Слой_1" data-name="Слой 1"><path class="cls-2" d="M700.6,398.19c-2.13-12.88-6.08-13.09-11.62-13.1s-9.14,4.79-11.33,23.73c-1.5,13,1.65,23.74,11.66,23.74S703.26,414.28,700.6,398.19Z" transform="translate(-574.99 -306.44)"/><path class="cls-2" d="M689.86,365.23c3.93-9.23,5.4-12,10.25-10.65s4.86,1.35,4.91,14.08c0,10.1-1,20.24-12.78,21.77C677.37,392.36,685,376.75,689.86,365.23Z" transform="translate(-574.99 -306.44)"/><path class="cls-3" d="M699.59,336.74h0S699.61,336.73,699.59,336.74Z" transform="translate(-574.99 -306.44)"/><path class="cls-3" d="M703.39,347h0S703.41,346.94,703.39,347Z" transform="translate(-574.99 -306.44)"/><path class="cls-2" d="M713.19,349.07c-.64-.9-1.59-.78-2.51-.44a15.28,15.28,0,0,1-3,1.21c-.29,0-.45.05-.53-.2a2.45,2.45,0,0,1,.1-1.2c.56-2.31,3-6.79,2.24-9.25a1.28,1.28,0,0,0-2.16-.74c-.87.71-3.57,5.57-3.84,5.82l-.23.19-.11.08h0l-.11.05c-.06,0,0,0,0,0h0c-.08-.14-.06-.06-.11-.17a3.55,3.55,0,0,1-.27-.95c-.15-.88-.15-3.2-.29-4.08a3.33,3.33,0,0,0-1.11-2.37,1.53,1.53,0,0,0-2.25.76c-.48,1-.47,3.61-.49,4.68a8.34,8.34,0,0,1-.31,3.11c-.39.86-1.39-.54-1.65-.93-.51-.8-.94-1.64-1.47-2.42-.37-.56-.9-1.27-1.63-1.32A1.53,1.53,0,0,0,692,342c-.45,1.32.23,2.89.61,4.15A7,7,0,0,1,693,348c0,.46-.23.59-.72.45-1.25-.35-2.49-3.05-4-2.16s0,3.67.57,4.75,1.22,2.09,1.84,3.13a29.34,29.34,0,0,0,2.34,3.51,8.79,8.79,0,0,0,1.22,1.22,5.69,5.69,0,0,0,.93,1,7.43,7.43,0,0,0,6.09,1.22,14.53,14.53,0,0,0,7.43-4,39.66,39.66,0,0,0,2.69-3,12.67,12.67,0,0,0,1.65-2.32A2.6,2.6,0,0,0,713.19,349.07Z" transform="translate(-574.99 -306.44)"/><path class="cls-4" d="M694.87,306.72a39.92,39.92,0,0,1,35.93,64.49c6.92-10.31,14.68-38.4-9-52.23-19.45-11.38-36.63-4.15-43.81.49a44.87,44.87,0,0,1,6.33-10A40.09,40.09,0,0,1,694.87,306.72Z" transform="translate(-574.99 -306.44)"/><path class="cls-5" d="M721.83,319c23.65,13.83,15.89,41.92,9,52.23a39.71,39.71,0,0,1-4.53,4.82c4-7.18-13.06-53.29-48.38-56.27.05-.1.09-.2.13-.29C685.2,314.83,702.38,307.6,721.83,319Z" transform="translate(-574.99 -306.44)"/><path class="cls-6" d="M677.89,319.76c35.32,3,52.35,49.09,48.38,56.27a38.4,38.4,0,0,1-3.14,2.55c-35.55-.65-51.88-36.34-47.79-51.77A44.93,44.93,0,0,1,677.89,319.76Z" transform="translate(-574.99 -306.44)"/><path class="cls-4" d="M723.13,378.58c-.78.58-1.58,1.12-2.4,1.63-28.47,11.08-53.62-2.32-56.78-23.45C660.89,336.4,672,324.88,674.77,322a18.48,18.48,0,0,1,2.85-2.24l.27,0a44.93,44.93,0,0,0-2.55,7.05C671.25,342.24,687.58,377.93,723.13,378.58Z" transform="translate(-574.99 -306.44)"/><path class="cls-5" d="M664,356.76c3.16,21.13,28.31,34.53,56.78,23.45a39.92,39.92,0,0,1-51.41-59.91,25.83,25.83,0,0,1,7-.65q.68,0,1.32.09a18.48,18.48,0,0,0-2.85,2.24C672,324.88,660.89,336.4,664,356.76Z" transform="translate(-574.99 -306.44)"/><path class="cls-7" d="M684.35,309.44a44.87,44.87,0,0,0-6.33,10l-.4.27q-.64-.06-1.32-.09a25.83,25.83,0,0,0-7,.65A39.86,39.86,0,0,1,684.35,309.44Z" transform="translate(-574.99 -306.44)"/><path class="cls-8" d="M678,319.47c0,.09-.08.19-.13.29l-.27,0Z" transform="translate(-574.99 -306.44)"/><path class="cls-9" d="M709.26,307.63A36.67,36.67,0,0,1,722,363.45a37.1,37.1,0,0,1-4.16,4.43c-.92.83-1.89,1.61-2.89,2.35-.71.52-1.45,1-2.2,1.49a36.7,36.7,0,0,1-50.76-12,39.94,39.94,0,0,0,58.79,20.48c.82-.51,1.62-1,2.4-1.63a38.4,38.4,0,0,0,3.14-2.55,39.93,39.93,0,0,0-17-68.4Z" transform="translate(-574.99 -306.44)"/><path class="cls-10" d="M679.71,321.67c-3.08,3.13-6.65,4.61-8,3.3s.09-4.9,3.16-8,6.65-4.61,8-3.3S682.78,318.55,679.71,321.67Z" transform="translate(-574.99 -306.44)"/><path class="cls-11" d="M710.22,312.44c9.43,7.43-8.85,11.86-18.75,24.43s-7.69,28.51-17.12,21.08-9.05-23.65.86-36.22S700.79,305,710.22,312.44Z" transform="translate(-574.99 -306.44)"/><ellipse class="cls-12" cx="110.46" cy="146.74" rx="100.96" ry="10.91"/><path class="cls-3" d="M651.5,425.84c-4,2.75-9.22,3.7-14.06,3.63a24.93,24.93,0,0,1-15.82-5.92,32.49,32.49,0,0,1-9.5-14.67c-2.12-6.43-6.22-33.81.14-37.43,4.68-2.68,10.62.09,15.63,3.49a88.74,88.74,0,0,1,11.59,8.79,76,76,0,0,1,11.1,13.54,56.13,56.13,0,0,1,4.82,9,23,23,0,0,1,2.05,8.36A13.13,13.13,0,0,1,651.5,425.84Z" transform="translate(-574.99 -306.44)"/><path class="cls-2" d="M657.45,414.6a23,23,0,0,0-2.05-8.36,56.13,56.13,0,0,0-4.82-9,76,76,0,0,0-11.1-13.54l-.93-.86.46.77a11.31,11.31,0,0,1,1.52,6.19c-.44,6.8-7.41,10.39-12.88,12.85a81.61,81.61,0,0,0-9,4.26,23.39,23.39,0,0,0-5,3.83c-.23.24-.44.48-.65.73a31.77,31.77,0,0,0,8.54,12.05,24.93,24.93,0,0,0,15.82,5.92c4.84.07,10-.88,14.06-3.63A13.13,13.13,0,0,0,657.45,414.6Z" transform="translate(-574.99 -306.44)"/><path class="cls-3" d="M594.82,416.52c-4.05.31-6.43-3.88-7.32-7.27a7.82,7.82,0,0,1-.28-1.36c0-.33,0-.81,0-1.07a.38.38,0,0,1,.34-.46l-1.12-8.27-.14-.15c-.11-.12.05-.32.18-.22,1.75,1.32,4.74,3.25,6.09,1.26,4.83-7.14,10.18-18.55,14.72-23.44,5.81-6.28,11.73-6.83,15.78-2.82,12,11.92-2.81,22.28-7.46,25.26-3.12,2-7.5,4.47-11.31,7.68a20.74,20.74,0,0,0-6.22,8.34A5,5,0,0,1,594.82,416.52Z" transform="translate(-574.99 -306.44)"/><path class="cls-2" d="M587.49,394.31a4.42,4.42,0,0,0-1.64-4.09,3.45,3.45,0,0,0-3.88-.69,3.32,3.32,0,0,0-1.39,4,4.7,4.7,0,0,0,1.32,2l-.21.15a7.27,7.27,0,0,0-.59-.83,2.82,2.82,0,0,0-2-1.29,2.23,2.23,0,0,0-2,1.54,2.3,2.3,0,0,0,.48,2.18,2,2,0,0,0-2.32,1.08c-.51,1.06.15,1.87,1.05,2.3a1.61,1.61,0,0,0-1.18.83,1.24,1.24,0,0,0,1.16,1.86c-.71.33-1.57.94-1,1.8a1.8,1.8,0,0,0,2.11.76c3.37,2.48,14.67,15.56,19.92,10.43,1.6-1.56,2-3.09,1.12-4.86-.54-1.15-4.93-3.86-5.9-7.47C590.49,396.47,587.42,394.63,587.49,394.31Z" transform="translate(-574.99 -306.44)"/><path class="cls-3" d="M713.87,436.15c-.61-.5-1.2-1-1.78-1.56a11.54,11.54,0,0,0-1.7-3.4c-1.17-1.58-2.94-2.29-4.39-3.54a.74.74,0,0,0-1.08.14c-.62-.53-1.26-1.05-1.92-1.55a114.28,114.28,0,0,0-12.78-8c-4.36-2.5-8.7-5-13.22-7.2a70,70,0,0,0-14.23-5.15,100,100,0,0,0-15.2-2.2,72.65,72.65,0,0,0-14.14-.21c-8,.95-16.26,4.22-21.12,11a23.66,23.66,0,0,0-3.49,18.79,29.22,29.22,0,0,0,10.62,16.84c7.39,5.7,16.9,6.59,25.9,7.12,36.56,2.14,55.59.06,70.84-9.66,2-1.24-3.3-9.46-3.79-11.77.38.28.77.55,1.18.8C713.8,436.69,714.09,436.34,713.87,436.15Z" transform="translate(-574.99 -306.44)"/><path class="cls-2" d="M709.3,440.36c-2.14,1.36,1,4.48-3.47,8.8-6.36,6.19-29.06,7.7-60.49,5.86-9-.53-18.51-1.42-25.9-7.11a29.22,29.22,0,0,1-10.62-16.84,25.91,25.91,0,0,1-.57-4.47,25.79,25.79,0,0,0,.57,6.61,29.22,29.22,0,0,0,10.62,16.84c7.39,5.7,16.9,6.59,25.9,7.12,36.56,2.14,55.59.06,70.84-9.66.54-.34.53-1.22.22-2.35C716.34,445.24,709.38,440.31,709.3,440.36Z" transform="translate(-574.99 -306.44)"/><path class="cls-2" d="M611.27,376.13c-.5,0-1,.07-1.49,0a10.58,10.58,0,0,1-1.58-.34c-.17,0-.33.18-.18.31a3.12,3.12,0,0,0,3.35.37A.2.2,0,0,0,611.27,376.13Z" transform="translate(-574.99 -306.44)"/><path class="cls-2" d="M629.54,388.18c-1.45.88-2.7,2-4.19,2.85a15.72,15.72,0,0,1-2.37,1.06h0c2.31-2.45,4.28-5.44,4.67-8.78-2.14,6.1-9.26,10.49-12.26,12.2a99.94,99.94,0,0,0-11.69,7.08,20.84,20.84,0,0,0-6.65,8,5,5,0,0,1-3.35,2.36c-3.32.08-5.37-2.79-6.4-5.72a4.69,4.69,0,0,0,0,.65,7,7,0,0,0,.28,1.36c.89,3.39,3.27,7.58,7.32,7.27a5,5,0,0,0,3.23-2.52,20.74,20.74,0,0,1,6.22-8.34c3.81-3.21,8.19-5.68,11.31-7.68a42,42,0,0,0,6.11-4.68,9.56,9.56,0,0,0,1.47-.33,14.63,14.63,0,0,0,2.55-1,8.66,8.66,0,0,0,4-3.54C629.89,388.28,629.71,388.07,629.54,388.18Z" transform="translate(-574.99 -306.44)"/><path class="cls-13" d="M640.64,456.69c1.94-1.39,5.57,1.72,7.34.12,10.15-9.22,10-17.7,15-26.26,3.76-6.52,14.15-15.84,18.19-17.45-.74-.38-3.25-1.74-4-2.1a70,70,0,0,0-14.24-5.15,99.78,99.78,0,0,0-15.2-2.2,72.63,72.63,0,0,0-14.14-.21c-8,.95-16.26,4.22-21.12,11a23.74,23.74,0,0,0-3.49,18.79,29.22,29.22,0,0,0,10.62,16.84c6,4.65,13.48,6.1,20.91,6.76Z" transform="translate(-574.99 -306.44)"/><path class="cls-14" d="M655.31,451.13a43.46,43.46,0,0,0,4.17-12.21,57.9,57.9,0,0,0,1.08-13.14,72,72,0,0,0-1.87-13.85c-.56-2.43-1.22-4.84-1.9-7.24-3.06-.48-6.14-.8-9.22-1a72.65,72.65,0,0,0-14.14-.21c-8,.95-16.26,4.22-21.12,11a23.66,23.66,0,0,0-3.49,18.79,29.22,29.22,0,0,0,10.62,16.84c7.39,5.7,16.9,6.64,25.9,7.12,1.83.09,3.67.16,5.5.21A58.85,58.85,0,0,0,655.31,451.13Z" transform="translate(-574.99 -306.44)"/><path class="cls-3" d="M752.22,385.37c18.43-1.69,35,12.21,36.94,31.06s-11.37,35.5-29.79,37.19a33.12,33.12,0,0,1-11.5-1c1.86,2.2,2.47,4.81,1.32,6.84-1.71,3-6.69,3.61-11.13,1.29-4.26-2.22-6.47-6.31-5.12-9.32-15.24.4-26.59-10.62-31.82-29.15-4.48-15.84,11.49-28.78,27.5-30.25l.55-.05A27,27,0,0,0,740,389,32.55,32.55,0,0,1,752.22,385.37Z" transform="translate(-574.99 -306.44)"/><path class="cls-15" d="M741,449.85a11.65,11.65,0,0,1,3.71,2.63c1.65,1.75,3.53,5.31,1.25,7.27a.29.29,0,0,1-.45-.27c.69-2.4-.46-4.58-2.34-6.17a11.53,11.53,0,0,0-2.09-1.43c0,.19,0,.39.07.59a10.94,10.94,0,0,1,.15,2.42.27.27,0,0,1-.48.11,4.74,4.74,0,0,1-.88-2.28,6.16,6.16,0,0,1-.12-1.41c-.45-.17-.92-.32-1.38-.45a4.1,4.1,0,0,1-1.68-.69.52.52,0,0,1,0-.84C738,448.63,739.8,449.32,741,449.85Z" transform="translate(-574.99 -306.44)"/><path class="cls-16" d="M738.3,405.13c-4.38-.06-7.89,2.35-7.86,5.38s3.6,5.54,8,5.6,7.89-2.35,7.85-5.38S742.67,405.19,738.3,405.13Z" transform="translate(-574.99 -306.44)"/><path class="cls-17" d="M737,405.69c-2.81,0-5.08,1.74-5,4s2.32,4.09,5.14,4.13,5.07-1.74,5-4S739.82,405.72,737,405.69Z" transform="translate(-574.99 -306.44)"/><path d="M736.5,406.88c-1.7,0-3.07,1.06-3.06,2.41s1.41,2.47,3.11,2.5,3.07-1.06,3.05-2.41S738.2,406.9,736.5,406.88Z" transform="translate(-574.99 -306.44)"/><path class="cls-18" d="M741.82,406.33a1.37,1.37,0,0,1,1.17,1.36,1.44,1.44,0,0,1-1.13,1.07,1.64,1.64,0,0,1-1.87-.49,1.19,1.19,0,0,1,0-1.47A1.82,1.82,0,0,1,741.82,406.33Z" transform="translate(-574.99 -306.44)"/><path class="cls-18" d="M738.86,407.25l.16.08h0a.67.67,0,0,1,.28.14h0a.61.61,0,0,1,.23.67.79.79,0,0,1-.59.46h0l-.24,0a1,1,0,0,1-.56-.17.79.79,0,0,1-.37-.42.62.62,0,0,1,0-.38.68.68,0,0,1,.38-.4A1,1,0,0,1,738.86,407.25Z" transform="translate(-574.99 -306.44)"/><path class="cls-18" d="M744,412.82c.29.59-.27,1.16-.79,1.53s-1.32.66-1.87.27a.18.18,0,0,1-.06-.19c.15-.38.76-.6,1.13-.84s.71-.69,1.23-.9A.28.28,0,0,1,744,412.82Z" transform="translate(-574.99 -306.44)"/><path d="M743.56,406.35a4.52,4.52,0,0,1,2.76,4.89,5.61,5.61,0,0,1-4,4.3c-.07,0-.13-.06-.08-.09,1.6-1.19,3.07-2.43,3.37-4.25s-.77-3.32-2.28-4.63C743.21,406.44,743.38,406.28,743.56,406.35Z" transform="translate(-574.99 -306.44)"/><path class="cls-19" d="M738.64,413.45a6.84,6.84,0,0,1-1.57.1c-.73,0-.74-.93,0-.9a5.51,5.51,0,0,0,1.28-.08C739,412.45,739.35,413.32,738.64,413.45Z" transform="translate(-574.99 -306.44)"/><path class="cls-19" d="M735.52,412.39l.53.21a.4.4,0,0,1,.21.61.65.65,0,0,1-.77.15l-.53-.2a.41.41,0,0,1-.21-.62A.68.68,0,0,1,735.52,412.39Z" transform="translate(-574.99 -306.44)"/><path class="cls-19" d="M738.23,406.16l.43.12a.66.66,0,0,1,.34.21.4.4,0,0,1,.06.35.58.58,0,0,1-.69.3l-.43-.12a.66.66,0,0,1-.34-.21.4.4,0,0,1-.06-.35A.58.58,0,0,1,738.23,406.16Z" transform="translate(-574.99 -306.44)"/><path class="cls-16" d="M735.48,391.38c-4.4,1.12-7.73,2.9-7.45,4s4.09,1,8.49-.08,7.73-2.89,7.44-4S739.87,390.26,735.48,391.38Z" transform="translate(-574.99 -306.44)"/><path class="cls-17" d="M734.3,391.63c-2.82.74-4.92,2.09-4.68,3s2.72,1.06,5.54.32,4.93-2.09,4.69-3S737.13,390.89,734.3,391.63Z" transform="translate(-574.99 -306.44)"/><path d="M734.06,392.26c-1.71.45-3,1.27-2.83,1.82s1.64.64,3.35.2,3-1.27,2.83-1.82S735.77,391.82,734.06,392.26Z" transform="translate(-574.99 -306.44)"/><path class="cls-18" d="M739.22,390.92c.74-.12,1.34-.06,1.29.19s-.46.47-1,.67a3.92,3.92,0,0,1-1.92.31c-.37-.07-.44-.27-.12-.52A4.64,4.64,0,0,1,739.22,390.92Z" transform="translate(-574.99 -306.44)"/><path class="cls-18" d="M736.36,392l.17,0h0a1.48,1.48,0,0,1,.29,0h0c.24,0,.34.1.29.21a1,1,0,0,1-.55.35l0,0-.25.07a2.51,2.51,0,0,1-.57.08.86.86,0,0,1-.42-.07.13.13,0,0,1,0-.16.76.76,0,0,1,.34-.26A2.33,2.33,0,0,1,736.36,392Z" transform="translate(-574.99 -306.44)"/><path class="cls-18" d="M741.8,392.66c.34.13-.17.48-.67.75a4.73,4.73,0,0,1-1.85.58c-.07,0-.1,0-.08-.05a4.34,4.34,0,0,1,1.06-.59,12.54,12.54,0,0,1,1.17-.65A.57.57,0,0,1,741.8,392.66Z" transform="translate(-574.99 -306.44)"/><path d="M740.87,390.45c2.25-.28,3.31.33,3.18,1s-1.5,1.78-3.64,2.58c-.07,0-.13,0-.08,0,1.5-.84,2.87-1.66,3-2.39s-1.05-1-2.69-1.06C740.52,390.57,740.68,390.47,740.87,390.45Z" transform="translate(-574.99 -306.44)"/><path class="cls-19" d="M736.68,394.4c-.51.18-1,.33-1.57.47-.73.18-.83-.19-.1-.37.44-.11.86-.23,1.28-.38C737,393.88,737.38,394.16,736.68,394.4Z" transform="translate(-574.99 -306.44)"/><path class="cls-19" d="M733.45,394.8l.55-.05c.28,0,.4.08.26.2a1.57,1.57,0,0,1-.75.27l-.55,0c-.28,0-.4-.08-.27-.2A1.66,1.66,0,0,1,733.45,394.8Z" transform="translate(-574.99 -306.44)"/><path class="cls-19" d="M735.57,391.5l.44-.07a1.06,1.06,0,0,1,.36,0c.09,0,.13.07.1.13a1.16,1.16,0,0,1-.67.31l-.44.06a1.11,1.11,0,0,1-.36,0c-.08,0-.13-.07-.09-.13A1,1,0,0,1,735.57,391.5Z" transform="translate(-574.99 -306.44)"/><path class="cls-15" d="M719.19,401.58a5,5,0,0,1,2.24-1.77c1.61-.63,4.08,0,4.84,1.79a.18.18,0,0,1-.25.23,5.94,5.94,0,0,0-2.14-.94,4.16,4.16,0,0,0-2.09.28,3.77,3.77,0,0,0-1.61,1.36c-.31.47-.61,1.34-1.13,1.55a.24.24,0,0,1-.31-.06C718.16,403.37,718.78,402.15,719.19,401.58Z" transform="translate(-574.99 -306.44)"/><path class="cls-20" d="M751.78,417.22a14.88,14.88,0,0,0,3.09-5.44.85.85,0,0,1,1.61.55,16.45,16.45,0,0,1-3.29,5.85C752.47,419,751.05,418.05,751.78,417.22Z" transform="translate(-574.99 -306.44)"/><path class="cls-20" d="M753.35,394.61a10.22,10.22,0,0,1,3.4.26c1.06.26,2.09.58,3.13.9,2,.63,4,1.49,6.11,1.92a10.39,10.39,0,0,0,5.79-.37A6.75,6.75,0,0,0,774,395.9c.66-.63,1.05-1.54,1.82-2a.28.28,0,0,1,.38.12c.51.86,0,1.92-.48,2.72a7.69,7.69,0,0,1-2.37,2.38,9.89,9.89,0,0,1-6.66,1.38,23.29,23.29,0,0,1-6.92-2.05c-1.14-.51-2.23-1.12-3.37-1.63-.52-.24-1.07-.42-1.59-.67s-1.11-.61-1.69-.87C752.79,395.12,753,394.63,753.35,394.61Z" transform="translate(-574.99 -306.44)"/><path class="cls-20" d="M754.67,388.87a7.34,7.34,0,0,1,4.63.17c1.74.5,3.43,1.22,5.13,1.83,1.48.54,3,1.18,4.48,1.62a10.09,10.09,0,0,0,2,.36,3.52,3.52,0,0,0,2.13-.24.08.08,0,0,1,.09.13,5.19,5.19,0,0,1-1.45,1.19,4.45,4.45,0,0,1-2,.3,17,17,0,0,1-4.59-1.08c-3.47-1.19-7-2.29-10.42-3.51A.4.4,0,0,1,754.67,388.87Z" transform="translate(-574.99 -306.44)"/><path class="cls-20" d="M763.27,387.66a8.92,8.92,0,0,1,2.72,1c.9.36,1.76.71,2.64,1.11.12,0,0,.22-.06.22a10.57,10.57,0,0,1-3-.52,5.41,5.41,0,0,1-2.57-1.26A.3.3,0,0,1,763.27,387.66Z" transform="translate(-574.99 -306.44)"/><path class="cls-20" d="M761.48,401.48a39.4,39.4,0,0,0,5.22,2.13,9.22,9.22,0,0,0,4.8.35,8.93,8.93,0,0,0,4.33-2.26,8.84,8.84,0,0,0,1.57-2,10.21,10.21,0,0,0,.67-1.32,2.84,2.84,0,0,1,.44-.93.21.21,0,0,1,.32.05,4.38,4.38,0,0,1-.39,2.65,9.63,9.63,0,0,1-1.44,2.51,9.51,9.51,0,0,1-10.64,3c-2.1-.79-3.5-2.43-5.05-4C761.19,401.58,761.35,401.41,761.48,401.48Z" transform="translate(-574.99 -306.44)"/><path class="cls-20" d="M781.15,400.16a.18.18,0,0,1,.16,0c.9.62.25,2.62,0,3.44-.36,1.19-1,2.73-2.21,3.27a.32.32,0,0,1-.46-.37c.28-1.17,1.14-2.2,1.54-3.34a9.4,9.4,0,0,0,.45-1.81A1.6,1.6,0,0,1,781.15,400.16Z" transform="translate(-574.99 -306.44)"/><path class="cls-15" d="M710.39,411.78c.21-.64-.47-1.33-.75-2a5.74,5.74,0,0,1-.42-1.94,4.92,4.92,0,0,1,.26-1.84c.21-.61.54-1.19.74-1.8,0-.15-.19-.36-.39-.3a3.58,3.58,0,0,0-2.31,3.54,5.87,5.87,0,0,0,.44,2.36c.28.71.67,1.82,1.7,2.17C710,412.05,710.32,412,710.39,411.78Z" transform="translate(-574.99 -306.44)"/><path class="cls-2" d="M786.42,434.06c-5.41,9.47-17.93,16.65-28.54,17.5a34,34,0,0,1-11.58-1.25,9.15,9.15,0,0,1,1.57,2.34,36.69,36.69,0,0,0,11.5,1,32.87,32.87,0,0,0,27-19.56Z" transform="translate(-574.99 -306.44)"/><path class="cls-2" d="M733.85,449.26a34.84,34.84,0,0,1-24.35-9.86c-4.07-4-4-4.21-.82.05a29.91,29.91,0,0,0,24.26,12A13,13,0,0,1,733.85,449.26Z" transform="translate(-574.99 -306.44)"/><path class="cls-2" d="M749.35,458.43a6.92,6.92,0,0,0-.67-2.85,6.15,6.15,0,0,0-.79-1.5,12.07,12.07,0,0,0-1.09-1.17.14.14,0,0,0-.23.13c.23.85.3,1.72.57,2.57a7.14,7.14,0,0,1,.49,2.41c0,1.49-1.67,2.12-3,2.27a8.32,8.32,0,0,1-4.12-.68c-1.4-.6-2.52-1.59-3.87-2.25a.43.43,0,0,0-.59.59c.79,1.62,2.66,2.68,4.33,3.34a9.57,9.57,0,0,0,5.34.58C747.56,461.52,749.26,460.37,749.35,458.43Z" transform="translate(-574.99 -306.44)"/><path class="cls-3" d="M670.27,360.59c2.49.19,3.27-.67,3.19-2.45s-2.45-3.45-4.12-3.28a5,5,0,0,0-2.32.91l-.11-.24q.52-.19,1-.42a3,3,0,0,0,1.79-1.79,2.33,2.33,0,0,0-1.15-2.38,2.42,2.42,0,0,0-2.36,0,2.09,2.09,0,0,0-.58-2.64,1.77,1.77,0,0,0-2.62.57,1.68,1.68,0,0,0-.6-1.41,1.3,1.3,0,0,0-2.17.78c-.19-.81-.62-1.83-1.63-1.48a1.9,1.9,0,0,0-1.27,2c-3.32,2.91-19.73,11.76-15.62,18.35a3.05,3.05,0,0,0,1.91,1.49,26.32,26.32,0,0,1,2.12,3.7c2.95,7.9-.4,18.66-1.18,23.77a13.42,13.42,0,0,0,1,7.6,18.35,18.35,0,0,0,5,6.92,12.92,12.92,0,0,0,13.47,2.1,11.44,11.44,0,0,0,5.5-4.72,17,17,0,0,0,2.17-8.09c0-6.11-3.48-14.54-4.23-16.85-2.41-7.45-9.22-17.23-7.67-18.41C662.79,362.33,667.27,360.36,670.27,360.59Z" transform="translate(-574.99 -306.44)"/><path class="cls-2" d="M659.79,364.62c3-2.29,7.48-4.26,10.48-4,2.49.19,3.27-.67,3.19-2.45a3.65,3.65,0,0,0-2-2.69c.3.42,1,1,1,1.5.13,2.36-.7,2.88-3.45,2.68s-8.1,2.82-11,4.73c-1.74,1.15,4.68,10.28,7.33,17.91.83,2.37,5.88,11.12,5.88,17.38a17.28,17.28,0,0,1-1.94,8.63c-1.3,2.24-5.34,3.41-7.73,4.38a14.14,14.14,0,0,1-4,1,12.3,12.3,0,0,0,6.36-1,11.39,11.39,0,0,0,5.5-4.72,17,17,0,0,0,2.17-8.09c0-6.11-3.48-14.54-4.23-16.85C665.05,375.58,658.24,365.8,659.79,364.62Z" transform="translate(-574.99 -306.44)"/><path class="cls-3" d="M624.36,449c-3.54-3.38-5.54-8.25-6.49-13a24.89,24.89,0,0,1,2.48-16.71,32.63,32.63,0,0,1,12.36-12.37c5.85-3.41,31.77-13.14,36.64-7.68,3.59,4,2.13,10.41-.15,16A89.3,89.3,0,0,1,663,428.43a75.54,75.54,0,0,1-10.93,13.69,55.51,55.51,0,0,1-7.76,6.59,23.14,23.14,0,0,1-7.75,3.76A13.17,13.17,0,0,1,624.36,449Z" transform="translate(-574.99 -306.44)"/><path class="cls-2" d="M624.36,449c-3.54-3.38-1.65-2.3-1.65-2.3,3.31,3.16,10.81,1.49,15.32.45a23,23,0,0,0,7.75-3.75,55.57,55.57,0,0,0,7.77-6.6,75.42,75.42,0,0,0,10.92-13.68A88.76,88.76,0,0,0,670.64,410c.22-.55.44-1.11.64-1.67a32.59,32.59,0,0,1-2.08,7A89.3,89.3,0,0,1,663,428.43a75.54,75.54,0,0,1-10.93,13.69,55.51,55.51,0,0,1-7.76,6.59,23.14,23.14,0,0,1-7.75,3.76A13.14,13.14,0,0,1,624.36,449Z" transform="translate(-574.99 -306.44)"/><path class="cls-2" d="M658.07,404.05a19.23,19.23,0,0,0-8.51-2.37l-.56,0,.36-.09c.69-.16,1.4-.29,2.1-.39a9,9,0,0,0,2.07-.36.21.21,0,0,0,0-.4,4.94,4.94,0,0,0-2,0,19.56,19.56,0,0,0-2.26.43,19,19,0,0,0-2.58.85c-.5,0-1,.09-1.5.17a10.55,10.55,0,0,0-4.3,1.26.06.06,0,0,0,0,.1,14.74,14.74,0,0,0,2-.28c.75-.13,1.5-.25,2.26-.32a.1.1,0,0,0,.12.12l.74-.19a26,26,0,0,1,3.42,0,33.66,33.66,0,0,1,8.53,1.72A.11.11,0,0,0,658.07,404.05Z" transform="translate(-574.99 -306.44)"/><path class="cls-2" d="M670.67,404.18a4.34,4.34,0,0,0-4.25-.59.19.19,0,0,0,.05.35,14.87,14.87,0,0,0,2,.19c.71.08,1.41.19,2.13.21A.1.1,0,0,0,670.67,404.18Z" transform="translate(-574.99 -306.44)"/><path class="cls-2" d="M659.41,365c-.2-.63-1.63-.72-2.17-.79a10.78,10.78,0,0,0-2.78,0,8.2,8.2,0,0,0-4.87,2.11c-.05.05,0,.16.07.13a14.77,14.77,0,0,1,5.59-1.47,11.2,11.2,0,0,1,2.83.36C658.42,365.47,659.66,365.86,659.41,365Z" transform="translate(-574.99 -306.44)"/><path class="cls-3" d="M694.63,391c5.6-8.31,7.57-10.76,12.08-8.52s4.51,2.25,2.16,14.76c-1.88,9.93-4.8,19.69-16.67,19C677.24,415.26,687.64,401.36,694.63,391Z" transform="translate(-574.99 -306.44)"/><path class="cls-3" d="M703.69,418.07c-3.78-12.5-7.73-12.2-13.22-11.49s-8.45,5.93-8.17,25c.19,13.07,4.7,23.32,14.63,22S708.4,433.68,703.69,418.07Z" transform="translate(-574.99 -306.44)"/><path class="cls-2" d="M708.41,438.15a13.12,13.12,0,0,0-1.6-2.39,74.26,74.26,0,0,0-3.12-17.69A45.25,45.25,0,0,0,702,413.3c4.08-3.53,5.7-9.77,6.89-16.09,2.35-12.51,2.35-12.51-2.16-14.75a5.14,5.14,0,0,0-4-.61,7.54,7.54,0,0,1,2,.73c4.51,2.24,4.51,2.24,2.15,14.75-1.08,5.76-2.52,11.46-5.86,15.09-.74,0-1.46,0-2.22,0a17,17,0,0,1-3.19-.23,22.14,22.14,0,0,1-6.14-2c-.05,0-.09,0,0,.07a14.94,14.94,0,0,0,6.07,2.74,14,14,0,0,0,4.54.36l0,0a43.25,43.25,0,0,1,1.7,4.77c1.69,5.59,3.58,11.26,4.43,16.85a7.34,7.34,0,0,0-3.31-2,.2.2,0,0,0-.19.33,28.45,28.45,0,0,1,2.63,2.4,12.14,12.14,0,0,1,2,3,11.8,11.8,0,0,1,1,3.37c.09.6.07,1.2.14,1.79a2.73,2.73,0,0,0,.36,1.48.3.3,0,0,0,.37.05c.46-.28.57-1,.64-1.53a7,7,0,0,0-.1-2A12.21,12.21,0,0,0,708.41,438.15Z" transform="translate(-574.99 -306.44)"/><path class="cls-3" d="M711.77,372.79h0S711.79,372.78,711.77,372.79Z" transform="translate(-574.99 -306.44)"/><path class="cls-3" d="M720.26,380.09c-.34-1-1.3-1.22-2.3-1.17a16.56,16.56,0,0,1-3.29.23c-.29,0-.46-.09-.46-.34a2.45,2.45,0,0,1,.48-1.11c1.25-2,3.66-3.8,3.68-6.35A1.3,1.3,0,0,0,716.5,370a14.23,14.23,0,0,0-2.88,1.84,12.39,12.39,0,0,1-1.29.8l-.29.11-.12,0h-.15c-.07,0,0,0,0,0h0c0-.16,0-.08,0-.2a3.16,3.16,0,0,1,0-1c.13-.88.43-1.72.58-2.6a3.22,3.22,0,0,0-.35-2.56,1.59,1.59,0,0,0-2.42,0,7.87,7.87,0,0,0-1.51,2.93,8,8,0,0,1-1.26,2.83c-.64.7-1.18-.92-1.31-1.37-.25-.9-.4-1.83-.68-2.72-.19-.64-.48-1.47-1.17-1.74a1.57,1.57,0,0,0-1.74.59c-.85,1.11-.68,2.8-.69,4.1a6.58,6.58,0,0,1-.14,1.88c-.14.44-.41.49-.84.22-1.1-.71-1.47-3.63-3.19-3.25s-1.15,3.46-.92,4.65.53,2.34.81,3.51a27.93,27.93,0,0,0,1.18,4,9.57,9.57,0,0,0,.8,1.52,5.81,5.81,0,0,0,.61,1.19,7.54,7.54,0,0,0,5.53,3,15.2,15.2,0,0,0,8.46-1.54c1.21-.59,2.37-1.28,3.52-2a12.93,12.93,0,0,0,2.32-1.7A2.53,2.53,0,0,0,720.26,380.09Z" transform="translate(-574.99 -306.44)"/><path class="cls-2" d="M709.79,387.88a10.85,10.85,0,0,0-2.14-.19,12.52,12.52,0,0,1-2.43-.37,25.9,25.9,0,0,1-4.38-1.85.17.17,0,0,0-.21.27,8.8,8.8,0,0,0,4.34,2.49c1.43.4,3.5.85,4.89.11A.25.25,0,0,0,709.79,387.88Z" transform="translate(-574.99 -306.44)"/><path class="cls-21" d="M699.53,386.62a9.68,9.68,0,0,0-1,.67,14.69,14.69,0,0,0-1.06,1c-.69.7-1.35,1.44-2,2.2a53.39,53.39,0,0,0-3.39,4.53,56.6,56.6,0,0,0-5.42,10.16,17.71,17.71,0,0,0-1,3c-.25,1.11-.37,2.24-.57,3.36a.16.16,0,0,0,.31.08c.7-1.76,1.67-3.4,2.35-5.17s1.45-3.47,2.27-5.16a65.82,65.82,0,0,1,5.83-9.58c.6-.83,1.24-1.63,1.86-2.44.34-.45.7-.88,1-1.33a13.48,13.48,0,0,0,.8-1.31A0,0,0,0,0,699.53,386.62Z" transform="translate(-574.99 -306.44)"/><path class="cls-21" d="M689.34,448.84a23,23,0,0,0-1.32-3.06c-.44-1.07-.77-2.17-1.14-3.26a37.8,37.8,0,0,1-1.59-6.56,61.1,61.1,0,0,1-.23-14.68c.24-2.88.72-5.73.83-8.61a.25.25,0,0,0-.49-.06,47.48,47.48,0,0,0-1.44,7.68,70,70,0,0,0-.58,7.79,47.34,47.34,0,0,0,1.14,11.2,6.23,6.23,0,0,0-1.12,2.17,10,10,0,0,0-.71,3.2c0,.22.29.24.36.05.35-1,.62-2,1-3,.2-.56.49-1.12.68-1.7.19.75.4,1.49.64,2.22a23.26,23.26,0,0,0,1.52,3.6,10.54,10.54,0,0,0,2,3.23A.26.26,0,0,0,689.34,448.84Z" transform="translate(-574.99 -306.44)"/><path class="cls-21" d="M650.45,404.74a20.48,20.48,0,0,0-9.59.36,30.36,30.36,0,0,0-9,3.85,29.83,29.83,0,0,0-11.77,14.75,27.49,27.49,0,0,0-1.4,5.29,11.42,11.42,0,0,0,0,5.2.06.06,0,0,0,.12,0,32.79,32.79,0,0,0,.81-4.53,33.39,33.39,0,0,1,1.16-4.42,30.54,30.54,0,0,1,4.32-8.18,28.89,28.89,0,0,1,15-10.29,50.07,50.07,0,0,1,10.34-1.55C650.65,405.2,650.74,404.81,650.45,404.74Z" transform="translate(-574.99 -306.44)"/><path class="cls-21" d="M647.74,400.32a3.44,3.44,0,0,1-.53-.88,7.44,7.44,0,0,1-.68-2,11.07,11.07,0,0,1,.58-4.87,48.9,48.9,0,0,0,1.27-5.18,16.46,16.46,0,0,0,.27-5.14c0-.07-.12-.06-.14,0-.6,1.88-.86,3.88-1.35,5.79s-1.17,3.68-1.61,5.54a9.51,9.51,0,0,0-.08,4.91,4.63,4.63,0,0,0,1,1.86c.4.44,1,1.12,1.67,1.1a.27.27,0,0,0,.24-.41C648.23,400.74,648,400.57,647.74,400.32Z" transform="translate(-574.99 -306.44)"/><path class="cls-21" d="M647.42,373.22a14,14,0,0,0-1.24-3.28.05.05,0,0,0-.1,0,34.9,34.9,0,0,0,1.93,6.74.17.17,0,0,0,.32-.09A14,14,0,0,0,647.42,373.22Z" transform="translate(-574.99 -306.44)"/><path class="cls-21" d="M649.39,356.76c-2.13-.15-4.21,1.7-5.42,3.29-1,1.26-2.54,4-.83,5.29.21.16.41-.17.26-.34-.59-.73,0-1.91.32-2.63a9.94,9.94,0,0,1,1.5-2.18,9.73,9.73,0,0,1,2.06-1.67c.74-.44,1.54-.77,2.25-1.26A.27.27,0,0,0,649.39,356.76Z" transform="translate(-574.99 -306.44)"/><path class="cls-21" d="M607.55,377.61a9.9,9.9,0,0,0-3.3,3.92,47.13,47.13,0,0,0-2.25,4.7c-.69,1.61-1.34,3.23-2.09,4.81s-1.67,3.17-2.53,4.74a.06.06,0,0,0,.09.07c2.63-2.22,4-5.75,5.36-8.8.71-1.59,1.44-3.17,2.29-4.68s2-2.86,2.79-4.39A.27.27,0,0,0,607.55,377.61Z" transform="translate(-574.99 -306.44)"/><path class="cls-21" d="M621.39,372.45a6.2,6.2,0,0,0-3.19-1.07,10.28,10.28,0,0,0-3.62.29c-2.16.53-4.73,1.73-5.7,3.87,0,.07,0,.16.11.12.92-.53,1.76-1.17,2.68-1.68a12.83,12.83,0,0,1,3.12-1.2,13.45,13.45,0,0,1,3.23-.3,13.77,13.77,0,0,1,1.57.09,13.14,13.14,0,0,0,1.65.25C621.41,372.82,621.54,372.57,621.39,372.45Z" transform="translate(-574.99 -306.44)"/><path class="cls-21" d="M614.26,407.74c-.49-1.13-1.16-2.17-1.57-3.34a15.06,15.06,0,0,1-.44-1.63,6.63,6.63,0,0,0-.38-1.64.1.1,0,0,0-.17,0,3.38,3.38,0,0,0-.12,1.73,9,9,0,0,0,.39,1.85,6.62,6.62,0,0,0,2,3.28A.21.21,0,0,0,614.26,407.74Z" transform="translate(-574.99 -306.44)"/><path class="cls-21" d="M737.58,443.27c-5.38,2.36-11.21,3.2-16.87,1.34-5.35-1.76-9.46-5.68-12.31-10.44a28.47,28.47,0,0,1-3.37-8.73s-.06,0-.06,0A23.59,23.59,0,0,0,712,440.86a22.09,22.09,0,0,0,16.53,6.27A16.2,16.2,0,0,0,738,443.8C738.3,443.54,737.89,443.13,737.58,443.27Z" transform="translate(-574.99 -306.44)"/><path class="cls-21" d="M701.18,383.27a34.11,34.11,0,0,0-2-3.72c-.62-1.3-1-2.68-1.63-4,0-.08-.13,0-.14,0a8.51,8.51,0,0,0,.83,4.37,6.91,6.91,0,0,0,2.63,3.53A.21.21,0,0,0,701.18,383.27Z" transform="translate(-574.99 -306.44)"/><path class="cls-21" d="M723.63,394a2.43,2.43,0,0,0-1.53,0c-.63.13-1.26.33-1.87.52a32.12,32.12,0,0,0-3.56,1.28c-2.18.94-4.46,2.2-5.74,4.28a0,0,0,0,0,.06.06,30.29,30.29,0,0,1,6.3-3.43c1.14-.42,2.31-.77,3.48-1.09.87-.24,2.44-.37,3-1.18A.33.33,0,0,0,723.63,394Z" transform="translate(-574.99 -306.44)"/><path class="cls-21" d="M761.25,386.76a11.75,11.75,0,0,0-4.82-.78,34.38,34.38,0,0,0-5.07.25,32.72,32.72,0,0,0-4.88,1,14.14,14.14,0,0,0-4.6,2s0,.16,0,.15a45.51,45.51,0,0,0,4.59-1.06,44.18,44.18,0,0,1,5-.82,38.63,38.63,0,0,1,4.81-.22l2.47.09a13.85,13.85,0,0,0,2.41,0A.3.3,0,0,0,761.25,386.76Z" transform="translate(-574.99 -306.44)"/></g></g></svg>