<svg id="Слой_1" data-name="Слой 1" xmlns="http://www.w3.org/2000/svg" viewBox="0 0 161.23 209.93"><defs><style>.cls-1{fill:#ffc0a6;}.cls-2{fill:#ffb191;}.cls-3{fill:#ffd5c6;}.cls-4{fill:#d1785a;}.cls-5{fill:#f2f2f2;}.cls-6{fill:#e6e6e6;}.cls-7{fill:#2a86ad;}.cls-21,.cls-29,.cls-8{fill:#fff;}.cls-9{fill:#54bee8;}.cls-10{fill:#de954c;}.cls-11{fill:#fae7db;}.cls-12{fill:#a1dded;}.cls-13{fill:#da2a33;}.cls-14{fill:#ff94b2;}.cls-15{fill:#fdc165;}.cls-16{fill:#2ac5d4;}.cls-17{fill:#fded64;}.cls-18{fill:#ff584e;}.cls-19{fill:#4fe6b6;}.cls-20,.cls-25{fill:#00485b;}.cls-20{opacity:0.19;}.cls-21,.cls-26{opacity:0.53;}.cls-22{opacity:0.47;}.cls-23{fill:#64e6bd;}.cls-24{fill:#17b799;}.cls-26{fill:#00a7af;}.cls-27{fill:#feed5e;}.cls-28{fill:#fdd94e;}.cls-29{opacity:0.49;}.cls-30{opacity:0.71;}</style></defs><path class="cls-1" d="M748.82,354.46c3.81-8.14,4.41-12.15.61-14.58s-5.25.09-13.77,7.67c-6.76,6-12.9,12.76-6.87,21.54C736.39,380.16,744.07,364.62,748.82,354.46Z" transform="translate(-602.21 -279.41)"/><path class="cls-2" d="M752.62,343c-.29,1.86-2.08,4.51-4.33,9.32-3.07,6.57-7.36,15.38-12.06,17.81l-.46-.21a11.54,11.54,0,0,1-2.38-1.6,15.74,15.74,0,0,1-3.38-4.62.06.06,0,0,0-.12,0,8.72,8.72,0,0,0,2.86,5.23,11.26,11.26,0,0,0,2.27,1.67c-2.57,2.54-7.85,5-17.5,7.6-10.29,2.83-19.46,2-22-4.9,1.42,8.79,11.33,10.09,22.59,7,9.7-2.66,15-5.1,17.54-7.65a7,7,0,0,0,2.29-1.16l.23,0a.27.27,0,0,0,.18-.28c4.1-3.31,7.8-10.94,10.53-16.78C752.08,347.49,754.35,345.05,752.62,343Z" transform="translate(-602.21 -279.41)"/><path class="cls-1" d="M752.79,323.82a4.22,4.22,0,0,1,1.17,4.37,9,9,0,0,1,.85.57c2.16-1.26,4.88-1.54,5.42-.44.79,1.6.51,2.08-.17,2.58a2.13,2.13,0,0,1,.58-.13.47.47,0,0,1,.31,0c.93.23,1.32,1.61,1.11,2.4a2.93,2.93,0,0,1-.31.7,4.28,4.28,0,0,1-.48.64l-.28.32-.11.11a2.34,2.34,0,0,1,.5-.25,1.2,1.2,0,0,1,.65,0,1.77,1.77,0,0,1,1.13,2.46,3.23,3.23,0,0,1-.44.67,4.27,4.27,0,0,1-.36.38.92.92,0,0,1,.28.14l0,0a1.41,1.41,0,0,1,.33.4,2.25,2.25,0,0,1,.21.53,2.56,2.56,0,0,1,0,.73,2.72,2.72,0,0,1-.21.79,3.93,3.93,0,0,1-.39.69,6.34,6.34,0,0,1-.51.65c-.09.11-7.78,6.57-10.27,5.62a17,17,0,0,1-2.5-1.63,19.33,19.33,0,0,1-4.06-4.81,17.55,17.55,0,0,1-1-2,9.14,9.14,0,0,1,1-4.77,21.42,21.42,0,0,1,3.56-5.11c.09-.18.19-.36.28-.55a7,7,0,0,0,.52-1.8,12.31,12.31,0,0,0,.19-1.59,6.65,6.65,0,0,1,.06-1.34C750.26,322.7,751.93,323.14,752.79,323.82Z" transform="translate(-602.21 -279.41)"/><path class="cls-1" d="M639.66,371.14c-10.16,5.8-10.32,6.76-8.6,11.4s8.08,8.63,24.67,4.57c11.38-2.78,19.43-8.77,16.31-17.19S652.34,363.9,639.66,371.14Z" transform="translate(-602.21 -279.41)"/><path class="cls-2" d="M672,369.92a7.12,7.12,0,0,0-3.5-3.88,6.8,6.8,0,0,1,1.64,2.53c3.11,8.42-4.94,14.41-16.31,17.19-10.64,2.6-17.08,1.9-20.78-.16,3.22,3,9.92,4.62,22.64,1.51C667.11,384.33,675.16,378.34,672,369.92Z" transform="translate(-602.21 -279.41)"/><path class="cls-1" d="M724.33,358.6c11.7.13,12.43,3.6,13.18,8.5s-3,8.75-19.46,13.27c-11.3,3.09-21.24,1.77-22.61-7.1S709.73,358.43,724.33,358.6Z" transform="translate(-602.21 -279.41)"/><path class="cls-1" d="M623.17,359.45c-1.19-8.9.51-9.57,4.87-10.75s5.85.5,11.71,10.28c4.65,7.77,9,18,.67,24.62C629.85,391.89,624.66,370.57,623.17,359.45Z" transform="translate(-602.21 -279.41)"/><path class="cls-1" d="M718.13,394.22c-2.69-21.57-16.79-47.1-31.86-47.1s-29.17,25.53-31.87,47.1c-3.25,26-.47,40.7,31.87,40.7S721.38,420.19,718.13,394.22Z" transform="translate(-602.21 -279.41)"/><path class="cls-2" d="M676,389.78c-3.53,0-7,.07-10.57-.07-.25,0-.27.34-.06.42a16.17,16.17,0,0,0,10.7.19A.28.28,0,0,0,676,389.78Z" transform="translate(-602.21 -279.41)"/><path class="cls-2" d="M704,389.78c-3.53,0-7.05.07-10.57-.07-.25,0-.27.34-.06.42a16.17,16.17,0,0,0,10.7.19A.28.28,0,0,0,704,389.78Z" transform="translate(-602.21 -279.41)"/><path class="cls-2" d="M718,390.9c-.73-4.28-4.76-15.25-4.88-15.49-.65-1.33-1.33-2.66-2.09-3.93a11,11,0,0,0-2.73-3.39.15.15,0,0,0-.23.15,15.17,15.17,0,0,0,1.2,3.55c.47,1.22,1,2.41,1.52,3.63,1,2.42,1.86,4.88,2.62,7.36s1.36,5.06,1.89,7.63.82,5.16,1.17,7.75c.39,2.91.61,5.83.93,8.73,0,.37.66.41.73.05A43,43,0,0,0,718,390.9Z" transform="translate(-602.21 -279.41)"/><path class="cls-1" d="M754.14,330.53h0S754.13,330.51,754.14,330.53Z" transform="translate(-602.21 -279.41)"/><path class="cls-2" d="M632.64,350.37c-.59.33-1.11.76-1.7,1.09a19,19,0,0,1-2,1c-.72.31-1.45.61-2.19.87a8,8,0,0,0-2.12.78.18.18,0,0,0,.1.34,5.71,5.71,0,0,0,2.4-.63c.76-.27,1.5-.57,2.22-.91,1.13-.54,2.8-1.2,3.32-2.45C632.7,350.38,632.66,350.35,632.64,350.37Z" transform="translate(-602.21 -279.41)"/><path class="cls-2" d="M645.19,372.38a5.92,5.92,0,0,0-1-2.92s-.08,0-.08,0c0,1,.24,2.06.27,3.09a13.55,13.55,0,0,1-1.14,5.9c-.2.45-.44.88-.67,1.32a2.93,2.93,0,0,0-.55,1.3.28.28,0,0,0,.35.27c.44-.13.68-.54,1-.89a8.85,8.85,0,0,0,.87-1.56,12.52,12.52,0,0,0,1-6.55Z" transform="translate(-602.21 -279.41)"/><path class="cls-2" d="M661.13,372.84a9.48,9.48,0,0,0-1.7,2.7,29.77,29.77,0,0,0-1.27,2.89,18.63,18.63,0,0,0-1.54,6.25.28.28,0,0,0,.52.15,57.23,57.23,0,0,0,2.19-5.81c.37-1,.77-1.93,1.15-2.9a14.73,14.73,0,0,0,1.12-3A.28.28,0,0,0,661.13,372.84Z" transform="translate(-602.21 -279.41)"/><path class="cls-3" d="M664.86,365.6c-1.49-.74-3.41-.45-5-.31a44.77,44.77,0,0,0-5.17.78,34.15,34.15,0,0,0-5.06,1.49,11.83,11.83,0,0,0-4.37,2.33.16.16,0,0,0,.11.27,24,24,0,0,0,4.6-1.35,48.48,48.48,0,0,1,4.88-1.25,38.34,38.34,0,0,1,4.89-.68c.84-.07,1.68-.1,2.52-.12a7.38,7.38,0,0,0,2.51-.36C665.07,366.27,665.23,365.78,664.86,365.6Z" transform="translate(-602.21 -279.41)"/><path class="cls-3" d="M636,385.58a14.9,14.9,0,0,1-2-2,24.1,24.1,0,0,1-1.57-2.44,58.82,58.82,0,0,1-2.91-6,69.88,69.88,0,0,1-4-13.05c-.5-2.5-.75-5.07-1.4-7.54,0-.09-.19-.11-.2,0a24.34,24.34,0,0,0,.25,6.92,55.77,55.77,0,0,0,1.44,7,54.22,54.22,0,0,0,5.3,13.1,11.27,11.27,0,0,0,2.11,2.79,5.88,5.88,0,0,0,2.79,1.58C636,385.88,636.14,385.71,636,385.58Z" transform="translate(-602.21 -279.41)"/><path class="cls-3" d="M621.52,351.05a0,0,0,0,0,0,.05S621.56,351.05,621.52,351.05Z" transform="translate(-602.21 -279.41)"/><path class="cls-3" d="M743.81,343.07c-.85-.11-1.92.68-2.59,1.13s-1.57,1.09-2.33,1.66a50.55,50.55,0,0,0-4.62,3.89,33.33,33.33,0,0,0-3.81,4.16c-.93,1.26-2.05,3-1.64,4.68a0,0,0,0,0,.07,0c.51-.67.85-1.47,1.3-2.19a17.42,17.42,0,0,1,1.57-2.18,38.47,38.47,0,0,1,3.86-3.8c1.41-1.25,2.87-2.45,4.39-3.57.77-.57,1.57-1.1,2.35-1.64.62-.43,1.53-1,1.79-1.69A.35.35,0,0,0,743.81,343.07Z" transform="translate(-602.21 -279.41)"/><path class="cls-3" d="M726.42,360.65a3.21,3.21,0,0,0-1.85-.8,19,19,0,0,0-2.37-.3,24.24,24.24,0,0,0-4.74.08c-3,.35-6.24,1.07-8.71,3a.1.1,0,0,0,.08.18,62.21,62.21,0,0,1,8.86-1.84,29.38,29.38,0,0,1,4.4,0c.77.06,1.53.17,2.3.26a3.66,3.66,0,0,0,2,0A.31.31,0,0,0,726.42,360.65Z" transform="translate(-602.21 -279.41)"/><path class="cls-3" d="M661.53,372.11a45.86,45.86,0,0,0-3.34,8.48c-.92,2.92-1.69,5.89-2.41,8.87s-1.41,6-1.83,9a36.7,36.7,0,0,0-.35,4.57c0,1.36-.09,3.11.69,4.3a.53.53,0,0,0,1-.13c.38-1.39,0-3,0-4.46a34.37,34.37,0,0,1,.37-4.42c.42-2.94,1.11-5.84,1.81-8.72s1.47-5.75,2.22-8.62a83.41,83.41,0,0,0,2.07-8.81C661.76,372.08,661.6,372,661.53,372.11Z" transform="translate(-602.21 -279.41)"/><path class="cls-1" d="M721.1,312.74c-.92-19.36-18.39-34.26-39-33.28s-36.61,17.46-35.69,36.82A33.25,33.25,0,0,0,649.14,328c-2.65-1.57-5.55-1.78-7.57-.27-3,2.26-2.9,7.51.26,11.74,3,4.06,7.78,5.69,10.82,3.81,1.84,15.85,16.52,27.76,33.74,26.94,17.92-.85,31.8-15.17,31-32,0-.19,0-.38,0-.58A27.77,27.77,0,0,1,719,326,33.05,33.05,0,0,0,721.1,312.74Z" transform="translate(-602.21 -279.41)"/><path class="cls-2" d="M721.1,312.74c-.75-15.78-12.5-28.6-28-32.27,15.83,5.41,24.42,17.09,25.09,31.09.22,4.66.38,9.35-1.18,13.49-1.4,3.72-1.27,11.65-1.27,11.65.8,16.83-14.57,32.53-33.94,32.78-3.19,0-6.8-.94-9.75-1.61a34,34,0,0,0,14.33,2.38c17.92-.85,31.8-15.17,31-32,0-.19,0-.38,0-.58A27.77,27.77,0,0,1,719,326,33.05,33.05,0,0,0,721.1,312.74Z" transform="translate(-602.21 -279.41)"/><path class="cls-4" d="M653.19,334.72a12.13,12.13,0,0,0-3.39-3.42c-2.13-1.43-6.25-2.81-8-.13a.3.3,0,0,0,.36.42c2.49-1.09,5-.25,7,1.44A12.05,12.05,0,0,1,651,335l-.65,0a12.35,12.35,0,0,0-2.64.23.28.28,0,0,0,0,.51,5.3,5.3,0,0,0,2.6.55,6.5,6.5,0,0,0,1.53-.11c.26.45.48.91.69,1.37a4.41,4.41,0,0,0,1,1.63.58.58,0,0,0,.9-.17C655,337.62,653.94,335.86,653.19,334.72Z" transform="translate(-602.21 -279.41)"/><path class="cls-5" d="M713,334.93c-.21,4.57-3.61,8.13-7.59,7.95s-7-4-6.83-8.61,3.61-8.14,7.59-7.95S713.24,330.36,713,334.93Z" transform="translate(-602.21 -279.41)"/><path class="cls-6" d="M706.24,326.32a5.72,5.72,0,0,0-.83,0c3.57.64,6.2,4.27,6,8.52s-3.15,7.62-6.76,7.93a7.52,7.52,0,0,0,.83.09c4,.18,7.38-3.37,7.59-7.95S710.22,326.5,706.24,326.32Z" transform="translate(-602.21 -279.41)"/><path class="cls-7" d="M710.52,336.19a5.34,5.34,0,1,1-5.08-5.58A5.34,5.34,0,0,1,710.52,336.19Z" transform="translate(-602.21 -279.41)"/><path d="M708.16,336.64a3.22,3.22,0,1,1-3.07-3.37A3.23,3.23,0,0,1,708.16,336.64Z" transform="translate(-602.21 -279.41)"/><path class="cls-8" d="M710,331.13a1.68,1.68,0,0,0-1.71-1.29A1.79,1.79,0,0,0,706.8,331a1.5,1.5,0,0,0,.52,2,1.86,1.86,0,0,0,1.93.07A1.68,1.68,0,0,0,710,331.13Z" transform="translate(-602.21 -279.41)"/><path class="cls-8" d="M707.83,334.15a1.42,1.42,0,0,0-.08-.18h0a.58.58,0,0,0-.17-.29v0a.89.89,0,0,0-.86-.27.91.91,0,0,0-.65.6v0a1.09,1.09,0,0,0,0,.26.94.94,0,0,0,.18.59,1,1,0,0,0,.53.41.9.9,0,0,0,1-.35A.87.87,0,0,0,707.83,334.15Z" transform="translate(-602.21 -279.41)"/><path class="cls-8" d="M703.3,328.65c-.76-.34-1.55.22-2.06.75s-1,1.34-.48,1.94a.26.26,0,0,0,.24.07c.51-.14.84-.76,1.18-1.14s1-.71,1.26-1.24A.26.26,0,0,0,703.3,328.65Z" transform="translate(-602.21 -279.41)"/><path d="M711.77,329.37c-.94-2.32-3.92-3.33-6.24-3.13a7.28,7.28,0,0,0-5.92,4c0,.07.07.13.13.08,1.66-1.61,3.39-3.09,5.8-3.32s4.3,1,5.93,2.62A.18.18,0,0,0,711.77,329.37Z" transform="translate(-602.21 -279.41)"/><path class="cls-9" d="M700.43,334.09a6.15,6.15,0,0,0-.24,1.65c0,.76,1.17.82,1.18.05a4.65,4.65,0,0,1,.19-1.33C701.77,333.73,700.65,333.36,700.43,334.09Z" transform="translate(-602.21 -279.41)"/><path class="cls-9" d="M701.61,337.41c-.08-.19-.16-.37-.23-.56a.59.59,0,0,0-.8-.25.61.61,0,0,0-.25.8l.23.56a.59.59,0,0,0,1.05-.55Z" transform="translate(-602.21 -279.41)"/><path class="cls-9" d="M710,334.89l-.13-.46a.6.6,0,0,0-.71-.44.59.59,0,0,0-.44.7c0,.16.08.31.13.46a.58.58,0,0,0,.25.36.62.62,0,0,0,.46.08A.59.59,0,0,0,710,334.89Z" transform="translate(-602.21 -279.41)"/><path class="cls-5" d="M682.92,333.54c-.21,4.58-3.61,8.13-7.59,7.95s-7-4-6.83-8.61,3.61-8.13,7.59-7.95S683.13,329,682.92,333.54Z" transform="translate(-602.21 -279.41)"/><path class="cls-6" d="M676.13,324.93a7.67,7.67,0,0,0-.83,0c3.57.64,6.2,4.27,6,8.52s-3.14,7.62-6.76,7.93a5.7,5.7,0,0,0,.83.09c4,.19,7.38-3.37,7.59-7.95S680.11,325.12,676.13,324.93Z" transform="translate(-602.21 -279.41)"/><path class="cls-7" d="M680.41,334.8a5.33,5.33,0,1,1-5.08-5.57A5.34,5.34,0,0,1,680.41,334.8Z" transform="translate(-602.21 -279.41)"/><path d="M678.06,335.25a3.23,3.23,0,1,1-3.08-3.37A3.23,3.23,0,0,1,678.06,335.25Z" transform="translate(-602.21 -279.41)"/><path class="cls-8" d="M679.89,329.74a1.69,1.69,0,0,0-1.71-1.29,1.8,1.8,0,0,0-1.49,1.13,1.49,1.49,0,0,0,.52,2,1.82,1.82,0,0,0,1.93.07A1.68,1.68,0,0,0,679.89,329.74Z" transform="translate(-602.21 -279.41)"/><path class="cls-8" d="M677.73,332.76l-.09-.18h0a.69.69,0,0,0-.17-.3l0,0a.9.9,0,0,0-.85-.27.93.93,0,0,0-.66.6,0,0,0,0,1,0,0,1.27,1.27,0,0,0,0,.26.94.94,0,0,0,.18.59,1,1,0,0,0,.54.41.94.94,0,0,0,.5,0,.91.91,0,0,0,.54-.38A.87.87,0,0,0,677.73,332.76Z" transform="translate(-602.21 -279.41)"/><path class="cls-8" d="M673.19,327.26c-.76-.33-1.55.22-2.06.75s-1,1.34-.48,1.94a.24.24,0,0,0,.24.07c.52-.14.85-.76,1.18-1.14s.95-.71,1.26-1.24A.25.25,0,0,0,673.19,327.26Z" transform="translate(-602.21 -279.41)"/><path d="M681.67,328c-.94-2.32-3.93-3.33-6.25-3.13a7.25,7.25,0,0,0-5.91,4,.08.08,0,0,0,.12.08c1.66-1.61,3.4-3.08,5.8-3.31s4.3,1,5.93,2.61A.19.19,0,0,0,681.67,328Z" transform="translate(-602.21 -279.41)"/><path class="cls-9" d="M670.33,332.71a5.67,5.67,0,0,0-.25,1.64c0,.76,1.17.82,1.18.06a4.67,4.67,0,0,1,.19-1.34A.59.59,0,0,0,670.33,332.71Z" transform="translate(-602.21 -279.41)"/><path class="cls-9" d="M671.5,336l-.23-.56a.6.6,0,0,0-.8-.25.63.63,0,0,0-.25.8c.08.19.16.37.23.56a.59.59,0,0,0,.8.25A.6.6,0,0,0,671.5,336Z" transform="translate(-602.21 -279.41)"/><path class="cls-9" d="M679.88,333.5c0-.15-.09-.3-.14-.46a.61.61,0,0,0-.25-.36.62.62,0,0,0-.46-.08.59.59,0,0,0-.44.71c0,.15.09.3.13.45a.65.65,0,0,0,.26.37.6.6,0,0,0,.45.08A.61.61,0,0,0,679.88,333.5Z" transform="translate(-602.21 -279.41)"/><path class="cls-4" d="M693,348.83a5.61,5.61,0,0,0,2.34-2.08c1-1.65,1-4.52-.69-5.77a.19.19,0,0,0-.3.21,7.06,7.06,0,0,1,.46,2.6A5.05,5.05,0,0,1,694,346a4.09,4.09,0,0,1-1.77,1.47c-.55.24-1.51.38-1.85.91a.3.3,0,0,0,0,.36C690.88,349.57,692.27,349.16,693,348.83Z" transform="translate(-602.21 -279.41)"/><path class="cls-4" d="M700.19,358.73a31.37,31.37,0,0,1-13,1.78A24.64,24.64,0,0,1,675.8,357a11.65,11.65,0,0,1-4-4.31c.34-.11.68-.2,1-.33a.51.51,0,0,0,.35-.39.61.61,0,0,0,0-.27.56.56,0,0,0-.53-.37c-1.44,0-3.52,1.26-4,2.7,0,.15.14.23.26.18.62-.31,1.16-.79,1.78-1.11l0,0c1.77,3.44,5.07,5.61,8.66,6.89a29.39,29.39,0,0,0,13.48,1.44,22.78,22.78,0,0,0,3.82-.81,15.23,15.23,0,0,0,3.58-1.69A.12.12,0,0,0,700.19,358.73Z" transform="translate(-602.21 -279.41)"/><path class="cls-10" d="M670.31,319.08a15.67,15.67,0,0,1,6.37-1.51.89.89,0,0,0-.08-1.78,17.05,17.05,0,0,0-6.84,1.6C668.74,317.87,669.28,319.57,670.31,319.08Z" transform="translate(-602.21 -279.41)"/><path class="cls-10" d="M713.56,321.43a5.43,5.43,0,0,0-5.24-3.5.89.89,0,0,0,.09,1.77,3.63,3.63,0,0,1,3.46,2.28C712.28,323.05,714,322.5,713.56,321.43Z" transform="translate(-602.21 -279.41)"/><path class="cls-3" d="M679.16,366.72a34.49,34.49,0,0,1-6.42-2.55,38.12,38.12,0,0,1-5.82-3.51,26.79,26.79,0,0,1-4.87-4.88,39.86,39.86,0,0,1-3.73-6.17c-.58-1.14-1-2.33-1.51-3.52-.27-.65-.59-1.29-.88-1.94a3.81,3.81,0,0,0-1-1.7.64.64,0,0,0-1,.17,2.76,2.76,0,0,0-.22,1.68,18.41,18.41,0,0,0,.2,1.95,18.81,18.81,0,0,0,1.12,3.82,27.06,27.06,0,0,0,3.84,6.86,29.46,29.46,0,0,0,5.41,5.52,22.71,22.71,0,0,0,6.66,3.79,20.23,20.23,0,0,0,8.14,1A.25.25,0,0,0,679.16,366.72Z" transform="translate(-602.21 -279.41)"/><path class="cls-3" d="M654,297.23c.05-.11-.1-.22-.17-.12a26.32,26.32,0,0,0-3.69,5.75,34,34,0,0,0-2.15,6.53,30.46,30.46,0,0,0,.24,14.05,10,10,0,0,0,1.56,3.73c.66.83,1.79,2.23,3,1.94a.61.61,0,0,0,.42-.46c.09-.9-.69-1.81-1-2.66s-.69-1.92-1-2.9a29.17,29.17,0,0,1-1.14-6.28,34.79,34.79,0,0,1,1.15-12.64A37.38,37.38,0,0,1,654,297.23Z" transform="translate(-602.21 -279.41)"/><path class="cls-3" d="M649.49,343.14c-.19-.49-.65-.64-1.07-.91s-.87-.51-1.3-.77a12.47,12.47,0,0,1-2.47-2,10.6,10.6,0,0,1-1.89-2.62c-.36-.7-.59-2-1.32-2.41a.12.12,0,0,0-.15,0c-.62.73,0,2.21.28,3a12.13,12.13,0,0,0,1.8,3.12,11.05,11.05,0,0,0,2.68,2.33c.76.49,2.37,1.4,3.26.82A.42.42,0,0,0,649.49,343.14Z" transform="translate(-602.21 -279.41)"/><path class="cls-10" d="M700.12,297.14a10.77,10.77,0,0,0-2.77-2.26c-1-.57-2-1.07-3-1.58-2-1-4.11-1.75-6-2.95a10.82,10.82,0,0,1-4.11-4.45,7.11,7.11,0,0,1-.7-2.71,12.23,12.23,0,0,0,.06-2.83.29.29,0,0,0-.37-.18c-1,.28-1.38,1.46-1.6,2.4a8.36,8.36,0,0,0,.08,3.52,10.37,10.37,0,0,0,4.06,5.85,24.56,24.56,0,0,0,6.72,3.44c1.23.43,2.5.76,3.73,1.19.56.2,1.11.46,1.68.64s1.29.34,1.92.57C700.17,297.93,700.34,297.38,700.12,297.14Z" transform="translate(-602.21 -279.41)"/><path class="cls-10" d="M705,292.13a7.73,7.73,0,0,0-3.63-3.21c-1.68-.87-3.48-1.55-5.21-2.3-1.51-.67-3.09-1.25-4.56-2a11.18,11.18,0,0,1-1.75-1.14,3.79,3.79,0,0,1-1.44-1.71.08.08,0,0,0-.16,0,5.56,5.56,0,0,0,.24,1.95,4.65,4.65,0,0,0,1.28,1.64,17.58,17.58,0,0,0,4.27,2.5c3.48,1.6,6.93,3.29,10.42,4.85A.42.42,0,0,0,705,292.13Z" transform="translate(-602.21 -279.41)"/><path class="cls-10" d="M700.64,284.8a9.23,9.23,0,0,0-2.75-1.23c-.94-.38-1.84-.73-2.8-1.07-.12,0-.2.14-.11.22a11.11,11.11,0,0,0,2.6,1.73,5.73,5.73,0,0,0,2.86.9A.32.32,0,0,0,700.64,284.8Z" transform="translate(-602.21 -279.41)"/><path class="cls-10" d="M686.55,298.53a39.82,39.82,0,0,1-5.06-3,9.72,9.72,0,0,1-3.31-3.8,9.41,9.41,0,0,1-.83-5,9.6,9.6,0,0,1,.71-2.58,9.94,9.94,0,0,1,.68-1.39,2.85,2.85,0,0,0,.5-1,.21.21,0,0,0-.24-.23c-.8.22-1.54,1.31-2,2a10,10,0,0,0-1.19,2.77,9.63,9.63,0,0,0,.33,6.07,9.74,9.74,0,0,0,3.81,4.75c2,1.26,4.23,1.4,6.49,1.73A.15.15,0,0,0,686.55,298.53Z" transform="translate(-602.21 -279.41)"/><path class="cls-10" d="M673.58,282.8a.17.17,0,0,0-.12-.11c-1.14-.19-2.08,1.79-2.48,2.6-.58,1.16-1.21,2.79-.68,4.08a.33.33,0,0,0,.61.05c.63-1.09.73-2.49,1.25-3.64a9.09,9.09,0,0,1,1-1.69A1.75,1.75,0,0,0,673.58,282.8Z" transform="translate(-602.21 -279.41)"/><path class="cls-11" d="M653.45,399.37c-3.66,29.45,3.87,41,32.9,41,27.38,0,36.44-10.68,32.83-39.21a.7.7,0,0,0-.9-.58C700.37,406,661.59,403.08,653.45,399.37Z" transform="translate(-602.21 -279.41)"/><path class="cls-1" d="M684.5,478.26a2.88,2.88,0,0,0,3.9.12c.22-.19.76-.73,1.25-1.21a.27.27,0,0,1,.44.28c-.45,1.29-1,3.22,0,3.47,1.7.46,2.18-1.82,2.6-2.51a.17.17,0,0,1,.31,0c.23.92.37,2.3,1.18,2.31s1.23-1.66,1.29-2.61c0-.07.45,0,.47.08.19.58.33,1.78,1.12,1.63s.81-1,.92-2.06a.21.21,0,0,1,.37-.12c.51.56.76,1.21,1.55.8,1.11-.59-.16-1.92-.16-1.92,2.61-3.55.09-8,3.62-12,2.59-3-.57-6.74-2.39-7.45a3.56,3.56,0,0,0-1-.22,4.72,4.72,0,0,0-.69.24c-2.25,1-2.36.55-5.84,2-1.2.52-2.31,2.62-2.56,3.66-.61,2.67-.46,8.74-5.46,12.34C683.73,476.32,683.57,477.15,684.5,478.26Z" transform="translate(-602.21 -279.41)"/><path class="cls-1" d="M703.41,450.85c-5.63,7.89-12.57,6.92-10.19,12.09,2,4.36,13.74,7.86,27.28.5,8.65-4.69,13.65-14.61,7.74-21S714.51,435.28,703.41,450.85Z" transform="translate(-602.21 -279.41)"/><path class="cls-1" d="M709.64,450.18c6,5.42,12.24,9.08,16.69,5.51s7.09-11.84,3.73-21.36c-3.28-10.95-6-20.86-12.12-23.42-3.21-1.35-7.47-.59-13.32,2.35a29,29,0,0,0-5.8,4.46C688.36,426.54,695.54,437.5,709.64,450.18Z" transform="translate(-602.21 -279.41)"/><path class="cls-2" d="M730.06,434.28c-2.94-9.8-5.45-18.77-10.31-22.38,2.5,4.62,4.54,10.91,6.76,17.56a27,27,0,0,1,1.55,15.29c.35,4-1.37,8.38-4.37,12a3,3,0,0,1-.62-.25,4.72,4.72,0,0,1-1.22-.95,4.84,4.84,0,0,0-.9-1s-.08,0-.09,0c-.34,1.08,1,2.23,1.85,2.68a2.31,2.31,0,0,0,.35.18,23,23,0,0,1-4.44,3.83c-6.6,4.34-12.9,5.7-17.81,5.39a4.38,4.38,0,0,1-1.44-.61,5.8,5.8,0,0,1-2.27-2.7c-.05-.14-.29-.13-.28,0a4.32,4.32,0,0,0,1.84,3.46,6.26,6.26,0,0,0,1.21.69c-.44,3.14.38,6.21-1.29,8.95,0,0,1.16,1.19.46,1.9a.72.72,0,0,0,.82,0c1.11-.58-.16-1.92-.16-1.92,1.88-2.55,1.1-5.56,1.83-8.56a1.38,1.38,0,0,0,.88-.37l0-.05c4.89.52,11.24-.43,18-4.13C726.69,460,731,454,730.8,448.5A23.29,23.29,0,0,0,730.06,434.28Z" transform="translate(-602.21 -279.41)"/><path class="cls-1" d="M664,489.19a2.9,2.9,0,0,1-3.5-1.74c-.1-.26-.32-1-.52-1.65a.27.27,0,0,0-.52,0c-.21,1.35-.68,3.29-1.61,3.08-1.72-.4-1.06-2.63-1.1-3.44a.17.17,0,0,0-.3-.11c-.64.7-1.41,1.85-2.13,1.48s-.3-2,.1-2.91c0-.06-.41-.2-.46-.15-.43.42-1.12,1.41-1.75.9s-.23-1.3.16-2.24a.22.22,0,0,0-.27-.29c-.71.26-1.24.71-1.74,0-.7-1,1.05-1.61,1.05-1.61-.63-4.36,3.69-7.08,2.5-12.32-.88-3.86,3.68-5.67,5.62-5.43a2.92,2.92,0,0,1,1,.27,4.18,4.18,0,0,1,.5.53,28.36,28.36,0,0,0,4.18,4c1.28,1.15.6,4,.56,5.07-.1,2.91-3.75,7.8-1,13.35C665.63,487.84,665.38,488.65,664,489.19Z" transform="translate(-602.21 -279.41)"/><path class="cls-1" d="M660.37,456.63c1.23,9.61,7.8,12,3.27,15.46-3.83,2.9-15.83.44-24.29-12.44-5.4-8.22-5.12-19.32,3.1-22.15S657.94,437.66,660.37,456.63Z" transform="translate(-602.21 -279.41)"/><path class="cls-1" d="M656,450.15c-6.93,4.23-13.71,6.68-17.43,2.36s-4.79-12.93.26-21.68c5.23-10.16,10.31-18.94,16.76-20.35,3.4-.74,6.9.34,12.1,4.3a28.79,28.79,0,0,1,4.9,5.45C681.27,430.82,672.2,440.28,656,450.15Z" transform="translate(-602.21 -279.41)"/><path class="cls-2" d="M659.35,448.23a.27.27,0,0,0,.06-.12c14-9.11,21.23-18,13.2-27.78a28.49,28.49,0,0,0-4.9-5.45,29.48,29.48,0,0,0-5.38-3.38c.8.52,1.64,1.11,2.53,1.78,2.26,1.71,3.63,3.88,5,5.54,8.28,10.07,1.11,19.45-12.86,29.23a8.45,8.45,0,0,1-1.59,0,10.71,10.71,0,0,1-4.14-1.14c-.07,0-.15.06-.08.11a7.21,7.21,0,0,0,3.93,1.86,11,11,0,0,0,1.14.11,8.66,8.66,0,0,0-1,.31,4.69,4.69,0,0,0-2,1.3.07.07,0,0,0,.07.12c.74-.26,1.47-.57,2.21-.81.45-.15.93-.22,1.39-.34a65.3,65.3,0,0,1,1.41,7.18,27.26,27.26,0,0,0,4,10.32c.32.27.66.56,1,.9-.23.26-.4.6-.62.86a5.06,5.06,0,0,1-1.27,1.08,7.57,7.57,0,0,1-3.33.91.14.14,0,0,0,0,.27,4.43,4.43,0,0,0,3.81-.42,5.74,5.74,0,0,0,2-1.84c.54,1.39.13,3.51.12,4.41,0,3-3.59,8.17-.76,13.85a3.34,3.34,0,0,1,.51,2.21l.15,0c1.35-.55,1.6-1.36.7-3.19-2.71-5.54.94-10.43,1-13.35,0-1.07.72-3.92-.56-5.06-.39-.35-.73-.65-1.05-.92a25.56,25.56,0,0,1-3.79-10,57.86,57.86,0,0,0-1.57-8.09A1.88,1.88,0,0,0,659.35,448.23Z" transform="translate(-602.21 -279.41)"/><path class="cls-12" d="M720.72,405.49c0-.18-.6-2.68-.7-3.33s-3,.83-16.79,2.22a9.76,9.76,0,0,0-3.79.83,2.64,2.64,0,0,0-1,3c.33,1.34,1.49,2,3.11,2.21a27.3,27.3,0,0,0,6.32-.3c2.47-.29,4.91-.66,7.36-1a46.78,46.78,0,0,0,5.51-1.08C721.34,407.69,720.88,407,720.72,405.49Z" transform="translate(-602.21 -279.41)"/><path class="cls-12" d="M651.81,404.91c0-.19.63-2.68.73-3.33s3,.86,16.77,2.36a9.87,9.87,0,0,1,3.78.86,2.64,2.64,0,0,1,1,3c-.34,1.33-1.51,2-3.12,2.18a27.27,27.27,0,0,1-6.32-.35c-2.47-.31-4.91-.7-7.36-1.1a44.53,44.53,0,0,1-5.5-1.13C651.18,407.1,651.64,406.37,651.81,404.91Z" transform="translate(-602.21 -279.41)"/><path class="cls-3" d="M656.24,410.85a10.87,10.87,0,0,0-3.39,2.1c-1.09.86-2.13,1.78-3.13,2.74a44.86,44.86,0,0,0-5.47,6.37,50.41,50.41,0,0,0-7.41,15.05,18.88,18.88,0,0,0-.9,4.7,6.09,6.09,0,0,0,.38,2.15,7.18,7.18,0,0,0,1.21,2c.25.33.78.05.57-.33-.65-1.2-.44-2.75-.37-4.06a17.62,17.62,0,0,1,.79-3.87,48,48,0,0,1,2.85-7.43,52.33,52.33,0,0,1,8.86-12.89c1-1.1,2.09-2.17,3.19-3.19.52-.49,1.06-.95,1.55-1.46a11.19,11.19,0,0,0,1.52-1.56A.22.22,0,0,0,656.24,410.85Z" transform="translate(-602.21 -279.41)"/><path class="cls-3" d="M655.37,471.36c-.22-.76-1.4-1.12-2-1.44a27.09,27.09,0,0,1-2.58-1.45,29.76,29.76,0,0,1-4.69-3.67,28.63,28.63,0,0,1-6.68-9.74c-.42-1-.79-2.05-1.12-3.09a26.78,26.78,0,0,0-1-3.08c-.07-.15-.27-.05-.28.08a9,9,0,0,0,.3,2.91,23.09,23.09,0,0,0,.84,2.95,28.31,28.31,0,0,0,2.72,5.52,29.83,29.83,0,0,0,8.43,8.83,29.49,29.49,0,0,0,2.92,1.73c.75.38,2.16,1.28,3,.78A.32.32,0,0,0,655.37,471.36Z" transform="translate(-602.21 -279.41)"/><path class="cls-3" d="M654.33,474.27a6.76,6.76,0,0,0-1.33,2.21,4,4,0,0,0-.35,2.57.28.28,0,0,0,.51.06,6.85,6.85,0,0,0,.76-2.23c.23-.81.51-1.61.7-2.44A.18.18,0,0,0,654.33,474.27Z" transform="translate(-602.21 -279.41)"/><path class="cls-3" d="M693,460.67a.16.16,0,0,0-.25,0,4.55,4.55,0,0,0-.68,1.84c-.2.79-.38,1.58-.58,2.38s-.38,1.49-.49,2.25a6.88,6.88,0,0,0-.16,2.21.29.29,0,0,0,.48.13,6,6,0,0,0,.87-1.86,13.67,13.67,0,0,0,.59-2.53c.13-.76.24-1.53.31-2.3A4.29,4.29,0,0,0,693,460.67Z" transform="translate(-602.21 -279.41)"/><path class="cls-3" d="M704.55,442.2a18.25,18.25,0,0,0-2.21-3A38.42,38.42,0,0,1,700,436.1a20.45,20.45,0,0,1-3.48-7.29c-.49-2.7.68-5.42,2.17-7.62a17.72,17.72,0,0,1,2.36-2.83c.43-.42.88-.82,1.32-1.22s1-1,1.54-1.43a.07.07,0,0,0-.07-.12c-.49.21-1,.32-1.47.57A9.41,9.41,0,0,0,701,417a16.61,16.61,0,0,0-5.51,7.6c-1.48,4.53,1,9,3.5,12.65,1.33,1.94,3,4.31,5.19,5.31A.26.26,0,0,0,704.55,442.2Z" transform="translate(-602.21 -279.41)"/><path class="cls-2" d="M646.33,448.22a26,26,0,0,1-3.83.4,9.36,9.36,0,0,1-2-.34,12,12,0,0,1-2.06-.65.1.1,0,0,0-.11.15,5.46,5.46,0,0,0,1.77,1.46,7.12,7.12,0,0,0,2.13.55,5,5,0,0,0,4.22-1.16C646.62,448.49,646.54,448.2,646.33,448.22Z" transform="translate(-602.21 -279.41)"/><path class="cls-2" d="M715,445.4a9.26,9.26,0,0,0-4.53-.18,9.74,9.74,0,0,0-3.7,1.22,10,10,0,0,1,2.06-1.8,8.21,8.21,0,0,1,1.7-.79,15.59,15.59,0,0,0,1.51-.48.22.22,0,0,0,0-.41,5,5,0,0,0-3.65,1.06,5.53,5.53,0,0,0-2.33,3,.12.12,0,0,0,.2.11l.07-.08a.2.2,0,0,0,.17.06c1.39-.26,2.68-.87,4.1-1.09a42.85,42.85,0,0,1,4.39-.18A.21.21,0,0,0,715,445.4Z" transform="translate(-602.21 -279.41)"/><path class="cls-3" d="M705.45,451.31a5.51,5.51,0,0,0-1.68,1.44c-.56.59-1.15,1.15-1.75,1.71-1.22,1.11-2.65,2-3.79,3.24a.16.16,0,0,0,.16.27,12.55,12.55,0,0,0,4.18-2.6,24.15,24.15,0,0,0,1.88-1.77,4.46,4.46,0,0,0,1.33-2C705.82,451.47,705.66,451.23,705.45,451.31Z" transform="translate(-602.21 -279.41)"/><path class="cls-1" d="M614.82,334.92a1.09,1.09,0,0,1,1.2.08,5.84,5.84,0,0,1,1.38,1.2c.83.9,1.51,1.94,2.31,2.87l0,.06a9.37,9.37,0,0,0-.33-1.1c-.24-.69-.5-1.38-.75-2.07s-.51-1.48-.73-2.25a9,9,0,0,1-.37-2,1.86,1.86,0,0,1,.36-1.34.88.88,0,0,1,1.09-.13,3.73,3.73,0,0,1,1.2,1.14,15.59,15.59,0,0,1,1.16,1.82c.35.62.68,1.26,1,1.89.15.3.3.6.46.89a15.07,15.07,0,0,1-.09-4.14,7.94,7.94,0,0,1,.38-1.79c.11-.32.3-.76.62-.89s.68.18.86.43a6.09,6.09,0,0,1,.73,1.62c.46,1.35.81,2.74,1.2,4.11.2.69.4,1.37.62,2a11.12,11.12,0,0,0,.64,1.6,3,3,0,0,0,.3.5l.08.09.07.06a.26.26,0,0,0,.14.09.35.35,0,0,0,.13,0,.18.18,0,0,0,.16-.1,7.92,7.92,0,0,0,.63-1.23c.69-1.66,1.19-3.76,2.92-4.54a1,1,0,0,1,1.43.39,3.46,3.46,0,0,1,.29,1.93,7.07,7.07,0,0,1-.16,1.11c-.08.4-.22.8-.34,1.2a23.29,23.29,0,0,0-.69,3.17c-.34,2.11,1.65,6.18,0,7.86-.37.36-8.68,4.77-9.86,4.39-2.81-.9-4.22-4.14-5.18-5-.46-.41-2.53-3.67-3.38-5a6.34,6.34,0,0,1-.85-1.73,1.12,1.12,0,0,1,.23-1.19c.41-.31.92,0,1.25.18a14.17,14.17,0,0,1,1.42,1.14,5.92,5.92,0,0,0,.59.46,1.22,1.22,0,0,0,.24.11l.08,0h.09c.14,0,.16-.21.14-.33a3.09,3.09,0,0,0-.25-.66c-.31-.63-.69-1.21-1-1.8s-.84-1.34-1.2-2a5.25,5.25,0,0,1-.68-1.87A1.39,1.39,0,0,1,614.82,334.92Z" transform="translate(-602.21 -279.41)"/><path class="cls-2" d="M751.19,347.13a5.5,5.5,0,0,0-1.48-.89,8.63,8.63,0,0,1-1.53-1.15,9.3,9.3,0,0,1-1.17-1.42c-.33-.51-.55-1.08-.91-1.56-.13-.18-.37,0-.39.15-.11,1.31.91,2.75,1.78,3.63a7.36,7.36,0,0,0,1.66,1.28,2.72,2.72,0,0,0,1.89.48A.32.32,0,0,0,751.19,347.13Z" transform="translate(-602.21 -279.41)"/><path class="cls-2" d="M755.44,346.31c-.14-.1-.27-.17-.39-.25l-2.69-14c0-.29,0-.58,0-.86a13,13,0,0,0-1.26-6.54.19.19,0,0,0-.35.09c0,1.29.25,2.55.31,3.84a26.25,26.25,0,0,1-.12,3.76,11.72,11.72,0,0,0,0,3.69c.26,1.19.68,2.29.86,3.5a47,47,0,0,0,.87,5.67c.3,1.09,1.55,3.19,2.89,1.93A.51.51,0,0,0,755.44,346.31Z" transform="translate(-602.21 -279.41)"/><path class="cls-13" d="M746.28,290.65c-5.64,2.29-7.28,9.43-6.16,14.89,1.17,5.7,5.14,10.28,8.17,15.08a26.66,26.66,0,0,1,3.6,7.79,11.68,11.68,0,0,1,.26,1.59c.08.77.15,1.54.22,2.31A123.74,123.74,0,0,0,753.86,345c.08.39.16.79.25,1.19A10.93,10.93,0,0,0,756,352.3a2.77,2.77,0,0,0,2.42,1.21,3.85,3.85,0,0,0,2.83-2.05,8.74,8.74,0,0,0,.62-4.24,28.24,28.24,0,0,0-.59-4.39c-.77-3.75-2.1-7.36-2.91-11.1a18.55,18.55,0,0,1,0-9.56c.9-3,2.53-5.63,3.51-8.56a19.88,19.88,0,0,0,.8-8.93,21.61,21.61,0,0,0-3-8.88C756.91,291.53,751.32,288.61,746.28,290.65Z" transform="translate(-602.21 -279.41)"/><path class="cls-14" d="M759.54,310.56a18.41,18.41,0,0,0-4.06-.2,19.51,19.51,0,0,0-8.36,2.27,14.15,14.15,0,0,0-2.28,1.56c-.18.15-.36.31-.53.48.25.39.51.77.77,1.16l.52-.43a15.8,15.8,0,0,1,1.8-1.22,16.76,16.76,0,0,1,4.11-1.62,19.37,19.37,0,0,1,7.31-.47,10.63,10.63,0,0,1,2,.45,7.14,7.14,0,0,1,.9.38l.33.16c.16-.52.29-1.06.41-1.59a7.47,7.47,0,0,0-.87-.39A11.36,11.36,0,0,0,759.54,310.56Z" transform="translate(-602.21 -279.41)"/><path class="cls-15" d="M755.92,304.27A20.45,20.45,0,0,0,745.74,307a21.08,21.08,0,0,0-2.7,1.89c-.41.34-.8.71-1.18,1.09-.05,0-.11.1-.16.16.17.35.34.7.53,1.05l.46-.42c.39-.33.79-.65,1.19-1a17.12,17.12,0,0,1,2.06-1.42,20.22,20.22,0,0,1,5-2.06,19.58,19.58,0,0,1,9.44-.13,13.53,13.53,0,0,1,2.54.85c0-.55,0-1.11-.11-1.66a17.83,17.83,0,0,0-1.76-.53A21.33,21.33,0,0,0,755.92,304.27Z" transform="translate(-602.21 -279.41)"/><path class="cls-8" d="M743.94,310.73a.55.55,0,0,0-.23.2l-.11.19a.59.59,0,0,0-.05.32.34.34,0,0,0,0,.2.6.6,0,0,0,.13.28l.15.15.19.11a.67.67,0,0,0,.31.05.78.78,0,0,0,.22,0h0A.82.82,0,0,0,745,312a1,1,0,0,0,.23-.36.89.89,0,0,0,0-.43.82.82,0,0,0-1.28-.49Z" transform="translate(-602.21 -279.41)"/><path class="cls-8" d="M747.07,308.91l-.66.25a.86.86,0,0,0-.21.29.32.32,0,0,0-.08.21.32.32,0,0,0,0,.19.84.84,0,0,0,.1.44.72.72,0,0,0,.21.25.66.66,0,0,0,.28.17,1,1,0,0,0,.45,0,.88.88,0,0,0,.44-.23h0l.05,0,0,0a.67.67,0,0,0,.19-.28.44.44,0,0,0,.07-.22.6.6,0,0,0,0-.35l-.08-.22-.14-.19a.67.67,0,0,0-.28-.19A.73.73,0,0,0,747.07,308.91Z" transform="translate(-602.21 -279.41)"/><path class="cls-8" d="M750.93,307.73a1,1,0,0,0-.46-.07l-.24.06a1,1,0,0,0-.38.29l0,0v0h0a3,3,0,0,0-.19.3.73.73,0,0,0-.07.29.85.85,0,0,0,.72,1,.61.61,0,0,0,.33,0,.69.69,0,0,0,.3-.14.93.93,0,0,0,.14-.14s.08,0,.15-.06h0v0l0,0,0-.05a.67.67,0,0,0,.15-.32.65.65,0,0,0,0-.34.73.73,0,0,0-.12-.35.64.64,0,0,0-.22-.27Z" transform="translate(-602.21 -279.41)"/><path class="cls-8" d="M752.55,307.81a.87.87,0,0,0,.17.42.68.68,0,0,0,.26.22.72.72,0,0,0,.32.11h.06a.94.94,0,0,0,.41,0,.77.77,0,0,0,.31-.19.71.71,0,0,0,.21-.27.68.68,0,0,0,.08-.34.61.61,0,0,0,0-.35.93.93,0,0,0-.26-.39h-1.19A.9.9,0,0,0,752.55,307.81Zm1.13.72h0Zm.13,0,0,0,.06,0Z" transform="translate(-602.21 -279.41)"/><path class="cls-8" d="M757.59,307.89a.86.86,0,0,0-.37-.59.68.68,0,0,0-.31-.14.84.84,0,0,0-.47,0l-.34.18a.75.75,0,0,0-.22.25.91.91,0,0,0-.15.35.79.79,0,0,0,.24.73,1,1,0,0,0,1.41-.05A.84.84,0,0,0,757.59,307.89Z" transform="translate(-602.21 -279.41)"/><path class="cls-8" d="M759.77,307.91a.92.92,0,0,0-.63.3l-.1.11a.93.93,0,0,0,0,1.26l.15.12a.57.57,0,0,0,.68,0c.46-.11.38,0,.55-.18l.08-.08a.9.9,0,0,0-.71-1.5Z" transform="translate(-602.21 -279.41)"/><path class="cls-8" d="M747.67,314.71a3.51,3.51,0,0,0-.88.79c-.21.28-.13.53-.27.81a.18.18,0,0,0,.27.23c.17-.13.32-.06.51-.14a6.27,6.27,0,0,0,.87-.58,3.1,3.1,0,0,1,1.63-.56c.83,0,.92-1.32.1-1.29A4.15,4.15,0,0,0,747.67,314.71Z" transform="translate(-602.21 -279.41)"/><path class="cls-8" d="M751.54,313.75a.22.22,0,0,0,.08.3,1.91,1.91,0,0,0,1.39.16l1.32-.21a.62.62,0,0,0-.11-1.22A3.34,3.34,0,0,0,751.54,313.75Z" transform="translate(-602.21 -279.41)"/><path class="cls-8" d="M758.68,312.91c-.25-.49-1.08-.47-1.56-.4s-1.06.29-1.14.8a.26.26,0,0,0,.14.29,1.65,1.65,0,0,0,.91.12,6,6,0,0,1,.74.06,1,1,0,0,0,.64,0A.63.63,0,0,0,758.68,312.91Z" transform="translate(-602.21 -279.41)"/><path class="cls-8" d="M760.67,313.1a.65.65,0,0,0-.23-.06,1,1,0,0,0-.74.18.83.83,0,0,0-.34.46c0,.15,0,.43.13.51.36.12.57.19.64.2a.71.71,0,0,0,.92-.16.66.66,0,0,0,.15-.51c0-.15-.1-.41-.26-.48S760.77,313.13,760.67,313.1Z" transform="translate(-602.21 -279.41)"/><path class="cls-8" d="M761.14,301.17a1.91,1.91,0,0,0-1.17-1.56,2.13,2.13,0,0,0-2.32.41,4,4,0,0,0-.7,1.55,2.18,2.18,0,0,1-.11.27l0,.05h-.11c-.14-.06-.18-.06-.25-.17-.39-.53-.31-1.29-.93-1.75a1.86,1.86,0,0,0-2.13.14,3.71,3.71,0,0,0-1,1.75c-.17.43-.51.78-1,.46s-.58-.82-1-1.11a1.34,1.34,0,0,0-1.66.2,2.64,2.64,0,0,0-1,1.84,6.16,6.16,0,0,1-.08.67c0,.18,0,.16-.3.16a1.54,1.54,0,0,1-1.27-.69,1.14,1.14,0,0,0-1.34-.42,2.8,2.8,0,0,0-1.15,1.79,5.06,5.06,0,0,0-.09,1c0,.17,0,.59-.12.69s-.76,0-.93-.13c-.33-.2-.48-.67-.73-1a1.35,1.35,0,0,0-1.71-.27c0,.14.05.28.08.41s.11.5.17.74a.78.78,0,0,1,.2-.16c.44-.23.53.38.73.68a1.92,1.92,0,0,0,1,.81,2,2,0,0,0,2.18-.29,2.54,2.54,0,0,0,.43-1.66,2.32,2.32,0,0,1,.1-.74,3.06,3.06,0,0,1,.29-.57c.12.13.23.26.36.38.88.81,2.86,1.09,3.33-.3.17-.49.05-1.07.27-1.54a1.77,1.77,0,0,1,.54-.55l0,.06a4.4,4.4,0,0,0,1.12,1.16,2,2,0,0,0,2.11-.18,4,4,0,0,0,.94-1.69.84.84,0,0,1,.39-.51.9.9,0,0,1,.34-.06l0,.07c.3.52.31,1.11.73,1.58a1.84,1.84,0,0,0,1.82.52,2,2,0,0,0,1.16-1.51,4.14,4.14,0,0,1,.27-.69c.08-.13.24-.17.51-.14s.38.12.42.25a5.63,5.63,0,0,1,.12.75,2.73,2.73,0,0,0,1.07,1.94.76.76,0,0,0,.91-.11,3,3,0,0,1,.76-.53c-.09-.5-.19-1-.31-1.49a4.63,4.63,0,0,0-.86.44A6.33,6.33,0,0,1,761.14,301.17Zm-16.11,3h0C744.84,304.12,745.05,304.1,745,304.14Zm.31,0h0C745.34,304,745.39,304.17,745.34,304.15Zm4.32-1.86h0Zm.09,0Zm7-.39Zm0,0h0Z" transform="translate(-602.21 -279.41)"/><path class="cls-16" d="M741.49,301v0Z" transform="translate(-602.21 -279.41)"/><path class="cls-16" d="M741.93,300.32a.64.64,0,0,0-.41.39c0,.05,0,.41,0,.31,0,.2,0,.41,0,.62a7.22,7.22,0,0,0,.06.92,2.28,2.28,0,0,0,.15.57c.06.12.17.18.24.28a.36.36,0,0,0,.65-.1c0,.17.12-.25.13-.3a5.26,5.26,0,0,0,0-.89c0-.24,0-.48,0-.73C742.81,300.88,742.68,300.08,741.93,300.32Z" transform="translate(-602.21 -279.41)"/><path class="cls-16" d="M745.27,298.93a.68.68,0,0,0-.36.88,13.89,13.89,0,0,1,.65,1.77c.18.41.86.49,1,0a3.7,3.7,0,0,0-.37-2.26A.68.68,0,0,0,745.27,298.93Z" transform="translate(-602.21 -279.41)"/><path class="cls-16" d="M749.38,298.4a2.61,2.61,0,0,1,.74,1.3,1.38,1.38,0,0,0,.79.95.18.18,0,0,0,.2-.06,2.34,2.34,0,0,0,.06-1.89,2,2,0,0,0-1.06-1.4C749.5,297,748.88,298,749.38,298.4Z" transform="translate(-602.21 -279.41)"/><path class="cls-16" d="M753.64,296.68a3.69,3.69,0,0,1,1,1.64.67.67,0,0,0,1.26-.43,3.19,3.19,0,0,0-1.57-2C753.9,295.6,753.27,296.26,753.64,296.68Z" transform="translate(-602.21 -279.41)"/><path class="cls-16" d="M757.42,296.26a6.07,6.07,0,0,1,1.19,1.76c.43.83,1.68,0,1.22-.8a4,4,0,0,0-1.83-2A.61.61,0,0,0,757.42,296.26Z" transform="translate(-602.21 -279.41)"/><path class="cls-17" d="M759.43,316.91a1.89,1.89,0,0,0-1-1.49.51.51,0,0,0-.63.06c-.32.35-1.2,2.16-1.86,1.73-.08,0-.07-.17-.06-.33a6.31,6.31,0,0,0,0-1,1.32,1.32,0,0,0-1.41-1.18c-.82.1-.87,1.09-1,1.72a1.31,1.31,0,0,1-.12.47c0,.07-.42.48-.59.51s-.19-.12-.31-.25a5.25,5.25,0,0,0-.58-.49v0a.9.9,0,0,0,0-.16.92.92,0,0,0-.34-.5,1.09,1.09,0,0,0-1.22.11c-.36.31-.31.8-.57,1.16a1.85,1.85,0,0,0-.37.93c0,.29,0,.36-.39.33s-.27-.09-.34-.3-.21-.74-.58-.94a1.37,1.37,0,0,0-1.37.22,1.33,1.33,0,0,0-.28.3l.54.81c.13-.32.36-.76.63-.49s.17.56.29.77a1.08,1.08,0,0,0,.83.55,1.62,1.62,0,0,0,1.2-.22c.29-.26.27-.58.31-.93s.28-.54.42-.88c.06-.16.07-.36.14-.52.17-.35.23-.09.29.11s.31.37.56.56.33.39.54.56c.67.53,1.57-.05,2-.65a2.18,2.18,0,0,0,.32-1c0-.16,0-.32.09-.48a1.34,1.34,0,0,0,.07-.27s0,0,0,0c.48.15.18.89.18,1.27a1.22,1.22,0,0,0,1.48,1.26c.95-.09,1.39-1,1.91-1.67a1.86,1.86,0,0,1,.21,1,1.89,1.89,0,0,0,.93,1.53l.15.07.69-1.54a6.65,6.65,0,0,0-.56.36A2,2,0,0,1,759.43,316.91Zm-7.58-.25h0Zm2.82-1c0-.07.09,0,0,0Z" transform="translate(-602.21 -279.41)"/><path class="cls-18" d="M743.19,297.57a9.42,9.42,0,0,0,.75-1.35,4.17,4.17,0,0,0,1.17,1.82.5.5,0,0,0,.6,0,4.88,4.88,0,0,0,1.85-2.17,15.06,15.06,0,0,0,.57-1.72c.82,1.37,1.78,3.51,3.44,2.46a4,4,0,0,0,1.48-3.26c.41.29.82.6,1.24.86.72.45,1.79,1.13,2.66.7a1.49,1.49,0,0,0,.69-1.61A12.92,12.92,0,0,0,756,292l0,.06a3.26,3.26,0,0,1,.48,1.23,1.64,1.64,0,0,1,0,.54.22.22,0,0,1,0,.08,1.31,1.31,0,0,1-.69-.16,8.92,8.92,0,0,1-1.17-.65,22.86,22.86,0,0,0-2.47-1.57c-.54-.26-1.06.57-.55.91s.45,1.35.29,1.94-.43,1.39-1,1.5-1.05-.82-1.28-1.2a11.86,11.86,0,0,0-1.26-1.93.5.5,0,0,0-.82.23c-.27.77-.44,1.57-.74,2.33a3.94,3.94,0,0,1-1.24,1.7,3.46,3.46,0,0,1-.81-2.47.5.5,0,0,0-.94-.31c-.33.57-1.85,4.17-2.8,3.5a1.1,1.1,0,0,1-.37-.58,13.92,13.92,0,0,0-.4,1.44,1.47,1.47,0,0,0,.91.38A2.66,2.66,0,0,0,743.19,297.57Z" transform="translate(-602.21 -279.41)"/><path class="cls-19" d="M753.91,321.15a19.07,19.07,0,0,0-4.29,1l-.33.13.63,1.14a17.1,17.1,0,0,1,4.1-.94,19.22,19.22,0,0,1,4.29,0c0-.08.05-.17.08-.26.11-.36.23-.72.36-1.07A19.1,19.1,0,0,0,753.91,321.15Z" transform="translate(-602.21 -279.41)"/><path class="cls-19" d="M754.62,323.45a16.65,16.65,0,0,0-3.77.6l-.52.16.39.84c.2-.07.4-.12.57-.17a14.26,14.26,0,0,1,3.63-.3c1,0,2,.09,2.94.17,0-.4.1-.79.18-1.19A23,23,0,0,0,754.62,323.45Z" transform="translate(-602.21 -279.41)"/><path class="cls-19" d="M751.29,324.88c-.17.05-.37.1-.57.17.14.32.28.65.4,1a9.9,9.9,0,0,1,1.21-.22,19.6,19.6,0,0,1,3.34,0c.7,0,1.4.1,2.09.17,0-.4,0-.8.1-1.2-1-.08-2-.16-2.94-.17A14.26,14.26,0,0,0,751.29,324.88Z" transform="translate(-602.21 -279.41)"/><path class="cls-14" d="M742.28,295.91c.28-.32.2-.68.31-1.07a5,5,0,0,1,.39-1c.39-.74.95-1.36,1.31-2.11a10.07,10.07,0,0,0-2.89,3.46.89.89,0,0,0,.24.69A.45.45,0,0,0,742.28,295.91Z" transform="translate(-602.21 -279.41)"/><path class="cls-14" d="M745.1,294.49c0,.61.94.69,1,.08s0-1.52,0-2.27a7.71,7.71,0,0,0-.17-1.46c-.3.15-.6.31-.88.48a10.29,10.29,0,0,1,.14,1.06A18.57,18.57,0,0,1,745.1,294.49Z" transform="translate(-602.21 -279.41)"/><path class="cls-14" d="M749.72,293.38a.59.59,0,0,0,1.14-.3,6.37,6.37,0,0,0-1.5-2.59c-.07-.07-.26-.26-.49-.46a9.08,9.08,0,0,0-1.13.17,9.93,9.93,0,0,1,.86,1A6.79,6.79,0,0,1,749.72,293.38Z" transform="translate(-602.21 -279.41)"/><path class="cls-14" d="M754,292.22c.5.61,1.48-.14,1-.72l-.15-.17a11.52,11.52,0,0,0-3.71-1.24A8.58,8.58,0,0,1,754,292.22Z" transform="translate(-602.21 -279.41)"/><path class="cls-20" d="M746.3,290.64a12.81,12.81,0,0,1,9.49,5.45,21.7,21.7,0,0,1,3.3,8.77,19.78,19.78,0,0,1-.49,8.95c-.86,3-2.4,5.7-3.2,8.69a18.65,18.65,0,0,0,.32,9.55c.94,3.71,2.4,7.27,3.31,11a26.84,26.84,0,0,1,.74,4.36,8.73,8.73,0,0,1-.46,4.27,4,4,0,0,1-1.69,1.78,2.31,2.31,0,0,0,.79.06,3.85,3.85,0,0,0,2.83-2.05,8.74,8.74,0,0,0,.62-4.24,28.24,28.24,0,0,0-.59-4.39c-.77-3.75-2.1-7.36-2.91-11.1a18.55,18.55,0,0,1,0-9.56c.9-3,2.53-5.63,3.51-8.56a19.88,19.88,0,0,0,.8-8.93,21.61,21.61,0,0,0-3-8.88C756.91,291.54,751.33,288.62,746.3,290.64Z" transform="translate(-602.21 -279.41)"/><path class="cls-21" d="M746.34,292.55a2.15,2.15,0,0,0-2.53.95,5.91,5.91,0,0,0-.46.76,11.72,11.72,0,0,0-2.12,4.58,13,13,0,0,0-.73,5.25c.37,3.36,2.1,6.52,4,9.28,1.14,1.71,2.11,3.67,3.68,5a.57.57,0,0,0,.94-.45,9.46,9.46,0,0,0-1-3.78,22,22,0,0,1-1.27-4.06,13.49,13.49,0,0,1,0-6.94,33.71,33.71,0,0,0,1.66-5.61C748.79,295.67,748.32,293.36,746.34,292.55Z" transform="translate(-602.21 -279.41)"/><g class="cls-22"><path class="cls-8" d="M752.93,332.33c.36,1.67.59,3.36.81,5.05s.51,3.3.74,4.95a61.68,61.68,0,0,0,.86,6.65c.2.77.7,2.52,1.8,2.38.23,0,.47-.34.28-.56s-.27-.32-.38-.47l-1.31-6.62v0c-.21-1.94-.58-3.86-.85-5.79s-.51-3.94-.93-5.89C753.79,331.31,752.79,331.67,752.93,332.33Z" transform="translate(-602.21 -279.41)"/><path class="cls-8" d="M749.79,321.91a36.1,36.1,0,0,1,2.84,6.76.26.26,0,0,0,.5-.07,9.44,9.44,0,0,0-.18-1.91,16.3,16.3,0,0,0-.58-1.92,21.92,21.92,0,0,0-1.54-3.38A.58.58,0,0,0,749.79,321.91Z" transform="translate(-602.21 -279.41)"/></g><path class="cls-1" d="M758.21,344a3.61,3.61,0,0,1-1.89-.31,1.5,1.5,0,0,1-.33-2c-1.79.3-2.57-1.85-1.88-3-2.12.91-2.32-2.23-1.36-3.42-1.22.58-2-1.52-1.51-2.62a9.12,9.12,0,0,1,1.73-2.32,9.6,9.6,0,0,1,2-1.55c2.15-1.25,4.84-1.51,5.38-.42.8,1.6.51,2.08-.16,2.58a2,2,0,0,1,.57-.13.47.47,0,0,1,.31,0c.94.23,1.32,1.61,1.11,2.4a2.31,2.31,0,0,1-.31.7,4.28,4.28,0,0,1-.48.64l-.28.32-.1.11a2.06,2.06,0,0,1,.49-.25,1.2,1.2,0,0,1,.65,0,1.77,1.77,0,0,1,1.13,2.46,3.18,3.18,0,0,1-.43.67c-.12.13-.24.26-.37.38a.92.92,0,0,1,.28.14l0,0a1.38,1.38,0,0,1,.32.4,1.63,1.63,0,0,1,.21.53,2.56,2.56,0,0,1,0,.73,2.72,2.72,0,0,1-.21.79,3.88,3.88,0,0,1-.38.69C761.32,342.77,760,343.88,758.21,344Z" transform="translate(-602.21 -279.41)"/><path class="cls-2" d="M762.88,340.5A21.45,21.45,0,0,0,761,342a14.25,14.25,0,0,1-2.28,1.46s0,.11,0,.09c1.51-.59,3.5-1.48,4.35-2.93C763.13,340.54,763,340.45,762.88,340.5Z" transform="translate(-602.21 -279.41)"/><path class="cls-2" d="M763,336.77a14.26,14.26,0,0,0-1.51,1.41,13.84,13.84,0,0,1-1.76,1.08.09.09,0,0,0,.06.17c1.21-.19,3.14-1.23,3.4-2.54C763.22,336.78,763.09,336.72,763,336.77Z" transform="translate(-602.21 -279.41)"/><path class="cls-2" d="M761.81,332.65a8.17,8.17,0,0,0-.84,1.29,6.76,6.76,0,0,1-1.36,1.19s0,.07,0,.07a2.54,2.54,0,0,0,1.64-.76c.42-.38,1-1,.84-1.65C762.09,332.67,761.93,332.55,761.81,332.65Z" transform="translate(-602.21 -279.41)"/><path class="cls-2" d="M760.48,329.5c-.45.3-.67.83-1.07,1.19a4.1,4.1,0,0,1-1.61.91c-.09,0,0,.14,0,.14a3.08,3.08,0,0,0,1.95-.59c.48-.35,1-.89,1-1.53A.16.16,0,0,0,760.48,329.5Z" transform="translate(-602.21 -279.41)"/><path class="cls-23" d="M638,317.72a7.47,7.47,0,0,0-3.46-1,3,3,0,0,0,0-2.92.52.52,0,0,0-.57-.24,5.53,5.53,0,0,0-3.15,2,5.26,5.26,0,0,0-4.22-.79,4.9,4.9,0,0,0-3.41,3.19,5,5,0,0,0-.26,1.28,6.78,6.78,0,0,0-4.28-2.1,4.34,4.34,0,0,0-4.42,2.62,3.6,3.6,0,0,0-.23,1.75,5.48,5.48,0,0,0-4-.22,4.71,4.71,0,0,0-3,3.69,4.16,4.16,0,0,0,0,1.27,7.68,7.68,0,0,1,.31,1.21c0,.41-.72.56-1,.7a7.64,7.64,0,0,0-1.17.69,5.54,5.54,0,0,0-2.54,4.64,4.27,4.27,0,0,0,1.78,3.26,3.28,3.28,0,0,0-.67.35,3.46,3.46,0,0,0-1.33,2.66c-.12,1.81,1.18,4.14,3.28,3.83a3,3,0,0,0,1.12-.42,7,7,0,0,0,.76,4.39,4.82,4.82,0,0,0,2.45,2.3,3.31,3.31,0,0,0,2.78-.2,3.11,3.11,0,0,0,.72-.53,6.36,6.36,0,0,0,.32,1,5.52,5.52,0,0,0,1.79,2.44,2,2,0,0,0,2.7-.26,3.56,3.56,0,0,0,.75-2.75,9.87,9.87,0,0,0,6-1.55,9.45,9.45,0,0,0,2.48-2.28c.35-.46.6-1.09,1.12-1.38.3-.16.62-.27.91-.43a5.07,5.07,0,0,0,.87-.58,10.07,10.07,0,0,0,2.43-3.37,3.54,3.54,0,0,0,3.72-.08,3.34,3.34,0,0,0,1.57-1.8,2.33,2.33,0,0,0-.76-2.37,4.71,4.71,0,0,0-2.45-1,3.71,3.71,0,0,0-.62-1.39,3.21,3.21,0,0,0,.55-3.63c2.9-.32,5.9-1.44,7.15-4.28a4.85,4.85,0,0,0-.22-4.46A9.19,9.19,0,0,0,638,317.72ZM625.5,341.56c-4.48,4-10.89,4-14.32.17s-2.59-10.23,1.89-14.19,10.89-4.05,14.32-.17S630,337.6,625.5,341.56Z" transform="translate(-602.21 -279.41)"/><path class="cls-24" d="M616.92,317.79a10.73,10.73,0,0,1,5.5,2.56c0-.43.32-.73.46-1.14l-1.25-1a6.11,6.11,0,0,0-3-1.07,4.8,4.8,0,0,0-2.91.75A5.06,5.06,0,0,1,616.92,317.79Z" transform="translate(-602.21 -279.41)"/><path class="cls-24" d="M611.36,350c.11,0,.23,0,.34-.06a1.33,1.33,0,0,1-.05-.19A3.47,3.47,0,0,1,611.36,350Z" transform="translate(-602.21 -279.41)"/><path class="cls-24" d="M611.18,341.73c-3.43-3.87-2.59-10.23,1.89-14.19a12,12,0,0,1,2.73-1.84,12,12,0,0,0-4.41,2.51c-4.47,4-5.32,10.32-1.89,14.19,2.78,3.14,7.51,3.69,11.59,1.68A9.33,9.33,0,0,1,611.18,341.73Z" transform="translate(-602.21 -279.41)"/><path class="cls-24" d="M630.47,316.53l.3-1a5.61,5.61,0,0,0-4.22-.79,4.3,4.3,0,0,0-1.42.62A9.39,9.39,0,0,1,630.47,316.53Z" transform="translate(-602.21 -279.41)"/><path class="cls-24" d="M634.75,329.72a4.79,4.79,0,0,1-1.68,3.3,9.89,9.89,0,0,1,1,2.26,2.33,2.33,0,0,1,1.67.81,2.83,2.83,0,0,1,.56,2.69,3.16,3.16,0,0,1-1.32,1.65,4.29,4.29,0,0,0,1.43-.52,3.34,3.34,0,0,0,1.57-1.8,2.33,2.33,0,0,0-.76-2.37,4.71,4.71,0,0,0-2.45-1,3.71,3.71,0,0,0-.62-1.39A3.18,3.18,0,0,0,634.75,329.72Z" transform="translate(-602.21 -279.41)"/><path class="cls-24" d="M632.14,339.32a19.54,19.54,0,0,1-3.51,4.71,5.78,5.78,0,0,1-.87.59c-.29.16-.61.26-.9.42-.52.29-.78.92-1.13,1.38a9.66,9.66,0,0,1-2.48,2.29c-.28.17-.56.33-.85.48a10.34,10.34,0,0,0,2.53-1.16,9.45,9.45,0,0,0,2.48-2.28c.35-.46.6-1.09,1.12-1.38.3-.16.62-.27.91-.43a5.07,5.07,0,0,0,.87-.58,16.72,16.72,0,0,0,2.43-3.37A2.87,2.87,0,0,0,632.14,339.32Z" transform="translate(-602.21 -279.41)"/><path class="cls-24" d="M638,317.72a7.47,7.47,0,0,0-3.46-1,3,3,0,0,0,0-2.92.52.52,0,0,0-.57-.24,5.41,5.41,0,0,0-1.69.68c.23-.05,1.48-.31,1.6-.11a2.84,2.84,0,0,1,.38,2.76c1.2,0,4.44,1.59,5.79,4a6.63,6.63,0,0,1,.22,5.24,6.33,6.33,0,0,1-3,3.12,7,7,0,0,0,4.7-3.79,4.85,4.85,0,0,0-.22-4.46A9.19,9.19,0,0,0,638,317.72Z" transform="translate(-602.21 -279.41)"/><path class="cls-24" d="M613.82,322.44a2.45,2.45,0,0,1,.13-1,6.8,6.8,0,0,0-4-.22,4.79,4.79,0,0,0-1,.48A12.11,12.11,0,0,1,613.82,322.44Z" transform="translate(-602.21 -279.41)"/><path class="cls-24" d="M618.06,349.5a6.47,6.47,0,0,1-1.58,3.48,2,2,0,0,0,1.66-.65,3.73,3.73,0,0,0,.75-2.75C618.33,349.64,618.62,349.54,618.06,349.5Z" transform="translate(-602.21 -279.41)"/><path class="cls-25" d="M619.26,334.54l-8.68,7.69a.53.53,0,0,1-.62-.09.52.52,0,0,1,0-.63l8.67-7.69c.1-.08.32,0,.49.21S619.35,334.46,619.26,334.54Z" transform="translate(-602.21 -279.41)"/><path class="cls-26" d="M610.07,341.65l8.67-7.69c.09-.08.27,0,.43.14l-.06-.07c-.17-.2-.39-.29-.49-.21L610,341.51a.52.52,0,0,0,0,.63l.07.06A.51.51,0,0,1,610.07,341.65Z" transform="translate(-602.21 -279.41)"/><path class="cls-27" d="M625.57,329.14a8.73,8.73,0,1,1-12.33-.75A8.72,8.72,0,0,1,625.57,329.14Z" transform="translate(-602.21 -279.41)"/><path class="cls-28" d="M618.56,326.21A8.61,8.61,0,0,1,622,328.6,8.73,8.73,0,0,1,616,343.11a8.73,8.73,0,1,0,2.58-16.9Z" transform="translate(-602.21 -279.41)"/><path class="cls-25" d="M627.68,327.72l-2.92,2.59c-.1.08-.36,0-.54-.17s-.19-.46-.1-.55l2.93-2.59A6.13,6.13,0,0,1,627.68,327.72Z" transform="translate(-602.21 -279.41)"/><path class="cls-26" d="M624.28,329.77l2.93-2.59s.17.17.33.35l-.49-.53-2.93,2.59c-.09.09-.07.35.1.55l.09.09C624.2,330.05,624.2,329.84,624.28,329.77Z" transform="translate(-602.21 -279.41)"/><path class="cls-29" d="M614.28,329a1.49,1.49,0,0,0-1,.67,7.38,7.38,0,0,0-1.78,3.09,8.13,8.13,0,0,0-.39,3.25,7.07,7.07,0,0,0,1,3,3.72,3.72,0,0,0,2.36,1.87,2,2,0,0,0,2.29-1.44c.31-1.07-.41-2.06-.87-3a8.86,8.86,0,0,1-1-3.07,4.73,4.73,0,0,1,.11-1.59,7.42,7.42,0,0,0,.3-1.67C615.19,329.61,614.9,329,614.28,329Z" transform="translate(-602.21 -279.41)"/><g class="cls-30"><path class="cls-8" d="M612.39,332.09a2.37,2.37,0,0,0-.49,1.11,8.06,8.06,0,0,0-.22,1.21,5,5,0,0,0,0,1,1.76,1.76,0,0,0,.33,1c.28.32.7,0,.74-.32a5.85,5.85,0,0,0-.14-.89,5.78,5.78,0,0,1,0-.93,7.54,7.54,0,0,1,.16-.93,2.72,2.72,0,0,0,.08-1.17A.3.3,0,0,0,612.39,332.09Z" transform="translate(-602.21 -279.41)"/><path class="cls-8" d="M612.73,337.34a.43.43,0,0,0-.13.49,1.41,1.41,0,0,0,.52.85c.21.17.61-.06.47-.34h0a.81.81,0,0,0-.1-.21c-.09-.15-.19-.29-.28-.43S612.93,337.2,612.73,337.34Z" transform="translate(-602.21 -279.41)"/></g><path class="cls-24" d="M636.24,328c.21.07.57-.11.77-.19a3.43,3.43,0,0,0,.55-.25,3.61,3.61,0,0,0,.79-.55,1.47,1.47,0,0,0,.56-1.53.45.45,0,0,0-.68-.19.46.46,0,0,0-.17.3s.11.47.17.41c-.15-.28-.23-.34-.25-.16a.17.17,0,0,1,0,.1,1.07,1.07,0,0,1-.15.22,1.82,1.82,0,0,1-.38.35,4.59,4.59,0,0,1-.52.33,5.28,5.28,0,0,0-.93.52.35.35,0,0,0-.08.41c.07.17.19.17.35.23Z" transform="translate(-602.21 -279.41)"/><path class="cls-24" d="M629.63,324.34c.47.6,1.22-.23,1.49-.63a2.84,2.84,0,0,0,.43-1.41c0-.58-.88-.67-.89-.1a2,2,0,0,1-.15.81c-.14.33-.42.87-.78,1a.23.23,0,0,0-.1.34Z" transform="translate(-602.21 -279.41)"/><path class="cls-24" d="M631.62,320.89c1.06-.14,1.63-1.41,1.59-2.36a.42.42,0,0,0-.84.05,1.66,1.66,0,0,1-.07.7,3.19,3.19,0,0,1-.89,1.22.24.24,0,0,0,.21.39Z" transform="translate(-602.21 -279.41)"/><path class="cls-24" d="M635.61,324.55a1.93,1.93,0,0,0,1-.18c.28-.11.57-.19.86-.28a.4.4,0,0,0,.26-.41,3.86,3.86,0,0,0-.77-1.77c-.32-.4-1,.06-.65.47a2.86,2.86,0,0,1,.62,1.37c.09-.14.17-.28.26-.41-.53.16-1.37.36-1.68.86a.24.24,0,0,0,.13.35Z" transform="translate(-602.21 -279.41)"/><path class="cls-24" d="M637.08,323.81a5.86,5.86,0,0,0,.79,1,6.17,6.17,0,0,1,.39.6,3.29,3.29,0,0,0,.34.61.23.23,0,0,0,.41-.15,3,3,0,0,0-.74-1.38,2.08,2.08,0,0,0-1.06-.86.12.12,0,0,0-.13.17Z" transform="translate(-602.21 -279.41)"/><path class="cls-24" d="M624.78,322.74a3.37,3.37,0,0,0,.2,1,1.58,1.58,0,0,0,.72.77,2.15,2.15,0,0,0,2.09-.21,2.51,2.51,0,0,0,1.22-1.72,2,2,0,0,0-.74-1.88l-.34.57a1.91,1.91,0,1,0,1.76-3.37c-.05.22-.11.44-.17.66a1.62,1.62,0,0,0,1.65-1.45,2.15,2.15,0,0,0-1.54-2.18.35.35,0,0,0-.44.23c-.08.23.07.33.22.44a3.38,3.38,0,0,1,.78.62,1.14,1.14,0,0,1,.25.87.89.89,0,0,1-.93.76.36.36,0,0,0-.17.67,1.22,1.22,0,1,1-1.07,2.18c-.37-.22-.67.31-.34.57a1.36,1.36,0,0,1,.44,1.41,2,2,0,0,1-1,1.23,1.72,1.72,0,0,1-1.33.19,2,2,0,0,1-1-1.42c0-.1-.2-.09-.19,0Z" transform="translate(-602.21 -279.41)"/><path class="cls-24" d="M632,316.48c.22-.16.35-.41.58-.57a3.59,3.59,0,0,1,.88-.43l-.35-.25a3.63,3.63,0,0,0,.11,1.23.2.2,0,0,0,.38,0,3.57,3.57,0,0,0,0-1.22.24.24,0,0,0-.34-.19c-.5.26-1.54.67-1.47,1.38,0,.11.14.12.21.07Z" transform="translate(-602.21 -279.41)"/><path class="cls-1" d="M633.19,344.68a.21.21,0,0,1-.08-.16Z" transform="translate(-602.21 -279.41)"/><path class="cls-1" d="M633.21,344.63a.17.17,0,0,1-.06-.11,0,0,0,0,0-.08,0,.26.26,0,0,0,.08.19.05.05,0,1,0,.06-.08Z" transform="translate(-602.21 -279.41)"/><path class="cls-1" d="M632.81,340.72c-.76-1.49-2.3-3.08-4.11-2.94s-1.44,2.12-.86,3.25c.43.82,1.14,1.52,1.18,2.49,0,.68-.33,1.41.05,2.05a34.85,34.85,0,0,0,3.54,2.74s0,.11,0,.12c1,.18,1.25-1.69,1.35-2.37A9.26,9.26,0,0,0,632.81,340.72Z" transform="translate(-602.21 -279.41)"/></svg>