<svg xmlns="http://www.w3.org/2000/svg" viewBox="0 0 158.04 196.23"><defs><style>.cls-1{isolation:isolate;}.cls-2{fill:#f5f5f5;mix-blend-mode:multiply;}.cls-3{fill:#ffb191;}.cls-4{fill:#ffc0a6;}.cls-5{fill:#fae7db;}.cls-6{fill:#d1785a;}.cls-7{fill:#f2f2f2;}.cls-8{fill:#fafafa;}.cls-9{fill:#2a86ad;}.cls-10,.cls-22{fill:#fff;}.cls-11{fill:#54bee8;}.cls-12{fill:#de954c;}.cls-13{fill:#ffd5c6;}.cls-14{fill:#a1dded;}.cls-15{fill:#800035;}.cls-16{fill:#d4145a;}.cls-17{fill:#a6c4c4;}.cls-18{fill:#fded64;}.cls-19,.cls-21{fill:#597f7f;}.cls-19,.cls-20{opacity:0.56;}.cls-22,.cls-26{opacity:0.36;}.cls-23{fill:#7fa5a8;}.cls-24{fill:#f0a245;}.cls-25{fill:#ce7f29;}.cls-27{opacity:0.57;}</style></defs><g class="cls-1"><g id="Слой_1" data-name="Слой 1"><ellipse class="cls-2" cx="79.02" cy="168.21" rx="79.02" ry="10.97"/><path class="cls-3" d="M648.53,387a38.31,38.31,0,0,0-8.22-8.13l.57-.35a9.44,9.44,0,0,0,1.89-4.65,22.17,22.17,0,0,0-.13-6.43c0-.21,2.2-3,2.34-3.38.49-1.45-1-1.48-2.14-1.39a5.62,5.62,0,0,0-4.3,3.21c-.59,0-.67-2.42-.67-2.42-1.13-2.32-3.31-4.11-4.41-3.48-1.59.92-1.63,1.5-1.33,2.31a2.29,2.29,0,0,0-.41-.44.63.63,0,0,0-.26-.2c-.94-.34-2.05.63-2.33,1.43a2.62,2.62,0,0,0-.14.78,4.52,4.52,0,0,0,0,.82l.06.44a.78.78,0,0,1,0,.16,1.86,1.86,0,0,0-.27-.5,1.16,1.16,0,0,0-.55-.4,1.84,1.84,0,0,0-2.38,1.46,3.84,3.84,0,0,0,0,.83,4.51,4.51,0,0,0,.09.53.85.85,0,0,0-.32,0h0a1.5,1.5,0,0,0-.51.15,2,2,0,0,0-.48.34,2.67,2.67,0,0,0-.45.61,2.84,2.84,0,0,0-.27.79,3.87,3.87,0,0,0-.06.83,7.91,7.91,0,0,0,.06.84c0,.15,2.67,9.21,5.24,10.57-.27,2.69,1.14,6.57,4.38,12.25,6.46,11.3,15.29,18.52,21.66,14.25S655.11,395.35,648.53,387Z" transform="translate(-603.89 -287.94)"/><path class="cls-3" d="M665.35,405.24c-10.73,5.05-16.23,5.62-19.72,1.17s.57-13.5,13-25.2c8.52-8,20.66-10.34,27-2.29S678.76,398.93,665.35,405.24Z" transform="translate(-603.89 -287.94)"/><path class="cls-4" d="M716.58,417c-2.61-20.89-9.09-51.92-30.06-51-21.53-.89-29.06,30.14-31.67,51-3.15,25.16-.45,39.42,30.87,39.42S719.73,442.16,716.58,417Z" transform="translate(-603.89 -287.94)"/><path class="cls-3" d="M716.58,417c-2.3-18.37-7.59-44.59-23.1-50,13.23,8.07,16.29,32.9,17.18,50.48,1.27,25.31-2.46,39.34-33.7,37a68.33,68.33,0,0,1-12.65-2c4.87,2.59,11.79,3.93,21.41,3.93C717,456.42,719.73,442.16,716.58,417Z" transform="translate(-603.89 -287.94)"/><path class="cls-5" d="M716.82,416.65c-6.05,3.35-28.19,4.22-38,4.37a69.7,69.7,0,0,1-24.36-4.27c0,.19,0,.38-.08.57-.31,2.48-.57,4.85-.74,7.12,1.45.34,13.7,29,14.1,30.19,4.49,1.93,17.16,2.6,23.53,2.65-.18-3.25,24-25.2,26.78-25.08a121.55,121.55,0,0,0-1.2-14.88C716.88,417.1,716.85,416.87,716.82,416.65Z" transform="translate(-603.89 -287.94)"/><path class="cls-4" d="M654.29,312.7c5-18.25,24.82-28.71,44.26-23.37s31.14,24.45,26.13,42.69a32.42,32.42,0,0,1-5.13,10.6c2.86-.92,5.67-.51,7.27,1.36,2.39,2.8,1.16,7.78-2.76,11.13-3.75,3.21-8.62,3.75-11.12,1.32-5.13,14.7-21.66,22.91-37.88,18.46-16.89-4.64-27-21.25-22.7-37.1l.15-.54a27,27,0,0,0,.94-11.44A32.12,32.12,0,0,1,654.29,312.7Z" transform="translate(-603.89 -287.94)"/><path class="cls-6" d="M714.27,348.13a11.77,11.77,0,0,1,4-2.53c2.34-.91,6.56-1.34,7.68,1.59a.3.3,0,0,1-.43.33c-2.14-1.58-4.72-1.32-7-.14a12.63,12.63,0,0,0-2.17,1.45l.61.17a11.55,11.55,0,0,1,2.46.78.28.28,0,0,1-.06.5,5.05,5.05,0,0,1-2.59,0,5.92,5.92,0,0,1-1.45-.43c-.33.37-.64.76-.94,1.16a4.43,4.43,0,0,1-1.29,1.33.56.56,0,0,1-.83-.34C712,350.51,713.31,349.06,714.27,348.13Z" transform="translate(-603.89 -287.94)"/><path class="cls-7" d="M657.23,335.55c-.77,4.4,1.7,8.52,5.53,9.19s7.57-2.34,8.34-6.74-1.7-8.52-5.53-9.19S658,331.15,657.23,335.55Z" transform="translate(-603.89 -287.94)"/><path class="cls-8" d="M665.53,328.8a6.52,6.52,0,0,1,.79.2c-3.53-.16-6.81,2.74-7.53,6.83s1.37,7.93,4.74,9a5.42,5.42,0,0,1-.8-.08c-3.84-.68-6.31-4.79-5.54-9.19S661.7,328.13,665.53,328.8Z" transform="translate(-603.89 -287.94)"/><path class="cls-9" d="M658.47,338a5.2,5.2,0,1,0,6-4.23A5.19,5.19,0,0,0,658.47,338Z" transform="translate(-603.89 -287.94)"/><path d="M659.58,339.55a3.15,3.15,0,1,0,3.65-2.56A3.14,3.14,0,0,0,659.58,339.55Z" transform="translate(-603.89 -287.94)"/><path class="cls-10" d="M660.05,333.32a1.63,1.63,0,0,1,1.9-.86,1.71,1.71,0,0,1,1.17,1.39,1.46,1.46,0,0,1-.91,1.77,1.83,1.83,0,0,1-1.86-.35A1.64,1.64,0,0,1,660.05,333.32Z" transform="translate(-603.89 -287.94)"/><path class="cls-10" d="M661.46,336.66a.44.44,0,0,1,.12-.15h0a.66.66,0,0,1,.23-.24l0,0a.87.87,0,0,1,.87-.07.88.88,0,0,1,.49.71,0,0,0,0,0,0,0,1.06,1.06,0,0,1,0,.25.92.92,0,0,1-.3.53,1,1,0,0,1-1.08.2.92.92,0,0,1-.43-.48A.86.86,0,0,1,661.46,336.66Z" transform="translate(-603.89 -287.94)"/><path class="cls-10" d="M667.84,331.65c.8-.16,1.43.54,1.8,1.15s.63,1.49.05,1.95a.25.25,0,0,1-.25,0c-.46-.24-.64-.91-.88-1.34a9.22,9.22,0,0,1-.94-1.45A.26.26,0,0,1,667.84,331.65Z" transform="translate(-603.89 -287.94)"/><path d="M659.61,330.52c1.39-2,4.45-2.33,6.62-1.64a7.1,7.1,0,0,1,4.79,5,.08.08,0,0,1-.14,0c-1.24-1.89-2.57-3.66-4.82-4.39s-4.3,0-6.2,1.22A.19.19,0,0,1,659.61,330.52Z" transform="translate(-603.89 -287.94)"/><path class="cls-11" d="M668.52,338.19a5.91,5.91,0,0,1-.12,1.62c-.15.72-1.29.52-1.13-.2a4.83,4.83,0,0,0,.1-1.31A.58.58,0,0,1,668.52,338.19Z" transform="translate(-603.89 -287.94)"/><path class="cls-11" d="M666.69,341.09l.34-.48a.58.58,0,0,1,.81-.07.59.59,0,0,1,.07.82l-.34.48a.58.58,0,0,1-.81.07A.6.6,0,0,1,666.69,341.09Z" transform="translate(-603.89 -287.94)"/><path class="cls-11" d="M659.26,336.9c.07-.13.14-.27.22-.4a.67.67,0,0,1,.32-.3.63.63,0,0,1,.45,0,.58.58,0,0,1,.27.77l-.22.41a.64.64,0,0,1-.32.29.58.58,0,0,1-.72-.79Z" transform="translate(-603.89 -287.94)"/><path class="cls-7" d="M686.2,340.66c-.77,4.4,1.7,8.52,5.53,9.19s7.57-2.34,8.34-6.74-1.7-8.52-5.53-9.19S687,336.26,686.2,340.66Z" transform="translate(-603.89 -287.94)"/><path class="cls-8" d="M694.5,333.91a6.51,6.51,0,0,1,.79.19c-3.53-.15-6.81,2.74-7.53,6.84s1.37,7.93,4.74,9a5.44,5.44,0,0,1-.8-.09c-3.83-.67-6.31-4.78-5.54-9.19S690.67,333.23,694.5,333.91Z" transform="translate(-603.89 -287.94)"/><path class="cls-9" d="M687.44,343.13a5.2,5.2,0,1,0,6-4.22A5.2,5.2,0,0,0,687.44,343.13Z" transform="translate(-603.89 -287.94)"/><path d="M688.55,344.65a3.15,3.15,0,1,0,3.65-2.55A3.15,3.15,0,0,0,688.55,344.65Z" transform="translate(-603.89 -287.94)"/><path class="cls-10" d="M689,338.43a1.62,1.62,0,0,1,1.9-.87,1.74,1.74,0,0,1,1.17,1.39,1.45,1.45,0,0,1-.91,1.77,1.81,1.81,0,0,1-1.86-.34A1.64,1.64,0,0,1,689,338.43Z" transform="translate(-603.89 -287.94)"/><path class="cls-10" d="M690.43,341.76a1.58,1.58,0,0,1,.12-.15h0a.78.78,0,0,1,.23-.25h0a.83.83,0,0,1,.87-.07.88.88,0,0,1,.49.7.06.06,0,0,0,0,0,1.06,1.06,0,0,1,0,.25.92.92,0,0,1-.3.53,1,1,0,0,1-1.08.19.85.85,0,0,1-.43-.48A.87.87,0,0,1,690.43,341.76Z" transform="translate(-603.89 -287.94)"/><path class="cls-10" d="M696.81,336.75c.8-.15,1.43.55,1.8,1.16s.63,1.48,0,1.95a.28.28,0,0,1-.25,0c-.46-.25-.64-.91-.88-1.34a9.22,9.22,0,0,1-.94-1.45A.26.26,0,0,1,696.81,336.75Z" transform="translate(-603.89 -287.94)"/><path d="M688.58,335.63c1.4-2,4.45-2.33,6.62-1.64a7.1,7.1,0,0,1,4.79,5,.08.08,0,0,1-.14.05c-1.24-1.89-2.57-3.66-4.81-4.4s-4.31,0-6.21,1.23A.19.19,0,0,1,688.58,335.63Z" transform="translate(-603.89 -287.94)"/><path class="cls-11" d="M697.49,343.29a5.85,5.85,0,0,1-.12,1.62c-.15.73-1.29.53-1.13-.2a4.77,4.77,0,0,0,.1-1.31A.58.58,0,0,1,697.49,343.29Z" transform="translate(-603.89 -287.94)"/><path class="cls-11" d="M695.66,346.2l.34-.48a.57.57,0,0,1,.81-.07.58.58,0,0,1,.07.81c-.11.16-.23.32-.34.49a.58.58,0,0,1-.81.06A.59.59,0,0,1,695.66,346.2Z" transform="translate(-603.89 -287.94)"/><path class="cls-11" d="M688.23,342l.22-.41a.65.65,0,0,1,.32-.29.58.58,0,0,1,.72.79l-.22.4a.66.66,0,0,1-.32.3.58.58,0,0,1-.72-.79Z" transform="translate(-603.89 -287.94)"/><path class="cls-6" d="M670.18,350.75a5.15,5.15,0,0,1-.87-2.78c0-1.77,1.48-3.89,3.47-4a.18.18,0,0,1,.14.32,5.82,5.82,0,0,0-1.69,1.7,4.21,4.21,0,0,0-.49,2.09,3.77,3.77,0,0,0,.71,2c.33.47,1,1.07,1.06,1.65a.25.25,0,0,1-.17.28C671.51,352.39,670.57,351.36,670.18,350.75Z" transform="translate(-603.89 -287.94)"/><path class="cls-12" d="M701.3,329.58a15.49,15.49,0,0,0-5.75-2.8.87.87,0,0,1,.46-1.68,16.59,16.59,0,0,1,6.18,3C703.06,328.76,702.18,330.27,701.3,329.58Z" transform="translate(-603.89 -287.94)"/><path class="cls-12" d="M659.6,322.58a5.32,5.32,0,0,1,5.74-2.22.87.87,0,0,1-.46,1.68,3.52,3.52,0,0,0-3.78,1.43C660.48,324.4,659,323.52,659.6,322.58Z" transform="translate(-603.89 -287.94)"/><path class="cls-12" d="M675.75,301.58a10.38,10.38,0,0,1,3.12-1.56c1.06-.33,2.13-.59,3.21-.86a63.22,63.22,0,0,0,6.36-1.52,10.62,10.62,0,0,0,4.87-3.36,7,7,0,0,0,1.24-2.43,12.52,12.52,0,0,1,.55-2.71.29.29,0,0,1,.39-.1c.9.49,1,1.69,1,2.64a7.91,7.91,0,0,1-.83,3.33,10.06,10.06,0,0,1-5.11,4.7,23.8,23.8,0,0,1-7.14,1.85c-1.26.14-2.53.18-3.8.33-.58.07-1.16.2-1.74.25s-1.3.06-2,.13C675.53,302.32,675.49,301.77,675.75,301.58Z" transform="translate(-603.89 -287.94)"/><path class="cls-12" d="M673.89,295.86a7.58,7.58,0,0,1,4.15-2.29c1.78-.47,3.64-.73,5.45-1.08,1.59-.31,3.22-.53,4.78-.94a9.87,9.87,0,0,0,1.9-.71,3.6,3.6,0,0,0,1.74-1.32.08.08,0,0,1,.15.06,5.24,5.24,0,0,1-.65,1.81,4.46,4.46,0,0,1-1.57,1.29,17.21,17.21,0,0,1-4.59,1.47c-3.66.78-7.31,1.65-11,2.4A.41.41,0,0,1,673.89,295.86Z" transform="translate(-603.89 -287.94)"/><path class="cls-12" d="M680.79,290.28a9.34,9.34,0,0,1,2.88-.58c1-.16,1.92-.3,2.9-.42.13,0,.16.17.06.23a11.08,11.08,0,0,1-2.85,1.1,5.71,5.71,0,0,1-2.92.24A.32.32,0,0,1,680.79,290.28Z" transform="translate(-603.89 -287.94)"/><path class="cls-12" d="M686.48,303.32a36.25,36.25,0,0,0,5.68-.87,9.35,9.35,0,0,0,4.39-2.21,9.11,9.11,0,0,0,2.62-4.25,9.42,9.42,0,0,0,.31-2.59,10.84,10.84,0,0,0-.11-1.51,3.13,3.13,0,0,1-.1-1.05.21.21,0,0,1,.31-.12,4.45,4.45,0,0,1,1,2.53A9.72,9.72,0,0,1,693,304.44c-2.25.41-4.34-.29-6.51-.83A.15.15,0,0,1,686.48,303.32Z" transform="translate(-603.89 -287.94)"/><path class="cls-12" d="M703,291.85a.17.17,0,0,1,.14-.08c1.12.06,1.6,2.15,1.81,3,.3,1.23.55,2.91-.22,4a.33.33,0,0,1-.6-.09c-.37-1.17-.16-2.52-.41-3.73a9.78,9.78,0,0,0-.55-1.82A1.63,1.63,0,0,1,703,291.85Z" transform="translate(-603.89 -287.94)"/><path class="cls-3" d="M715.07,298.71c7.44,8.79,10,23.48,7,33.94a33.33,33.33,0,0,1-5.45,10.58,10,10,0,0,1,2.9-.61,35.94,35.94,0,0,0,5.13-10.6c3.34-12.16-.75-24.72-9.61-33.31Z" transform="translate(-603.89 -287.94)"/><path class="cls-3" d="M711.09,354.71c-5.05,13.73-22.11,22-38.35,17.78a34.75,34.75,0,0,1-12-5.76,33.28,33.28,0,0,0,14.36,8.16c16.14,4.43,32.66-3.9,37.88-18.46A14.5,14.5,0,0,1,711.09,354.71Z" transform="translate(-603.89 -287.94)"/><path class="cls-3" d="M725.83,343.43a7.85,7.85,0,0,0-3.08-.46,7.13,7.13,0,0,0-1.78.18,12.86,12.86,0,0,0-1.56.6c-.14.05-.08.26.05.27.93.1,1.82.37,2.76.44a8.38,8.38,0,0,1,2.58.45c1.47.61,1.49,2.41,1.15,3.74a8,8,0,0,1-2.17,3.68c-1.1,1.1-2.49,1.8-3.63,2.83a.45.45,0,0,0,.37.79c1.9-.13,3.63-1.51,4.89-2.85a9.44,9.44,0,0,0,2.51-4.88C728.25,346.32,727.72,344.26,725.83,343.43Z" transform="translate(-603.89 -287.94)"/><path class="cls-4" d="M735.73,443.2c-5-7.49-15.36-15.47-24.87-13.66-4.82.92-9.25,3.55-13,6.59s-8.09,6.88-9.75,11.53a12,12,0,0,0-.36,6.53c1.45,6.81,15.71,6.09,23.22,7.21,10.07,1.5,24.32,5.08,27.4-5.9C739.52,451.29,738.09,446.72,735.73,443.2Z" transform="translate(-603.89 -287.94)"/><path class="cls-4" d="M659.57,426.35a10.63,10.63,0,0,0-6.45-1.61,45.44,45.44,0,0,0-9.58,2,48.55,48.55,0,0,0-16.64,8.69c-3.23,2.62-8,6.68-6.59,11.44,1.15,3.79,5.26,6.28,8.8,7.24,10.07,2.74,35.51,3.18,38.82,1.66a4.8,4.8,0,0,0,3-3.93c.64-4.69-1.48-9.74-3.17-14.05S663.61,428.88,659.57,426.35Z" transform="translate(-603.89 -287.94)"/><path class="cls-3" d="M667.72,437.77c-1.69-4.31-4.11-8.89-8.15-11.42A10.9,10.9,0,0,0,656.3,425c3.94,2.55,6.31,7.05,8,11.29s3.82,9.37,3.18,14.05a4.81,4.81,0,0,1-3,3.94c-3.32,1.51-28.76,1.08-38.83-1.66l-.37-.11a16.15,16.15,0,0,0,3.82,1.59c10.07,2.74,35.51,3.18,38.82,1.66a4.8,4.8,0,0,0,3-3.93C671.53,447.13,669.41,442.08,667.72,437.77Z" transform="translate(-603.89 -287.94)"/><path class="cls-4" d="M736.68,452.2c-.57-2.52-2.88-4.28-5.08-5.36a16.71,16.71,0,0,0-7.4-1.79,43.79,43.79,0,0,0-11.87,1.83,51.83,51.83,0,0,0-10.84,4.25,109.55,109.55,0,0,0-9.62,6.36c-3.28,2.3-6.57,4.5-9.65,7.07-.76.64-1.58,1.2-2.38,1.79-2,.83-3.67,2.22-3.41,4.54.32,2.83,3.35,4.75,6,5.12a33.11,33.11,0,0,0,5.72,0,126.5,126.5,0,0,0,23.35-2.92A62.44,62.44,0,0,0,723.92,469a26.66,26.66,0,0,0,9.4-6.71,15.34,15.34,0,0,0,2.64-4.48A10.47,10.47,0,0,0,736.68,452.2Z" transform="translate(-603.89 -287.94)"/><path class="cls-3" d="M735.73,443.2a34.46,34.46,0,0,0-3.47-4.33l.33.5c2.36,3.74,3.79,8.59,2.61,13.05a10,10,0,0,1-4.26,6.18c-.25.35-.5.7-.77,1a26.52,26.52,0,0,1-9.39,7.11,60,60,0,0,1-12.46,4.33A119.6,119.6,0,0,1,685,474.19a32.14,32.14,0,0,1-5.72,0,7.73,7.73,0,0,1-1.28-.32,8.12,8.12,0,0,0,4.43,2.16,33.11,33.11,0,0,0,5.72,0,126.5,126.5,0,0,0,23.35-2.92A62.44,62.44,0,0,0,723.92,469a26.66,26.66,0,0,0,9.4-6.71c.26-.32.52-.65.76-1a9.4,9.4,0,0,0,4.26-5.82C739.52,451.29,738.09,446.72,735.73,443.2Z" transform="translate(-603.89 -287.94)"/><path class="cls-4" d="M659,461.79a37.51,37.51,0,0,1-4.39-4.06,22.33,22.33,0,0,1-3.7-7.37,39.39,39.39,0,0,0-2.36-6.61,15.89,15.89,0,0,0-5.54-5.6c-4-2.68-9.07-4.51-13.89-3.22a12.27,12.27,0,0,0-8.18,7.32c-2.34,6.24,3.17,12,7.65,15.55a59.22,59.22,0,0,0,9.31,5.94,61.55,61.55,0,0,0,6,2.85,10,10,0,0,0,4,2.19,14.35,14.35,0,0,0,6.47.62c2.1-.32,4.87-1,6.19-2.82S660.39,463,659,461.79Z" transform="translate(-603.89 -287.94)"/><path class="cls-3" d="M636.84,463.11a.81.81,0,0,1-.93,0,5.06,5.06,0,0,0-4.71-.28c-1.37.56-2.6,1.73-2.53,3.2a3.34,3.34,0,0,0,3.18,3,5.51,5.51,0,0,0,2.5-.35c0,.09,0,.17,0,.25-.37,0-.74.1-1.08.17a3.16,3.16,0,0,0-2.2,1.26,2.05,2.05,0,0,0,.53,2.43,2.55,2.55,0,0,0,2.31.51,1.86,1.86,0,0,0-.09,2.54,1.88,1.88,0,0,0,2.71,0,1.49,1.49,0,0,0,.23,1.42,1.37,1.37,0,0,0,2.33-.25c0,.79.15,1.81,1.23,1.71,1.55-.14,2.87-2.12,2.87-2.12,3.47-.87,20.82-6,18.45-12.88a4,4,0,0,0-4.12-3.08,31.61,31.61,0,0,0-4,.44,29,29,0,0,1-3.36.17c-2.4,0-4.81-.11-7.22,0A16.1,16.1,0,0,0,636.84,463.11Z" transform="translate(-603.89 -287.94)"/><path class="cls-3" d="M699,468.44a.71.71,0,0,0,.86-.06,4.4,4.4,0,0,1,4.36-.48,3.43,3.43,0,0,1,2.42,3.08,3.28,3.28,0,0,1-2.87,3.1,4.68,4.68,0,0,1-2.33-.23c0,.08,0,.16,0,.25a8,8,0,0,1,1,.12,2.76,2.76,0,0,1,2.07,1.17,2.18,2.18,0,0,1-.43,2.44,2.29,2.29,0,0,1-2.13.61A2,2,0,0,1,702,481a1.67,1.67,0,0,1-2.52.16,1.56,1.56,0,0,1-.17,1.42,1.22,1.22,0,0,1-2.17-.15c0,.79-.09,1.82-1.09,1.77-1.44-.08-2.72-2-2.72-2-3.23-.72-19.45-5.06-17.42-12.07.62-2.13,1.8-3.15,3.74-3.25a27,27,0,0,1,3.71.27,27.07,27.07,0,0,0,3.12,0c2.23-.09,4.46-.33,6.69-.27A13.8,13.8,0,0,1,699,468.44Z" transform="translate(-603.89 -287.94)"/><path class="cls-4" d="M712.74,382.11c-1.33-6.1-9.22-12.4-11.61-11.26-6.44,3.06-2.47,13.72-2.25,16.51.2,2.42,8.36,16.59,9,14.93C709.6,397.33,713.91,387.45,712.74,382.11Z" transform="translate(-603.89 -287.94)"/><path class="cls-3" d="M712.74,382.11c-1.33-6.1-9.22-12.4-11.61-11.26l-.25.12c3.28,1.18,8.62,6.22,9.69,11.14s-.49,8.33-2.45,13.58c.88,1.17,1.49,10.55,1.64,10.13C711.89,399.7,713.91,387.45,712.74,382.11Z" transform="translate(-603.89 -287.94)"/><path class="cls-3" d="M694.73,379.68a3.36,3.36,0,0,0-1.31,1.09c-.43.49-.84,1-1.22,1.52s-.84,1.23-1.22,1.87a8.13,8.13,0,0,1-.4-1.56,14.89,14.89,0,0,1,.17-3.33c0-.17-.24-.22-.32-.08a6.39,6.39,0,0,0-.63,3.53,6.75,6.75,0,0,0,.56,2.52l-.31.59a27.33,27.33,0,0,0-1.52,3.57,10.75,10.75,0,0,0-.76,4c0,.07.11.12.15,0a35.07,35.07,0,0,0,1.27-3.47,31,31,0,0,1,1.62-3.69L691,386c.15.09.37,0,.37-.17s0-.28,0-.42a28.81,28.81,0,0,1,1.58-2.43c.41-.56.82-1.11,1.25-1.65A3.85,3.85,0,0,0,695,380,.23.23,0,0,0,694.73,379.68Z" transform="translate(-603.89 -287.94)"/><path class="cls-3" d="M709.14,394c-1.24,1.66-2.31,3.45-3.64,5a28.41,28.41,0,0,1-4.2,4.15,33.18,33.18,0,0,1-10.84,5.63.06.06,0,0,0,0,.12,21.29,21.29,0,0,0,6-1.67,26.24,26.24,0,0,0,5.44-3.3,27.18,27.18,0,0,0,4.55-4.42,15.82,15.82,0,0,0,3.07-5.39A.22.22,0,0,0,709.14,394Z" transform="translate(-603.89 -287.94)"/><path class="cls-3" d="M655.63,459.06c-.58-.85-1.34-1.53-1.88-2.42a21,21,0,0,1-1.38-3,39.1,39.1,0,0,0-2.63-5.87,15.9,15.9,0,0,0-9.86-7.59A.17.17,0,0,0,640,440c0-.94-1.08-1.76-1.78-2.26a4.36,4.36,0,0,0-3-.86s0,.06,0,.08a13.2,13.2,0,0,1,2.58,1.35,6.62,6.62,0,0,1,1.07,1,4.49,4.49,0,0,0,.8.83l-.36-.07c-2.41-.41-5.21-.28-7.29,1.15a0,0,0,0,0,0,.08,14.54,14.54,0,0,1,6.83-.58,13.49,13.49,0,0,1,6.16,3,17.46,17.46,0,0,1,4.06,5c1,1.83,1.67,3.83,2.5,5.74a14.94,14.94,0,0,0,1.62,2.86,5.05,5.05,0,0,0,2.26,2A.17.17,0,0,0,655.63,459.06Z" transform="translate(-603.89 -287.94)"/><path class="cls-3" d="M720.07,447a11.2,11.2,0,0,0-4-1.3,20.58,20.58,0,0,0-4.36-.34,22.1,22.1,0,0,0-4.2.57c-.53.12-1.08.26-1.62.43a19.72,19.72,0,0,1,2.82-1.35,13.59,13.59,0,0,1,3.57-.86c1.18-.11,2.37,0,3.55-.11a.22.22,0,0,0,.11-.41c-2-1.23-5-.6-7.08.12a21.36,21.36,0,0,0-6.43,3.65c-4.17,3.32-7.46,7.61-11.74,10.84,0,0,0,.11,0,.08a26.59,26.59,0,0,0,4.93-3.48,2.49,2.49,0,0,0,.91-.52.08.08,0,0,0-.07-.13l-.14.05c2-1.76,3.84-3.64,5.86-5.32.62-.5,1.26-1,1.93-1.46,1.09-.27,2.16-.66,3.27-.9a21.16,21.16,0,0,1,4.28-.46,23.19,23.19,0,0,1,4.16.33c1.36.25,2.66.76,4,1A.24.24,0,0,0,720.07,447Z" transform="translate(-603.89 -287.94)"/><path class="cls-3" d="M654.39,384.72a7.32,7.32,0,0,0-3.17,2.2,5.72,5.72,0,0,0-1.65,3.31.15.15,0,0,0,.28.08,24.13,24.13,0,0,1,1.83-3.09,11,11,0,0,1,2.83-2.22A.16.16,0,0,0,654.39,384.72Z" transform="translate(-603.89 -287.94)"/><path class="cls-13" d="M627.94,436.44c-1-.21-2.08.66-2.8,1.22a12.73,12.73,0,0,0-2.3,2.28c-1.27,1.64-2.45,3.88-2.22,6,0,.2.33.35.43.12a23.1,23.1,0,0,1,2.7-5.34,11.33,11.33,0,0,1,2.19-2.13c.67-.5,1.79-.92,2.2-1.67A.34.34,0,0,0,627.94,436.44Z" transform="translate(-603.89 -287.94)"/><path class="cls-13" d="M653.11,426.2a18.14,18.14,0,0,0-6.21.59,48.2,48.2,0,0,0-6.13,1.76,44.59,44.59,0,0,0-5.76,2.51,19.4,19.4,0,0,0-5,3.54c-.08.08,0,.24.11.19,1.83-.71,3.55-1.73,5.31-2.59a56.57,56.57,0,0,1,5.84-2.49A48.07,48.07,0,0,1,647.1,428c2-.45,4.11-.67,6.08-1.3A.27.27,0,0,0,653.11,426.2Z" transform="translate(-603.89 -287.94)"/><path class="cls-13" d="M641.63,443.63a6.09,6.09,0,0,0-3-1.45,13.5,13.5,0,0,0-6.95.11,5.07,5.07,0,0,0-2.6,1.48.07.07,0,0,0,0,.1,16.14,16.14,0,0,0,2.82-.62,14.85,14.85,0,0,1,3.19-.35,13.64,13.64,0,0,1,3.18.39c1,.24,2,.72,3,.86C641.62,444.19,641.86,443.88,641.63,443.63Z" transform="translate(-603.89 -287.94)"/><path class="cls-13" d="M697.75,437.94c-2.19.5-4.1,2.3-5.44,4a10.76,10.76,0,0,0-2.54,6.44c0,.25.39.4.5.14a28.74,28.74,0,0,1,2.9-5.82,31.52,31.52,0,0,1,4.69-4.62C698,438,697.86,437.92,697.75,437.94Z" transform="translate(-603.89 -287.94)"/><path class="cls-13" d="M713.6,441.31a4.94,4.94,0,0,0-2.9,0,12.73,12.73,0,0,0-3.1,1.1,9.65,9.65,0,0,0-4.66,4.39.19.19,0,0,0,.3.23,26.14,26.14,0,0,1,4.85-3.57,14.74,14.74,0,0,1,2.79-1.07,13.85,13.85,0,0,0,2.72-.75A.18.18,0,0,0,713.6,441.31Z" transform="translate(-603.89 -287.94)"/><path class="cls-13" d="M712.66,446.86c-1.7-1-4.19-.62-6-.13a14.72,14.72,0,0,0-5.45,2.86,56.42,56.42,0,0,0-4.61,4.54,64.4,64.4,0,0,1-5.07,4.7c-1,.86-2.08,1.69-3.15,2.52-.49.38-1,.79-1.45,1.18a5.79,5.79,0,0,0-1.39,1.36.29.29,0,0,0,.33.42,9.15,9.15,0,0,0,2.67-1.65c.88-.64,1.72-1.32,2.56-2,1.74-1.4,3.44-2.86,5-4.43,3-2.91,5.61-6.48,9.62-8a15,15,0,0,1,3.43-.84c1.13-.15,2.3-.05,3.43-.27A.12.12,0,0,0,712.66,446.86Z" transform="translate(-603.89 -287.94)"/><path class="cls-13" d="M695.84,381.4c-2.7,1.59-4.53,4.48-5.7,7.32a18.72,18.72,0,0,0-1.3,4.58,9.67,9.67,0,0,0,.17,4.78.28.28,0,0,0,.54,0c.38-1.42.36-3,.62-4.42a25.69,25.69,0,0,1,1.19-4.37,39.27,39.27,0,0,1,4.57-7.79A.07.07,0,0,0,695.84,381.4Z" transform="translate(-603.89 -287.94)"/><path class="cls-13" d="M658.76,360.26a17.79,17.79,0,0,1-2.79-4.95,36.13,36.13,0,0,1-1.56-6.33,33.21,33.21,0,0,1-.39-6.83,28.61,28.61,0,0,1,.39-3.46,25.2,25.2,0,0,0,.51-3.11.07.07,0,0,0-.1,0c-1.42,1.76-1.81,4.43-2.05,6.61a29.26,29.26,0,0,0,.18,7.24,32.72,32.72,0,0,0,1.61,6.77c.72,1.92,1.82,3.85,3.81,4.6C658.64,360.87,658.94,360.49,658.76,360.26Z" transform="translate(-603.89 -287.94)"/><path class="cls-13" d="M662.5,301a17.85,17.85,0,0,0-4.1,4,24.26,24.26,0,0,0-2.82,5.14,25.54,25.54,0,0,0-1.77,11.79,13.24,13.24,0,0,0,1.88,6.33c.19.27.71.21.68-.18-.07-.89-.3-1.76-.44-2.65s-.26-1.83-.36-2.76a27.19,27.19,0,0,1,0-5.56A26.87,26.87,0,0,1,659,306.42a34,34,0,0,1,3.64-5.29C662.7,301.05,662.6,300.9,662.5,301Z" transform="translate(-603.89 -287.94)"/><path class="cls-13" d="M648.38,390.34c-.73-.59-1.85-.63-2.7-1a9.12,9.12,0,0,1-1.42-.89c-.41-.31-.93-.56-1.31-.91-.05-.05-.14,0-.1.09a4.3,4.3,0,0,0,.88,1.5,6.83,6.83,0,0,0,1.45,1.06c.86.46,2.22,1.09,3.15.55A.23.23,0,0,0,648.38,390.34Z" transform="translate(-603.89 -287.94)"/><path class="cls-13" d="M627.23,453.77a17.63,17.63,0,0,1-3.07-2.51,15.42,15.42,0,0,1-2.06-3.33.07.07,0,0,0-.13,0c-.06,2.76,2.32,5.87,5.17,6.17C627.35,454.15,627.37,453.87,627.23,453.77Z" transform="translate(-603.89 -287.94)"/><path class="cls-13" d="M669.39,376.05a15.52,15.52,0,0,0-3.58,3.91c-.9,1.35-2.1,3.24-1.92,4.94a.33.33,0,0,0,.55.22,7.24,7.24,0,0,0,1.35-2c.39-.78.79-1.54,1.23-2.3.86-1.48,1.83-2.92,2.77-4.36C669.94,376.22,669.63,375.87,669.39,376.05Z" transform="translate(-603.89 -287.94)"/><path class="cls-13" d="M658.85,403.14a12.72,12.72,0,0,0-2.26,5.88,30.28,30.28,0,0,0-.4,3.14,5.1,5.1,0,0,0,.54,3.08.27.27,0,0,0,.46,0,6.48,6.48,0,0,0,.59-2.81,27,27,0,0,1,.33-3.12c.32-2,1-4,1.18-6A.26.26,0,0,0,658.85,403.14Z" transform="translate(-603.89 -287.94)"/><path class="cls-14" d="M717.78,422.14c0-.18-.6-2.62-.7-3.25s-2.88.83-16.37,2.24a9.67,9.67,0,0,0-3.7.82,2.59,2.59,0,0,0-.94,3c.32,1.3,1.46,1.95,3,2.14a26.6,26.6,0,0,0,6.17-.32c2.41-.29,4.79-.67,7.18-1a46.58,46.58,0,0,0,5.37-1.08C718.39,424.28,717.94,423.57,717.78,422.14Z" transform="translate(-603.89 -287.94)"/><path class="cls-14" d="M665.54,421.3c-.47-.64-1.45-.65-2.13-.84-1.11-.32-2.21-.68-3.31-1-1.34-.44-6.25-2.45-6.65-2a3.42,3.42,0,0,0-.51,1.82,22.64,22.64,0,0,0-.3,2.32c-.07,1.55,1.18,1.82,2.23,2.21,2.78,1,5.64,2.3,8.58,2.66C665.38,426.63,666.62,422.81,665.54,421.3Z" transform="translate(-603.89 -287.94)"/><path class="cls-15" d="M683.12,358.17c-.71-.61-3,2.44-10.32.4-3.33-.94-5.24-4.48-6.18-3.52-2.26,2.3,1,8.4,2.19,9.25,2.65,1.86,7.22,3.07,10.27,1.8C681.65,365,685.13,359.92,683.12,358.17Z" transform="translate(-603.89 -287.94)"/><path class="cls-16" d="M681.24,361.5c-1.16,0-3.45,2.09-3.64,1.83-1.52-2-4.11-1.64-6.07-.88a11.73,11.73,0,0,0-3,1.67,2.6,2.6,0,0,0,.27.24c2.66,1.86,7.23,3.06,10.27,1.79a9.46,9.46,0,0,0,4-4.2A3.73,3.73,0,0,0,681.24,361.5Z" transform="translate(-603.89 -287.94)"/><path class="cls-7" d="M671.8,358.19a15.3,15.3,0,0,1-2.31-1.52s-.62.89-.5,1.14a4.75,4.75,0,0,0,2,1.4C671.4,359.37,671.8,358.19,671.8,358.19Z" transform="translate(-603.89 -287.94)"/><path class="cls-7" d="M677.18,359.28a22.22,22.22,0,0,1-2.68-.31s-.35,1.25.18,1.36a8.26,8.26,0,0,0,2,.24C677.32,360.55,677.18,359.28,677.18,359.28Z" transform="translate(-603.89 -287.94)"/><path class="cls-17" d="M641.43,396.57a66.67,66.67,0,0,1,.19-12.23c.17-1.78.07-3.65.74-5.37a10.73,10.73,0,0,1,3-4c.58-.52,1.2-1,1.83-1.47a.35.35,0,0,1,.06-.59,10.63,10.63,0,0,1,2.48-1.17l.18-.13a.5.5,0,0,1,.5,0,2.05,2.05,0,0,1,2.21.65c.55.84.08,2-.07,2.91-.23,1.41-.31,2.85-.53,4.27a39.11,39.11,0,0,1-.93,4.4c-.32,1.14-.74,2.26-1.12,3.39a26.15,26.15,0,0,1-2.45,5.59,9,9,0,0,1-5.52,4.1A.45.45,0,0,1,641.43,396.57Z" transform="translate(-603.89 -287.94)"/><path class="cls-17" d="M622.43,373.68a.43.43,0,0,1,.23-.58c3.15-1.22,6.18-6.57,9.43-7.59a23.32,23.32,0,0,1,10.08-1,28.58,28.58,0,0,1,4.31,1,.43.43,0,0,1,.6-.37,23.34,23.34,0,0,1,3.06,1.48,4.57,4.57,0,0,1,2.17,2.28c.36,1.14-.48,2.16-1.43,2.83a16.12,16.12,0,0,1-4.71,2.16,29,29,0,0,1-9.63,1C634,374.75,623.5,376,622.43,373.68Z" transform="translate(-603.89 -287.94)"/><path class="cls-18" d="M637.61,365.89c.34.45-.42,1-.77.52s.42-1,.77-.52Z" transform="translate(-603.89 -287.94)"/><path class="cls-18" d="M631.87,367.23c.35.45-.42,1-.76.51s.42-1,.76-.51Z" transform="translate(-603.89 -287.94)"/><path class="cls-18" d="M632.75,369.72c.35.45-.42,1-.76.52s.42-1,.76-.52Z" transform="translate(-603.89 -287.94)"/><path class="cls-18" d="M636.07,367.34c.34.45-.42,1-.76.52s.42-1,.76-.52Z" transform="translate(-603.89 -287.94)"/><path class="cls-18" d="M633.87,372.33c.34.45-.42,1-.77.52s.42-1,.77-.52Z" transform="translate(-603.89 -287.94)"/><path class="cls-18" d="M638.12,373.47c.35.45-.42,1-.76.52s.42-1,.76-.52Z" transform="translate(-603.89 -287.94)"/><path class="cls-18" d="M642.75,369.93c.35.45-.41,1-.76.52s.42-1,.76-.52Z" transform="translate(-603.89 -287.94)"/><path class="cls-18" d="M645.32,367.52c.34.45-.42,1-.77.52s.42-1,.77-.52Z" transform="translate(-603.89 -287.94)"/><path class="cls-18" d="M638.48,370.68c.34.45-.42,1-.76.52s.41-1,.76-.52Z" transform="translate(-603.89 -287.94)"/><path class="cls-18" d="M648.78,376.46c.34.45-.42,1-.76.52s.42-1,.76-.52Z" transform="translate(-603.89 -287.94)"/><path class="cls-18" d="M644.65,379.13c.35.45-.42,1-.76.52s.42-1,.76-.52Z" transform="translate(-603.89 -287.94)"/><path class="cls-18" d="M645.1,382.59c.34.45-.42,1-.76.52s.41-1,.76-.52Z" transform="translate(-603.89 -287.94)"/><path class="cls-18" d="M648.79,383.58c.35.45-.42,1-.76.52s.42-1,.76-.52Z" transform="translate(-603.89 -287.94)"/><path class="cls-18" d="M645.74,388.61c.34.45-.42,1-.76.52s.41-1,.76-.52Z" transform="translate(-603.89 -287.94)"/><path class="cls-18" d="M643.79,386.83c.35.45-.41,1-.76.52s.42-1,.76-.52Z" transform="translate(-603.89 -287.94)"/><path class="cls-18" d="M644.2,391.4c.35.45-.42,1-.76.52s.42-1,.76-.52Z" transform="translate(-603.89 -287.94)"/><path class="cls-18" d="M647.18,391.26c.34.45-.42,1-.76.52s.42-1,.76-.52Z" transform="translate(-603.89 -287.94)"/><path class="cls-18" d="M628.39,372.28c.35.45-.42,1-.76.51s.42-1,.76-.51Z" transform="translate(-603.89 -287.94)"/><path class="cls-18" d="M629.46,367.92c.35.45-.41,1-.76.52s.42-1,.76-.52Z" transform="translate(-603.89 -287.94)"/><path class="cls-18" d="M650.93,378.5c.34.45-.42,1-.76.52s.41-1,.76-.52Z" transform="translate(-603.89 -287.94)"/><path class="cls-18" d="M646,371.89c.35.45-.41,1-.76.51s.42-1,.76-.51Z" transform="translate(-603.89 -287.94)"/><path class="cls-19" d="M646.7,391.11a23.43,23.43,0,0,0,2.49-6.82c.7-4.11,1.91-7.51,1.29-12,.18-.06-1-.49-.78-.54l.18-.13a.5.5,0,0,1,.5,0,2.05,2.05,0,0,1,2.21.65c.55.84.08,2-.07,2.91-.23,1.41-.31,2.85-.53,4.27a39.11,39.11,0,0,1-.93,4.4c-.32,1.14-.74,2.26-1.12,3.39a26.15,26.15,0,0,1-2.45,5.59,9,9,0,0,1-5.52,4.1A16.25,16.25,0,0,0,646.7,391.11Z" transform="translate(-603.89 -287.94)"/><path class="cls-19" d="M622.43,373.68a.43.43,0,0,1,.23-.58l.19-.08-.08.05a.43.43,0,0,0-.12.61c1.49,2.11,13-.1,15.56-.39a33,33,0,0,0,10-2.48c1.51-.73,1.65-2.45,2.84-3.6a3.39,3.39,0,0,1,1.25,1.64c.36,1.14-.48,2.16-1.43,2.83a16.12,16.12,0,0,1-4.71,2.16,29,29,0,0,1-9.63,1C634,374.75,623.5,376,622.43,373.68Z" transform="translate(-603.89 -287.94)"/><g class="cls-20"><path class="cls-21" d="M648.64,368.62c-3-.82-7.78-2.11-10.76-.57,1.54.61,4.37,0,5.47,1.38-2.63-.05-7.53-.9-9.68.81,1.09,1.14,5,.8,6.63.78a69.25,69.25,0,0,0,8.84-1.18Z" transform="translate(-603.89 -287.94)"/></g><g class="cls-20"><path class="cls-21" d="M650.07,373.38c-2.49,1.82-5.77,5.6-5,8.78,1.41-.77,2.24-3.11,3.09-4.44-.07,3.19-2.21,6.06-2.38,9.23,1.75-1,2.46-4.64,3-6.4.78-2.61,1.43-5.26,2.13-7.85Z" transform="translate(-603.89 -287.94)"/></g><path class="cls-22" d="M643.7,366.91a12.09,12.09,0,0,0-3.29-.31,12.44,12.44,0,0,0-6.49,1.66.84.84,0,0,0-.49.45,1.19,1.19,0,0,1-.32.51,2.5,2.5,0,0,1-1.38.33,3.53,3.53,0,0,0-.84.25,2.43,2.43,0,0,0-.4.18l.21.12a1.47,1.47,0,0,1,.55.43c.22.29,0,.62-.34.69a8.76,8.76,0,0,1-3.88,0,8.87,8.87,0,0,1-3.15-1.4c-.34-.25.47-.31.85-.38,1.15-.22,1.69-.91,2.82-1.21a39.54,39.54,0,0,0,4.12-1.47,20.49,20.49,0,0,1,4.12-1.21,21.27,21.27,0,0,1,4-.23,16.07,16.07,0,0,1,4.32.78.33.33,0,0,1,.26.44A.51.51,0,0,1,643.7,366.91Z" transform="translate(-603.89 -287.94)"/><path class="cls-22" d="M642.11,395.77c.4-1.33-.1-3.13-.1-4.48s.12-2.75.2-4.12.11-2.74.13-4.11a15.28,15.28,0,0,1,.34-3.5,6.39,6.39,0,0,1,.74-1.81l0,0a.3.3,0,0,1,.09-.13,4.6,4.6,0,0,1,1.23-1.26c.48-.34,1.4-.39.91-.05a9.28,9.28,0,0,0-1.38,1.77h0a9.72,9.72,0,0,0-.73,2.41,5.91,5.91,0,0,0-.08,2.33,6.22,6.22,0,0,0,.38,1.1c.15.33.5.45.73.73.41.48.18,1.19,0,1.74a14.09,14.09,0,0,0-.38,2,2.84,2.84,0,0,0,.07,1.16c.09.29.11.73.36.92s.39.31.41.59a2,2,0,0,1-.18.79,10.47,10.47,0,0,1-.6,1.32c-.48.85-1,1.66-1.61,2.46C642.43,396,642,396.18,642.11,395.77Z" transform="translate(-603.89 -287.94)"/><path class="cls-23" d="M658.91,371.46a6.19,6.19,0,0,1-1.4-.78,10.64,10.64,0,0,1-1.57-1.25,19.35,19.35,0,0,1-2.56-3.16,21.51,21.51,0,0,1-2.27-4,43.73,43.73,0,0,1-1.51-4.62.31.31,0,0,1,0-.21.47.47,0,0,1,.74-.43,13.71,13.71,0,0,1,2.55,2.83c.85,1.13,1.59,2.33,2.44,3.46s1.83,2.3,2.74,3.46c.41.53.82,1.07,1.25,1.59a20.68,20.68,0,0,0,1.45,1.51c.32.32.83.74.88,1.21a.7.7,0,0,1-.64.7A4.37,4.37,0,0,1,658.91,371.46Z" transform="translate(-603.89 -287.94)"/><path class="cls-24" d="M646.88,362.72a13.09,13.09,0,0,1,5.89-9.58,10.37,10.37,0,0,1,6.32-1.51,11.88,11.88,0,0,1,5.49,2,11.25,11.25,0,0,1,5,8.19,10.07,10.07,0,0,1-.86,5,11.84,11.84,0,0,1-3.66,4.4,13.65,13.65,0,0,1-4.34,2,10.57,10.57,0,0,1-5.8.5,3,3,0,0,1-1-.53,1.67,1.67,0,0,1-.25-2.44,2,2,0,0,1,2.62-.3l.12.09c.18.15-.48-.21-.2-.12l.16.06c.27.12-.43-.08-.2-.05l.43.06c.08,0,.36,0,0,0s0,0,.1,0a7.91,7.91,0,0,0,1.08-.11l.57-.1.27-.06-.25.06.22-.06a21.89,21.89,0,0,0,2.26-.7c.34-.13.67-.26,1-.41l.37-.17c-.47.22-.28.15,0,0a7.66,7.66,0,0,0,.88-.61c.15-.12.29-.26.45-.37l-.19.17a.86.86,0,0,1,.14-.13,2.5,2.5,0,0,0,.23-.23,9,9,0,0,0,.78-.86l.34-.45c.19-.28-.13.2-.07.1l.18-.28a9.25,9.25,0,0,0,.48-.94c.07-.16.13-.32.19-.48a.76.76,0,0,0,0-.11c.07-.17-.09.28-.08.24l.09-.3a8.13,8.13,0,0,0,.21-1,4.1,4.1,0,0,0,.06-.49c0-.08,0-.15,0-.23a1.17,1.17,0,0,0,0,.26.85.85,0,0,0,0-.16,10.15,10.15,0,0,0-.2-2c0-.11.11.45,0,.14a2.33,2.33,0,0,0-.07-.25c0-.16-.09-.32-.14-.47-.12-.32-.25-.64-.39-1-.07-.15-.15-.29-.23-.44s.25.42.08.14a1.76,1.76,0,0,0-.14-.23,8.29,8.29,0,0,0-.6-.86,7.8,7.8,0,0,0-.66-.76c-.06-.06-.27-.28,0,0s0,0-.06-.05l-.39-.34a9.23,9.23,0,0,0-.86-.65l-.41-.26c-.06,0-.39-.22-.08,0s0,0-.08-.05a9.28,9.28,0,0,0-1-.45l-.47-.17-.29-.09-.12,0c-.18-.06.37.09.14,0a10.74,10.74,0,0,0-1.38-.23l-.36,0c-.33,0,.39,0,.06,0l-.69,0a5.4,5.4,0,0,0-.58.08l-.33.06c-.2,0,.26-.06.23-.06a.53.53,0,0,1-.18,0,7.47,7.47,0,0,0-1.2.43l-.25.11c-.19.09.27-.13.23-.12l-.12.07c-.19.11-.38.21-.56.33a10.31,10.31,0,0,0-1,.72c-.3.25.28-.26.05-.05-.07.07-.14.13-.2.2s-.31.31-.46.47a9.59,9.59,0,0,0-.77.94l-.17.23-.11.16s.23-.36.13-.19-.21.34-.31.52a9.9,9.9,0,0,0-.58,1.12c-.08.19-.16.37-.23.56L651,361c0,.07-.15.43,0,.13s0,.06,0,.14a2,2,0,0,0-.07.26,6,6,0,0,0-.15.61,10.82,10.82,0,0,0-.17,1.12,1.93,1.93,0,0,1-2.16,1.47,1.75,1.75,0,0,1-1.51-2Z" transform="translate(-603.89 -287.94)"/><path class="cls-25" d="M646.9,363.33a1.75,1.75,0,0,0,1.49,1.37,1.94,1.94,0,0,0,2.16-1.47,10.82,10.82,0,0,1,.17-1.12,6,6,0,0,1,.15-.61c0-.09,0-.18.07-.27l.07-.2,0-.06.09-.26.23-.56c.18-.38.37-.76.58-1.12l.28-.47v0c.06-.07.11-.15.17-.23a11.29,11.29,0,0,1,.77-.94c.15-.16.3-.32.46-.47l.15-.15a11.19,11.19,0,0,1,1-.72c.17-.11.35-.21.53-.31l.17-.08a7.47,7.47,0,0,1,1.2-.43h.07l.21,0a5.4,5.4,0,0,1,.58-.08l.65,0,.34,0a9.85,9.85,0,0,1,1.32.23h0l.29.09.47.17a9.28,9.28,0,0,1,1,.45l.11.06,0,0,.41.26a9.23,9.23,0,0,1,.86.65l.39.34.07.07h0l.25.27a7.9,7.9,0,0,0-.49-.69c-.21-.26-.43-.52-.66-.76h0l-.07-.07-.39-.34c-4-3.33-9.71-1.37-11.72,3.13-.08.19-.16.37-.23.56s-.07.17-.1.26l0,.06s-.05.17-.06.2,0,.18-.08.27-.1.4-.14.61a10.87,10.87,0,0,0-.18,1.12,1.92,1.92,0,0,1-2.15,1.47A2.55,2.55,0,0,1,646.9,363.33Zm8.44-7.65.09-.05S655.4,355.65,655.34,355.68Z" transform="translate(-603.89 -287.94)"/><path class="cls-25" d="M654.44,354.5l.09-.05Z" transform="translate(-603.89 -287.94)"/><path class="cls-25" d="M660.68,373.23a10.67,10.67,0,0,1-5.8.5,3,3,0,0,1-1-.53,1.84,1.84,0,0,1-.62-1,3.35,3.35,0,0,0,.75.33,10.67,10.67,0,0,0,5.8-.5,13.5,13.5,0,0,0,4.33-2,11.65,11.65,0,0,0,3.66-4.4,10,10,0,0,0,.87-5,10.82,10.82,0,0,0-1.81-5,11,11,0,0,1,2.71,6.2,10,10,0,0,1-.86,5,11.75,11.75,0,0,1-3.66,4.4A13.55,13.55,0,0,1,660.68,373.23Z" transform="translate(-603.89 -287.94)"/><path class="cls-17" d="M652.41,375.76a6.1,6.1,0,0,1-1.46-1.58c-.59-.8-1.2-1.58-1.85-2.34a26.78,26.78,0,0,1-4-5.27,7.83,7.83,0,0,1-.85-2.95c-.07-1,2.12-4.55,2.7-5.43a18.66,18.66,0,0,1,1.72-2,.94.94,0,0,1,1-.27,28.73,28.73,0,0,0,4,6.87,60.31,60.31,0,0,0,5,5.71c.85.85,1.75,1.64,2.62,2.46.55.52,1.6,1.46,1.52,1.71C662.57,373.52,653.82,376.7,652.41,375.76Z" transform="translate(-603.89 -287.94)"/><path class="cls-18" d="M652.88,365.89c.34.45-.42,1-.76.51s.41-1,.76-.51Z" transform="translate(-603.89 -287.94)"/><path class="cls-18" d="M650.88,371.14c.34.45-.42,1-.76.52s.41-1,.76-.52Z" transform="translate(-603.89 -287.94)"/><path class="cls-18" d="M649.45,367.54c.34.45-.42,1-.77.52s.42-1,.77-.52Z" transform="translate(-603.89 -287.94)"/><path class="cls-18" d="M646.87,364.18c.35.45-.42,1-.76.52s.42-1,.76-.52Z" transform="translate(-603.89 -287.94)"/><path class="cls-18" d="M650.25,361.49c.34.45-.42,1-.77.52s.42-1,.77-.52Z" transform="translate(-603.89 -287.94)"/><path class="cls-18" d="M651.34,364.65c.34.44-.42,1-.76.51s.42-1,.76-.51Z" transform="translate(-603.89 -287.94)"/><path class="cls-18" d="M656.69,367.6c.34.45-.42,1-.76.52s.42-1,.76-.52Z" transform="translate(-603.89 -287.94)"/><path class="cls-18" d="M654.65,371.27c.34.45-.42,1-.76.52s.42-1,.76-.52Z" transform="translate(-603.89 -287.94)"/><path class="cls-18" d="M660.08,372c.34.45-.42,1-.77.52s.42-1,.77-.52Z" transform="translate(-603.89 -287.94)"/><path class="cls-18" d="M649.87,358.12c.34.44-.42,1-.76.51s.41-1,.76-.51Z" transform="translate(-603.89 -287.94)"/><path class="cls-18" d="M646.87,366.87c.35.45-.42,1-.76.52s.42-1,.76-.52Z" transform="translate(-603.89 -287.94)"/><path class="cls-18" d="M646.89,360.94c.34.45-.42,1-.76.52s.42-1,.76-.52Z" transform="translate(-603.89 -287.94)"/><path class="cls-18" d="M656,374.23c.35.45-.41,1-.76.52s.42-1,.76-.52Z" transform="translate(-603.89 -287.94)"/><g class="cls-20"><path class="cls-21" d="M651.27,374.23c1.36.9,9.47-2,10.36-3,.56.52,1.28,1.21,1.21,1.42-.27.82-9,4-10.43,3.06a6.1,6.1,0,0,1-1.46-1.58Z" transform="translate(-603.89 -287.94)"/></g><g class="cls-26"><path class="cls-10" d="M652.47,361.27a17.81,17.81,0,0,0-1.72,2c-.58.88-2.77,4.4-2.7,5.43a7.86,7.86,0,0,0,.81,2.88,24.87,24.87,0,0,1-3.71-5,7.83,7.83,0,0,1-.85-2.95c-.07-1,2.12-4.55,2.7-5.43a18.66,18.66,0,0,1,1.72-2,.94.94,0,0,1,1-.27,27.63,27.63,0,0,0,2.8,5.27Z" transform="translate(-603.89 -287.94)"/></g><g class="cls-26"><path class="cls-10" d="M651.24,355.11a8.88,8.88,0,0,1,7.7-2.58.44.44,0,1,1-.16.86,7.87,7.87,0,0,0-6.82,2.25c-.39.44-1.11-.1-.72-.53Z" transform="translate(-603.89 -287.94)"/></g><g class="cls-26"><path class="cls-10" d="M660.77,353c.37.19.73.42,1.12.58.55.22.16,1-.38.8s-.76-.39-1.13-.58a.42.42,0,0,1-.23-.57.5.5,0,0,1,.62-.23Z" transform="translate(-603.89 -287.94)"/></g><g class="cls-26"><path class="cls-10" d="M667.5,364.23a5,5,0,0,1-.58,1.92c-.32.59-.73,1.13-1.07,1.71s-1.15.15-.85-.35a8.06,8.06,0,0,0,1.58-3.41c.06-.55,1-.42.92.13Z" transform="translate(-603.89 -287.94)"/></g><g class="cls-27"><path class="cls-10" d="M648.29,359.29a18.1,18.1,0,0,0-1.94,2.79c-.28.5-1.13.16-.85-.34a19.59,19.59,0,0,1,2.07-3c.38-.45,1.09.09.72.53Z" transform="translate(-603.89 -287.94)"/></g><path class="cls-4" d="M657.85,400.69c-8.64-5.82-11.09-9.62-9-13.29s8.1-4.62,19.49.78c9.59,4.55,19,9,15.23,15.68S668.65,408,657.85,400.69Z" transform="translate(-603.89 -287.94)"/><path class="cls-3" d="M687.57,408.93c-1.26,0-2.51.32-3.77.39a28.78,28.78,0,0,1-3.94,0,34.93,34.93,0,0,1-7.64-1.44A52.1,52.1,0,0,1,658.46,401c-2.4-1.61-4.65-3.42-7-5.12-.06,0-.12.05-.07.1A63.59,63.59,0,0,0,664,405.34a39.09,39.09,0,0,0,14.7,5,27.22,27.22,0,0,0,4.51.16,13.9,13.9,0,0,0,4.44-.66C688.13,409.67,688.1,408.91,687.57,408.93Z" transform="translate(-603.89 -287.94)"/><path class="cls-3" d="M684.64,391.45a7.66,7.66,0,0,0-3-1.59c-1.07-.43-2.15-.82-3.25-1.19-2.27-.76-4.59-1.39-6.93-1.93s-4.72-1-7.09-1.4a68.05,68.05,0,0,0-7-.95c-.12,0-.14.18,0,.21,2.31.66,4.71,1,7.05,1.51s4.54,1,6.79,1.53,4.46,1.2,6.65,1.94c1.09.37,2.17.76,3.25,1.19a10.34,10.34,0,0,0,3.31,1.14A.27.27,0,0,0,684.64,391.45Z" transform="translate(-603.89 -287.94)"/><path class="cls-3" d="M687.58,394.23a5.82,5.82,0,0,0-2-2.88c-.21-.16-.45.18-.27.35a6.5,6.5,0,0,1,1.71,2.8,12.27,12.27,0,0,1,.16,3.14.22.22,0,0,0,.41.11A4.61,4.61,0,0,0,687.58,394.23Z" transform="translate(-603.89 -287.94)"/><path class="cls-13" d="M655.57,385.89c-1.39.08-3.39,1.71-3.53,3.16,0,.05.06.07.09,0,.57-.47,1-1.13,1.53-1.61a23.2,23.2,0,0,1,2-1.25A.18.18,0,0,0,655.57,385.89Z" transform="translate(-603.89 -287.94)"/><path class="cls-13" d="M682,391.38a20.5,20.5,0,0,0-5.37-2.32c-2-.6-4-1.12-6-1.56s-3.88-.72-5.84-1c-1-.12-2-.23-3-.29-.5,0-1-.08-1.5-.09a11.23,11.23,0,0,0-1.64.15c-.22,0-.3.34-.06.4,1.93.5,3.92.68,5.89,1s3.85.7,5.77,1.12,3.81.92,5.69,1.49a43.67,43.67,0,0,0,5.81,1.55A.26.26,0,0,0,682,391.38Z" transform="translate(-603.89 -287.94)"/><path class="cls-13" d="M657,397.54c-1.17-.9-2.49-1.59-3.65-2.5s-2-1.89-3.06-2.71c-.11-.08-.2.07-.16.16a12,12,0,0,0,6.75,5.33A.15.15,0,0,0,657,397.54Z" transform="translate(-603.89 -287.94)"/><path class="cls-4" d="M649.51,370.06a4.34,4.34,0,0,0-1.21,4.51,8.87,8.87,0,0,0-.88.59c-2.22-1.31-5-1.59-5.6-.45-.81,1.64-.52,2.15.18,2.66a2.32,2.32,0,0,0-.59-.14.61.61,0,0,0-.33,0c-1,.24-1.35,1.66-1.14,2.48a2.59,2.59,0,0,0,.32.72,4.51,4.51,0,0,0,.49.66l.29.33.11.12a1.89,1.89,0,0,0-.51-.26,1.17,1.17,0,0,0-.67,0,1.84,1.84,0,0,0-1.17,2.54,3.56,3.56,0,0,0,.45.69,4.68,4.68,0,0,0,.38.39.8.8,0,0,0-.29.15l0,0a1.49,1.49,0,0,0-.33.41,1.78,1.78,0,0,0-.21.54,2.43,2.43,0,0,0,0,.76,2.86,2.86,0,0,0,.22.81,3.16,3.16,0,0,0,.4.72,7,7,0,0,0,.52.67c.1.12,8,6.78,10.61,5.8a17,17,0,0,0,2.58-1.68,20,20,0,0,0,4.19-5,15.77,15.77,0,0,0,1-2.06,9.45,9.45,0,0,0-1-4.92,22.23,22.23,0,0,0-3.68-5.27c-.1-.19-.2-.38-.29-.57a7.42,7.42,0,0,1-.54-1.85,13.26,13.26,0,0,1-.2-1.65,6.36,6.36,0,0,0-.06-1.38C652.12,368.91,650.39,369.36,649.51,370.06Z" transform="translate(-603.89 -287.94)"/><path class="cls-4" d="M643.91,390.87a3.77,3.77,0,0,0,2-.32,1.54,1.54,0,0,0,.33-2c1.85.3,2.66-1.91,1.94-3.09,2.19.93,2.4-2.31,1.41-3.54,1.25.6,2.07-1.57,1.56-2.71a9.46,9.46,0,0,0-1.79-2.39,9.85,9.85,0,0,0-2.05-1.6c-2.22-1.29-5-1.56-5.56-.43-.82,1.65-.53,2.15.17,2.66a2.32,2.32,0,0,0-.59-.14.69.69,0,0,0-.32,0c-1,.24-1.36,1.67-1.15,2.48a2.8,2.8,0,0,0,.32.73,5.34,5.34,0,0,0,.5.65l.29.33.11.13a2.08,2.08,0,0,0-.51-.27,1.31,1.31,0,0,0-.68,0,1.83,1.83,0,0,0-1.16,2.54,3.15,3.15,0,0,0,.45.69,3.41,3.41,0,0,0,.37.39.89.89,0,0,0-.29.15l0,0a1.49,1.49,0,0,0-.34.41,2.08,2.08,0,0,0-.24,1.31,2.78,2.78,0,0,0,.21.8,3.89,3.89,0,0,0,.4.72C640.7,389.62,642.05,390.76,643.91,390.87Z" transform="translate(-603.89 -287.94)"/><path class="cls-13" d="M640.77,388.88a18.42,18.42,0,0,1,2,1.58,16.21,16.21,0,0,0,2.36,1.5s0,.11,0,.09c-1.56-.6-3.61-1.52-4.49-3C640.51,388.91,640.67,388.82,640.77,388.88Z" transform="translate(-603.89 -287.94)"/><path class="cls-13" d="M639,383.43a15.14,15.14,0,0,1,1.56,1.45,13.08,13.08,0,0,0,1.82,1.12c.08.05,0,.18-.07.17-1.24-.19-3.24-1.26-3.51-2.62C638.75,383.44,638.88,383.38,639,383.43Z" transform="translate(-603.89 -287.94)"/><path class="cls-13" d="M640.19,379.18a7.58,7.58,0,0,1,.88,1.32,7.14,7.14,0,0,0,1.39,1.24,0,0,0,0,1,0,.07,2.74,2.74,0,0,1-1.7-.78c-.43-.4-1-1.08-.86-1.71C639.91,379.19,640.07,379.07,640.19,379.18Z" transform="translate(-603.89 -287.94)"/><path class="cls-13" d="M641.57,375.92c.46.31.69.86,1.1,1.23a4.27,4.27,0,0,0,1.67.94c.09,0,0,.15,0,.15a3.21,3.21,0,0,1-2-.61c-.5-.37-1.07-.92-1-1.58A.18.18,0,0,1,641.57,375.92Z" transform="translate(-603.89 -287.94)"/><path class="cls-4" d="M626.24,374.62a3.8,3.8,0,0,0,1.8.82,1.55,1.55,0,0,0,1.4-1.5c1.37,1.28,3.28-.12,3.33-1.5,1.3,2,3.28-.59,3.14-2.16.71,1.19,2.59-.16,2.79-1.39a9.31,9.31,0,0,0,0-3,10.39,10.39,0,0,0-.82-2.47c-1.14-2.3-3.45-4.07-4.54-3.44-1.59.91-1.63,1.49-1.33,2.31a2.29,2.29,0,0,0-.41-.44.63.63,0,0,0-.26-.2c-.94-.34-2.06.63-2.33,1.43a2.56,2.56,0,0,0-.14.78,4.52,4.52,0,0,0,0,.82l.06.43a1,1,0,0,1,0,.17,2.19,2.19,0,0,0-.27-.5,1.14,1.14,0,0,0-.55-.4,1.84,1.84,0,0,0-2.38,1.46,4.07,4.07,0,0,0,.09,1.36,1.12,1.12,0,0,0-.32,0h0a1.31,1.31,0,0,0-.5.15,1.82,1.82,0,0,0-.48.34,2.47,2.47,0,0,0-.45.61,2.84,2.84,0,0,0-.27.79,3.73,3.73,0,0,0-.06.82C624.26,371.79,624.75,373.5,626.24,374.62Z" transform="translate(-603.89 -287.94)"/><path class="cls-13" d="M626.25,365.68a14.31,14.31,0,0,1,.49,2.08,14.2,14.2,0,0,0,.9,1.94.09.09,0,0,1-.15.1c-.94-.85-2-2.85-1.48-4.12A.13.13,0,0,1,626.25,365.68Z" transform="translate(-603.89 -287.94)"/><path class="cls-13" d="M629.63,362.82a9.39,9.39,0,0,1,0,1.59,6.66,6.66,0,0,0,.48,1.8,0,0,0,0,1-.06.05,2.6,2.6,0,0,1-1-1.59,2.08,2.08,0,0,1,.23-1.9C629.38,362.68,629.58,362.66,629.63,362.82Z" transform="translate(-603.89 -287.94)"/><path class="cls-13" d="M632.58,360.88a10.8,10.8,0,0,1,.23,1.64,4.2,4.2,0,0,0,.87,1.69c.07.08,0,.16-.11.11a3.18,3.18,0,0,1-1.34-1.62,1.91,1.91,0,0,1,0-1.87A.18.18,0,0,1,632.58,360.88Z" transform="translate(-603.89 -287.94)"/><path class="cls-4" d="M628.26,378.05c-.44-.6-.78-1.25-1.27-1.81a.08.08,0,0,0-.13.06,4,4,0,0,0,.8,2.35c.34.53.87,1.5,1.6,1.36a.28.28,0,0,0,.2-.27C629.53,379.11,628.61,378.52,628.26,378.05Z" transform="translate(-603.89 -287.94)"/><path class="cls-4" d="M651.56,408.11a19.58,19.58,0,0,1-6.14-2.59,23.56,23.56,0,0,1-5-4.83,59.6,59.6,0,0,1-7.59-11.54,62.08,62.08,0,0,1-2.59-7.34.16.16,0,0,0-.31,0,14.58,14.58,0,0,0,1.54,6.78,39.74,39.74,0,0,0,3.5,6.36c2.61,4,5.49,8.18,9.35,11,2.06,1.51,4.6,2.76,7.22,2.56A.24.24,0,0,0,651.56,408.11Z" transform="translate(-603.89 -287.94)"/><path class="cls-4" d="M665.15,377.27a12.14,12.14,0,0,0-3,2,13.73,13.73,0,0,0-2.63,2.7c0,.05,0,.12.09.08,1-.67,1.88-1.4,2.79-2.15s2-1.48,2.9-2.35C665.38,377.41,665.29,377.21,665.15,377.27Z" transform="translate(-603.89 -287.94)"/></g></g></svg>