<svg xmlns="http://www.w3.org/2000/svg" viewBox="0 0 125.7 173.55"><defs><style>.cls-1{isolation:isolate;}.cls-2{fill:#f5f5f5;mix-blend-mode:multiply;}.cls-3{fill:#ffb191;}.cls-4{fill:#f7a17e;}.cls-5{fill:#ffc0a6;}.cls-6{fill:#fae7db;}.cls-7{fill:#d1785a;}.cls-8{fill:#f2f2f2;}.cls-9{fill:#e6e6e6;}.cls-10{fill:#2a86ad;}.cls-11,.cls-25,.cls-26,.cls-27{fill:#fff;}.cls-12{fill:#54bee8;}.cls-13{fill:#de954c;}.cls-14{fill:#ffd5c6;}.cls-15{fill:#800035;}.cls-16{fill:#d4145a;}.cls-17{fill:#ff584e;}.cls-18{fill:#f0a245;}.cls-19{fill:#da2a33;}.cls-20{fill:#ce7f29;}.cls-21{opacity:0.44;}.cls-22{fill:#2ac5d4;}.cls-23{fill:#a6c4c4;}.cls-24{fill:#7fa5a8;}.cls-25{opacity:0.37;}.cls-26{opacity:0.64;}.cls-27{opacity:0.29;}.cls-28{fill:#99ebd9;}.cls-29{fill:#5ad1cb;}.cls-30{fill:#ff94b2;}.cls-31{fill:#ff4277;}.cls-32{fill:#fded64;}.cls-33{fill:#fdd437;}.cls-34{fill:#4fe6b6;}.cls-35{fill:#0fb797;}.cls-36{fill:#698d93;}.cls-37{opacity:0.45;}.cls-38{fill:#0dafc1;}.cls-39{fill:#ffb;opacity:0.15;}.cls-40{opacity:0.54;}.cls-41{opacity:0.38;}.cls-42{fill:#d1832f;}</style></defs><g class="cls-1"><g id="Слой_1" data-name="Слой 1"><ellipse class="cls-2" cx="53.85" cy="165.74" rx="49.2" ry="7.81"/><path class="cls-3" d="M706.45,409.32a59.1,59.1,0,0,0-2.65-12.17c-2.46-7.17-6.44-14-12-18.92a24.84,24.84,0,0,0-9.08-5.2,22.33,22.33,0,0,0-11.39-.3c-7.73,1.78-14.18,7.47-19,13.95a48.16,48.16,0,0,0-5.91,9.93,51.28,51.28,0,0,0-3.21,11.15c-1.36,7.72-1.43,16.17,1.1,23.66a21.59,21.59,0,0,0,1.82,4.07c-.26,4,4.65,6.48,7.73,7.74a50,50,0,0,0,7.78,2.42,33.8,33.8,0,0,0,5.74.91,53.62,53.62,0,0,0,26.9-5.57,25.53,25.53,0,0,0,8.39-6.42,19.29,19.29,0,0,0,4.05-9.94A65.9,65.9,0,0,0,706.45,409.32Z" transform="translate(-621.04 -297.36)"/><path class="cls-4" d="M673.34,400.75A12.07,12.07,0,0,0,667,399a38.13,38.13,0,0,0-7.32.4,43.5,43.5,0,0,0-15.21,5.22.62.62,0,0,0-.34.57,12.43,12.43,0,0,0-1.25,4.1c0,.3,2.16,8.69,2.47,8.77,2.36.64,14.61-10.43,15.81-9.91a24.28,24.28,0,0,0,2.94,1.22,10,10,0,0,0,5.73-.22,8.74,8.74,0,0,0,4.64-3.43A3.56,3.56,0,0,0,673.34,400.75Z" transform="translate(-621.04 -297.36)"/><path class="cls-3" d="M665.66,376.26a5.4,5.4,0,0,0-2.42-1.19,7.34,7.34,0,0,0-3.94-1.29c-3.24-.24-6.56.71-9.62,1.67-7.23,2.29-18.09,7.56-23.77,12.85-3.07,2.85-4.21,3.71-4.22,8,0,3.72,4,7.42,7.37,9,4.21,2,9,.84,13.25-.46a49.21,49.21,0,0,0,14-7c4.06-2.89,8.17-6.35,10.42-10.91C668.29,383.68,668.71,378.87,665.66,376.26Z" transform="translate(-621.04 -297.36)"/><path class="cls-5" d="M727.16,387.18a9.47,9.47,0,0,1-.68,1.11c-3.06,4.21-8.69,5-13.62,5.43-7.5.7-19.36.21-26.39-2.14-3.8-1.27-5.15-1.57-6.57-5.14-1.23-3.1,1.3-7.63,3.91-10.19,3.26-3.18,8.13-3.95,12.51-4.39a51.7,51.7,0,0,1,15.33.84c4.73.94,9.7,2.35,13.3,5.34C727.72,380.33,728.86,383.86,727.16,387.18Z" transform="translate(-621.04 -297.36)"/><path class="cls-3" d="M722.91,390.35a8.32,8.32,0,0,0-3.15.29,9.38,9.38,0,0,1-4.42.82c-16.38,1.31-19-19.6-19-19.6-4.38.44-9.25,1.21-12.51,4.39-2.61,2.56-5.14,7.09-3.91,10.19,1.42,3.57,2.77,3.87,6.57,5.14,7,2.35,18.89,2.84,26.39,2.14,4-.37,8.44-.94,11.62-3.38C723.94,390.36,723.42,390.36,722.91,390.35Z" transform="translate(-621.04 -297.36)"/><path class="cls-4" d="M706.63,409c-.5-4.15-1.5-11.07-2.86-15-2.46-7.17-5.68-8-3.09-.9,3.5,9.66,2.79,25.86,2.2,30.9-.43,3.68-4.87,7.79-7.13,10.58a25.53,25.53,0,0,1-8.39,6.42,52.07,52.07,0,0,1-18,5.3,53.37,53.37,0,0,0,25.09-5.63,25.53,25.53,0,0,0,8.39-6.42,19.33,19.33,0,0,0,4-9.94A65.9,65.9,0,0,0,706.63,409Z" transform="translate(-621.04 -297.36)"/><path class="cls-5" d="M626.59,392.15c16.86-14.18,31.9-17.93,32.59-17.34,1.1.95,8.41,3.1,6.48,1.45a5.4,5.4,0,0,0-2.42-1.19,7.34,7.34,0,0,0-3.94-1.29c-3.24-.24-6.56.71-9.62,1.67-7.23,2.29-18.09,7.56-23.77,12.85-3.07,2.85-4.21,3.71-4.22,8a5.4,5.4,0,0,0,.21,1.54C627.66,401.74,623.82,394.48,626.59,392.15Z" transform="translate(-621.04 -297.36)"/><path class="cls-6" d="M708.76,421c-.29-3-.74-12.38-3.54-10.36-6.92,5-35.26,6.32-63.27,2.07-6.43-1-3.88,16.68-4.94,22.73-1.19,6.79,3.63,11.32,6,17.6a13.66,13.66,0,0,0,5.34,6.52,24.46,24.46,0,0,0,9.25,3.38c12.39,2.23,30.3,2.95,40.88-5.1S710,433.24,708.76,421Z" transform="translate(-621.04 -297.36)"/><path class="cls-5" d="M736.51,363.9a6.52,6.52,0,0,0-1.31-4.82,5.11,5.11,0,0,0-4.31-1.75c-1.85.16-2.58-.23-3.88,1,0,0-9.11,12.58-12.66,16.5-4.63,5.12.21,11.24,1.33,12.66a12,12,0,0,0,3.65,3.34c5.06,2.6,8.28-4.68,9.79-8.2,1.18-2.77,2.47-5.45,3.79-8.16C734.5,371.2,736.26,367.61,736.51,363.9Z" transform="translate(-621.04 -297.36)"/><path class="cls-3" d="M735.2,359.08a5,5,0,0,0-2.08-1.44c1,1.3,3,2.44,2.88,4-.25,3.71-6,17-7.17,19.8-1.5,3.5-8.09,10.72-13.49,10,.65.65,1.65.59,2.53.79,6.76,1.48,10.69-6.63,12.41-10.07,3.41-6.85,7.39-18.09,6.67-21C736.53,359.57,736.35,360.41,735.2,359.08Z" transform="translate(-621.04 -297.36)"/><path class="cls-5" d="M683.71,396.67a4.52,4.52,0,0,0,3,2.75c13.34,4.83,21.39,1.32,29.46,7,5.64,4,8.48,10.83,3.63,17-5.14,6.57-14.78,4.47-21.35,1.5a27.89,27.89,0,0,1-4.62-2.59,49,49,0,0,1-4.64-3.87c-3.13-2.83-6.46-6-10.66-7.23-.58-.16-1.15-.3-1.72-.4-2.31-.44-2-.79-2-.82-.22,0-.8-3-.36-4.7a10.71,10.71,0,0,1,2.94-4.65A19.22,19.22,0,0,1,683.71,396.67Z" transform="translate(-621.04 -297.36)"/><path class="cls-5" d="M722.28,417.48c-.06-2.33-.44-5-2-6.87-2.48-3-6.87-2.65-10.16-1.16-.87.15-1.74.35-2.61.56a45.32,45.32,0,0,0-7.36,2.52,33.48,33.48,0,0,0-12.1,8.53A29.73,29.73,0,0,0,682,434.22a30.64,30.64,0,0,0,.11,14.5c1.19,4.26,3.61,9.08,8.09,10.71,5.14,1.88,10.81-.91,14.41-4.52a63.09,63.09,0,0,0,10.11-13.71,67.43,67.43,0,0,0,6.41-15.44A29.76,29.76,0,0,0,722.28,417.48Z" transform="translate(-621.04 -297.36)"/><path class="cls-3" d="M722.28,417.48c-.06-2.33-.44-5-2-6.87a5.81,5.81,0,0,0-.59-.62,13.81,13.81,0,0,1,1,5.31,29.76,29.76,0,0,1-1.14,8.28,67.47,67.47,0,0,1-6.4,15.45c-2.77,4.93-5.23,11.15-8.57,15.88h0a63.09,63.09,0,0,0,10.11-13.71,67.43,67.43,0,0,0,6.41-15.44A29.76,29.76,0,0,0,722.28,417.48Z" transform="translate(-621.04 -297.36)"/><path class="cls-5" d="M677.62,411a6.7,6.7,0,0,0,.6-.45c1.89-1.65,2.8-4.32,3.59-6.6a54.64,54.64,0,0,0,1.86-5.29c.43-3,.87-8.29,2.35-10.06,1.35-1.6,1.13-2.55-.12-3.34a3,3,0,0,0-3.85,1.11l-.82,1.58a.27.27,0,0,1-.52-.13c0-1.4-.09-3.44-1.06-3.39-1.81.08-1.55,2.45-1.74,3.26a.17.17,0,0,1-.31.06c-.53-.82-1.1-2.12-1.88-1.88s-.68,2-.44,3c0,.06-.45.12-.48.06-.36-.5-.88-1.62-1.6-1.23s-.47,1.27-.25,2.29a.22.22,0,0,1-.32.24c-.67-.39-1.13-.94-1.77-.28-.89.91.76,1.82.76,1.82.38,3.64-1.54,19,5,19.36A3.32,3.32,0,0,0,677.62,411Z" transform="translate(-621.04 -297.36)"/><path class="cls-3" d="M709,422.16a49.13,49.13,0,0,1-5.5,1.24,16.37,16.37,0,0,1-5.83-.44,17.05,17.05,0,0,1-4.66-2,20.19,20.19,0,0,1-4-3.26c0-.05-.11,0-.07.05a12.68,12.68,0,0,0,1.72,2.15,15.8,15.8,0,0,0,2,1.68,16.68,16.68,0,0,0,4.86,2.25,17.36,17.36,0,0,0,5.92.53,11.14,11.14,0,0,0,5.74-1.8A.23.23,0,0,0,709,422.16Z" transform="translate(-621.04 -297.36)"/><path class="cls-5" d="M665.32,431.2a36.74,36.74,0,0,0-9.48-12.64,33.79,33.79,0,0,0-5.74-4.22c-2.1-1.22-4.29-2.31-6.28-3.72-.83-.59-.94-.47-1.61-1.25-.36-.42-.6-.46-1.74-.66a8.7,8.7,0,0,0-4.37.78,12.35,12.35,0,0,0-5.19,3.82c-3,4-3.15,9.56-3.19,14.4a35.32,35.32,0,0,0,12.49,28c3.71,3.28,8.37,6.3,13.42,6.16a12.78,12.78,0,0,0,10.5-6.72,26,26,0,0,0,3.15-12A27.64,27.64,0,0,0,665.32,431.2Z" transform="translate(-621.04 -297.36)"/><path class="cls-3" d="M665.32,431.2a36.74,36.74,0,0,0-9.48-12.64,33.79,33.79,0,0,0-5.74-4.22c-2.1-1.22-4.16-2.52-6.28-3.72-3.88-2.22-25.49,9.91-4.47,23.71,4.16,2.73,10.81,4.13,15.11,6.59a18.84,18.84,0,0,1,6.33,5.17,13.93,13.93,0,0,1,2.45,7.51,19.45,19.45,0,0,1-.15,3.15,12.82,12.82,0,0,0,1-1.56,26,26,0,0,0,3.15-12A27.64,27.64,0,0,0,665.32,431.2Z" transform="translate(-621.04 -297.36)"/><path class="cls-5" d="M675.19,424.81c-.79-1.42-3.33.25-4.86,0-11.26-2.13-16.37-14.95-26.08-16.13-6.81-.83-13.48,2.46-14.11,10.52-.66,8.54,7.79,13.54,14.58,15.77a27.55,27.55,0,0,0,5.12,1.19,47.82,47.82,0,0,0,6,.22c4.2,0,10.9.55,14.14,3.16.46.38,4.65-1.46,5.5-3.09a11.41,11.41,0,0,0,1-5.57A13.25,13.25,0,0,0,675.19,424.81Z" transform="translate(-621.04 -297.36)"/><path class="cls-5" d="M679,413.17c-2.83-.1-1.75,2.39-2.6,4.81-.56.73,1.13-4.06-.93-3.9-1.84.13-1.9,1.92-2,4.28.29-4.22-3-3.11-2.86,1.56-.14-3.53-3.35-1.17-2.38,1.9,0,0-.8-2.17-2-.86-.78.87.42,2.78.42,2.78A33.92,33.92,0,0,0,667.82,435c.68,1.93,1.07,3.92,3.09,5.28a5.43,5.43,0,0,0,6-.45c3-2.29.87-6.48,1.39-9.51a12,12,0,0,1,2.17-5.43c1.58-2.59.18-6.86.18-6.86C682.5,415.4,681.74,413.27,679,413.17Z" transform="translate(-621.04 -297.36)"/><path class="cls-3" d="M679.9,424.4c-1,1.66-3.4,3.13-3.9,6s2.14,7.24-.2,9a4.6,4.6,0,0,1-5.84.08,5,5,0,0,0,.95.8,5.43,5.43,0,0,0,6-.45c3-2.29.87-6.48,1.39-9.51a12,12,0,0,1,2.17-5.43c1.58-2.59.18-6.86.18-6.86S681.48,421.81,679.9,424.4Z" transform="translate(-621.04 -297.36)"/><path class="cls-5" d="M718.45,340.72h0S718.44,340.69,718.45,340.72Z" transform="translate(-621.04 -297.36)"/><path class="cls-5" d="M746.47,352.2c-1-1.22-2.88.67-4.05.57-.45,0,.18-1.6.51-2,.72-.94,1.79-2.05,1.82-3.3a1.37,1.37,0,0,0-.87-1.38,2.24,2.24,0,0,0-1.79.6c-.7.49-1.32,1.07-2,1.57-.35.26-1.63,1.11-1.69.26a7.39,7.39,0,0,1,.73-2.7,7.19,7.19,0,0,0,.59-2.92,1.37,1.37,0,0,0-1.65-1.35,3,3,0,0,0-1.68,1.65c-.4.7-.66,1.46-1.07,2.16a2.8,2.8,0,0,1-.53.71c-.07.08,0,0-.15.11h0s0,.06,0,0l-.08-.07v0l-.07-.09c0-.08-.09-.15-.13-.24a9.29,9.29,0,0,1-.45-1.27,12.12,12.12,0,0,0-1-2.89,1.16,1.16,0,0,0-2.06-.06c-1.41,1.83-.76,4.43-1,6.55a2.19,2.19,0,0,1-.29,1c-.15.19-.28.13-.51,0a14.28,14.28,0,0,1-2.15-2c-.67-.58-1.43-1-2.25-.42a2.34,2.34,0,0,0-.77,2.3,11.13,11.13,0,0,0,.66,2.47c.4,1.13.81,2.26,1.32,3.35a13.15,13.15,0,0,0,5,5.72,6.62,6.62,0,0,0,5.51.9,5.45,5.45,0,0,0,1.09-.52,7.85,7.85,0,0,0,1.41-.65,25.79,25.79,0,0,0,3.08-2.21c.85-.68,1.71-1.35,2.53-2.06S747.5,353.49,746.47,352.2Z" transform="translate(-621.04 -297.36)"/><path class="cls-4" d="M656.53,381.26a18.87,18.87,0,0,0-6.84,7.37,28.75,28.75,0,0,0-3.31,9.12c0,.09.16.12.2,0,1-2.87.78-.6,1.94-3.56,1.41-3.59,4.94-9.86,8.3-12.69C657,381.39,656.74,381.15,656.53,381.26Z" transform="translate(-621.04 -297.36)"/><path class="cls-4" d="M704.1,396c-.12-.55-.26-1.1-.43-1.63a30.18,30.18,0,0,0-2.09-4.85,23,23,0,0,0-2.55-3.78c-.55-.66-3.18-4.18-4.91-6.05a.2.2,0,0,0-.31.26c1.47,2.06,3.78,5.84,4.2,6.57a34.3,34.3,0,0,1,1.91,3.9,28.46,28.46,0,0,1,1.32,4c.18.72.33,1.45.48,2.18a4.53,4.53,0,0,0,.31,1,1.84,1.84,0,0,0,.34.57s.45.38.28.17c.29.35.94.46,1.15,0,.07-.16.21-.28.29-.43a1.65,1.65,0,0,0,.13-.66A4.35,4.35,0,0,0,704.1,396Z" transform="translate(-621.04 -297.36)"/><path class="cls-4" d="M692.35,372.38c-1,.24-19.77,8.64-24.15,8.26-2.74-.23-9.43-3.21-12.13-3.66-.06,0,5.06,5.34,18.64,5.57a25.41,25.41,0,0,0,12.48-2.76A19,19,0,0,0,690,378c.87-.69,3.28-3.78,2.34-5.57Z" transform="translate(-621.04 -297.36)"/><path class="cls-5" d="M635.6,329.9c.06-18,15.68-32.6,34.89-32.54s34.74,14.73,34.68,32.76a30.79,30.79,0,0,1-2.07,11c2.4-1.57,5.09-1.89,7-.57,2.9,2,3,6.87.25,10.92-2.66,3.9-7,5.61-9.9,4-1.06,14.8-14.21,26.48-30.25,26.43-16.69-.05-30.18-12.8-30.13-28.46,0-.18,0-.36,0-.54a25.73,25.73,0,0,0-2-10.75A31,31,0,0,1,635.6,329.9Z" transform="translate(-621.04 -297.36)"/><path class="cls-7" d="M699.61,347.53a11.37,11.37,0,0,1,3-3.32c1.92-1.41,5.7-2.87,7.46-.45a.28.28,0,0,1-.32.41c-2.36-.92-4.66,0-6.45,1.62a11.16,11.16,0,0,0-1.64,1.87h.6a11.9,11.9,0,0,1,2.46.11.26.26,0,0,1,.06.48,4.94,4.94,0,0,1-2.39.61,5.68,5.68,0,0,1-1.43,0c-.22.43-.41.86-.59,1.3a4,4,0,0,1-.85,1.55.54.54,0,0,1-.85-.11C698.09,350.3,699,348.62,699.61,347.53Z" transform="translate(-621.04 -297.36)"/><ellipse class="cls-8" cx="650.7" cy="349.58" rx="6.71" ry="7.71" transform="translate(-649.91 -237.26) rotate(-5.17)"/><path class="cls-9" d="M650,341.91a5,5,0,0,1,.77,0c-3.29.74-5.58,4.22-5.23,8.16s3.24,7,6.61,7.09a4.81,4.81,0,0,1-.76.12c-3.7.34-7-2.83-7.38-7.07S646.27,342.24,650,341.91Z" transform="translate(-621.04 -297.36)"/><path class="cls-10" d="M646.4,351.25a5,5,0,1,0,4.49-5.39A5,5,0,0,0,646.4,351.25Z" transform="translate(-621.04 -297.36)"/><path d="M648.6,351.57a3,3,0,1,0,2.72-3.26A3,3,0,0,0,648.6,351.57Z" transform="translate(-621.04 -297.36)"/><path class="cls-11" d="M646.68,346.53a1.55,1.55,0,0,1,1.53-1.27,1.68,1.68,0,0,1,1.43,1,1.37,1.37,0,0,1-.41,1.85,1.73,1.73,0,0,1-1.79.15A1.57,1.57,0,0,1,646.68,346.53Z" transform="translate(-621.04 -297.36)"/><path class="cls-11" d="M648.81,349.25a.87.87,0,0,1,.07-.17h0a.76.76,0,0,1,.15-.28v0a.84.84,0,0,1,.79-.28.85.85,0,0,1,.63.52.06.06,0,0,0,0,0,1.55,1.55,0,0,1,0,.23.92.92,0,0,1-.14.56,1,1,0,0,1-.48.4.84.84,0,0,1-.47.05.86.86,0,0,1-.52-.33A.78.78,0,0,1,648.81,349.25Z" transform="translate(-621.04 -297.36)"/><path class="cls-11" d="M652.8,344c.69-.34,1.44.14,1.94.61s1,1.21.53,1.78a.22.22,0,0,1-.22.08c-.49-.11-.82-.68-1.14-1s-.92-.62-1.23-1.1A.24.24,0,0,1,652.8,344Z" transform="translate(-621.04 -297.36)"/><path d="M645,345c.78-2.19,3.51-3.25,5.68-3.16a6.76,6.76,0,0,1,5.65,3.44c0,.06-.06.12-.11.08-1.61-1.43-3.28-2.73-5.53-2.84s-3.95,1.07-5.4,2.67A.18.18,0,0,1,645,345Z" transform="translate(-621.04 -297.36)"/><path class="cls-12" d="M655.68,348.89a5.62,5.62,0,0,1,.3,1.52c0,.71-1.06.81-1.1.1a4.31,4.31,0,0,0-.23-1.23C654.42,348.61,655.45,348.22,655.68,348.89Z" transform="translate(-621.04 -297.36)"/><path class="cls-12" d="M654.73,352c.06-.18.12-.35.19-.53a.55.55,0,0,1,.73-.26.56.56,0,0,1,.26.73c-.06.18-.12.35-.19.53a.55.55,0,0,1-.73.26A.56.56,0,0,1,654.73,352Z" transform="translate(-621.04 -297.36)"/><path class="cls-12" d="M646.84,350l.11-.43a.57.57,0,0,1,.22-.35.55.55,0,0,1,.86.55c0,.14-.07.28-.11.43a.57.57,0,0,1-.22.35.55.55,0,0,1-.86-.55Z" transform="translate(-621.04 -297.36)"/><path class="cls-8" d="M671.94,347.66c.38,4.24,3.68,7.41,7.38,7.07s6.37-4,6-8.28-3.68-7.41-7.38-7.08S671.55,343.42,671.94,347.66Z" transform="translate(-621.04 -297.36)"/><path class="cls-9" d="M677.89,339.38a5,5,0,0,1,.77,0c-3.29.74-5.58,4.22-5.23,8.16s3.24,7,6.61,7.09a6.35,6.35,0,0,1-.76.13c-3.69.33-7-2.84-7.38-7.08S674.2,339.71,677.89,339.38Z" transform="translate(-621.04 -297.36)"/><path class="cls-10" d="M674.32,348.72a5,5,0,1,0,4.49-5.39A5,5,0,0,0,674.32,348.72Z" transform="translate(-621.04 -297.36)"/><path d="M676.53,349a3,3,0,1,0,2.71-3.25A3,3,0,0,0,676.53,349Z" transform="translate(-621.04 -297.36)"/><path class="cls-11" d="M674.6,344a1.56,1.56,0,0,1,1.54-1.27,1.68,1.68,0,0,1,1.42,1,1.38,1.38,0,0,1-.4,1.85,1.73,1.73,0,0,1-1.79.15A1.56,1.56,0,0,1,674.6,344Z" transform="translate(-621.04 -297.36)"/><path class="cls-11" d="M676.73,346.72a.87.87,0,0,1,.07-.17h0a.62.62,0,0,1,.14-.28h0a.83.83,0,0,1,.79-.29.85.85,0,0,1,.63.53v0a1,1,0,0,1,.05.23.9.9,0,0,1-.14.56,1.06,1.06,0,0,1-.48.41.94.94,0,0,1-.47,0,.8.8,0,0,1-.62-1Z" transform="translate(-621.04 -297.36)"/><path class="cls-11" d="M680.72,341.42a1.81,1.81,0,0,1,1.94.61c.43.41,1,1.21.53,1.78a.21.21,0,0,1-.22.08c-.49-.11-.82-.67-1.14-1s-.92-.62-1.23-1.1A.24.24,0,0,1,680.72,341.42Z" transform="translate(-621.04 -297.36)"/><path d="M672.87,342.44c.78-2.19,3.51-3.26,5.68-3.16a6.74,6.74,0,0,1,5.66,3.43c0,.06-.06.12-.11.08-1.62-1.43-3.29-2.73-5.53-2.84s-4,1.07-5.41,2.67A.17.17,0,0,1,672.87,342.44Z" transform="translate(-621.04 -297.36)"/><path class="cls-12" d="M683.6,346.36a5.77,5.77,0,0,1,.3,1.52c0,.71-1.06.81-1.09.1a4.7,4.7,0,0,0-.24-1.23C682.35,346.08,683.37,345.69,683.6,346.36Z" transform="translate(-621.04 -297.36)"/><path class="cls-12" d="M682.65,349.49l.19-.53a.55.55,0,0,1,.73-.26.57.57,0,0,1,.27.73l-.2.53a.55.55,0,0,1-.73.26A.56.56,0,0,1,682.65,349.49Z" transform="translate(-621.04 -297.36)"/><path class="cls-12" d="M674.76,347.49c0-.14.07-.28.11-.43a.6.6,0,0,1,.22-.35.61.61,0,0,1,.42-.09.55.55,0,0,1,.44.64l-.1.43a.64.64,0,0,1-.23.35.55.55,0,0,1-.41.09A.56.56,0,0,1,674.76,347.49Z" transform="translate(-621.04 -297.36)"/><path class="cls-7" d="M659.71,360.94a4.89,4.89,0,0,1-1.49-2.35c-.45-1.62.39-3.94,2.2-4.5a.17.17,0,0,1,.21.25,6,6,0,0,0-1.13,2,4.19,4.19,0,0,0,.07,2.05,3.63,3.63,0,0,0,1.16,1.69c.43.35,1.24.72,1.39,1.25a.24.24,0,0,1-.09.3C661.35,362.11,660.23,361.39,659.71,360.94Z" transform="translate(-621.04 -297.36)"/><path class="cls-13" d="M683.06,333.7a14.52,14.52,0,0,0-6-1.14.83.83,0,0,1,0-1.66,16,16,0,0,1,6.42,1.2C684.47,332.51,684,334.11,683.06,333.7Z" transform="translate(-621.04 -297.36)"/><path class="cls-13" d="M643,337.66a5.06,5.06,0,0,1,4.73-3.47.83.83,0,0,1,0,1.66,3.35,3.35,0,0,0-3.12,2.26C644.22,339.11,642.62,338.68,643,337.66Z" transform="translate(-621.04 -297.36)"/><path class="cls-13" d="M652.57,314.32a10.29,10.29,0,0,1,2.48-2.22c.89-.56,1.82-1.07,2.74-1.58a61.52,61.52,0,0,0,5.47-3,10,10,0,0,0,3.64-4.31,6.54,6.54,0,0,0,.54-2.54,11.22,11.22,0,0,1-.17-2.63.28.28,0,0,1,.34-.19c.94.23,1.34,1.3,1.58,2.17a7.52,7.52,0,0,1,.07,3.27,9.68,9.68,0,0,1-3.53,5.61,22.93,22.93,0,0,1-6.11,3.47c-1.12.45-2.28.8-3.41,1.26-.52.21-1,.47-1.54.66s-1.18.38-1.76.61C652.55,315.05,652.38,314.55,652.57,314.32Z" transform="translate(-621.04 -297.36)"/><path class="cls-13" d="M649.44,309.51a7.17,7.17,0,0,1,3.24-3.13c1.52-.87,3.17-1.58,4.75-2.35,1.38-.68,2.82-1.29,4.16-2.06a9.61,9.61,0,0,0,1.57-1.13,3.49,3.49,0,0,0,1.27-1.65.08.08,0,0,1,.15,0,5.05,5.05,0,0,1-.14,1.82,4.34,4.34,0,0,1-1.12,1.59,16.54,16.54,0,0,1-3.86,2.49c-3.17,1.63-6.31,3.34-9.49,4.94A.39.39,0,0,1,649.44,309.51Z" transform="translate(-621.04 -297.36)"/><path class="cls-13" d="M654.4,302.67a8.65,8.65,0,0,1,2.5-1.26c.86-.39,1.69-.76,2.56-1.11.11,0,.19.12.11.2a10,10,0,0,1-2.35,1.72,5.28,5.28,0,0,1-2.62.95A.29.29,0,0,1,654.4,302.67Z" transform="translate(-621.04 -297.36)"/><path class="cls-13" d="M662.88,313.25a38,38,0,0,0,5-2.22,9.07,9.07,0,0,0,3.49-3.13,8.78,8.78,0,0,0,1.34-4.56,8.94,8.94,0,0,0-.36-2.47,10.93,10.93,0,0,0-.47-1.36,2.77,2.77,0,0,1-.36-.94c0-.11.14-.23.25-.18.72.29,1.28,1.39,1.6,2.06a9.4,9.4,0,0,1,.78,2.7,9,9,0,0,1-1,5.56,9.12,9.12,0,0,1-4.06,4c-2,.93-4.07.81-6.2.85C662.75,313.52,662.74,313.29,662.88,313.25Z" transform="translate(-621.04 -297.36)"/><path class="cls-13" d="M675.22,298.57a.15.15,0,0,1,.11-.11c1-.23,2,1.58,2.41,2.32.59,1.05,1.24,2.54.8,3.76a.32.32,0,0,1-.57.07,33.5,33.5,0,0,1-1.3-3.34,9.41,9.41,0,0,0-1-1.53A1.56,1.56,0,0,1,675.22,298.57Z" transform="translate(-621.04 -297.36)"/><path class="cls-3" d="M688,301.87c9,6.23,15.1,19.1,14.94,29.47a31.77,31.77,0,0,1-2.38,11.09,9.52,9.52,0,0,1,2.52-1.28,34.14,34.14,0,0,0,2.07-11c0-12-6.85-22.56-17.15-28.25Z" transform="translate(-621.04 -297.36)"/><path class="cls-3" d="M698.33,354.37c-.52,5.93-3,15.08-7,19.42,5.61-4.42,8.52-11.18,9.09-18.3A12.51,12.51,0,0,1,698.33,354.37Z" transform="translate(-621.04 -297.36)"/><path class="cls-3" d="M709.07,340.32a7.55,7.55,0,0,0-2.94.35,6.38,6.38,0,0,0-1.59.61,10.91,10.91,0,0,0-1.29.94c-.11.08,0,.25.12.23.87-.13,1.77-.11,2.64-.28a8,8,0,0,1,2.48-.23c1.51.2,2,1.85,2,3.15a7.73,7.73,0,0,1-1.07,3.93c-.74,1.29-1.85,2.27-2.64,3.51a.43.43,0,0,0,.54.63c1.71-.59,2.95-2.29,3.78-3.84a9,9,0,0,0,1.1-5.11C712,342.38,711,340.61,709.07,340.32Z" transform="translate(-621.04 -297.36)"/><path class="cls-3" d="M734.94,361.3a14,14,0,0,1-3.42-.65,7.5,7.5,0,0,1-3-1.8.15.15,0,0,0-.26.11c0,.85,1.43,1.82,2.43,2.22,1.25.5,3.26.91,4.29.53C735.12,361.64,735.1,361.31,734.94,361.3Z" transform="translate(-621.04 -297.36)"/><path class="cls-3" d="M640.34,386.91a6.88,6.88,0,0,0-3-.39,26.38,26.38,0,0,0-3.32.27,25.53,25.53,0,0,0-3.13.64,9.79,9.79,0,0,0-2.9,1.11.08.08,0,0,0,.05.14,20.43,20.43,0,0,0,3-.52c1.05-.18,2.1-.35,3.17-.45s2-.16,3.07-.18a12.09,12.09,0,0,0,3-.24A.21.21,0,0,0,640.34,386.91Z" transform="translate(-621.04 -297.36)"/><path class="cls-3" d="M715.55,373.39c-.85.14-1.52,1.2-1.94,1.87a9.74,9.74,0,0,0-1.21,2.88,8.26,8.26,0,0,0-.14,3.21,6.68,6.68,0,0,0,1.24,2.83s.07,0,.06,0a8.44,8.44,0,0,1-.26-5.92,11.11,11.11,0,0,1,1.17-2.52c.4-.65,1.15-1.45,1.19-2.22A.1.1,0,0,0,715.55,373.39Z" transform="translate(-621.04 -297.36)"/><path class="cls-3" d="M677.63,400.47a2,2,0,0,1-2.48.2,13.22,13.22,0,0,0-2.87-1.42s0,0,0,.06a7.11,7.11,0,0,0,1.55,1.19,10.08,10.08,0,0,0,1.6.9,2,2,0,0,0,1.47.08,1.51,1.51,0,0,0,.89-.94A.08.08,0,0,0,677.63,400.47Z" transform="translate(-621.04 -297.36)"/><path class="cls-3" d="M677.79,410.74c-1.75-1.63-1.47-4.32-1.32-6.45,0,0-.05-.05-.06,0a6.06,6.06,0,0,0-.37,3.94c.18.92.53,2.52,1.68,2.66C677.79,410.88,677.85,410.79,677.79,410.74Z" transform="translate(-621.04 -297.36)"/><path class="cls-14" d="M653,375.11a19.13,19.13,0,0,0-6.94,1.74c-2.25.89-4.43,2-6.58,3.07-4.23,2.15-8.57,4.26-12.2,7.36a18.27,18.27,0,0,0-4.57,5.52c0,.06.06.14.1.08a32.23,32.23,0,0,1,9.93-8.51c2-1.17,4.15-2.22,6.25-3.27s4.35-2.15,6.59-3.08c2.45-1,5-1.67,7.48-2.61A.16.16,0,0,0,653,375.11Z" transform="translate(-621.04 -297.36)"/><path class="cls-14" d="M641.81,431.46c-.92-.47-1.9-.81-2.82-1.3a17.71,17.71,0,0,1-2.69-1.79,13.35,13.35,0,0,1-4.08-5.27,10.63,10.63,0,0,1,.4-9.26,21.19,21.19,0,0,1,1.87-2.53s0-.07,0-.06a6.93,6.93,0,0,0-3.11,3.58,10.3,10.3,0,0,0-.84,5.17,13,13,0,0,0,5.59,9.42,12.81,12.81,0,0,0,5.66,2.3C641.9,431.74,641.93,431.51,641.81,431.46Z" transform="translate(-621.04 -297.36)"/><path class="cls-14" d="M641,454.48a42.89,42.89,0,0,1-5.05-5.21,28.75,28.75,0,0,1-3.71-6.37,45.47,45.47,0,0,1-3.13-16.74c0-1.63,0-3.26,0-4.89a30.78,30.78,0,0,1,.73-4.87.07.07,0,0,0-.13,0,11,11,0,0,0-1.13,4.15c-.18,1.44-.26,2.89-.3,4.33a53.07,53.07,0,0,0,.53,9.26,34,34,0,0,0,5.89,15.14,17.18,17.18,0,0,0,6.11,5.49A.15.15,0,0,0,641,454.48Z" transform="translate(-621.04 -297.36)"/><path class="cls-14" d="M670.14,437.58a31.86,31.86,0,0,1-1.67-4.32c-.15-.57-.26-1.15-.36-1.73-.12-1.27-.16-2.55-.34-3.82a.07.07,0,0,0-.13,0c-.08.29-.15.59-.21.89a.08.08,0,0,0-.1.06c0,.21,0,.43,0,.64a14.71,14.71,0,0,0-.16,3.56,12.11,12.11,0,0,0,.45,2.46,3.17,3.17,0,0,0,1.19,2,.38.38,0,0,0,.55-.31,5.23,5.23,0,0,0,.65.68C670,437.75,670.19,437.68,670.14,437.58Z" transform="translate(-621.04 -297.36)"/><path class="cls-14" d="M666.93,422.23c0-.09,0-.17-.06-.26a1.77,1.77,0,0,1-.08-.31.07.07,0,0,0-.14,0,.73.73,0,0,0-.1.7c.06.2.19.47.44.46a.11.11,0,0,0,.1-.09C667.11,422.53,667,422.39,666.93,422.23Z" transform="translate(-621.04 -297.36)"/><path class="cls-14" d="M683.94,385.43c-.62,0-1.15.55-1.49,1A1.94,1.94,0,0,0,682,388a0,0,0,0,0,.07,0c.32-.41.53-.89.86-1.29s.85-.65,1.16-1.07A.15.15,0,0,0,683.94,385.43Z" transform="translate(-621.04 -297.36)"/><path class="cls-14" d="M685,428.08a8.47,8.47,0,0,0-1.19,2.34c-.3.75-.57,1.52-.81,2.29-.15.43-.28.87-.39,1.31a26.9,26.9,0,0,0-.85,4.61c-.33,3.46-.14,7.46,2.07,10.3a.26.26,0,0,0,.47-.22,49.77,49.77,0,0,1-1.09-5.1,22,22,0,0,1-.06-5.13,37.14,37.14,0,0,1,1-5.2c.21-.84.45-1.66.69-2.5a11.3,11.3,0,0,0,.58-2.56A.22.22,0,0,0,685,428.08Z" transform="translate(-621.04 -297.36)"/><path class="cls-14" d="M695.14,402.73c-1.89-.72-3.92-1-5.85-1.59a23.24,23.24,0,0,1-2.91-1.11c-.94-.44-1.79-1-2.73-1.45,0,0-.08,0,0,.06,1.12,1.64,3.32,2.52,5.14,3.13a20,20,0,0,0,6.35,1.17C695.2,402.94,695.25,402.77,695.14,402.73Z" transform="translate(-621.04 -297.36)"/><path class="cls-14" d="M710.83,405.16c-1.3-1.19-3.38-1.38-5.05-1.5-2.25-.16-4.5-.22-6.76-.27,0,0,0,0,0,0,2.08.26,4.16.49,6.25.67a23.38,23.38,0,0,1,2.91.37,16.47,16.47,0,0,1,2.58.82C710.84,405.32,710.88,405.21,710.83,405.16Z" transform="translate(-621.04 -297.36)"/><path class="cls-14" d="M726.73,360.69a30.37,30.37,0,0,0-3.87,4.22c-1.25,1.48-2.46,3-3.61,4.54-2.2,3-4.34,6.26-5.35,9.89,0,0,.05.06.06,0a75.8,75.8,0,0,1,5.95-9.75c1.13-1.52,2.32-3,3.54-4.45a37.48,37.48,0,0,0,3.49-4.28C727,360.76,726.84,360.59,726.73,360.69Z" transform="translate(-621.04 -297.36)"/><path class="cls-14" d="M711.71,373.31a11.81,11.81,0,0,0-3.12-.6,12.09,12.09,0,0,0-3.18,0s-.06.07,0,.08c1.06.2,2.14.27,3.21.4s2,.39,3,.45A.18.18,0,0,0,711.71,373.31Z" transform="translate(-621.04 -297.36)"/><path class="cls-14" d="M646.81,307.85c-.49.37-1,.64-1.48,1s-1,.88-1.44,1.36a26,26,0,0,0-2.52,3,29.07,29.07,0,0,0-3.57,6.86,28,28,0,0,0-.86,16.39A27.42,27.42,0,0,0,638.5,341a12.78,12.78,0,0,0,1.17,2.19,3.9,3.9,0,0,0,1.59,1.53.28.28,0,0,0,.4-.25,4,4,0,0,0-.4-1.65c-.25-.67-.57-1.3-.86-1.94a28.28,28.28,0,0,1-1.44-3.78,31.06,31.06,0,0,1-1.27-8,26.52,26.52,0,0,1,3.93-14.5,31.37,31.37,0,0,1,2.45-3.5c.44-.54.89-1.07,1.36-1.58s.92-1.15,1.45-1.64C646.93,307.89,646.86,307.81,646.81,307.85Z" transform="translate(-621.04 -297.36)"/><path class="cls-14" d="M661.3,379.26a28.5,28.5,0,0,1-3.57-1.36,20.32,20.32,0,0,1-3.38-2.26,35.27,35.27,0,0,1-5-4.84,32,32,0,0,1-6.18-12.16,32.7,32.7,0,0,1-.77-3.82c-.09-.62-.15-1.25-.25-1.87s-.32-1.38-.43-2.06a.07.07,0,0,0-.13,0,14.41,14.41,0,0,0-.38,1.73,10.13,10.13,0,0,0-.06,1.74,25.44,25.44,0,0,0,.43,3.69,28.57,28.57,0,0,0,2.29,7,29.76,29.76,0,0,0,9,11.24,20,20,0,0,0,3.93,2.27,10.75,10.75,0,0,0,4.41,1.06C661.4,379.63,661.49,379.33,661.3,379.26Z" transform="translate(-621.04 -297.36)"/><path class="cls-14" d="M649.07,411.4c-1.76-1.51-4.37-2-6.58-2a14.34,14.34,0,0,0-3.46.31,6.45,6.45,0,0,0-3.15,1.29s0,.08,0,.08a26.09,26.09,0,0,0,3.24-.63,18.77,18.77,0,0,1,3.26-.18,17,17,0,0,1,3.33.47c1.1.24,2.14.64,3.23.89A.1.1,0,0,0,649.07,411.4Z" transform="translate(-621.04 -297.36)"/><path class="cls-15" d="M662.7,367.93a2,2,0,0,1,2-.23c1.06.32,2.21,1,3.38.72a20.64,20.64,0,0,0,4.12-1.81,4.57,4.57,0,0,1,5,.43c2.32,1.9,1.32,5.33-.41,7.26a9,9,0,0,1-9.92,1.92,10.19,10.19,0,0,1-3.29-2.58,5.64,5.64,0,0,1-1.67-3.74A2.8,2.8,0,0,1,662.7,367.93Z" transform="translate(-621.04 -297.36)"/><path class="cls-16" d="M671.53,373.68c-1.33-2.35-5.32-.78-6.81,1.12a8.62,8.62,0,0,0,12.09-.5c.15-.17.3-.36.44-.55C675.55,372.18,672.77,371.44,671.53,373.68Z" transform="translate(-621.04 -297.36)"/><path class="cls-11" d="M673,367.7a2.73,2.73,0,0,1-2.14,1.08c-.5,0-.66-.36-1-1a13.67,13.67,0,0,1,2.79-1.38A1.32,1.32,0,0,1,673,367.7Z" transform="translate(-621.04 -297.36)"/><path class="cls-11" d="M667.07,369.45c-.32.74-1.23.37-1.76.12-.72-.34-1.28-.35-1.36-1.19a1.73,1.73,0,0,1,.09-.83,3.93,3.93,0,0,1,.68.15,13.44,13.44,0,0,0,2.6.77A2,2,0,0,1,667.07,369.45Z" transform="translate(-621.04 -297.36)"/><path class="cls-17" d="M679.1,401.39h0l.59-.07.28-.06-.06,0,.06,0,.27-.08a6.61,6.61,0,0,0,.74-.28,3.55,3.55,0,0,0,.44-.21l.15-.07,0,0c.24-.15.47-.29.69-.45a7.56,7.56,0,0,0,.69-.58h0l.12-.13a3.47,3.47,0,0,0,.25-.29l.26-.33a1.63,1.63,0,0,1,.11-.17,6.65,6.65,0,0,0,.27-.61v0l0-.14c0-.17,0-.34.07-.51s0-.24,0-.36a.76.76,0,0,1,0-.15,2.44,2.44,0,0,1,0-.27,6.8,6.8,0,0,0-.11-1,2.21,2.21,0,0,0,0-.25v0a.31.31,0,0,1,0-.08l-.11-.35c-.07-.18-.14-.35-.22-.52l-.09-.18v-.05c-.18-.25-.34-.51-.54-.74l-.07-.07h0l-.19-.18-.34-.27-.22-.15,0,0,0,0-.39-.19c-.15-.07-.32-.11-.47-.18h0l-.18-.05a6,6,0,0,0-.85-.12h-.34l-.45,0-.44.06-.25,0h0a7.14,7.14,0,0,0-.92.32l-.38.18,0,0h0l-.23.13a6.73,6.73,0,0,0-.79.62l-.21.22a4.87,4.87,0,0,0-.35.42c-.07.1-.13.2-.2.29v0c-.08.14-.15.28-.22.42s-.12.28-.17.42l-.06.18a.64.64,0,0,1,0,.07,6.35,6.35,0,0,0-.12.86h0v.2c0,.14,0,.28,0,.43s.05.25.07.38h0l0,.15a5.4,5.4,0,0,0,.31.79l.1.21v0s0-.09-.05-.09l.06.1h0c.06.1.16.24.17.25a4.86,4.86,0,0,0,.48.64l.25.29a.3.3,0,0,0,.1.07l-.05,0,.05.05.5.44c.18.14.38.28.57.41l0,0,.29.16a5.38,5.38,0,0,0,.55.24h.05l.09,0c.07,0,.06,0,0,0l.11,0,.29,0Zm4,1a7.78,7.78,0,0,1-3.78,1.27,7.46,7.46,0,0,1-6.7-6.75,6.54,6.54,0,0,1,1.28-4.11,7.38,7.38,0,0,1,9.76-1.81,6.55,6.55,0,0,1,2.62,4.11,8.55,8.55,0,0,1,.13,2.42,4.93,4.93,0,0,1-.47,1.92A7.6,7.6,0,0,1,683.1,402.39Z" transform="translate(-621.04 -297.36)"/><path class="cls-18" d="M678.6,401.3l-.12,0h0S678.56,401.29,678.6,401.3Z" transform="translate(-621.04 -297.36)"/><path class="cls-18" d="M684,395.26h0Z" transform="translate(-621.04 -297.36)"/><path class="cls-19" d="M683.1,402.39a7.6,7.6,0,0,0,2.84-2.95,4.93,4.93,0,0,0,.47-1.92,8.46,8.46,0,0,0-.13-2.41,8.15,8.15,0,0,0-.5-1.54c.1.3.18.6.25.9a8.48,8.48,0,0,1,.13,2.41,4.94,4.94,0,0,1-.47,1.93,7.6,7.6,0,0,1-2.84,2.95,7.78,7.78,0,0,1-3.78,1.27,6.94,6.94,0,0,1-5.48-3.3,8.38,8.38,0,0,1-.66-1.17,7.68,7.68,0,0,0,.91,1.81,6.91,6.91,0,0,0,5.48,3.29A7.78,7.78,0,0,0,683.1,402.39Z" transform="translate(-621.04 -297.36)"/><path class="cls-19" d="M675,397.52h0c0-.13,0-.26-.07-.38s0-.29,0-.43v-.2h0a6.35,6.35,0,0,1,.12-.86.64.64,0,0,0,0-.07l.06-.18c0-.14.11-.28.17-.42s.14-.28.22-.42v0c.07-.09.13-.19.2-.29a4.58,4.58,0,0,1,.35-.42,2.36,2.36,0,0,1,.21-.22,5.74,5.74,0,0,1,.79-.61l.23-.14h0l0,0,.38-.18a7.14,7.14,0,0,1,.92-.32h0l.25,0,.44-.06.45,0h.34a6.21,6.21,0,0,1,.85.12l.18.05h0c.15.07.32.12.47.18l.39.19,0,0,0,0,.22.15.34.27.19.18h0a.46.46,0,0,1,.07.07c.21.24.37.49.55.74v.05l.09.18,0-.11c-.07-.18-.14-.35-.22-.52l-.09-.19v0c-.18-.25-.34-.51-.54-.74l-.07-.08h0a1.54,1.54,0,0,0-.19-.17,2.88,2.88,0,0,0-.34-.27l-.22-.15,0,0,0,0-.39-.19c-.15-.07-.32-.11-.47-.18h0l-.18,0a6,6,0,0,0-.85-.12h-.34a3.4,3.4,0,0,0-.45,0l-.44.06-.25,0h0a7.14,7.14,0,0,0-.92.32c-.13,0-.25.12-.38.18l0,0h0l-.23.14a5.82,5.82,0,0,0-.79.62l-.21.21c-.12.14-.24.28-.35.43s-.13.2-.2.29v0c-.08.14-.15.28-.22.42s-.12.27-.17.41l-.06.19s0,.05,0,.07a6.21,6.21,0,0,0-.12.85h0v.21c0,.15,0,.29,0,.43s.05.26.07.38h0l0,.15a4.71,4.71,0,0,0,.27.71.24.24,0,0,1,0-.08Z" transform="translate(-621.04 -297.36)"/><path class="cls-20" d="M684,395.25h0Z" transform="translate(-621.04 -297.36)"/><path class="cls-20" d="M683.73,394.62Z" transform="translate(-621.04 -297.36)"/><g class="cls-21"><path class="cls-11" d="M682.8,400.13a4,4,0,0,1-1.45,1.06,3.13,3.13,0,0,1-1.84.39c-.54-.1-.66.74-.13.84a3.79,3.79,0,0,0,2.28-.44,5.16,5.16,0,0,0,1.81-1.32.43.43,0,0,0-.67-.53Z" transform="translate(-621.04 -297.36)"/></g><g class="cls-21"><path class="cls-11" d="M678.26,401.53a2.16,2.16,0,0,1-.77-.24.44.44,0,0,0-.56.22.43.43,0,0,0,.22.56,3.09,3.09,0,0,0,1,.3.42.42,0,0,0,.48-.35.43.43,0,0,0-.35-.49Z" transform="translate(-621.04 -297.36)"/></g><g class="cls-21"><path class="cls-11" d="M681.41,390.35a5.21,5.21,0,0,0-3.82.28c-.48.25-.17,1.05.31.79a4.5,4.5,0,0,1,3.38-.23c.52.15.65-.69.13-.84Z" transform="translate(-621.04 -297.36)"/></g><g class="cls-21"><path class="cls-11" d="M682.23,391.67a.61.61,0,0,1,.14.07l-.09-.06.16.12a.41.41,0,0,0,.3.09.41.41,0,0,0,.29-.16.39.39,0,0,0,.09-.31.5.5,0,0,0-.16-.29,1.15,1.15,0,0,0-.4-.24.5.5,0,0,0-.32,0,.4.4,0,0,0-.23.23.42.42,0,0,0,0,.33.4.4,0,0,0,.23.23Z" transform="translate(-621.04 -297.36)"/></g><path class="cls-22" d="M720.12,365.69A4,4,0,0,0,718,367.5a10.39,10.39,0,0,1-2.07,2.36,25.37,25.37,0,0,1-3.29,2,24.57,24.57,0,0,1-3,1.51,16.49,16.49,0,0,1-6.68.89,25.41,25.41,0,0,1-6.5-1.4c-4.16-1.41-8.39-3.36-12.89-3a7.67,7.67,0,0,0-3.24.93,11.29,11.29,0,0,0-2.63,2.29,14.44,14.44,0,0,0-3.26,5.63,17.54,17.54,0,0,0-.74,6.83,13.76,13.76,0,0,0,.92,3.62,10.07,10.07,0,0,0,.69,1.49c.26.44.55.85.81,1.28a2.46,2.46,0,0,1,.41,1.09c0,.69,1.07.54,1.05-.14a5.43,5.43,0,0,0-1.18-2.48,11.6,11.6,0,0,1-1.31-3.12,14.23,14.23,0,0,1-.08-6.71,13.67,13.67,0,0,1,2.64-5.87c1.36-1.73,3-3.4,5.26-3.76a16.26,16.26,0,0,1,6.57.64c2.07.56,4.07,1.34,6.1,2a28.82,28.82,0,0,0,6.28,1.54,18.63,18.63,0,0,0,6.65-.42,13.58,13.58,0,0,0,3-1.16c1.12-.6,2.24-1.24,3.33-1.92a10.47,10.47,0,0,0,2.64-2.13c.58-.73,1-1.59,1.54-2.33a3,3,0,0,1,1.25-1.09c.25-.09.1-.49-.15-.43Z" transform="translate(-621.04 -297.36)"/><path class="cls-18" d="M733,365.36a5.85,5.85,0,0,0,1.77-2.36c1.1-1.83,2.56-2.22,4.48-2.8.81-.24,2.87-1.08,2.39-2.31-.34-.86-1.72-1.09-2.5-1.29a12.61,12.61,0,0,1-3-.69c-1.21-.62-1.14-2.06-1.26-3.28a37.75,37.75,0,0,0-.65-5.31,10.24,10.24,0,0,0-2.7-4.94,11.77,11.77,0,0,0-8.22-3.34,18.73,18.73,0,0,0-7.36,1.45,3.56,3.56,0,0,0-2.37,3.22,11,11,0,0,0,.56,4.93,20.11,20.11,0,0,0,4.3,7.4,11,11,0,0,0,5.17,3.07c1.91.55,4.34.37,6.08,1.34a1,1,0,0,1,.37.34c.18.3.06.86.08,1.19C730.23,363.26,731,366.55,733,365.36Zm-8.76-10.46a7.16,7.16,0,0,1-2-3.46,3.71,3.71,0,0,1,.06-3,2.56,2.56,0,0,1,1-.92.24.24,0,0,1,.13-.07h0a5.5,5.5,0,0,1,3-.32,6.1,6.1,0,0,1,.83.11,5.69,5.69,0,0,1,3.18,1.87c1.56,1.78,2.14,4.74.32,6.57S725.9,356.35,724.21,354.9Z" transform="translate(-621.04 -297.36)"/><path class="cls-20" d="M723.67,345.9a2.5,2.5,0,0,0-1,.92,2.66,2.66,0,0,0-.36,1.47,2.58,2.58,0,0,1,.9-.78.24.24,0,0,1,.13-.07h0a5.5,5.5,0,0,1,3-.32,6.1,6.1,0,0,1,.83.11,5.69,5.69,0,0,1,3.18,1.87,5.8,5.8,0,0,1,1.44,4.06,5.28,5.28,0,0,0-1-5.67,5.77,5.77,0,0,0-3.19-1.87,5.71,5.71,0,0,0-.83-.11,5.62,5.62,0,0,0-3,.32h0A.27.27,0,0,0,723.67,345.9Z" transform="translate(-621.04 -297.36)"/><path class="cls-20" d="M733,365.36a5.85,5.85,0,0,0,1.77-2.36c1.1-1.83,2.56-2.22,4.48-2.8.81-.24,2.87-1.08,2.39-2.31a2,2,0,0,0-.11-.2,5.85,5.85,0,0,1-1.83.91c-1.92.57-3.38,1-4.48,2.8a6,6,0,0,1-1.77,2.35c-2,1.2-2.75-2.09-2.83-3.38,0-.32.11-.89-.07-1.19a.89.89,0,0,0-.38-.33c-1.74-1-4.17-.8-6.08-1.34a11,11,0,0,1-5.16-3.08,20,20,0,0,1-4.3-7.4,11.07,11.07,0,0,1-.57-4.87,5.39,5.39,0,0,0-.44,1.55,11,11,0,0,0,.56,4.93,20.11,20.11,0,0,0,4.3,7.4,11,11,0,0,0,5.17,3.07c1.91.55,4.34.37,6.08,1.34a1,1,0,0,1,.37.34c.18.3.06.86.08,1.19C730.23,363.26,731,366.55,733,365.36Z" transform="translate(-621.04 -297.36)"/><path class="cls-23" d="M716.76,373.28a3.34,3.34,0,1,1,.15-4.71A3.32,3.32,0,0,1,716.76,373.28Z" transform="translate(-621.04 -297.36)"/><path class="cls-24" d="M717.61,369.69a3.34,3.34,0,0,1-5.77,2.19,3.47,3.47,0,0,1-.69-1.12,3.28,3.28,0,0,0,.9,2.36,3.33,3.33,0,0,0,5.56-3.43Z" transform="translate(-621.04 -297.36)"/><path class="cls-25" d="M717,369.18a.36.36,0,0,0,0-.21c-.17-.51-.85-.85-1.29-1a3,3,0,0,0-1.32-.25,3.23,3.23,0,0,0-2.42,1.24,1.55,1.55,0,0,0,.33,2.37c.73.38,1.38-.24,1.87-.72a2.84,2.84,0,0,1,2.39-1A.43.43,0,0,0,717,369.18Z" transform="translate(-621.04 -297.36)"/><path class="cls-26" d="M716.06,368.57a.59.59,0,0,0-.13-.19,1.2,1.2,0,0,0-.65-.38,1.4,1.4,0,0,0-1.1.14.36.36,0,0,0,.08.56,1.73,1.73,0,0,0,.68.06,9.05,9.05,0,0,1,.91.12A.21.21,0,0,0,716.06,368.57Z" transform="translate(-621.04 -297.36)"/><path class="cls-26" d="M713.7,368.83a.28.28,0,0,0-.08-.36c-.08-.05-.11-.11-.21-.11-.34,0-1.22.51-.9.94l.06.09c.14.14.48.05.62-.05A2.47,2.47,0,0,0,713.7,368.83Z" transform="translate(-621.04 -297.36)"/><path class="cls-27" d="M716.52,373a1.84,1.84,0,0,1,.17-.22c.09-.09,0-.25-.13-.16a4.77,4.77,0,0,1-.81.61c-.08.05,0,.21,0,.21a.74.74,0,0,0,.5-.22Z" transform="translate(-621.04 -297.36)"/><path class="cls-27" d="M715,373.57c-.07,0-.14-.05-.21-.05h-.16l-.24,0a.45.45,0,0,0-.28,0,.23.23,0,0,0-.1.29c.08.17.36.17.51.19a1.32,1.32,0,0,0,.28,0,.42.42,0,0,0,.27-.2A.1.1,0,0,0,715,373.57Z" transform="translate(-621.04 -297.36)"/><path class="cls-28" d="M709.69,377.26a3.33,3.33,0,1,1,1-4.6A3.34,3.34,0,0,1,709.69,377.26Z" transform="translate(-621.04 -297.36)"/><path class="cls-29" d="M711.17,373.88a3.37,3.37,0,0,1-1.46,2.12,3.33,3.33,0,0,1-4.61-1,3.53,3.53,0,0,1-.48-1.22,3.33,3.33,0,1,0,6.55.1Z" transform="translate(-621.04 -297.36)"/><path class="cls-25" d="M710.69,373.28a.55.55,0,0,0,0-.22c-.08-.52-.69-1-1.08-1.25a3,3,0,0,0-1.26-.48,3.21,3.21,0,0,0-2.6.79,1.54,1.54,0,0,0-.1,2.38c.65.51,1.4,0,2-.36a2.8,2.8,0,0,1,2.53-.57A.43.43,0,0,0,710.69,373.28Z" transform="translate(-621.04 -297.36)"/><path class="cls-26" d="M709.85,372.51a.88.88,0,0,0-.1-.22,1.24,1.24,0,0,0-.57-.49,1.43,1.43,0,0,0-1.11-.06.36.36,0,0,0,0,.57,1.85,1.85,0,0,0,.66.18,8.81,8.81,0,0,1,.87.28C709.73,372.83,709.91,372.65,709.85,372.51Z" transform="translate(-621.04 -297.36)"/><path class="cls-26" d="M707.48,372.33a.26.26,0,0,0,0-.36c-.07-.06-.09-.13-.18-.15-.34-.06-1.29.28-1.06.77l0,.09c.12.17.47.14.62.07A2.49,2.49,0,0,0,707.48,372.33Z" transform="translate(-621.04 -297.36)"/><path class="cls-27" d="M709.51,377c.07-.05.13-.13.2-.18s0-.25-.1-.18a5,5,0,0,1-.9.45.12.12,0,0,0,0,.22.78.78,0,0,0,.53-.13Z" transform="translate(-621.04 -297.36)"/><path class="cls-27" d="M707.89,377.23c-.07,0-.13-.07-.19-.09l-.17,0-.22-.08a.52.52,0,0,0-.27,0,.23.23,0,0,0-.16.27c0,.18.32.23.47.27a.84.84,0,0,0,.27,0,.43.43,0,0,0,.31-.16A.09.09,0,0,0,707.89,377.23Z" transform="translate(-621.04 -297.36)"/><path class="cls-30" d="M700.7,377.53a3.33,3.33,0,1,1,2.92-3.7A3.34,3.34,0,0,1,700.7,377.53Z" transform="translate(-621.04 -297.36)"/><path class="cls-31" d="M703.52,375.14a3.33,3.33,0,0,1-5.84-3,3.29,3.29,0,0,0-.68,2.43,3.34,3.34,0,0,0,6.52.53Z" transform="translate(-621.04 -297.36)"/><path class="cls-25" d="M703.35,374.39a.35.35,0,0,0,.1-.19,2.29,2.29,0,0,0-.42-1.6,3.11,3.11,0,0,0-.92-1,3.25,3.25,0,0,0-2.68-.43,1.55,1.55,0,0,0-1.14,2.1c.37.74,1.26.63,1.94.54a2.78,2.78,0,0,1,2.52.6A.43.43,0,0,0,703.35,374.39Z" transform="translate(-621.04 -297.36)"/><path class="cls-26" d="M702.93,373.33a.65.65,0,0,0,0-.24,1.2,1.2,0,0,0-.3-.69,1.39,1.39,0,0,0-1-.54.36.36,0,0,0-.27.5c.13.22.33.3.52.45a8,8,0,0,1,.66.64A.22.22,0,0,0,702.93,373.33Z" transform="translate(-621.04 -297.36)"/><path class="cls-26" d="M700.88,372.13a.26.26,0,0,0,.14-.34c0-.08,0-.15-.09-.21-.28-.2-1.29-.31-1.29.23a.34.34,0,0,0,0,.1c0,.2.35.33.52.33A2.51,2.51,0,0,0,700.88,372.13Z" transform="translate(-621.04 -297.36)"/><path class="cls-27" d="M700.67,377.17a2.76,2.76,0,0,1,.27-.08c.13,0,.12-.22,0-.2a4.88,4.88,0,0,1-1,0,.12.12,0,0,0-.08.2.68.68,0,0,0,.52.11Z" transform="translate(-621.04 -297.36)"/><path class="cls-27" d="M699.1,376.71c-.05,0-.08-.12-.13-.16l-.13-.11a1.37,1.37,0,0,1-.17-.17.38.38,0,0,0-.23-.16.21.21,0,0,0-.25.17c0,.17.19.34.3.45a.91.91,0,0,0,.23.15.44.44,0,0,0,.34,0A.1.1,0,0,0,699.1,376.71Z" transform="translate(-621.04 -297.36)"/><path class="cls-17" d="M693.08,375.17a3.33,3.33,0,1,1,3.47-3.19A3.34,3.34,0,0,1,693.08,375.17Z" transform="translate(-621.04 -297.36)"/><path class="cls-19" d="M696.24,373.25a3.33,3.33,0,0,1-5.6-2.58,3.39,3.39,0,0,1,.31-1.27,3.33,3.33,0,1,0,5.29,3.85Z" transform="translate(-621.04 -297.36)"/><path class="cls-25" d="M696.2,372.49a.46.46,0,0,0,.13-.18,2.29,2.29,0,0,0-.17-1.64,2.93,2.93,0,0,0-.74-1.12,3.28,3.28,0,0,0-2.58-.86,1.55,1.55,0,0,0-1.46,1.9c.24.78,1.14.82,1.82.83a2.83,2.83,0,0,1,2.4,1A.43.43,0,0,0,696.2,372.49Z" transform="translate(-621.04 -297.36)"/><path class="cls-26" d="M696,371.37a.86.86,0,0,0,0-.23,1.18,1.18,0,0,0-.19-.73,1.39,1.39,0,0,0-.87-.69.36.36,0,0,0-.34.45,1.7,1.7,0,0,0,.43.53,6.44,6.44,0,0,1,.55.74A.22.22,0,0,0,696,371.37Z" transform="translate(-621.04 -297.36)"/><path class="cls-26" d="M694.11,369.86a.26.26,0,0,0,.2-.31c0-.09,0-.15-.06-.22-.24-.25-1.22-.51-1.31,0,0,0,0,.07,0,.1,0,.2.3.38.47.41A2.17,2.17,0,0,0,694.11,369.86Z" transform="translate(-621.04 -297.36)"/><path class="cls-27" d="M693.11,374.81a2.51,2.51,0,0,1,.27,0c.13,0,.16-.19,0-.2a5.73,5.73,0,0,1-1-.15.11.11,0,0,0-.11.18.73.73,0,0,0,.51.2Z" transform="translate(-621.04 -297.36)"/><path class="cls-27" d="M691.63,374.1c0-.05-.06-.13-.11-.18a.69.69,0,0,0-.11-.13l-.14-.19c0-.08-.1-.17-.19-.2a.22.22,0,0,0-.28.13c-.06.17.13.37.23.49a.72.72,0,0,0,.2.19c.11.08.2.06.34.05A.1.1,0,0,0,691.63,374.1Z" transform="translate(-621.04 -297.36)"/><path class="cls-32" d="M686.66,373.41a3.33,3.33,0,1,1,2.42-4A3.33,3.33,0,0,1,686.66,373.41Z" transform="translate(-621.04 -297.36)"/><path class="cls-33" d="M689.15,370.68a3.34,3.34,0,0,1-6.11-.88,3.23,3.23,0,0,1-.06-1.31,3.33,3.33,0,1,0,6.17,2.19Z" transform="translate(-621.04 -297.36)"/><path class="cls-25" d="M688.89,370a.44.44,0,0,0,.07-.21,2.23,2.23,0,0,0-.62-1.52,2.91,2.91,0,0,0-1-.87,3.25,3.25,0,0,0-2.71-.08,1.54,1.54,0,0,0-.86,2.23c.45.68,1.32.46,2,.28a2.8,2.8,0,0,1,2.58.27A.43.43,0,0,0,688.89,370Z" transform="translate(-621.04 -297.36)"/><path class="cls-26" d="M688.34,369a.58.58,0,0,0,0-.23,1.23,1.23,0,0,0-.38-.65,1.38,1.38,0,0,0-1-.42.36.36,0,0,0-.21.53,1.86,1.86,0,0,0,.57.39,5.68,5.68,0,0,1,.74.55A.22.22,0,0,0,688.34,369Z" transform="translate(-621.04 -297.36)"/><path class="cls-26" d="M686.14,368a.26.26,0,0,0,.11-.35c0-.08,0-.15-.13-.19-.29-.17-1.31-.15-1.25.38,0,0,0,.07,0,.11s.4.28.57.25A2.1,2.1,0,0,0,686.14,368Z" transform="translate(-621.04 -297.36)"/><path class="cls-27" d="M686.59,373.06a1.89,1.89,0,0,1,.25-.11c.13,0,.09-.23,0-.2a4.91,4.91,0,0,1-1,.14.12.12,0,0,0,0,.21.72.72,0,0,0,.54,0Z" transform="translate(-621.04 -297.36)"/><path class="cls-27" d="M685,372.8c-.05,0-.09-.1-.15-.14l-.14-.09-.19-.15a.47.47,0,0,0-.24-.13.22.22,0,0,0-.23.2c0,.18.23.32.36.41a.6.6,0,0,0,.24.12.37.37,0,0,0,.34,0C685,372.94,685,372.85,685,372.8Z" transform="translate(-621.04 -297.36)"/><path class="cls-34" d="M681.19,374.89a3.33,3.33,0,1,1,.28-4.71A3.33,3.33,0,0,1,681.19,374.89Z" transform="translate(-621.04 -297.36)"/><path class="cls-35" d="M682.13,371.32a3.33,3.33,0,0,1-5.82,2,3.42,3.42,0,0,1-.66-1.13,3.33,3.33,0,1,0,6.48-.91Z" transform="translate(-621.04 -297.36)"/><path class="cls-25" d="M681.57,370.8a.41.41,0,0,0,0-.22c-.15-.5-.82-.86-1.25-1.06a2.89,2.89,0,0,0-1.32-.29,3.23,3.23,0,0,0-2.45,1.18,1.55,1.55,0,0,0,.26,2.37c.73.4,1.4-.2,1.9-.66a2.79,2.79,0,0,1,2.41-.95A.43.43,0,0,0,681.57,370.8Z" transform="translate(-621.04 -297.36)"/><path class="cls-26" d="M680.62,370.17a.53.53,0,0,0-.13-.2,1.23,1.23,0,0,0-.64-.4,1.39,1.39,0,0,0-1.1.11.36.36,0,0,0,.06.57,1.74,1.74,0,0,0,.68.07,9.09,9.09,0,0,1,.91.15A.22.22,0,0,0,680.62,370.17Z" transform="translate(-621.04 -297.36)"/><path class="cls-26" d="M678.25,370.36a.27.27,0,0,0-.07-.36c-.08-.05-.11-.11-.2-.12-.34,0-1.24.48-.93.93l.06.08c.13.15.47.07.61,0A2.3,2.3,0,0,0,678.25,370.36Z" transform="translate(-621.04 -297.36)"/><path class="cls-27" d="M681,374.61a1.81,1.81,0,0,1,.18-.21c.09-.09,0-.25-.13-.16a5.08,5.08,0,0,1-.82.58c-.09.05-.06.21,0,.21a.71.71,0,0,0,.5-.21A1.51,1.51,0,0,0,681,374.61Z" transform="translate(-621.04 -297.36)"/><path class="cls-27" d="M679.4,375.13c-.06,0-.13-.05-.2-.05l-.16,0-.24,0a.53.53,0,0,0-.28,0,.24.24,0,0,0-.11.29c.08.16.36.18.51.2a.88.88,0,0,0,.28,0,.42.42,0,0,0,.27-.2A.1.1,0,0,0,679.4,375.13Z" transform="translate(-621.04 -297.36)"/><path class="cls-24" d="M678.52,379.48a3.33,3.33,0,1,1-2.4-4.05A3.33,3.33,0,0,1,678.52,379.48Z" transform="translate(-621.04 -297.36)"/><path class="cls-36" d="M677.3,376a3.33,3.33,0,0,1-3.68,4.94,3.28,3.28,0,0,1-1.19-.57A3.33,3.33,0,1,0,677.3,376Z" transform="translate(-621.04 -297.36)"/><path class="cls-25" d="M676.54,375.88a.32.32,0,0,0-.14-.16,2.22,2.22,0,0,0-1.64-.18,3,3,0,0,0-1.25.49,3.27,3.27,0,0,0-1.38,2.35,1.56,1.56,0,0,0,1.56,1.82c.82-.07,1-.94,1.19-1.61a2.81,2.81,0,0,1,1.47-2.14A.42.42,0,0,0,676.54,375.88Z" transform="translate(-621.04 -297.36)"/><path class="cls-26" d="M675.4,375.89a.64.64,0,0,0-.21-.09,1.17,1.17,0,0,0-.76,0,1.36,1.36,0,0,0-.85.7.36.36,0,0,0,.37.44,1.88,1.88,0,0,0,.61-.32,7.87,7.87,0,0,1,.83-.39A.22.22,0,0,0,675.4,375.89Z" transform="translate(-621.04 -297.36)"/><path class="cls-26" d="M673.54,377.37a.26.26,0,0,0-.26-.26c-.09,0-.15,0-.23,0-.29.18-.76,1.09-.25,1.28l.09,0c.2.05.44-.21.5-.37A2.15,2.15,0,0,0,673.54,377.37Z" transform="translate(-621.04 -297.36)"/><path class="cls-27" d="M678.17,379.38a2.23,2.23,0,0,1,0-.27c0-.13-.17-.19-.2-.07a4.22,4.22,0,0,1-.36.95c0,.09.08.2.16.15a.74.74,0,0,0,.3-.45C678.13,379.59,678.15,379.48,678.17,379.38Z" transform="translate(-621.04 -297.36)"/><path class="cls-27" d="M677.17,380.69c-.06,0-.13,0-.2.06l-.14.08-.22.1a.43.43,0,0,0-.24.15.22.22,0,0,0,.07.3c.16.09.39-.05.53-.12a.94.94,0,0,0,.23-.16.47.47,0,0,0,.12-.32A.1.1,0,0,0,677.17,380.69Z" transform="translate(-621.04 -297.36)"/><g class="cls-37"><path class="cls-11" d="M676.23,391.05a3.19,3.19,0,0,1,.43.54c.1.19.1.41.19.6a.16.16,0,0,0,.3-.1,2.14,2.14,0,0,0-.75-1.19.11.11,0,0,0-.17.15Z" transform="translate(-621.04 -297.36)"/></g><path class="cls-22" d="M676.72,389.9a2,2,0,0,0-1.89,1c-.24.49.51.91.75.41s.84-.59,1.29-.88c.23-.14.09-.5-.15-.53Z" transform="translate(-621.04 -297.36)"/><path class="cls-22" d="M676.41,389.41l0,0a.62.62,0,0,0-.51-.13,1.5,1.5,0,0,0-.29.06,3,3,0,0,0-.41.18,1.41,1.41,0,0,0-.57.66c-.19.5.6.81.77.3a.86.86,0,0,1,.54-.42c.14-.06.37-.1.47-.23A.35.35,0,0,0,676.41,389.41Z" transform="translate(-621.04 -297.36)"/><path class="cls-22" d="M675.61,388.61h0a1.22,1.22,0,0,0-.85.16.89.89,0,0,0-.56.76c0,.55.84.61.83.08,0,0,0-.08,0,0a.74.74,0,0,1,.13-.12l.18-.08c.15-.06.3-.08.45-.15a.33.33,0,0,0,.16-.43A.34.34,0,0,0,675.61,388.61Z" transform="translate(-621.04 -297.36)"/><path class="cls-38" d="M675.58,391.31s-.73.24-.68-.53a1.27,1.27,0,0,0-.07.12C674.62,391.64,675.43,391.68,675.58,391.31Z" transform="translate(-621.04 -297.36)"/><path class="cls-38" d="M675,390.54l.12-.17c-.33.13-.41-.31-.27-.59l.11-.19c-.34.07-.5-.17-.45-.48a1.17,1.17,0,0,1,0-.2.84.84,0,0,0-.32.61.43.43,0,0,0,.5.44,1.24,1.24,0,0,0-.1.2.41.41,0,0,0,.29.54A.37.37,0,0,1,675,390.54Z" transform="translate(-621.04 -297.36)"/><path class="cls-22" d="M723.58,359.21a1.94,1.94,0,0,0,1.83,1.09c.54-.05.51-.92,0-.86s-1.9-.45-1.79-.23Z" transform="translate(-621.04 -297.36)"/><path class="cls-22" d="M723.32,359.73v0a.62.62,0,0,0,.16.5,1.34,1.34,0,0,0,.2.21,1.9,1.9,0,0,0,.37.26,1.29,1.29,0,0,0,.86.14c.53-.1.37-.94-.15-.82a.79.79,0,0,1-.64-.23c-.12-.09-.28-.26-.44-.28A.34.34,0,0,0,723.32,359.73Z" transform="translate(-621.04 -297.36)"/><path class="cls-22" d="M723.06,360.83h0a1.21,1.21,0,0,0,.58.64.91.91,0,0,0,.94.08c.48-.27.08-1-.37-.75,0,0-.07,0,0,0a.48.48,0,0,1-.17-.05.91.91,0,0,1-.16-.11c-.13-.1-.23-.22-.37-.31a.33.33,0,0,0-.45.09A.32.32,0,0,0,723.06,360.83Z" transform="translate(-621.04 -297.36)"/><path class="cls-38" d="M725.37,359.44a.48.48,0,0,1-.1.86h.14C726.15,360.09,725.77,359.38,725.37,359.44Z" transform="translate(-621.04 -297.36)"/><path class="cls-38" d="M725,360.37l-.21,0c.29.22-.05.52-.35.54h-.22c.23.26.11.52-.18.65a.65.65,0,0,1-.2,0,.83.83,0,0,0,.69,0,.44.44,0,0,0,.12-.66.82.82,0,0,0,.22,0,.41.41,0,0,0,.31-.53A.48.48,0,0,1,725,360.37Z" transform="translate(-621.04 -297.36)"/><path class="cls-22" d="M675.19,382.06a4.39,4.39,0,0,0-.89-.18,2,2,0,0,1-.72-.29c-.41-.26-.81.46-.37.67-.14-.15-.18-.19-.11-.1a.35.35,0,0,0,.11.1l.29.13a3.31,3.31,0,0,0,.53.18,3,3,0,0,0,1.11.11.33.33,0,0,0,.05-.62Z" transform="translate(-621.04 -297.36)"/><path class="cls-22" d="M673,382.54c-.15.74,1.4.73,1.82.75s.45-.83-.06-.77a2.5,2.5,0,0,1-1.09,0c-.16-.05-.6-.25-.67.06Z" transform="translate(-621.04 -297.36)"/><path class="cls-22" d="M673.38,383.49l0-.25a.25.25,0,0,0,0,.25c.24.35.76.32,1.13.38a.38.38,0,1,0,0-.73l-.18.11.16-.08a1.19,1.19,0,0,1-.42,0,4.17,4.17,0,0,0-.51-.09.25.25,0,0,0-.17.4Z" transform="translate(-621.04 -297.36)"/><path class="cls-38" d="M673.7,382.45a1.61,1.61,0,0,1-.34-.24.43.43,0,0,1,0-.67c-.31,0-.52.54-.16.72A2.25,2.25,0,0,0,673.7,382.45Z" transform="translate(-621.04 -297.36)"/><path class="cls-38" d="M673.45,383.47a.29.29,0,0,1,.24-.35c-.29-.11-.59-.32-.53-.62a.28.28,0,0,1,.11-.13.21.21,0,0,0-.23.17c-.06.29.15.46.44.57a.2.2,0,0,0-.13.14.26.26,0,0,0,0,.24.5.5,0,0,0,.22.19S673.5,383.57,673.45,383.47Z" transform="translate(-621.04 -297.36)"/><path class="cls-39" d="M739.7,357.26c-.74-.18-1.5-.27-2.24-.44l-1.2-.25a2.74,2.74,0,0,0-1-.14c-.14,0-.29.18-.17.33a1.91,1.91,0,0,0,.88.56,7.44,7.44,0,0,0,1.31.43,4.78,4.78,0,0,0,2.46.07c.3-.09.2-.5-.06-.56Z" transform="translate(-621.04 -297.36)"/><path class="cls-39" d="M721.16,351.3c-.15.21,0,.45,0,.69s.07.54.13.81a4.33,4.33,0,0,0,.5,1.31,5.76,5.76,0,0,0,.76.95,3.55,3.55,0,0,0,1.32.92.2.2,0,0,0,.23-.27,10.05,10.05,0,0,0-1-1.08,4.85,4.85,0,0,1-.86-1.29c-.2-.5-.26-1-.47-1.53-.06-.12-.4-.84-.62-.51Z" transform="translate(-621.04 -297.36)"/><path class="cls-22" d="M726.22,356.06a12.4,12.4,0,0,1-1.43,2.81,25.21,25.21,0,0,1-1.75,2.39c-.62.73-1.35,1.37-2,2.06a5.38,5.38,0,0,0-1.68,2.44.29.29,0,0,0,.5.25c.37-.39.63-.86,1-1.28a14.12,14.12,0,0,1,1-1.06c.68-.68,1.39-1.33,2-2.07a15.75,15.75,0,0,0,3.15-5.31c.12-.41-.59-.64-.73-.23Z" transform="translate(-621.04 -297.36)"/><path class="cls-32" d="M721.73,369a4.09,4.09,0,1,1,2.31-5.3A4.08,4.08,0,0,1,721.73,369Z" transform="translate(-621.04 -297.36)"/><path class="cls-33" d="M724.32,365.28a4.06,4.06,0,0,1-2.26,2.21,4.11,4.11,0,0,1-5.31-2.31,4.2,4.2,0,0,1-.28-1.59,4.09,4.09,0,1,0,7.85,1.69Z" transform="translate(-621.04 -297.36)"/><path class="cls-25" d="M723.89,364.45a.43.43,0,0,0,.06-.26c0-.65-.59-1.35-1-1.76a3.5,3.5,0,0,0-1.4-.89,4,4,0,0,0-3.31.32,1.91,1.91,0,0,0-.7,2.85c.66.77,1.69.36,2.46,0a3.47,3.47,0,0,1,3.18-.07A.53.53,0,0,0,723.89,364.45Z" transform="translate(-621.04 -297.36)"/><path class="cls-26" d="M723.06,363.32A.88.88,0,0,0,723,363a1.52,1.52,0,0,0-.57-.73,1.73,1.73,0,0,0-1.32-.34.45.45,0,0,0-.17.68,2.26,2.26,0,0,0,.76.38,7.89,7.89,0,0,1,1,.55A.27.27,0,0,0,723.06,363.32Z" transform="translate(-621.04 -297.36)"/><path class="cls-26" d="M720.25,362.54a.33.33,0,0,0,.07-.45c-.07-.09-.07-.17-.18-.21-.39-.16-1.62,0-1.46.67a.53.53,0,0,0,0,.12c.09.22.52.28.73.22A2.76,2.76,0,0,0,720.25,362.54Z" transform="translate(-621.04 -297.36)"/><path class="cls-27" d="M721.58,368.58c.1-.05.19-.13.29-.17s.08-.3-.07-.24a6.49,6.49,0,0,1-1.2.33.14.14,0,0,0,0,.26.87.87,0,0,0,.67,0A2.17,2.17,0,0,0,721.58,368.58Z" transform="translate(-621.04 -297.36)"/><path class="cls-27" d="M719.57,368.53c-.08,0-.13-.11-.21-.15l-.19-.09a2.07,2.07,0,0,1-.25-.15.53.53,0,0,0-.32-.12.28.28,0,0,0-.25.28c0,.22.33.35.51.44a.89.89,0,0,0,.31.11.55.55,0,0,0,.41-.11A.12.12,0,0,0,719.57,368.53Z" transform="translate(-621.04 -297.36)"/><g class="cls-40"><path class="cls-11" d="M726.52,356.22c-.17.34-.35.67-.53,1a4.75,4.75,0,0,0-.39.82c-.05.14.15.27.23.13.17-.29.3-.61.45-.9a9,9,0,0,0,.45-.94c.06-.14-.14-.26-.21-.12Z" transform="translate(-621.04 -297.36)"/></g><g class="cls-40"><path class="cls-11" d="M724.58,359.79a.49.49,0,0,0,.28.3l.1,0a.32.32,0,0,0,.23,0,.16.16,0,0,0,0-.24.68.68,0,0,0-.27-.13l-.22-.07a.11.11,0,0,0-.14.14Z" transform="translate(-621.04 -297.36)"/></g><g class="cls-40"><path class="cls-11" d="M724,360.22l.06.19,0,0,0,0,.1.06a.37.37,0,0,0,.34,0,.15.15,0,0,0,0-.23s0,0,0,0l0,0-.11-.06h0l0,0,0,0a.42.42,0,0,0-.19-.06.17.17,0,0,0-.16.12Z" transform="translate(-621.04 -297.36)"/></g><g class="cls-40"><path class="cls-11" d="M723.45,360.81a.35.35,0,0,0,.23.4.19.19,0,0,0,.25-.07.19.19,0,0,0,0-.25.51.51,0,0,0-.33-.17.13.13,0,0,0-.12.09Z" transform="translate(-621.04 -297.36)"/></g><g class="cls-21"><path class="cls-11" d="M675.54,388.74l0,0h-.1l-.16,0a.48.48,0,0,0-.32.15.12.12,0,0,0,.06.2.56.56,0,0,0,.31-.06.5.5,0,0,1,.13,0l.08,0,.06,0c.11,0,.08-.18,0-.2Z" transform="translate(-621.04 -297.36)"/></g><g class="cls-21"><path class="cls-11" d="M676,389.35l0,0-.05,0a.16.16,0,0,0-.1,0l-.17.05c-.11,0-.24.07-.28.2a.15.15,0,0,0,.08.2c.13.08.27,0,.4-.05a1.17,1.17,0,0,0,.26-.1.15.15,0,0,0,.07-.19.12.12,0,0,0,0-.08l-.06,0Z" transform="translate(-621.04 -297.36)"/></g><g class="cls-21"><path class="cls-11" d="M676.49,390a.62.62,0,0,0-.31,0,.73.73,0,0,0-.19.07.63.63,0,0,0-.2.13.24.24,0,0,0-.07.33.23.23,0,0,0,.33.07q-.22.06-.06,0l.08-.05.11-.08.16-.07.14-.07s.06,0,0,0a.16.16,0,0,0,.14-.16c0-.09-.07-.11-.14-.15Z" transform="translate(-621.04 -297.36)"/></g><g class="cls-21"><path class="cls-11" d="M674.45,383.61h0a.16.16,0,0,0,.1,0,.18.18,0,0,0,0-.07.14.14,0,0,0-.08-.16h0l0,0a.12.12,0,0,0-.1,0,.12.12,0,0,0-.08.09.16.16,0,0,0,0,.1.12.12,0,0,0,.1.06Z" transform="translate(-621.04 -297.36)"/></g><g class="cls-21"><path class="cls-11" d="M674.21,383l.32.06c.11,0,.29,0,.28-.12s-.18-.15-.29-.16l-.26,0a.13.13,0,0,0,0,.25Z" transform="translate(-621.04 -297.36)"/></g><g class="cls-21"><path class="cls-11" d="M674,382.31a2.41,2.41,0,0,0,.74.17.12.12,0,0,0,0-.24c-.23-.07-.47-.09-.7-.15a.12.12,0,0,0-.07.22Z" transform="translate(-621.04 -297.36)"/></g><g class="cls-41"><path class="cls-11" d="M674.22,385.26a9.23,9.23,0,0,0,.19,1.25,2.91,2.91,0,0,0,.34,1.08c.06.09.14,0,.14-.06a4.58,4.58,0,0,0-.21-1,10.48,10.48,0,0,0-.29-1.26c0-.12-.18-.14-.17,0Z" transform="translate(-621.04 -297.36)"/></g><g class="cls-41"><path class="cls-11" d="M674.86,387.82c-.14.11-.06.34,0,.48a.47.47,0,0,0,.18.25.11.11,0,0,0,.17-.1,1.26,1.26,0,0,0-.1-.38.41.41,0,0,0-.15-.25.09.09,0,0,0-.1,0Z" transform="translate(-621.04 -297.36)"/></g><path class="cls-42" d="M721.17,343.08a1,1,0,0,0-.28-1.5c-.48-.34-1.32-.4-1.61.23a1,1,0,0,0-.08.59.65.65,0,0,0,.06.21v0a1.13,1.13,0,0,0,1,1A1.14,1.14,0,0,0,721.17,343.08Z" transform="translate(-621.04 -297.36)"/><path class="cls-39" d="M731,343.47c-1-1.7-3.73-2.86-5.51-3.28-2.36-.55-9.77-.19-9.37,3a2,2,0,0,0,1.59,1.9c1.76.21,3.42-1.64,5.1-2,2.47-.52,5.33-.69,7.75.95C730.84,344.28,731.14,343.75,731,343.47Z" transform="translate(-621.04 -297.36)"/><path class="cls-5" d="M660.31,392.49c-1.69-3-21.18-7.17-31.34-4-3.4,1.07-6.36,3.15-7.51,6.17a7.12,7.12,0,0,0,2.3,7.89c3.1,2.74,7.56,3.42,11.57,3.83,4.73.48,20.23-.42,23.39-2.93C661,401.69,661.73,395,660.31,392.49Z" transform="translate(-621.04 -297.36)"/><path class="cls-5" d="M677.52,399.34a5.81,5.81,0,0,0-1-1.22,8.11,8.11,0,0,0-2.57-1.85,2.47,2.47,0,0,0-.12-1.13,3.41,3.41,0,0,0-.54-.6,8,8,0,0,0-.64-.51c-.4-.29-.82-.53-1.24-.79-.81-.51-1.57-1.1-2.42-1.55a5.71,5.71,0,0,0-1.26-.5,3.74,3.74,0,0,0-1.33-.08h-.09a2.74,2.74,0,0,0-.64,0l-1,.08c-.7.06-1.39.19-2.09.24a6.34,6.34,0,0,0-3.85,1.8,14.78,14.78,0,0,0-.88,1.73,17,17,0,0,0-1.27,5.35,7.71,7.71,0,0,0,.35,2.9l.08.23a25,25,0,0,0,5.69,3.24,33.16,33.16,0,0,0,4,.52,3.1,3.1,0,0,0,.69-.08,2.55,2.55,0,0,0,.66-.27,2.15,2.15,0,0,0,.5-.4,1.54,1.54,0,0,0,.26-.42,1.3,1.3,0,0,0,.11-.43v0a.61.61,0,0,0,0-.27,2.3,2.3,0,0,0,.45.05,2.34,2.34,0,0,0,.7,0,1.55,1.55,0,0,0,1.14-2.06,1,1,0,0,0-.36-.45,2,2,0,0,0-.44-.21h.14l.37,0a4,4,0,0,0,.69,0,2.44,2.44,0,0,0,.66-.15c.66-.26,1.43-1.25,1.1-2a.44.44,0,0,0-.17-.21,1.52,1.52,0,0,0-.4-.33,9.57,9.57,0,0,1,2,1,3.51,3.51,0,0,0,1.73.64,1.44,1.44,0,0,0,1.28-.86A1.65,1.65,0,0,0,677.52,399.34Z" transform="translate(-621.04 -297.36)"/><path class="cls-3" d="M673,395.17a8.64,8.64,0,0,0-1.24-.74c-.43-.22-.86-.42-1.31-.61-.26-.11-.51-.22-.78-.32a3,3,0,0,0-.78-.24,0,0,0,0,0,0,.05,2.42,2.42,0,0,0,.6.4l.71.38c.43.22.87.43,1.3.66a12.88,12.88,0,0,1,1.19.71l.55.43a1.11,1.11,0,0,0,.54.34.09.09,0,0,0,.11-.09C673.85,395.71,673.31,395.39,673,395.17Z" transform="translate(-621.04 -297.36)"/><path class="cls-3" d="M673,401.38a1.45,1.45,0,0,0-.34.31,2.34,2.34,0,0,1-.4.37,2.6,2.6,0,0,1-.94.47,0,0,0,0,0,0,.09,2,2,0,0,0,1.13-.29c.28-.18.67-.51.66-.88A.09.09,0,0,0,673,401.38Z" transform="translate(-621.04 -297.36)"/><path class="cls-14" d="M668.3,391.64a4.92,4.92,0,0,0-1.94-.34,16.28,16.28,0,0,0-2.42.1,16.93,16.93,0,0,0-2.26.39,3.41,3.41,0,0,0-1.66.72s0,0,0,0a5.36,5.36,0,0,0,1.78-.16c.75-.12,1.51-.23,2.27-.31s1.38-.08,2.07-.11a9.72,9.72,0,0,0,2.09-.16C668.34,391.79,668.39,391.68,668.3,391.64Z" transform="translate(-621.04 -297.36)"/><path class="cls-14" d="M675.52,397.32a20.79,20.79,0,0,0-4.42-2.4,0,0,0,0,0,0,0c1.26.82,2.51,1.65,3.7,2.56a18.76,18.76,0,0,1,1.47,1.2,5.47,5.47,0,0,1,1.09,1.6.22.22,0,0,0,.39-.07C677.87,399,676.43,398,675.52,397.32Z" transform="translate(-621.04 -297.36)"/><path class="cls-14" d="M672.49,399.67a4.87,4.87,0,0,0-1.72-.89.06.06,0,0,0,0,.1c.45.39,1,.67,1.41,1.08a3.31,3.31,0,0,1,.58.66c.13.21.19.37.42.46a.12.12,0,0,0,.12-.06C673.49,400.55,672.82,399.94,672.49,399.67Z" transform="translate(-621.04 -297.36)"/><path class="cls-14" d="M671.19,403.09a2.49,2.49,0,0,0-2-1.13c-.07,0-.1.09-.05.14.39.37.91.54,1.28,1a1.72,1.72,0,0,1,.34,1.54s0,.08.07.06A1.16,1.16,0,0,0,671.19,403.09Z" transform="translate(-621.04 -297.36)"/><path class="cls-14" d="M668.55,405a1.94,1.94,0,0,0-1.1-.6s-.07.05,0,.09c.37.35.84.63.92,1.18,0,.19.08.64.38.39S668.76,405.27,668.55,405Z" transform="translate(-621.04 -297.36)"/><path class="cls-3" d="M670.52,404.69a5.93,5.93,0,0,0-.86.38,3.9,3.9,0,0,1-1,.12s0,0,0,0c.54.29,1.71.23,2-.42A.09.09,0,0,0,670.52,404.69Z" transform="translate(-621.04 -297.36)"/><path class="cls-3" d="M659,393.19a5.08,5.08,0,0,0-1.64,2,9.74,9.74,0,0,0-1,2.6c-.35,1.66-.49,3.85.5,5.31a.16.16,0,0,0,.29-.09c0-.83-.19-1.64-.24-2.46a10.21,10.21,0,0,1,.18-2.59,12,12,0,0,1,.78-2.49c.34-.76.86-1.43,1.17-2.19C659.12,393.21,659.08,393.16,659,393.19Z" transform="translate(-621.04 -297.36)"/><path class="cls-14" d="M657.56,391.89a20.18,20.18,0,0,0-5.79-2.51,38.65,38.65,0,0,0-6.21-1.27,45,45,0,0,0-13.11.06,25.85,25.85,0,0,0-3.59.91,20.36,20.36,0,0,0-3.31,1.54s0,.07,0,.06a29.1,29.1,0,0,1,6.33-1.79,39,39,0,0,1,6.66-.39A48.83,48.83,0,0,1,650.83,390c2.25.6,4.39,1.5,6.57,2.28C657.67,392.42,657.76,392,657.56,391.89Z" transform="translate(-621.04 -297.36)"/><path class="cls-5" d="M731.58,346.41c.39-1,.8-2.68-.12-3.58s-2.43-.35-3.38.21a11,11,0,0,0-3.2,2.93c-.55.73-1.67,2.46-.58,3.22.11.07,7,2.66,7,2.24a7,7,0,0,0-.41-1.49,2.09,2.09,0,0,1-.24-1.44C730.8,347.78,731.32,347.12,731.58,346.41Z" transform="translate(-621.04 -297.36)"/></g></g></svg>