<svg xmlns="http://www.w3.org/2000/svg" viewBox="0 0 233.9 150.93"><defs><style>.cls-1{isolation:isolate;}.cls-2{fill:#f5f5f5;mix-blend-mode:multiply;}.cls-3{fill:#ffc0a6;}.cls-4{fill:#ffb191;}.cls-5{fill:#fae7db;}.cls-6{fill:#ffd5c6;}.cls-7{fill:#d1785a;}.cls-8{fill:#f2f2f2;}.cls-9{fill:#e6e6e6;}.cls-10{fill:#2a86ad;}.cls-11,.cls-27,.cls-28{fill:#fff;}.cls-12{fill:#54bee8;}.cls-13{fill:#de954c;}.cls-14{fill:#00485b;}.cls-15{opacity:0.54;}.cls-16{fill:#00a7af;}.cls-17{fill:#ededed;}.cls-18{fill:#fdd437;}.cls-19{fill:#2ac5d4;}.cls-20{fill:#ff4277;}.cls-21{fill:#ff584e;}.cls-22{fill:#4fe6b6;}.cls-23{fill:#fded64;}.cls-24{fill:#da2a33;}.cls-25{opacity:0.32;}.cls-26{opacity:0.14;}.cls-27{opacity:0.44;}.cls-28{opacity:0.5;}</style></defs><g class="cls-1"><g id="Слой_1" data-name="Слой 1"><ellipse class="cls-2" cx="112.95" cy="141.77" rx="112.95" ry="9.16"/><path class="cls-3" d="M654.54,427.51c-12.06,14-22.72,21.24-29,17.51-9.36-5.57-6.19-17,.39-36.34,5.41-15.93,19.8-23.52,29.34-18.27S667.21,412.84,654.54,427.51Z" transform="translate(-565.78 -308.64)"/><path class="cls-3" d="M736.51,426.41c-2.78-5.31-6.12-9.63-9.53-12.15a35,35,0,0,0,0-4c-.53-13.2-7.3-26.84-16.2-24.89s-9.75,11-6.08,21c3.73,10.11,6.83,14.67,10,16.13,1.46,3.5,4.38,7.41,7.32,11.34,7.07,9.48,12.5,11,15.91,8.42S741.1,435.18,736.51,426.41Z" transform="translate(-565.78 -308.64)"/><path class="cls-4" d="M736.51,426.41c-2.78-5.31-6.12-9.63-9.53-12.15a35,35,0,0,0,0-4c-.53-13.2-7.3-26.84-16.2-24.89a10.61,10.61,0,0,0-4.85,2.36,13,13,0,0,1,2.28-.73c8.9-1.95,15.67,11.7,16.2,24.89,0,1.27,0,2.41,0,3.42a11.25,11.25,0,0,0-2.64,1.1,8.82,8.82,0,0,0-3.22,2.58c-.14.18.11.38.29.29,1.17-.62,2.26-1.39,3.43-2a18.56,18.56,0,0,1,1.87-.86l.57-.22c3.29,2.55,6.5,6.76,9.19,11.89a48.1,48.1,0,0,1,2.83,6.31,4.23,4.23,0,0,0-.68.41,4.15,4.15,0,0,0-1.7,1.94c-.08.26.25.55.49.38.66-.49,1.15-1.19,1.83-1.69l.33-.23c1.14,3.71.86,6.19-.75,7.91a5.42,5.42,0,0,0,1.73-.87C741.44,439.65,741.1,435.18,736.51,426.41Z" transform="translate(-565.78 -308.64)"/><path class="cls-3" d="M700.44,366.54s-7.72,14.58-21.71,15-21.64-9.86-38.41,0c-12.36,7.25-18.44,36,.85,43.28s64.45,12,82-39.85Z" transform="translate(-565.78 -308.64)"/><path class="cls-4" d="M717.32,398.47l.39-.74,0-.05c.39-.74.77-1.5,1.14-2.27l0-.05.33-.68c0-.07.07-.15.11-.22l.3-.66.1-.22c.18-.4.36-.8.53-1.2.05-.1.09-.21.14-.31l.23-.54c.06-.16.13-.31.19-.47l.21-.5c.08-.18.15-.37.23-.56s.11-.29.17-.43c.13-.32.25-.65.38-1l.12-.32c.09-.25.18-.5.28-.75s.09-.25.13-.38l.27-.74.12-.34c.13-.37.25-.73.38-1.09l-22.68-18.44v0c-.11.23.36,19.31,5.15,23.86,5.36,5.08-9.63,12.91-9.63,12.91C684.9,427.56,649.39,427,639,423.11a19.4,19.4,0,0,1-4.16-2.15,18.92,18.92,0,0,0,6.3,3.87c17.43,6.59,56,11.07,76.15-26.36Z" transform="translate(-565.78 -308.64)"/><path class="cls-4" d="M655.29,390.41c-5.52-3-12.67-1.77-18.76,2.92,3-.35-.66,12.61.12,33.66.3,8-2.58,15.8-7,19,6.34-.27,15.18-7.19,24.92-18.47C667.21,412.84,664.83,395.67,655.29,390.41Z" transform="translate(-565.78 -308.64)"/><path class="cls-5" d="M669,380.34c-8.74-2.26-16.59-6.95-29.32-.06-18.64,10.09-17.35,34.06-.7,46.22,8.14,5.94,29.67,7.08,43.4,1.14C670.67,410.37,667.5,383,669,380.34Z" transform="translate(-565.78 -308.64)"/><path class="cls-3" d="M674.18,418.21c5.71,17.54,6.43,30.43,0,33.86-9.61,5.13-17.75-3.49-30.9-19.13-10.83-12.87-9.89-29.11-.46-34.56S668.18,399.78,674.18,418.21Z" transform="translate(-565.78 -308.64)"/><path class="cls-4" d="M674.18,418.21c-5.86-18-21.18-24.95-30.68-20.19,9.46-2.19,22.41,5.05,27.69,21.26,5.71,17.54,6.43,30.43,0,33.86l-.34.18a13,13,0,0,0,3.33-1.25C680.61,448.64,679.89,435.75,674.18,418.21Z" transform="translate(-565.78 -308.64)"/><path class="cls-3" d="M726,396.31c8.93,7.56,7.1,11.09,4.3,15.9s-8.33,5.83-24.15-.65c-10.84-4.44-17.6-11.94-12.55-20.65S714.83,386.88,726,396.31Z" transform="translate(-565.78 -308.64)"/><path class="cls-3" d="M743.89,402.16c9.91,2.64,13.55,5.51,13.11,9.9s-5.38,7.49-17.57,6.26c-10.25-1-20.36-2.06-19.56-10S731.51,398.87,743.89,402.16Z" transform="translate(-565.78 -308.64)"/><path class="cls-4" d="M743.89,402.16a41.12,41.12,0,0,0-13.6-1.54,31,31,0,0,0-4.31-4.31c-11.15-9.43-27.34-14.11-32.4-5.4-.23.41-.44.81-.63,1.21,5.61-7.5,21.06-2.83,31.82,6.28a32.09,32.09,0,0,1,4,3.92,9.28,9.28,0,0,0-.58.95,14.4,14.4,0,0,0-1,2.13,8.42,8.42,0,0,0-.7,4.63.25.25,0,0,0,.46.06c.6-1.31.88-2.76,1.4-4.11a17.87,17.87,0,0,1,.93-2.1c.22-.41.5-.81.7-1.24a42.79,42.79,0,0,1,12.72,1.6c9.91,2.64,13.55,5.51,13.11,9.9a5.84,5.84,0,0,1-.24,1.19,5.6,5.6,0,0,0,1.45-3.27C757.44,407.67,753.8,404.8,743.89,402.16Z" transform="translate(-565.78 -308.64)"/><path class="cls-3" d="M610.83,446.06c-12.74-1.48-21-1.43-21.55-5.55-1-7.4,11.12-4.8,20.8-11.05,8.45-5.45,22.28,1.92,22.67,8.12S631.61,448.46,610.83,446.06Z" transform="translate(-565.78 -308.64)"/><path class="cls-6" d="M753.14,415.34c-1.18.12-2.37.14-3.54.31s-2.21.27-3.32.32a45.38,45.38,0,0,1-7.09-.31c-2.35-.26-4.65-.74-7-1.13-1.18-.19-2.35-.41-3.51-.63a11.83,11.83,0,0,0-3.54-.41.4.4,0,0,0-.2.74c1.51,1,3.57,1.34,5.31,1.8a56.31,56.31,0,0,0,5.6,1.19,45.47,45.47,0,0,0,11.41.59,19.2,19.2,0,0,0,3.12-.43,16.35,16.35,0,0,0,3-1.15A.48.48,0,0,0,753.14,415.34Z" transform="translate(-565.78 -308.64)"/><path class="cls-3" d="M611.15,442.05c-2.32-3.09-19.19-6-19.24-6l-.33-.12-.27-.17-.06,0-.16-.18a1.69,1.69,0,0,1-.26-.36c-.27-.49-.31-1.05-.58-1.53-1.66-2.93-2.2-3.37-3.66-3.84a4.36,4.36,0,0,0-5,1.59,17.87,17.87,0,0,0-1.4,2.34,14.85,14.85,0,0,1-1.94,2.66,13.18,13.18,0,0,1-5,3.34c-1.76.69-4.33,1.67-4.38,3.93a1.41,1.41,0,0,0,.94,1.39c5.06,1.26,10.24.57,15.38.55,5.42,0,15.63.2,21-.06a31.28,31.28,0,0,0,6.2-.6C613.68,444.78,611.79,442.9,611.15,442.05Zm-19.93-6.35Z" transform="translate(-565.78 -308.64)"/><path class="cls-6" d="M588.07,431.75c-.8-1.86-3.25-1.7-4.78-1-1.85.91-2.68,2.83-3.63,4.53a9.93,9.93,0,0,1-4.24,4.1c-1.62.83-3.59,1.1-4.56,2.8a.2.2,0,0,0,.27.27c1.48-.9,3.36-.88,5-1.52a11.88,11.88,0,0,0,4.3-2.94c1.19-1.31,1.89-2.95,3-4.28a2.71,2.71,0,0,1,3.42-.75A.92.92,0,0,0,588.07,431.75Z" transform="translate(-565.78 -308.64)"/><path class="cls-3" d="M765.5,342.89c0-18.91-16.34-34.25-36.5-34.25S692.5,324,692.5,342.89a32.14,32.14,0,0,0,2.15,11.58c-2.51-1.65-5.34-2-7.37-.61-3,2.06-3.18,7.19-.29,11.46,2.77,4.1,7.31,5.9,10.37,4.21,1.06,15.54,14.82,27.83,31.64,27.83,17.52,0,31.72-13.32,31.72-29.76,0-.18,0-.37,0-.56a26.94,26.94,0,0,1,2.13-11.28A32.25,32.25,0,0,0,765.5,342.89Z" transform="translate(-565.78 -308.64)"/><path class="cls-4" d="M765.5,342.89c0-15.42-10.86-28.46-25.79-32.75,15.18,6,23,17.79,23,31.47,0,4.56.09,8.85-1.63,12.82-1.53,3.56-1.77,12.81-1.77,12.81,0,16.44-15.85,29.81-34.75,29.15-3.12-.1-6.59-1.23-9.44-2a33.35,33.35,0,0,0,13.86,3c17.52,0,31.72-13.32,31.72-29.76,0-.18,0-.37,0-.56a26.94,26.94,0,0,1,2.13-11.28A32.25,32.25,0,0,0,765.5,342.89Z" transform="translate(-565.78 -308.64)"/><path class="cls-7" d="M698.28,361.18a12,12,0,0,0-3.14-3.49c-2-1.49-6-3-7.83-.5a.3.3,0,0,0,.33.44c2.48-1,4.9,0,6.77,1.72a11.52,11.52,0,0,1,1.72,2h-.64a11.72,11.72,0,0,0-2.58.1.28.28,0,0,0-.07.5,5.1,5.1,0,0,0,2.51.65,6.26,6.26,0,0,0,1.5,0,13.77,13.77,0,0,1,.61,1.36,4.25,4.25,0,0,0,.89,1.63.58.58,0,0,0,.9-.11C699.87,364.09,699,362.33,698.28,361.18Z" transform="translate(-565.78 -308.64)"/><path class="cls-8" d="M756.61,364.16c-.42,4.45-3.89,7.76-7.77,7.39s-6.67-4.26-6.25-8.71,3.89-7.76,7.76-7.4S757,359.71,756.61,364.16Z" transform="translate(-565.78 -308.64)"/><path class="cls-9" d="M750.39,355.45a5.48,5.48,0,0,0-.81,0c3.45.78,5.85,4.44,5.46,8.58s-3.42,7.29-7,7.42a7,7,0,0,0,.8.13c3.87.36,7.35-2.95,7.77-7.4S754.26,355.81,750.39,355.45Z" transform="translate(-565.78 -308.64)"/><path class="cls-10" d="M755,366.59a5.2,5.2,0,1,1-4.69-5.66A5.2,5.2,0,0,1,755,366.59Z" transform="translate(-565.78 -308.64)"/><path d="M753.41,367.66a3.14,3.14,0,1,1-2.83-3.42A3.14,3.14,0,0,1,753.41,367.66Z" transform="translate(-565.78 -308.64)"/><path class="cls-11" d="M754.72,361.64a1.65,1.65,0,0,0-1.61-1.34,1.76,1.76,0,0,0-1.5,1,1.46,1.46,0,0,0,.42,1.95,1.78,1.78,0,0,0,1.87.16A1.65,1.65,0,0,0,754.72,361.64Z" transform="translate(-565.78 -308.64)"/><path class="cls-11" d="M752.47,364.48a.89.89,0,0,0-.08-.17h0a.62.62,0,0,0-.15-.29v0a.88.88,0,0,0-1.49.24s0,0,0,0a1.83,1.83,0,0,0-.06.25,1,1,0,0,0,.15.58,1,1,0,0,0,.51.43,1,1,0,0,0,.48.05.91.91,0,0,0,.55-.35A.87.87,0,0,0,752.47,364.48Z" transform="translate(-565.78 -308.64)"/><path class="cls-11" d="M747.41,357.58c-.72-.36-1.51.14-2,.64s-1,1.26-.56,1.87a.29.29,0,0,0,.23.08c.51-.11.86-.71,1.21-1.06s1-.65,1.29-1.15A.26.26,0,0,0,747.41,357.58Z" transform="translate(-565.78 -308.64)"/><path d="M755.65,358.67c-.82-2.3-3.67-3.42-5.95-3.33a7.08,7.08,0,0,0-6,3.58c0,.07.06.13.12.09,1.69-1.5,3.45-2.85,5.81-3s4.15,1.14,5.66,2.83A.19.19,0,0,0,755.65,358.67Z" transform="translate(-565.78 -308.64)"/><path class="cls-12" d="M745.26,364.09a5.76,5.76,0,0,0-.32,1.59c0,.74,1.11.85,1.15.11a4.34,4.34,0,0,1,.25-1.29C746.58,363.8,745.5,363.39,745.26,364.09Z" transform="translate(-565.78 -308.64)"/><path class="cls-12" d="M746.25,367.38l-.2-.56a.59.59,0,0,0-.77-.28.61.61,0,0,0-.28.77c.07.18.14.37.2.55a.58.58,0,0,0,.77.28A.58.58,0,0,0,746.25,367.38Z" transform="translate(-565.78 -308.64)"/><path class="cls-12" d="M754.53,365.3l-.11-.45a.66.66,0,0,0-.23-.36.54.54,0,0,0-.44-.1.59.59,0,0,0-.47.67l.11.44a.62.62,0,0,0,.24.37.55.55,0,0,0,.43.1A.58.58,0,0,0,754.53,365.3Z" transform="translate(-565.78 -308.64)"/><ellipse class="cls-8" cx="720.31" cy="360.75" rx="8.09" ry="7.04" transform="translate(-271.88 735.61) rotate(-84.65)"/><path class="cls-9" d="M721.1,352.7a7.3,7.3,0,0,0-.81,0c3.45.79,5.85,4.45,5.46,8.58s-3.42,7.29-7,7.42a5.34,5.34,0,0,0,.8.13c3.88.37,7.35-2.95,7.77-7.4S725,353.07,721.1,352.7Z" transform="translate(-565.78 -308.64)"/><path class="cls-10" d="M725.7,363.85a5.2,5.2,0,1,1-4.69-5.67A5.21,5.21,0,0,1,725.7,363.85Z" transform="translate(-565.78 -308.64)"/><path d="M724.13,364.92a3.15,3.15,0,1,1-2.84-3.43A3.16,3.16,0,0,1,724.13,364.92Z" transform="translate(-565.78 -308.64)"/><path class="cls-11" d="M725.43,358.9a1.65,1.65,0,0,0-1.61-1.34,1.73,1.73,0,0,0-1.5,1,1.46,1.46,0,0,0,.42,2,1.8,1.8,0,0,0,1.87.16A1.65,1.65,0,0,0,725.43,358.9Z" transform="translate(-565.78 -308.64)"/><path class="cls-11" d="M723.18,361.74a1.42,1.42,0,0,0-.08-.18h0a.58.58,0,0,0-.15-.29v0a.86.86,0,0,0-.83-.3.9.9,0,0,0-.66.55v0a2.27,2.27,0,0,0-.06.25,1,1,0,0,0,.15.59,1,1,0,0,0,.51.42.87.87,0,0,0,.48.05.88.88,0,0,0,.55-.34A.84.84,0,0,0,723.18,361.74Z" transform="translate(-565.78 -308.64)"/><path class="cls-11" d="M718.12,354.83c-.72-.35-1.51.15-2,.64s-1,1.27-.57,1.87a.24.24,0,0,0,.24.08c.51-.11.86-.7,1.2-1.05s1-.66,1.29-1.16A.26.26,0,0,0,718.12,354.83Z" transform="translate(-565.78 -308.64)"/><path d="M726.36,355.93c-.81-2.3-3.67-3.43-6-3.34a7.11,7.11,0,0,0-5.95,3.59c0,.06.07.13.12.08,1.7-1.49,3.45-2.85,5.81-3s4.15,1.14,5.66,2.82A.18.18,0,0,0,726.36,355.93Z" transform="translate(-565.78 -308.64)"/><path class="cls-12" d="M716,361.34a5.83,5.83,0,0,0-.32,1.6c0,.74,1.11.85,1.15.1a4.83,4.83,0,0,1,.25-1.29C717.29,361.05,716.21,360.64,716,361.34Z" transform="translate(-565.78 -308.64)"/><path class="cls-12" d="M717,364.63l-.2-.55a.57.57,0,0,0-.76-.28.58.58,0,0,0-.28.76l.19.56a.58.58,0,1,0,1.05-.49Z" transform="translate(-565.78 -308.64)"/><path class="cls-12" d="M725.24,362.56c0-.15-.07-.3-.11-.45a.56.56,0,0,0-.23-.37.63.63,0,0,0-.44-.1.58.58,0,0,0-.46.67l.11.45a.56.56,0,0,0,.23.37.57.57,0,0,0,.9-.57Z" transform="translate(-565.78 -308.64)"/><path class="cls-7" d="M736.4,376.78a5.46,5.46,0,0,0,2.38-1.92c1.07-1.56,1.15-4.36-.41-5.66a.19.19,0,0,0-.3.2,6.69,6.69,0,0,1,.33,2.55,5,5,0,0,1-.86,2.16,4.08,4.08,0,0,1-1.8,1.35c-.55.21-1.49.3-1.85.8a.3.3,0,0,0,0,.35C734.34,377.41,735.72,377.07,736.4,376.78Z" transform="translate(-565.78 -308.64)"/><path class="cls-7" d="M729.29,390.93a2.14,2.14,0,0,0-2.08.45c-.24.21.07.61.34.44a1.63,1.63,0,0,1,1.53-.11c.49.18.69.67,1.12.87a.23.23,0,0,0,.33-.13C730.8,391.77,729.83,391.11,729.29,390.93Z" transform="translate(-565.78 -308.64)"/><path class="cls-7" d="M743,386.77a30.51,30.51,0,0,1-12.74,1.13,24.07,24.07,0,0,1-11-3.92,11.24,11.24,0,0,1-3.73-4.39c.33-.09.67-.16,1-.27a.5.5,0,0,0,.36-.36.5.5,0,0,0,0-.27.53.53,0,0,0-.49-.38,4.61,4.61,0,0,0-4,2.44c-.05.15.13.24.24.19.63-.27,1.17-.72,1.8-1l0,0c1.56,3.44,4.68,5.71,8.11,7.12a28.69,28.69,0,0,0,13.08,2,22.84,22.84,0,0,0,3.76-.61,14.71,14.71,0,0,0,3.57-1.48A.12.12,0,0,0,743,386.77Z" transform="translate(-565.78 -308.64)"/><path class="cls-13" d="M715.7,346.73a15.38,15.38,0,0,1,6.28-1.18.87.87,0,0,0,0-1.74,16.74,16.74,0,0,0-6.74,1.24C714.22,345.47,714.66,347.16,715.7,346.73Z" transform="translate(-565.78 -308.64)"/><path class="cls-13" d="M757.76,351a5.32,5.32,0,0,0-5-3.66.87.87,0,0,0,0,1.74,3.53,3.53,0,0,1,3.27,2.38C756.43,352.54,758.11,352.08,757.76,351Z" transform="translate(-565.78 -308.64)"/><path class="cls-6" d="M700.83,324.67a.1.1,0,0,0-.16-.13,26.2,26.2,0,0,0-3.86,5.44,32.8,32.8,0,0,0-2.39,6.27A29.56,29.56,0,0,0,694,350a9.63,9.63,0,0,0,1.34,3.7c.61.85,1.64,2.27,2.83,2a.6.6,0,0,0,.43-.43c.14-.87-.58-1.79-.81-2.64s-.59-1.9-.83-2.87a28.53,28.53,0,0,1-.82-6.17,33.89,33.89,0,0,1,1.7-12.28A36.66,36.66,0,0,1,700.83,324.67Z" transform="translate(-565.78 -308.64)"/><path class="cls-6" d="M694.29,369.22c-.17-.49-.61-.65-1-.93l-1.23-.82a11.85,11.85,0,0,1-2.31-2.11,10.53,10.53,0,0,1-1.72-2.64c-.32-.7-.49-2-1.18-2.41a.12.12,0,0,0-.15,0c-.64.68-.12,2.15.14,2.9a11.9,11.9,0,0,0,1.61,3.13,11.12,11.12,0,0,0,2.5,2.39c.73.51,2.26,1.48,3.15,1A.44.44,0,0,0,694.29,369.22Z" transform="translate(-565.78 -308.64)"/><path class="cls-13" d="M745.77,326.71a10.66,10.66,0,0,0-2.59-2.33c-.94-.59-1.91-1.13-2.87-1.67a63.67,63.67,0,0,1-5.73-3.16,10.55,10.55,0,0,1-3.81-4.53,6.82,6.82,0,0,1-.55-2.67,12.34,12.34,0,0,0,.19-2.76.31.31,0,0,0-.36-.2c-1,.24-1.41,1.37-1.67,2.28a7.93,7.93,0,0,0-.08,3.43A10.11,10.11,0,0,0,732,321a23.81,23.81,0,0,0,6.4,3.67c1.18.47,2.4.85,3.57,1.33.55.22,1.07.5,1.62.7s1.24.39,1.84.64C745.79,327.48,746,327,745.77,326.71Z" transform="translate(-565.78 -308.64)"/><path class="cls-13" d="M750.72,322.06a7.49,7.49,0,0,0-3.4-3.3c-1.59-.93-3.32-1.67-5-2.49-1.44-.72-3-1.36-4.36-2.17a10.09,10.09,0,0,1-1.64-1.19,3.62,3.62,0,0,1-1.33-1.74.08.08,0,0,0-.16,0,5.16,5.16,0,0,0,.15,1.92,4.41,4.41,0,0,0,1.17,1.66,16.81,16.81,0,0,0,4,2.63c3.32,1.73,6.61,3.53,9.94,5.22A.41.41,0,0,0,750.72,322.06Z" transform="translate(-565.78 -308.64)"/><path class="cls-13" d="M746.85,314.71a8.87,8.87,0,0,0-2.62-1.33c-.9-.41-1.77-.8-2.68-1.17-.12,0-.21.13-.12.21a10.71,10.71,0,0,0,2.46,1.81,5.57,5.57,0,0,0,2.74,1A.31.31,0,0,0,746.85,314.71Z" transform="translate(-565.78 -308.64)"/><path class="cls-13" d="M732.47,327.44a38.22,38.22,0,0,1-4.78-3.19,9.49,9.49,0,0,1-3.05-3.85,9.16,9.16,0,0,1-.58-5,9,9,0,0,1,.81-2.48,10.57,10.57,0,0,1,.73-1.32,2.89,2.89,0,0,0,.53-.91.2.2,0,0,0-.22-.24c-.8.18-1.57,1.21-2,1.85A10,10,0,0,0,722.6,315a9.68,9.68,0,0,0,3.54,10.73c1.87,1.32,4.06,1.57,6.25,2A.14.14,0,0,0,732.47,327.44Z" transform="translate(-565.78 -308.64)"/><path class="cls-13" d="M720.56,311.51a.15.15,0,0,0-.12-.12c-1.09-.23-2.1,1.66-2.53,2.43-.62,1.1-1.31,2.66-.85,3.94a.33.33,0,0,0,.6.08c.66-1,.82-2.39,1.38-3.5a9.57,9.57,0,0,1,1-1.6A1.65,1.65,0,0,0,720.56,311.51Z" transform="translate(-565.78 -308.64)"/><path class="cls-3" d="M729.9,440.07c2.49,3.38,7,5.31,11.37,5.58,1.73.11,4.2.25,5.77-.44,3.08-1.37-.23-2.66-2.3-2.61a5.82,5.82,0,0,1,5.09-.22,43,43,0,0,0,4.82,1.57c1.3.29,3.9,1.22,4.19-.66.23-1.43-2.86-4.17-3.75-5.1-5.58-5.81-13.72-4.39-20.26-.75-1.34.74-4.32,2.38-3.27,4.36.72,1.36,4.54,1.39,5.84,1.27Z" transform="translate(-565.78 -308.64)"/><path class="cls-3" d="M729.79,440.14c1.91,3.31,6.08,5.15,9.7,5.74a20.9,20.9,0,0,0,6,.2c1-.13,3.58-.71,3.28-2.23s-2.85-1.74-4-1.74l.13,1a6.14,6.14,0,0,1,3.67-.54c1.34.3,2.62.92,3.93,1.35,1,.34,2.07.61,3.13.85a5.15,5.15,0,0,0,2.37.17,1.8,1.8,0,0,0,1.4-1.47,3,3,0,0,0-.65-2.06,27.34,27.34,0,0,0-3.46-3.83,13.92,13.92,0,0,0-12-3.73,23.77,23.77,0,0,0-6.4,1.87,17.52,17.52,0,0,0-5,2.94,3.25,3.25,0,0,0-1.22,2.49,2.32,2.32,0,0,0,1.42,2,8,8,0,0,0,5.38.2c.27-.07.19-.44-.07-.47a17.25,17.25,0,0,1-1.89-.29c-.73-.14-1.49-.21-2.21-.42-.55-.15-1.18-.38-1.27-1s.52-1.28,1-1.7a18.56,18.56,0,0,1,4.43-2.55,23.15,23.15,0,0,1,5.58-1.73,13,13,0,0,1,10.74,2.64,33.54,33.54,0,0,1,3.27,3.26c.6.68,2.25,2.81.3,2.89a8.25,8.25,0,0,1-2.31-.41,33,33,0,0,1-3.67-1.11,13.27,13.27,0,0,0-3.53-1,7.27,7.27,0,0,0-3.35.79c-.45.2-.21.92.25.91a5.49,5.49,0,0,1,2.47.46c.18.09.63.29.62.52s-.58.53-.8.64c-1.78.89-4.16.62-6.09.48a17.81,17.81,0,0,1-6.07-1.58A16.24,16.24,0,0,1,730,440a.13.13,0,0,0-.2.16Z" transform="translate(-565.78 -308.64)"/><path class="cls-4" d="M747.53,441.87a24.41,24.41,0,0,0-3.83-.28c-1.32-.11-2.61-.41-3.92-.55-.24,0-.27.3-.11.41a9,9,0,0,0,3.9,1.29,6.33,6.33,0,0,0,4-.47A.22.22,0,0,0,747.53,441.87Z" transform="translate(-565.78 -308.64)"/><path class="cls-4" d="M758.6,444.19a8.28,8.28,0,0,0-2.07-2.94,9.73,9.73,0,0,0-3-2.26.1.1,0,0,0-.12.16c.78.91,1.68,1.68,2.49,2.56a31.61,31.61,0,0,0,2.34,2.68C758.39,444.53,758.67,444.4,758.6,444.19Z" transform="translate(-565.78 -308.64)"/><path class="cls-4" d="M739.09,433.89a7.54,7.54,0,0,0-2.81,2.6,6.92,6.92,0,0,0-1.66,3.58.13.13,0,0,0,.23.09c.74-1,1.16-2.16,1.87-3.15A15.15,15.15,0,0,1,738,435.5a15,15,0,0,0,1.32-1.32C739.42,434.05,739.25,433.83,739.09,433.89Z" transform="translate(-565.78 -308.64)"/><path class="cls-4" d="M659.35,436a5.24,5.24,0,0,0-2.78,0,14.78,14.78,0,0,0-3,.92c-.45.19-.9.4-1.34.63.78-.72,1.58-1.42,2.39-2.08,1.25-1,2.69-1.78,3.9-2.83a.19.19,0,0,0-.18-.32,12.51,12.51,0,0,0-4.14,2.55,17,17,0,0,0-3.2,3.42,8.37,8.37,0,0,0-2.35,2.28c-.1.15.11.37.26.26a26,26,0,0,1,5-3.09,14.66,14.66,0,0,1,2.68-.77,12,12,0,0,0,2.75-.55A.23.23,0,0,0,659.35,436Z" transform="translate(-565.78 -308.64)"/><path class="cls-4" d="M591.19,436.6c-.07-.25-.49-.22-.47.06a7.53,7.53,0,0,1-.37,3.23,6.29,6.29,0,0,1-.73,1.41,9,9,0,0,0-1,1.35c-.09.19.05.46.29.39,1.07-.34,1.73-1.73,2.08-2.71A6.18,6.18,0,0,0,591.19,436.6Z" transform="translate(-565.78 -308.64)"/><path class="cls-4" d="M628.25,433.65a17.08,17.08,0,0,0-2.56-2.54,11,11,0,0,0-2.89-1.71c-.08,0-.15.09-.09.15a29.78,29.78,0,0,1,4.78,4.61,54.14,54.14,0,0,1,3.38,5.73c.09.16.38.11.36-.09A11.81,11.81,0,0,0,628.25,433.65Z" transform="translate(-565.78 -308.64)"/><path class="cls-6" d="M724.12,395.59c-4.81-1.25-9.83-2.74-14-5.44a20.21,20.21,0,0,1-5.43-5,25,25,0,0,1-3.53-7.2c-.48-1.48-.86-3-1.24-4.5a28.79,28.79,0,0,0-1.26-4.28c-.09-.22-.41-.09-.42.11a27.28,27.28,0,0,0,1.42,8.33,26.82,26.82,0,0,0,3.41,7.65,24.29,24.29,0,0,0,12.34,9,35,35,0,0,0,8.72,1.69A.16.16,0,0,0,724.12,395.59Z" transform="translate(-565.78 -308.64)"/><path class="cls-6" d="M721.8,413.37c-.6-.13-1.19-.25-1.79-.35-1.22-.2-2.44-.35-3.65-.57a41.75,41.75,0,0,1-6.87-1.86,33,33,0,0,1-11.7-7.31,32.61,32.61,0,0,1-2.48-2.78c-.44-.54-.85-1.1-1.25-1.67s-.9-1-1.3-1.56c-.09-.12-.33-.06-.27.12.18.54.28,1.09.51,1.61a12.56,12.56,0,0,0,.85,1.52,23.08,23.08,0,0,0,2.1,2.81,28.94,28.94,0,0,0,5.24,4.71,36.73,36.73,0,0,0,13.59,5.73,40.45,40.45,0,0,0,4.25.69,14.69,14.69,0,0,0,2.1.07,7.07,7.07,0,0,0,2.06-.2c.25-.09.37-.47.08-.61A6.06,6.06,0,0,0,721.8,413.37Z" transform="translate(-565.78 -308.64)"/><path class="cls-6" d="M648.32,436.61c-.7-1-1.52-1.95-2.27-2.93s-1.41-2-2.08-3a36.9,36.9,0,0,1-3.49-6.53,26.76,26.76,0,0,1-1.65-14.45,24.62,24.62,0,0,1,1-4,33.4,33.4,0,0,1,1.6-4c.08-.16-.13-.35-.26-.2a15.85,15.85,0,0,0-2.11,3.08,23.26,23.26,0,0,0-1.34,3.6,23.63,23.63,0,0,0-.77,7.67,29.19,29.19,0,0,0,5.12,14.69A23.86,23.86,0,0,0,648,437C648.18,437.09,648.45,436.81,648.32,436.61Z" transform="translate(-565.78 -308.64)"/><path class="cls-6" d="M691.41,379.05a22.57,22.57,0,0,0-3.66,1.55,21.93,21.93,0,0,1-4.08,1.35,23.25,23.25,0,0,1-4.15.55c-.68,0-1.37,0-2.06.05l-1,0a6.63,6.63,0,0,0-1,.18.09.09,0,0,0,0,.17,4.24,4.24,0,0,0,.9.46,6.12,6.12,0,0,0,1.05.22,13.25,13.25,0,0,0,2.08.16,20.7,20.7,0,0,0,4.51-.49,21.3,21.3,0,0,0,4.21-1.35,8.41,8.41,0,0,0,3.5-2.45C691.9,379.26,691.64,379,691.41,379.05Z" transform="translate(-565.78 -308.64)"/><path class="cls-6" d="M696.4,374.79c-.59.5-1.18,1-1.75,1.51a10.73,10.73,0,0,0-1.56,1.45c-.13.17.08.36.24.32a4.26,4.26,0,0,0,1.9-1.2,5.44,5.44,0,0,0,1.35-1.94A.12.12,0,0,0,696.4,374.79Z" transform="translate(-565.78 -308.64)"/><path class="cls-3" d="M652.68,456.11c-12.82.2-21,1.32-22.08-2.69-1.92-7.21,10.39-6.21,19.17-13.67,7.67-6.52,22.34-1,23.54,5.08S673.61,455.77,652.68,456.11Z" transform="translate(-565.78 -308.64)"/><path class="cls-3" d="M654.12,453c-2.49-2.95-19.79-5-19.87-5l-.28-.15-.06-.05-.18-.17a1.43,1.43,0,0,1-.27-.35c-.3-.47-.36-1-.66-1.49-1.81-2.84-2.38-3.25-3.87-3.64a4.34,4.34,0,0,0-4.9,1.85,20.6,20.6,0,0,0-1.28,2.41,14,14,0,0,1-1.79,2.76,13,13,0,0,1-4.81,3.61c-1.73.78-4.24,1.89-4.17,4.15a1.4,1.4,0,0,0,1,1.34c5.12,1,10.25,0,15.38-.26,5.42-.31,22.12-1.8,25.06-2.38A1.56,1.56,0,0,0,654.12,453Zm-20.24-5.28Z" transform="translate(-565.78 -308.64)"/><path class="cls-6" d="M631.64,444.5a6.8,6.8,0,0,0-.32-.81,2.55,2.55,0,0,0-.67-.64,6.36,6.36,0,0,0-1.41-.75,4.07,4.07,0,0,0-3.14.13c-1.71.83-2.54,2.78-3.44,4.43a14,14,0,0,1-4.09,4.74,19.89,19.89,0,0,1-2.64,1.53c-.47.25-.95.47-1.41.75a5.61,5.61,0,0,0-1.16,1c-.08.09,0,.25.12.18a11.06,11.06,0,0,1,2.93-.9,10.16,10.16,0,0,0,2.49-1.08,14.8,14.8,0,0,0,4.23-3.71c1.07-1.38,1.74-3.19,3-4.4a2.07,2.07,0,0,1,2.11-.61,7.54,7.54,0,0,1,1.43.62,2.53,2.53,0,0,0,.72.31c.27.06.54,0,.8,0S631.82,444.84,631.64,444.5Z" transform="translate(-565.78 -308.64)"/><path class="cls-4" d="M633.51,447.44c-.11-.36-.73-.31-.68.09a8.12,8.12,0,0,1-.11,3,15.55,15.55,0,0,1-1.15,2.8c-.07.15.09.4.27.27C633.6,452.23,634.1,449.49,633.51,447.44Z" transform="translate(-565.78 -308.64)"/><path class="cls-6" d="M661.66,437.65a11,11,0,0,0-4.8-.21,13.55,13.55,0,0,0-8.5,5.16c-.08.11.07.22.17.17,2.71-1.4,5.23-3.21,8.29-3.75a10,10,0,0,1,4.19.14,7.88,7.88,0,0,1,1.89.73c.57.32,1.18.88,1.86.83a.48.48,0,0,0,.48-.48C665.17,438.77,662.83,438,661.66,437.65Z" transform="translate(-565.78 -308.64)"/><path class="cls-6" d="M618.88,428.79a9.11,9.11,0,0,0-5,.27,52.56,52.56,0,0,0-5.32,2.24c-.89.38-1.8.75-2.69,1.15a17.58,17.58,0,0,0-2.87,1.37s0,.08,0,.07a11.64,11.64,0,0,0,2.48-.52c.91-.24,1.8-.52,2.69-.81,1.66-.55,3.29-1.22,5-1.75a10.37,10.37,0,0,1,4.71-.63,6,6,0,0,1,2,.71,8.41,8.41,0,0,0,1.68.93.34.34,0,0,0,.42-.33C622,430,620.06,429.1,618.88,428.79Z" transform="translate(-565.78 -308.64)"/><path class="cls-6" d="M626.83,413.28a18,18,0,0,0-3.47,6.29c-.71,2.08-1.34,4.7-.27,6.78a.31.31,0,0,0,.55-.08c.14-1,.16-2.1.27-3.14a15.22,15.22,0,0,1,.74-3.34c.72-2.15,1.89-4.15,2.48-6.34A.18.18,0,0,0,626.83,413.28Z" transform="translate(-565.78 -308.64)"/><path class="cls-6" d="M658.65,430.27a12.9,12.9,0,0,0-4,2.54c-1.12,1-2.52,2.19-3,3.67a.22.22,0,0,0,.32.25,23.2,23.2,0,0,0,3.28-3.15c1.15-1.07,2.35-2.08,3.47-3.19A.07.07,0,0,0,658.65,430.27Z" transform="translate(-565.78 -308.64)"/><path class="cls-6" d="M661.79,435a4.55,4.55,0,0,0-4.66,0c-.19.1-.06.35.13.32a10,10,0,0,1,2.18-.18,17.29,17.29,0,0,1,2.13.38A.29.29,0,0,0,661.79,435Z" transform="translate(-565.78 -308.64)"/><path class="cls-14" d="M767.86,406.51l1.86,11.17a1,1,0,0,0,2-.33l-1.86-11.17a1,1,0,0,0-2,.33Z" transform="translate(-565.78 -308.64)"/><g class="cls-15"><path class="cls-16" d="M768.15,406.72,770,417.89c.21,1.28,1.37,1.09,1.16-.2l-1.86-11.16c-.21-1.28-1.37-1.09-1.16.19Z" transform="translate(-565.78 -308.64)"/></g><path class="cls-17" d="M790.51,428a22,22,0,0,1-11.33-5.54c-2.22-2-3.78-4.53-5.58-6.86a.49.49,0,0,0-.47-.17l-2.77.43h-.05l-2.77.44a.51.51,0,0,0-.4.32c-1,2.76-1.68,5.68-3.18,8.23a22,22,0,0,1-9.06,8.78c-2.91,1.61-7.41,4.74-6.79,8.65.41,2.57,3,4.1,5.18,5a28.15,28.15,0,0,0,7.13,1.79c2.36.3,4.75.13,7.11.41a11,11,0,0,1,5.33,2.05,19.27,19.27,0,0,1,3.33,3.24.49.49,0,0,0,.3.17h0a.51.51,0,0,0,.24-.26,19.12,19.12,0,0,1,2.16-4.1,11.05,11.05,0,0,1,4.44-3.6c2.16-1,4.49-1.58,6.64-2.58a28.38,28.38,0,0,0,6.23-3.91c1.82-1.52,3.79-3.77,3.38-6.33C799,430.21,793.77,428.61,790.51,428Z" transform="translate(-565.78 -308.64)"/><path class="cls-18" d="M754.74,444.72c3.44.12,6.89.11,10.33,0a90.15,90.15,0,0,0,11.82-1.19,89,89,0,0,0,15.49-3.92,56.18,56.18,0,0,0,6.92-2.95,4.78,4.78,0,0,0,.34-2.52,10.2,10.2,0,0,1-1.06.63,59.08,59.08,0,0,1-7.05,3,85.32,85.32,0,0,1-14.6,3.69,87.53,87.53,0,0,1-11.54,1.23h-.83l-1.11,0-2.4,0c-1.71,0-3.43,0-5.14-.05s-3.17-.11-4.75-.24c-.64-.06-1.28-.12-1.91-.22-.27,0-.53-.08-.79-.13l-.34-.07c.24,0,.09,0,0,0l0,.2a4.54,4.54,0,0,0,.88,2l1,.12C751.56,444.59,753.15,444.67,754.74,444.72Z" transform="translate(-565.78 -308.64)"/><path class="cls-19" d="M755.59,441.58c2,0,4,.12,6,.16a38.07,38.07,0,0,0,6.31-.31c4.09-.6,8.19-1.24,12.27-1.95a69.79,69.79,0,0,0,12-3,30.32,30.32,0,0,0,6.93-3.8,5.71,5.71,0,0,0-1.23-1.59,29.82,29.82,0,0,1-5.46,3.13,36.86,36.86,0,0,1-5.43,1.73c-2,.51-4,.94-6.07,1.31-4.05.75-8.13,1.3-12.19,2a34.85,34.85,0,0,1-5.94.5c-2,0-4.07-.14-6.1-.18s-4.24.35-6.14-.17c-.59-.16-1.17-.39-1.75-.6a5.83,5.83,0,0,0-.72,1.85c.54.21,1.08.43,1.63.6A18.63,18.63,0,0,0,755.59,441.58Z" transform="translate(-565.78 -308.64)"/><path class="cls-20" d="M770.41,438.32q5.79-.85,11.48-2.19c3.25-.75,6.5-1.58,9.67-2.63a28.51,28.51,0,0,0,4.44-1.81,14,14,0,0,0,1.53-.91,10.58,10.58,0,0,0-1.89-1.18l-.39.21a25.93,25.93,0,0,1-3.8,1.61c-2.83,1-5.9,1.77-8.93,2.5q-5.55,1.33-11.21,2.23a75.69,75.69,0,0,1-10.73,1,64.11,64.11,0,0,1-9.79-.7,11.21,11.21,0,0,0-1.6,1.79,65.11,65.11,0,0,0,10.14.91A72.07,72.07,0,0,0,770.41,438.32Z" transform="translate(-565.78 -308.64)"/><path class="cls-21" d="M755.09,435.8c.81.15,1.51-.49,2-1s1.11-1.31,1.75-1.34,1.21.72,1.6,1.15a4.54,4.54,0,0,0,1.69,1.45,2,2,0,0,0,2.15-1c.56-.76.77-2.21,2-2.13a2.56,2.56,0,0,1,1.36.81,5.33,5.33,0,0,0,1.63,1,1.63,1.63,0,0,0,1.68-.28,2.8,2.8,0,0,0,.73-1.55c.08-.41.1-.89.54-1.06a.93.93,0,0,1,.76.18c.75.43,1.36,1.06,2.13,1.46a1.62,1.62,0,0,0,2.12-.32,4.19,4.19,0,0,0,.68-1.41c.16-.48.32-.81.85-.91a1.53,1.53,0,0,1,1.36.58,3.48,3.48,0,0,0,1.43.85,2,2,0,0,0,2.71-1.39c.08-.41-.06-1,.19-1.35.36-.53,1.18-.33,1.67-.16s1.17.46,1.74.71a2.36,2.36,0,0,0,1.72.28,1.33,1.33,0,0,0,.73-1.3,8.24,8.24,0,0,1,.15-1.08l-1-.2c0,.18-.07.35-.1.52a5.59,5.59,0,0,0-.09.7c0,.19,0,.4-.19.43a1.57,1.57,0,0,1-.75-.23l-.81-.34c-1.16-.48-2.73-1.19-3.79-.09a2,2,0,0,0-.45,1.43c0,.49-.09,1-.64,1.16-1.2.3-1.87-.9-2.79-1.36a2.08,2.08,0,0,0-2.8,1.05,6.66,6.66,0,0,1-.58,1.4.52.52,0,0,1-.58.28c-.76-.15-1.42-.9-2-1.33a2.08,2.08,0,0,0-2.36-.34,2,2,0,0,0-.78,1.32c-.09.44-.13,1.19-.6,1.41s-1.21-.32-1.58-.59a11.51,11.51,0,0,0-1.38-1,2.23,2.23,0,0,0-3,.92c-.36.61-.77,2-1.57,2.05a.45.45,0,0,1-.27-.06,2.72,2.72,0,0,1-.34-.24,7.46,7.46,0,0,1-.78-.81,4.51,4.51,0,0,0-1.89-1.49,2.26,2.26,0,0,0-2.18.77c-.52.47-1.14,1.31-1.79,1.5a.32.32,0,0,1-.27,0,1,1,0,0,1-.37-.38,1.91,1.91,0,0,1-.22-.62l-.86.51a2.14,2.14,0,0,0,.31.76A1.66,1.66,0,0,0,755.09,435.8Z" transform="translate(-565.78 -308.64)"/><path class="cls-22" d="M771,447.54a81.76,81.76,0,0,0,10.89-1.86q2.7-.66,5.37-1.5c1.77-.57,3.5-1.24,5.25-1.85l2.38-.83q.69-.5,1.35-1.05a12.27,12.27,0,0,0,2.51-2.75l-1.06.52a49,49,0,0,1-5,1.93c-1.73.6-3.45,1.27-5.19,1.85s-3.31,1-5,1.46a81,81,0,0,1-10.71,2,76.06,76.06,0,0,1-10.67.44c-3.68-.1-7.34-.34-11-.41a12.27,12.27,0,0,0,3.18,1.79c.3.13.61.24.92.35,1.89.08,3.77.18,5.66.24A81.21,81.21,0,0,0,771,447.54Z" transform="translate(-565.78 -308.64)"/><path class="cls-23" d="M753,435.44l-.11-.06a.46.46,0,0,0-.26,0h-.09a.3.3,0,0,0-.18.08.44.44,0,0,0-.15.12.45.45,0,0,0-.07.18.34.34,0,0,0,0,.2l0,.13a.45.45,0,0,0,.16.2l.11.06a.5.5,0,0,0,.27,0h.08a.36.36,0,0,0,.18-.07.47.47,0,0,0,.15-.13.45.45,0,0,0,.07-.18.27.27,0,0,0,0-.2l0-.13A.65.65,0,0,0,753,435.44Z" transform="translate(-565.78 -308.64)"/><path class="cls-23" d="M758.61,435.84a.5.5,0,0,0,.17,1A.5.5,0,0,0,758.61,435.84Z" transform="translate(-565.78 -308.64)"/><path class="cls-23" d="M766.6,436.14a.51.51,0,0,0-.17-1A.51.51,0,0,0,766.6,436.14Z" transform="translate(-565.78 -308.64)"/><path class="cls-23" d="M773.05,435.5a.51.51,0,0,0-.16-1A.51.51,0,0,0,773.05,435.5Z" transform="translate(-565.78 -308.64)"/><path class="cls-23" d="M779.46,433.68l.12.06a.57.57,0,0,0,.26,0l.08,0a.44.44,0,0,0,.19-.07.43.43,0,0,0,.14-.13.29.29,0,0,0,.07-.18.34.34,0,0,0,0-.2l0-.13a.52.52,0,0,0-.17-.19l-.11-.06a.39.39,0,0,0-.26,0h-.09a.37.37,0,0,0-.18.08.29.29,0,0,0-.14.13.3.3,0,0,0-.08.17.34.34,0,0,0,0,.2l0,.13A.53.53,0,0,0,779.46,433.68Z" transform="translate(-565.78 -308.64)"/><path class="cls-23" d="M786.74,432.19a.5.5,0,0,0-.17-1A.5.5,0,0,0,786.74,432.19Z" transform="translate(-565.78 -308.64)"/><path class="cls-23" d="M791.23,430.26l.12.06a.57.57,0,0,0,.26,0l.08,0a.44.44,0,0,0,.19-.07.43.43,0,0,0,.14-.13.29.29,0,0,0,.07-.18.34.34,0,0,0,0-.2l0-.13a.52.52,0,0,0-.17-.19l-.11-.06a.47.47,0,0,0-.26,0h-.09a.37.37,0,0,0-.18.08.29.29,0,0,0-.14.13.3.3,0,0,0-.08.17.34.34,0,0,0,0,.2l0,.13A.53.53,0,0,0,791.23,430.26Z" transform="translate(-565.78 -308.64)"/><path class="cls-21" d="M773.15,403.47c-.16-5.79-2.76-7.12-5.91-6.56s-5.13,2.69-3.3,8.19c1.34,4,3.81,6.32,5.8,6S773.27,407.73,773.15,403.47Z" transform="translate(-565.78 -308.64)"/><path class="cls-24" d="M769.74,411.07l-.24,0c1.49-.88,2.49-3.53,2.22-7.12-.42-5.65-3.07-6.93-6.18-6.38-.15,0-.28,0-.42.09a5.67,5.67,0,0,1,2.12-.78c3.15-.56,5.75.77,5.91,6.56C773.27,407.73,771.73,410.72,769.74,411.07Z" transform="translate(-565.78 -308.64)"/><g class="cls-25"><path class="cls-11" d="M767.93,409.86a5.21,5.21,0,0,1-1.26-1.43,13.61,13.61,0,0,1-1.19-2.35,9.9,9.9,0,0,1-.78-6.1c.4-1.45,2.06-.69,2.14.79.34,6.39,2.53,8.9,2.21,9.11a1,1,0,0,1-1.12,0Z" transform="translate(-565.78 -308.64)"/></g><path class="cls-26" d="M790.51,428a22,22,0,0,1-11.33-5.54c-2.22-2-3.78-4.53-5.58-6.86a.49.49,0,0,0-.47-.17l-2.77.43h-.05l-2.77.44-.12,0,.32-.05h0l2.78-.38a.52.52,0,0,1,.46.18c1.74,2.29,3.24,4.8,5.4,6.75,3.4,3.06,4.89,5.11,9.32,6.57,6.65,2.2,9,8.22.07,11.88-14.54,6-27.49,6.29-33.15,5.71l.62.26a28.15,28.15,0,0,0,7.13,1.79c2.36.3,4.75.13,7.11.41a11,11,0,0,1,5.33,2.05,19.27,19.27,0,0,1,3.33,3.24.49.49,0,0,0,.3.17h0a.51.51,0,0,0,.24-.26,19.12,19.12,0,0,1,2.16-4.1,11.05,11.05,0,0,1,4.44-3.6c2.16-1,4.49-1.58,6.64-2.58a28.38,28.38,0,0,0,6.23-3.91c1.82-1.52,3.79-3.77,3.38-6.33C799,430.21,793.77,428.61,790.51,428Z" transform="translate(-565.78 -308.64)"/><path class="cls-27" d="M768.45,417.67a.45.45,0,0,0-.09-.1c-.33-.26-.93-.5-.91.27.11,5.63-4.32,9.2-3.09,10.85.83,1.12,3.22,1.25,4.32.49,1.39-1,1.35-3,1.17-4.49C769.62,422.78,769.61,419.29,768.45,417.67Z" transform="translate(-565.78 -308.64)"/><path class="cls-27" d="M781.93,435.42a5.52,5.52,0,0,0-3.07-2.61c-7-3-14.67-1.8-21.55.69-3,1.08-9,3.32-7.62,7.75.62,2,3,3.07,4.89,3.68a18.17,18.17,0,0,0,7.14.87,47.29,47.29,0,0,0,11.73-2.26,27.64,27.64,0,0,0,5-2.33,10.22,10.22,0,0,0,2.93-2.4A3.27,3.27,0,0,0,781.93,435.42Z" transform="translate(-565.78 -308.64)"/><path class="cls-11" d="M767,424a6.11,6.11,0,0,1-.44,1.78,7.18,7.18,0,0,0-.56,1.55.5.5,0,0,0,1,.1,9.31,9.31,0,0,1,.58-1.54,6.86,6.86,0,0,0,.42-1.79C768.08,423.49,767.08,423.38,767,424Z" transform="translate(-565.78 -308.64)"/><path class="cls-11" d="M768.08,421.31a.52.52,0,0,0-.55.45,4,4,0,0,0-.07.48.84.84,0,0,1,0,.19s0,.08,0,.11a.51.51,0,0,0,.11.7.5.5,0,0,0,.7-.12,3.18,3.18,0,0,0,.33-1.25A.51.51,0,0,0,768.08,421.31Z" transform="translate(-565.78 -308.64)"/><path class="cls-28" d="M763.36,438c-1.48-1.16-4.58-1.15-6.34-.8a4,4,0,0,0-2,.71,1.68,1.68,0,0,0-.41,1.91,2.33,2.33,0,0,0,1.87,1.11,18.41,18.41,0,0,0,2.78,0,9.71,9.71,0,0,0,2.63-.31,3.18,3.18,0,0,0,1.68-.92A1.21,1.21,0,0,0,763.36,438Z" transform="translate(-565.78 -308.64)"/><path class="cls-3" d="M767.52,393.67a14.61,14.61,0,0,0-10,5.7,24.1,24.1,0,0,0-3.11,7.54A81.83,81.83,0,0,1,751.8,416a.59.59,0,0,0,0,.43c-.33.11-.65.22-1,.35a.17.17,0,0,0,0,.34c2.24.12,4.62-1,6.58-2a24,24,0,0,0,6-4.09,21.93,21.93,0,0,0,4.25-6.78,35.43,35.43,0,0,1,1.64-3.4c.41-.69.93-1.32,1.4-2,.81-1.15,2.06-2.73,1.2-4.18S768.91,393.46,767.52,393.67Z" transform="translate(-565.78 -308.64)"/><path class="cls-4" d="M754.17,407.78a5,5,0,0,0,.05,2.82c.21.76.54,2,1.3,2.35a.29.29,0,0,0,.43-.25,9,9,0,0,0-.79-2.35c-.23-.85-.33-1.72-.55-2.57A.23.23,0,0,0,754.17,407.78Z" transform="translate(-565.78 -308.64)"/><path class="cls-4" d="M771.48,396.06c-1.77-.15-3.43,1.06-4.53,2.33a12.79,12.79,0,0,0-1.73,2.68,8.11,8.11,0,0,0-1,3.07.2.2,0,0,0,.33.13,11,11,0,0,0,1.31-2.53,13.49,13.49,0,0,1,1.5-2.57,9.11,9.11,0,0,1,4.19-2.92A.1.1,0,0,0,771.48,396.06Z" transform="translate(-565.78 -308.64)"/><path class="cls-4" d="M770.23,395.45c-2.85-.17-6.87,1.13-7.74,4.19a.19.19,0,0,0,.35.15,6.52,6.52,0,0,1,3.35-2.86c1.33-.51,2.75-.68,4.08-1.18A.15.15,0,0,0,770.23,395.45Z" transform="translate(-565.78 -308.64)"/><path class="cls-6" d="M763.89,408.75a4.64,4.64,0,0,0-1.35,1.15,12.13,12.13,0,0,1-1.64,1.4c-.54.38-1.1.68-1.66,1-.14.08-1.56,1-1.58.47,0,0,0,0-.08,0-.25.34.14.63.45.73a3.22,3.22,0,0,0,2.14-.51,12.46,12.46,0,0,0,2.44-1.62c.67-.57,1.61-1.33,1.73-2.26A.31.31,0,0,0,763.89,408.75Z" transform="translate(-565.78 -308.64)"/></g></g></svg>